<?xml version="1.0" encoding="utf-8"?>
<!-- Generator: Adobe Illustrator 28.0.0, SVG Export Plug-In . SVG Version: 6.00 Build 0)  -->
<svg version="1.1" id="Layer_1" xmlns="http://www.w3.org/2000/svg" xmlns:xlink="http://www.w3.org/1999/xlink" x="0px" y="0px"
	 viewBox="0 0 100 100" style="enable-background:new 0 0 100 100;" xml:space="preserve">
<style type="text/css">
	.st0{fill:#1C4D94;}
</style>
<g id="HsBx2i.tif">
	<g>
		<path class="st0" d="M8.1,98.2c-2.8-0.4-5.1-2.6-5.7-5.4c-0.1-0.6-0.2-1.3-0.2-2c0-22.4,0-44.8,0-67.2c0-2.3,0.8-4.1,2.4-5.8
			c4.7-4.6,9.3-9.2,13.9-13.9c1.7-1.7,3.6-2.4,5.9-2.4c15.6,0,31.2,0,46.7,0c1.5,0,3,0.2,4.3,1c2.1,1.3,3.3,3.1,3.3,5.6
			c0.1,6.3,0,18.3,0,24.6c0,0.1,0,0.3,0,0.4c-0.1,0.8-0.5,1.2-1.2,1.2c-0.7,0-1.3-0.4-1.4-1.2c0-0.3,0-0.7,0-1c0-5.9,0-17.4,0-23.3
			c0-0.6-0.1-1.3-0.3-1.9c-0.5-1.7-2-2.7-3.8-2.8c-0.3,0-0.5,0-0.8,0c-15.6,0-31.3,0-46.9,0c-1.8,0-1.7-0.1-1.7,1.7
			c0,3.8,0,7.6,0,11.4c0,2.1-1.4,3.9-3.4,4.5c-0.5,0.2-1.1,0.2-1.7,0.2c-3.8,0-7.6,0-11.4,0c-0.4,0-0.8,0-1.3,0.1
			c-0.1,0.4-0.2,0.8-0.2,1.1c0,0.3,0,0.6,0,0.9c0,22,0,44,0,65.9c0,0.7,0,1.3,0.2,2c0.3,1.9,2,3.4,4,3.4c0.2,0,0.4,0,0.7,0
			c20.6,0,41.2,0,61.9,0c1,0,1.9-0.1,2.8-0.7c1.2-0.8,1.8-2,1.9-3.4c0-0.7,0-7.1,0-7.8c0.1-0.9,0.9-1.5,1.8-1.2
			c0.4,0.1,0.8,0.4,0.8,0.9c0,1.5,0.2,8.7-0.3,10.2c-1,2.6-2.8,4.2-5.5,4.5C71.4,98.4,9.7,98.4,8.1,98.2z M7,19.5
			c0.2,0,0.3,0.1,0.3,0.1c3.5,0,7,0,10.6,0c1.3,0,2.1-0.9,2.2-2.1c0-0.2,0-0.4,0-0.6c0-3.1,0-6.2,0-9.3c0-0.4,0.1-0.8-0.2-1
			C19.2,7,7.5,18.7,7,19.5z"/>
		<path class="st0" d="M87.3,72c0,0.4,0,0.8,0,1.2c0,3.8,0,7.6,0,11.4c0,0.6-0.1,1.2-0.4,1.7c-0.8,1.3-2.4,1.8-3.8,1.1
			c-1-0.5-2-1.2-2.9-1.7c-0.7-0.4-1.4-0.8-2-1.2c-0.5-0.3-0.9-0.3-1.4,0c-1.5,0.9-3,1.9-4.5,2.8c-1,0.6-2,0.7-3,0.2
			c-1.1-0.5-1.5-1.5-1.6-2.6c0-0.3,0-0.6,0-0.9c0-3.6,0-7.2,0-10.8c0-0.4,0-0.7,0-1.2c-0.4-0.1-0.7-0.2-1-0.3
			c-2.2-0.8-3.5-2.3-3.8-4.6c0-0.2-0.1-0.5-0.1-0.7c-0.1-1.2-0.8-1.9-1.9-2.4c-1-0.5-2-1-2.7-2c-1.3-2-1.4-4.1-0.2-6.2
			c0.8-1.3,0.8-2.5,0-3.7c-0.8-1.3-1-2.6-0.7-4.1c0.4-1.8,1.4-3.2,3.1-3.9c1.6-0.6,2.3-1.8,2.5-3.4c0.2-2.3,1.9-4.2,4.2-4.7
			c0.8-0.2,1.8-0.1,2.6,0c1.4,0.3,2.6,0,3.5-1.2c2-2.5,6.1-2.6,8.3-0.1c0.1,0.1,0.3,0.3,0.4,0.4c0.8,0.9,1.8,1.2,3,0.9
			c0.6-0.1,1.1-0.1,1.7-0.2c2.3-0.2,5.2,1.8,5.4,5c0.1,1.6,0.8,2.6,2.3,3.2c2.8,1.1,4.5,4.8,2.6,8c-0.8,1.3-0.8,2.6,0,3.9
			c1.8,2.8,0.5,6.7-2.6,7.9c-1.4,0.6-2.2,1.6-2.3,3.1c-0.2,2.3-1.5,3.9-3.6,4.7C88.1,71.8,87.8,71.9,87.3,72z M68.6,38.4
			c-1.7,0-2.9,1.1-3.1,2.6c-0.1,0.6-0.1,1.1-0.3,1.7c-0.5,1.7-1.6,2.9-3.3,3.6c-2,0.9-2.7,2.7-1.6,4.5c1.3,2.1,1.3,4.2,0,6.2
			c-1.2,1.8-0.1,3.9,1.5,4.5c0.6,0.2,1.2,0.6,1.7,1c1.3,1.1,1.9,2.6,2,4.2c0.2,1.7,1.7,2.9,3.4,2.6c0.3-0.1,0.7-0.1,1-0.2
			c1.4-0.3,2.6,0,3.8,0.8c0.5,0.4,1,0.9,1.5,1.3c0.4,0.3,0.7,0.7,1.2,0.9c1.2,0.6,2.5,0.2,3.5-1c0.9-1.1,2-1.7,3.3-2
			c0.9-0.2,1.8,0,2.6,0.1c1.1,0.3,2.1,0,2.8-0.8c0.6-0.6,0.8-1.3,0.9-2.1c0.2-2,1.2-3.6,3-4.5c0.3-0.2,0.6-0.3,0.9-0.4
			c1.1-0.5,1.6-1.4,1.7-2.5c0.1-0.8-0.2-1.4-0.6-2c-0.5-0.9-0.8-1.8-0.8-2.9c0-1.2,0.4-2.3,1-3.3c0.9-1.6,0.4-3.3-1.2-4.2
			c-0.3-0.2-0.7-0.3-1-0.5c-1-0.5-1.8-1.3-2.3-2.4c-0.4-0.7-0.5-1.5-0.6-2.3c-0.2-2.1-1.7-3.2-3.7-2.8c-0.1,0-0.2,0.1-0.4,0.1
			c-1.4,0.3-2.8,0.1-4-0.6c-0.6-0.4-1.2-0.9-1.6-1.4c-1.4-1.7-3.6-1.3-4.7,0.1c-1.5,1.8-3.5,2.4-5.8,1.9
			C69,38.5,68.7,38.4,68.6,38.4z M84.5,85.3c0.1-0.5,0.1-0.9,0.1-1.2c0-3.8,0-7.6,0-11.3c0-0.3-0.1-0.7-0.1-1
			c-1-0.2-1.5-0.1-2.1,0.4c-0.3,0.3-0.6,0.6-0.9,0.9c-2.3,2.3-5.8,2.3-8,0c-0.3-0.3-0.5-0.6-0.9-0.9c-0.6-0.5-1.3-0.8-2.1-0.5
			c-0.2,1.2-0.2,12.6,0.1,13.3c0.3-0.1,0.6-0.3,0.8-0.4c1.4-0.9,2.9-1.7,4.3-2.6c1.2-0.8,2.4-0.8,3.6,0c1.2,0.7,2.5,1.5,3.7,2.3
			C83.4,84.7,83.8,84.9,84.5,85.3z"/>
		<path class="st0" d="M49.1,11.4c4.8,0,9.5,0,14.3,0c0.8,0,1.6,0.2,2.2,0.7c0.8,0.6,1.2,1.5,1.2,2.5c0,1.5,0,3,0,4.5
			c-0.1,2-1.6,3-3.1,3c-6.6,0-13.2,0-19.8,0c-0.3,0-0.7-0.1-1-0.2c-0.4-0.2-0.6-0.9-0.5-1.3c0.1-0.5,0.5-0.9,1-1c0.3-0.1,0.7,0,1,0
			c6.1,0,12.2,0,18.3,0c1.4,0,1.5-0.1,1.5-1.5c0-1,0-2,0-2.9c0-0.9-0.2-1.1-1.1-1.1c-0.2,0-0.4,0-0.6,0c-8.9,0-17.8,0-26.7,0
			c-1.7,0-1.7,0-1.7,1.7c0,0.9,0,1.9,0,2.8c0,0.8,0.2,0.9,0.9,1c0.7,0,8.9,0,9.6,0c1,0.1,1.5,0.9,1.2,1.8c-0.2,0.5-0.5,0.7-1,0.7
			c-1,0-9.7,0.1-10.7,0c-1.3-0.1-2.5-1.3-2.5-2.7c-0.1-1.7-0.1-3.5,0-5.2c0.1-1.5,1.3-2.7,2.8-2.8c0.3,0,0.6,0,0.9,0
			C39.9,11.4,44.5,11.4,49.1,11.4z"/>
		<path class="st0" d="M32.4,36c5.8,0,11.5,0,17.3,0c0.3,0,0.6,0,0.9,0c0.7,0.1,1.2,0.7,1.1,1.3c0,0.6-0.5,1.2-1.1,1.2
			c-0.3,0-0.6,0-0.8,0c-11.7,0-23.3,0-35,0c-0.3,0-0.6,0-0.8,0c-0.7-0.1-1.1-0.6-1.1-1.3c0-0.7,0.4-1.2,1.1-1.2c0.3,0,0.6,0,0.9,0
			C20.8,36,26.6,36,32.4,36z"/>
		<path class="st0" d="M32.4,58.5c-5.8,0-11.5,0-17.3,0c-0.3,0-0.6,0-0.9,0c-0.7-0.1-1-0.4-1.2-0.9c-0.1-0.7,0.1-1.2,0.7-1.5
			c0.2-0.1,0.4-0.1,0.6-0.2c0.3,0,0.6,0,0.9,0c11.4,0,22.9,0,34.3,0c0.4,0,0.8,0,1.2,0.1c0.7,0.1,1.2,0.7,1.1,1.4
			c-0.1,0.7-0.5,1.1-1.3,1.1c-0.3,0-0.6,0-0.9,0C43.9,58.5,38.1,58.5,32.4,58.5z"/>
		<path class="st0" d="M32.3,46c5.8,0,11.5,0,17.3,0c0.3,0,0.7,0,1,0c0.7,0.1,1.1,0.5,1.2,1.1c0.1,0.6-0.3,1.2-1,1.4
			c-0.3,0.1-0.6,0.1-0.8,0.1c-11.8,0-23.5,0-35.3,0c-0.3,0-0.6,0-0.8-0.1c-0.7-0.2-1-0.7-1-1.4c0.1-0.7,0.5-1,1.2-1.1
			c0.3,0,0.6,0,0.9,0C20.8,46,26.6,46,32.3,46z"/>
		<path class="st0" d="M32.4,65.9c5.8,0,11.5,0,17.3,0c0.3,0,0.7,0,1,0c0.6,0.1,1.1,0.7,1.1,1.3c0,0.6-0.5,1.2-1.2,1.3
			c-0.3,0-0.6,0-0.8,0c-11.6,0-23.3,0-34.9,0c-0.3,0-0.6,0-0.9,0c-0.7-0.1-1-0.6-1-1.3c0-0.7,0.4-1.2,1-1.3c0.3-0.1,0.7,0,1,0
			C20.8,65.9,26.6,65.9,32.4,65.9z"/>
		<path class="st0" d="M23.2,83.1c-2.7,0-5.5,0-8.2,0c-0.3,0-0.6,0-0.8,0c-0.7-0.1-1.1-0.4-1.2-1c-0.1-0.7,0.2-1.3,0.9-1.5
			c0.3-0.1,0.6-0.1,0.9-0.1c5.7,0,11.4,0,17.1,0c0.3,0,0.5,0,0.8,0c0.7,0.1,1.1,0.7,1.1,1.3c0,0.7-0.4,1.1-1.2,1.2
			c-0.3,0-0.6,0-0.8,0C28.8,83.1,26,83.1,23.2,83.1z"/>
		<path class="st0" d="M65.7,53.9c-0.2-6.3,5.3-11.8,11.7-11.8c6.3,0,11.8,5,11.8,11.8c0,6.7-5.4,11.8-11.8,11.8
			C70.6,65.7,65.6,59.8,65.7,53.9z M86.6,53.9c0.1-5-4-9.2-9.1-9.1c-5.2,0-9.1,4.1-9.1,9.2c0,5.1,3.9,9.1,9.1,9.1
			C83,63,86.7,58.5,86.6,53.9z"/>
	</g>
</g>
</svg>
