<?xml version="1.0" encoding="utf-8"?>
<!-- Generator: Adobe Illustrator 28.0.0, SVG Export Plug-In . SVG Version: 6.00 Build 0)  -->
<svg version="1.1" id="Capa_1" xmlns="http://www.w3.org/2000/svg" xmlns:xlink="http://www.w3.org/1999/xlink" x="0px" y="0px"
	 viewBox="0 0 100 100" style="enable-background:new 0 0 100 100;" xml:space="preserve">
<style type="text/css">
	.st0{fill:#FFFFFF;}
</style>
<g id="nnfBFD.tif">
	<g>
		<path class="st0" d="M97.9,23.9c0,0.5,0,0.9,0,1.4c-0.1-0.1-0.1,0.1-0.1,0.1c0,0.7-0.2,1.4-0.4,2.1c-0.4,1.5-1.2,2.9-2.3,4
			C85.6,41,76,50.6,66.5,60.1C59.2,67.4,52,74.6,44.7,81.9c-1.5,1.5-3.2,2.4-5.3,2.8c-0.8,0.1-1.6,0.2-2.5,0.1c-1-0.1-2-0.4-3-0.7
			c-1.3-0.5-2.3-1.3-3.3-2.3C23,74,15.2,66.2,7.4,58.4c-1.1-1.1-2.2-2.1-3.1-3.2c-1.2-1.5-2-3.2-2-5.2c0-0.1,0-0.2-0.1-0.4
			c-0.1,0.3,0,0.6-0.1,0.8c0-0.8,0-1.7,0-2.5c0.1,0.2,0,0.5,0.1,0.8c0-0.2,0-0.3,0-0.5c-0.1-1.1,0.3-2.1,0.7-3.1
			c1.5-3.2,4.1-5,7.6-5.5c1.2-0.2,2.4,0,3.6,0.3c1.6,0.4,3,1.2,4.2,2.4c3.9,3.9,7.9,7.8,11.8,11.8c2.5,2.5,4.9,4.9,7.4,7.4
			c0.1,0.1,0.2,0.1,0.4,0c0.7-0.8,1.5-1.5,2.3-2.3c4.4-4.4,8.7-8.7,13.1-13.1c3.1-3.1,6.1-6.1,9.2-9.2c2.4-2.4,4.8-4.8,7.2-7.2
			c3.9-3.9,7.7-7.7,11.6-11.6c1.7-1.7,3.6-2.7,6-2.9c1.6-0.2,3.1,0,4.6,0.6c2.1,0.8,3.6,2.2,4.7,4.1c0.6,1,0.9,2.1,1.1,3.3
			c0.1,0.3,0,0.7,0.1,1C97.9,24.2,97.8,24,97.9,23.9z"/>
	</g>
</g>
</svg>
