<?xml version="1.0" encoding="utf-8"?>
<!-- Generator: Adobe Illustrator 28.0.0, SVG Export Plug-In . SVG Version: 6.00 Build 0)  -->
<svg version="1.1" id="Layer_1" xmlns="http://www.w3.org/2000/svg" xmlns:xlink="http://www.w3.org/1999/xlink" x="0px" y="0px"
	 viewBox="0 0 100 100" style="enable-background:new 0 0 100 100;" xml:space="preserve">
<style type="text/css">
	.st0{fill:#1C4D94;}
</style>
<g>
	<path class="st0" d="M91.9,77.6c-10.4,0-20.8,0-31.3,0c-0.3,0-0.6-0.1-0.8,0.1c0,0.5,0.9,4.9,1.3,5.8c0.6,1.2,1.5,2.2,2.7,3
		c0.3,0.2,2.2,1.1,4.4,1.1c2.3,0,3.8,0,4,0c1.5,0,3.6,0.9,3.7,4.5c0.1,4.7-3.9,5-4.9,5c-14,0-28,0-41.9,0c-0.6,0-1.2,0-1.9-0.3
		c-0.4-0.2-0.7-0.3-1.1-0.6c-0.5-0.3-0.8-0.7-1.1-1.1c-0.5-0.7-0.8-1.5-0.9-2.3c-0.1-1.2,0.2-2.3,0.9-3.3c0.9-1.1,2-1.8,3.5-1.9
		c0.6,0,1.1,0,1.7,0c0.7,0,1.5,0,2.2,0c0.7-0.1,1.4-0.2,2.1-0.4c0.7-0.2,1.9-0.7,2.5-1.2c1-0.9,1.8-1.9,2.2-3.2c0.4-1.1,1-4.7,1-5.2
		c-10.6,0-21.2,0-31.7,0c-0.8,0-6.3,0.6-6.8-4.2C1.6,73,1.1,10.8,1.4,8.5c0.1-0.4,0.3-5.6,6.3-5.6c28.1,0,56.3,0,84.4,0
		c0.5,0,6.2-0.3,6.4,4.8c0.1,0.4,0.4,54.1,0,65C98.4,78.1,92.9,77.6,91.9,77.6z M89.1,12.5c-26.1,0-52.1,0-78.1,0
		c-0.1,3.2-0.1,48.1,0.1,48.9c26,0,52,0,78,0C89.1,45.1,89.1,28.8,89.1,12.5z M4.5,64.5c0,2.2-0.2,4.3,0,6.7
		c0.1,1.2,0.1,2.9,1.8,2.9c0.5,0,86.8,0.4,87.1,0.3c2.2,0.1,2.4-1.8,2.2-2.8c-0.1-0.5,0-5.2,0-7.1H4.5z M95.6,61.4
		c0-0.4,0-49.9,0-52.4C95.6,6,93.3,6,92.4,6C64.2,6,36,6,7.7,6C4.5,5.9,4.5,8.3,4.5,9.2c0,17.1,0,51.9,0,52.2c1.2,0,2.3,0,3.4,0
		c0-0.3,0-33.7,0-50c0-0.2-0.1-2.1,2-2c26.7,0,53.4,0,80.2,0c0.2,0,2.1-0.1,2.1,1.9c0,16.4,0,49.8,0,50.1
		C93.3,61.4,94.4,61.4,95.6,61.4z M50.2,90.6c-7,0-13.9,0-20.9,0c-0.2,0-0.5,0-0.7,0c-1.1,0.2-1.8,1.4-1.3,2.3
		c0.4,0.8,1.1,1.1,1.9,1.1c13.9,0,27.7,0,41.6,0c0.3,0,0.6-0.1,1-0.2c1-0.3,1.5-1.6,0.8-2.5c-0.4-0.5-0.9-0.8-1.6-0.8
		C64.1,90.6,57.1,90.6,50.2,90.6z M56.8,77.7c-4.5,0-8.9,0-13.4,0c0,0.3-0.1,5.5-3.1,9.2c-0.2,0.2-0.3,0.4-0.1,0.6
		c6.6,0,13.2,0,19.7,0c0.1-0.3,0.1-0.4-0.1-0.6C57.4,83.9,56.6,78.5,56.8,77.7z"/>
	<path class="st0" d="M54.9,71h-9.8c-0.9,0-1.5-0.7-1.5-1.5v0c0-0.9,0.7-1.5,1.5-1.5h9.8c0.9,0,1.5,0.7,1.5,1.5v0
		C56.5,70.3,55.8,71,54.9,71z"/>
	<path class="st0" d="M82.2,49.1c-0.7-1-1.4-2-2.1-3c-0.9-1.2-0.9-1.3-0.9-2.9c0-4.2,0-12.9,0-13.1c-0.1-0.4-0.2-0.7-0.6-0.9
		C78.1,29,51.6,16.5,50.4,16c-0.3-0.1-0.5-0.1-0.8,0c-0.6,0.3-26.6,12.6-27.6,12.9c-0.3,0.1-0.6,0.4-0.8,0.6
		c-0.3,0.3-0.4,0.7-0.4,1.2c0,0.4,0.3,0.5,0.5,0.8c0.2,0.3,5.7,2.9,7.1,3.5c0.5,0.2,0.6,0.5,0.6,1.1c0,3.6,0,7.2,0,10.8
		c0,0.6,0.3,1,0.7,1.3c0.1,0.1,13,6.5,19.3,9.6c0.7,0.3,1.3,0.4,2,0c2.8-1.4,15.5-7.7,19-9.4c0.7-0.4,1.1-0.8,1.1-1.7
		c-0.1-3.5,0-7,0-10.5c0-0.8,0-0.8,0.7-1.1c0.7-0.3,3.3-1.5,3.8-1.8c0.2-0.1,0.4-0.2,0.6,0c0,3.6,0,7.2,0,10.8c0,0.5,0,0.9-0.4,1.3
		c-0.2,0.3-2,2.9-2.6,3.9c-0.5,0.7-0.3,1.8,0.4,2.2c0.8,0.5,1.7,0.3,2.2-0.4c0.3-0.4,1.5-2.5,2-2.9c0.7,1,1.3,2,2,2.9
		c0.3,0.4,0.7,0.6,1.1,0.7c0.6,0.1,1.1-0.2,1.4-0.7C82.6,50.2,82.6,49.6,82.2,49.1z M67.9,45.6c0,0.1-0.1,0.2-0.2,0.3L51,54.2
		c-0.6,0.3-1.2,0.3-1.8,0l-16.9-8.4c-0.1-0.1-0.2-0.2-0.2-0.3l0.1-8.3c0-0.2,0.2-0.4,0.4-0.3l16.1,6.7c1.1,0.5,2.3,0.4,3.4,0
		l15.3-6.7c0.2-0.1,0.4,0.1,0.4,0.3L67.9,45.6z M73.4,30.5L51,41.2c-0.2,0.1-0.5,0.1-0.8,0l-23.8-11c-0.3-0.1-0.3-0.5,0-0.6L49.5,19
		c0.1,0,0.2,0,0.3,0l23.6,10.9C73.7,30,73.7,30.3,73.4,30.5z"/>
</g>
</svg>
