<?xml version="1.0" encoding="utf-8"?>
<!-- Generator: Adobe Illustrator 28.0.0, SVG Export Plug-In . SVG Version: 6.00 Build 0)  -->
<svg version="1.1" id="Layer_1" xmlns="http://www.w3.org/2000/svg" xmlns:xlink="http://www.w3.org/1999/xlink" x="0px" y="0px"
	 viewBox="0 0 100 100" style="enable-background:new 0 0 100 100;" xml:space="preserve">
<style type="text/css">
	.st0{fill:#1C4D94;}
</style>
<g id="jl0djo_00000122689040820207882480000018354714689331321505_">
	<g>
		<path class="st0" d="M38.5,75c0-7.4,0-14.7,0-22.1c0-2,0-2-2-2c-3,0-6.1,0-9.1,0c-0.4,0-0.7,0-1.1,0c-0.6,0-0.9-0.3-0.9-0.9
			c0-0.3,0-0.5,0-0.8c0-4.2,0-8.3,0-12.5c0-0.3,0-0.6,0-0.9c0-0.5,0.3-0.8,0.9-0.8c0.4,0,0.7,0,1.1,0c3.2,0,6.3,0,9.5,0
			c1.5,0,1.6-0.1,1.6-1.6c0-3.2,0-6.4,0-9.6c0-2.8,0.3-5.5,1-8.2C41.2,9,45.2,4.7,51.5,2.6c2.7-1,5.6-1.4,8.5-1.7
			c4.4-0.5,8.8,0.1,13.1,0.6c1.4,0.1,1.5,0.3,1.5,1.6c0,4,0,8,0,11.9c0,1.3-0.2,1.5-1.5,1.5c-2,0-4.1,0-6.1,0
			c-1.2,0-2.3,0.2-3.5,0.4c-3.4,0.7-5.1,2.7-5.1,6.2c-0.1,3.4,0,6.9,0,10.3c0,0.2,0,0.4,0,0.5c0,0.6,0.3,0.9,0.9,0.9
			c0.4,0,0.7,0,1.1,0c3.8,0,7.7,0,11.5,0c0.4,0,0.7,0,1.1,0c1,0.1,1.1,0.2,1.1,1.1c0,0.3,0,0.6,0,0.9c-0.3,3.4-0.6,6.8-1,10.3
			C73,48,73,48.7,72.9,49.5c-0.1,1.2-0.3,1.4-1.5,1.4c-1.6,0-3.2,0-4.7,0c-2.3,0-4.6,0-6.9,0c-1.2,0-1.4,0.2-1.4,1.4
			c0,0.5,0,0.9,0,1.4c0,14.4,0,28.8,0,43.1c0,2.4,0,2.4-2.4,2.4c-5.1,0-10.1,0-15.2,0c-0.4,0-0.7,0-1.1,0c-0.9-0.1-1-0.2-1.1-1
			c0-0.4,0-0.8,0-1.2C38.5,89.7,38.5,82.3,38.5,75z"/>
	</g>
</g>
</svg>
