<?xml version="1.0" encoding="utf-8"?>
<!-- Generator: Adobe Illustrator 28.0.0, SVG Export Plug-In . SVG Version: 6.00 Build 0)  -->
<svg version="1.1" id="Capa_1" xmlns="http://www.w3.org/2000/svg" xmlns:xlink="http://www.w3.org/1999/xlink" x="0px" y="0px"
	 viewBox="0 0 100 100" style="enable-background:new 0 0 100 100;" xml:space="preserve">
<style type="text/css">
	.st0{fill:#494949;}
</style>
<g>
	<path class="st0" d="M50,3.4C24.3,3.4,3.4,24.3,3.4,50c0,25.7,20.9,46.6,46.6,46.6c25.7,0,46.6-20.9,46.6-46.6
		C96.6,24.3,75.7,3.4,50,3.4z M50,87.3c-20.6,0-37.3-16.7-37.3-37.3c0-20.6,16.7-37.3,37.3-37.3c20.6,0,37.3,16.7,37.3,37.3
		C87.3,70.6,70.6,87.3,50,87.3z"/>
	<path class="st0" d="M46.5,64.5l5.4-7.6l11.5,8c2.1,1.5,5,1,6.5-1.1c1.5-2.1,1-5-1.1-6.5L53.4,46.6c-2.1-1.5-5-1-6.5,1.1l-8,11.5
		c-1.5,2.1-1,5,1.1,6.5C42.1,67.1,45,66.6,46.5,64.5z"/>
</g>
</svg>
