<?xml version="1.0" encoding="utf-8"?>
<!-- Generator: Adobe Illustrator 28.0.0, SVG Export Plug-In . SVG Version: 6.00 Build 0)  -->
<svg version="1.1" id="Capa_1" xmlns="http://www.w3.org/2000/svg" xmlns:xlink="http://www.w3.org/1999/xlink" x="0px" y="0px"
	 viewBox="0 0 100 100" style="enable-background:new 0 0 100 100;" xml:space="preserve">
<style type="text/css">
	.st0{fill:#494949;}
</style>
<g>
	<path class="st0" d="M50,5.3C25.4,5.3,5.3,25.4,5.3,50c0,24.6,20,44.7,44.7,44.7c24.6,0,44.7-20,44.7-44.7
		C94.7,25.4,74.6,5.3,50,5.3z M50,85.7c-19.7,0-35.7-16-35.7-35.7c0-19.7,16-35.7,35.7-35.7c19.7,0,35.7,16,35.7,35.7
		C85.7,69.7,69.7,85.7,50,85.7z"/>
	<path class="st0" d="M63.4,45.5h-8.9V32.1c0-2.5-2-4.5-4.5-4.5c-2.5,0-4.5,2-4.5,4.5V50c0,2.5,2,4.5,4.5,4.5h13.4
		c2.5,0,4.5-2,4.5-4.5C67.9,47.5,65.9,45.5,63.4,45.5z"/>
</g>
</svg>
