<?xml version="1.0" encoding="utf-8"?>
<!-- Generator: Adobe Illustrator 28.0.0, SVG Export Plug-In . SVG Version: 6.00 Build 0)  -->
<svg version="1.1" id="Capa_1" xmlns="http://www.w3.org/2000/svg" xmlns:xlink="http://www.w3.org/1999/xlink" x="0px" y="0px"
	 viewBox="0 0 100 100" style="enable-background:new 0 0 100 100;" xml:space="preserve">
<style type="text/css">
	.st0{fill:#494949;}
</style>
<g>
	<path class="st0" d="M25.4,8v7.6c-8,1.5-14,8.5-14,17v0c0,8.4,6,15.4,14,17V92c0,1.9,1.6,3.5,3.5,3.5s3.5-1.6,3.5-3.5V49.5
		c8-1.5,14-8.5,14-17v0c0-8.4-6-15.4-14-17V8c0-1.9-1.6-3.5-3.5-3.5S25.4,6.1,25.4,8z M29,22.1c5.8,0,10.5,4.7,10.5,10.5v0
		C39.4,38.3,34.7,43,29,43h0c-5.8,0-10.5-4.7-10.5-10.5v0C18.5,26.7,23.2,22.1,29,22.1L29,22.1z"/>
	<path class="st0" d="M71,95.5c1.9,0,3.5-1.6,3.5-3.5v-7.5c8-1.5,14-8.5,14-17v0c0-8.4-6-15.4-14-17V8c0-1.9-1.6-3.5-3.5-3.5
		S67.5,6.1,67.5,8v42.5c-8,1.5-14,8.5-14,17v0c0,8.4,6,15.4,14,17V92C67.5,93.9,69.1,95.5,71,95.5z M71,77.9
		c-5.8,0-10.5-4.7-10.5-10.5v0C60.6,61.7,65.3,57,71,57h0c5.8,0,10.5,4.7,10.5,10.5v0C81.5,73.3,76.8,77.9,71,77.9L71,77.9z"/>
</g>
</svg>
