<?xml version="1.0" encoding="utf-8"?>
<!-- Generator: Adobe Illustrator 28.0.0, SVG Export Plug-In . SVG Version: 6.00 Build 0)  -->
<svg version="1.1" id="Capa_1" xmlns="http://www.w3.org/2000/svg" xmlns:xlink="http://www.w3.org/1999/xlink" x="0px" y="0px"
	 viewBox="0 0 100 100" style="enable-background:new 0 0 100 100;" xml:space="preserve">
<style type="text/css">
	.st0{fill:#494949;}
</style>
<g>
	<path class="st0" d="M98.6,24.6c-0.9,1.8-2.4,2.3-4.4,2.2c-5-0.1-9.9,0-14.9,0c-0.7,0-1,0.2-1.2,0.9c-1.7,5.2-6.5,8.7-12,8.7
		c-5.5,0-10.3-3.5-11.9-8.7c-0.2-0.8-0.7-0.8-1.3-0.8c-15.8,0-31.6,0-47.3,0c-0.6,0-1.2,0-1.8-0.1c-1.5-0.4-2.4-1.7-2.3-3.2
		c0.1-1.4,1.3-2.6,2.8-2.7c0.3,0,0.6,0,0.9,0c15.9,0,31.8,0,47.7,0c0.8,0,1.1-0.3,1.3-1c1.8-5.3,6.5-8.7,12.1-8.6
		c5.3,0,10.1,3.5,11.9,8.7c0.3,0.8,0.7,0.9,1.4,0.9c5,0,10,0.1,15,0c1.9,0,3.3,0.5,4.1,2.3C98.6,23.6,98.6,24.1,98.6,24.6z
		 M59.6,23.6c0,3.8,2.8,6.7,6.5,6.7c3.7,0,6.7-2.9,6.7-6.6c0-3.5-2.9-6.5-6.5-6.6C62.6,17.1,59.7,20,59.6,23.6z"/>
	<path class="st0" d="M98.6,50.7c-0.8,1.8-2.3,2.3-4.2,2.3c-15.7-0.1-31.5,0-47.2,0c-0.8,0-1.1,0.2-1.3,1c-1.8,5.6-7.3,9.2-13.1,8.5
		c-5.4-0.6-8.9-3.6-10.8-8.7c-0.2-0.7-0.5-0.9-1.2-0.9c-5.3,0-10.6,0-15.9,0c-1.9,0-3.3-1.3-3.3-3c0-1.5,1.4-3.1,3.3-3
		c5.2,0.1,10.4,0,15.7,0c0.9,0,1.2-0.2,1.5-1.1c1.8-5.3,6.7-8.6,12-8.6c5.5,0,10.1,3.5,11.8,8.7c0.3,0.8,0.6,0.9,1.3,0.9
		c15.7,0,31.4,0,47.1,0c2,0,3.5,0.4,4.3,2.3C98.6,49.7,98.6,50.2,98.6,50.7z M40.4,50c0-3.7-3-6.6-6.6-6.6c-3.6,0-6.6,3.1-6.5,6.6
		c0.1,3.8,2.9,6.5,6.6,6.6C37.5,56.7,40.4,53.6,40.4,50z"/>
	<path class="st0" d="M64.6,88.9c-1.2-0.5-2.5-0.6-3.7-1.2c-3.3-1.6-5.6-4.2-6.7-7.7c-0.2-0.7-0.7-0.8-1.3-0.8
		c-15.9,0-31.7,0-47.6,0c-0.7,0-1.3,0.1-2-0.2c-1.3-0.6-2.1-1.9-1.9-3.2c0.3-1.5,1.4-2.5,3-2.6c0.8,0,1.6,0,2.4,0
		c15.4,0,30.7,0,46.1,0c0.7,0,1-0.2,1.2-0.8c1.7-5.3,6.5-8.7,11.9-8.7c5.5,0,10.3,3.4,12,8.7c0.2,0.7,0.6,0.9,1.3,0.9
		c4.9,0,9.8,0,14.7,0c1.9,0,3.6,0.3,4.5,2.2c0,0.5,0,1,0,1.5c-0.7,1.8-2.1,2.4-4.1,2.3c-5-0.1-10.1,0-15.2,0c-0.7,0-1,0.2-1.2,0.8
		c-1.1,3.3-3.2,5.8-6.3,7.4c-1.3,0.7-2.8,1-4.2,1.4C66.6,88.9,65.6,88.9,64.6,88.9z M59.6,76.3c0,3.8,3,6.6,6.7,6.5
		c3.5,0,6.5-3.1,6.4-6.6c0-3.7-3.1-6.6-7-6.5C62.4,69.7,59.6,72.7,59.6,76.3z"/>
</g>
</svg>
