<?xml version="1.0" encoding="utf-8"?>
<!-- Generator: Adobe Illustrator 28.0.0, SVG Export Plug-In . SVG Version: 6.00 Build 0)  -->
<svg version="1.1" id="Capa_1" xmlns="http://www.w3.org/2000/svg" xmlns:xlink="http://www.w3.org/1999/xlink" x="0px" y="0px"
	 viewBox="0 0 100 100" style="enable-background:new 0 0 100 100;" xml:space="preserve">
<style type="text/css">
	.st0{fill:#696969;}
</style>
<path class="st0" d="M76.35,50.44c-0.12,2.18-1.28,3.99-3,5.54c-8.01,7.2-16.01,14.44-24.01,21.65c-4.42,3.98-8.8,7.99-13.29,11.88
	c-4.57,3.96-10.98,1.96-12.23-3.77c-0.66-3.03,0.65-5.38,2.86-7.36C33.1,72.6,39.5,66.81,45.92,61.02c3.35-3.03,6.66-6.1,10.09-9.04
	c1.73-1.48,1.56-2.43-0.11-3.91c-9.83-8.73-19.58-17.57-29.34-26.38c-2.27-2.05-3.46-4.51-2.62-7.64c0.8-2.97,2.82-4.72,5.72-5.44
	c2.87-0.71,5.06,0.74,7.06,2.53c8.14,7.3,16.27,14.62,24.39,21.94c4.06,3.66,8.1,7.35,12.18,10.98
	C75.18,45.73,76.29,47.72,76.35,50.44z"/>
</svg>
