<?xml version="1.0" encoding="utf-8"?>
<!-- Generator: Adobe Illustrator 28.0.0, SVG Export Plug-In . SVG Version: 6.00 Build 0)  -->
<svg version="1.1" id="Capa_1" xmlns="http://www.w3.org/2000/svg" xmlns:xlink="http://www.w3.org/1999/xlink" x="0px" y="0px"
	 viewBox="0 0 100 100" style="enable-background:new 0 0 100 100;" xml:space="preserve">
<style type="text/css">
	.st0{fill:#FFFFFF;}
</style>
<path class="st0" d="M49.57,75.49c-2.11-0.11-3.86-1.23-5.36-2.9c-6.97-7.75-13.96-15.48-20.94-23.23
	c-3.85-4.27-7.73-8.51-11.49-12.86c-3.83-4.42-1.9-10.62,3.64-11.82c2.93-0.64,5.2,0.63,7.12,2.76c5.59,6.21,11.19,12.4,16.79,18.61
	c2.93,3.24,5.9,6.45,8.74,9.76c1.43,1.67,2.35,1.5,3.78-0.1c8.45-9.51,16.99-18.94,25.52-28.38c1.98-2.19,4.37-3.34,7.39-2.53
	c2.87,0.77,4.57,2.73,5.26,5.53c0.68,2.78-0.71,4.89-2.45,6.83c-7.06,7.87-14.14,15.73-21.22,23.59
	c-3.54,3.93-7.11,7.83-10.62,11.78C54.13,74.35,52.2,75.43,49.57,75.49z"/>
</svg>
