<svg width="28" height="28" viewBox="0 0 28 28" fill="none" xmlns="http://www.w3.org/2000/svg">
<path fill-rule="evenodd" clip-rule="evenodd" d="M14 3.33366C8.10898 3.33366 3.33335 8.10929 3.33335 14.0003C3.33335 19.8914 8.10898 24.667 14 24.667C19.8911 24.667 24.6667 19.8914 24.6667 14.0003C24.6667 8.10929 19.8911 3.33366 14 3.33366ZM0.666687 14.0003C0.666687 6.63653 6.63622 0.666992 14 0.666992C21.3638 0.666992 27.3334 6.63653 27.3334 14.0003C27.3334 21.3641 21.3638 27.3337 14 27.3337C6.63622 27.3337 0.666687 21.3641 0.666687 14.0003ZM14.9428 9.05752C15.4635 9.57822 15.4635 10.4224 14.9428 10.9431L13.219 12.667H18C18.7364 12.667 19.3334 13.2639 19.3334 14.0003C19.3334 14.7367 18.7364 15.3337 18 15.3337H13.219L14.9428 17.0575C15.4635 17.5782 15.4635 18.4224 14.9428 18.9431C14.4221 19.4638 13.5779 19.4638 13.0572 18.9431L9.05721 14.9431C8.53651 14.4224 8.53651 13.5782 9.05721 13.0575L13.0572 9.05752C13.5779 8.53682 14.4221 8.53682 14.9428 9.05752Z" fill="black"/>
</svg>
