<svg width="16" height="16" viewBox="0 0 16 16" fill="none" xmlns="http://www.w3.org/2000/svg">
<path opacity="0.988987" d="M8 0C3.5816 0 0 3.5816 0 8C0 12.4184 3.5816 16 8 16C12.4184 16 16 12.4184 16 8C16 3.5816 12.4184 0 8 0ZM8 1.6C11.5344 1.6 14.4 4.4656 14.4 8C14.4 11.5344 11.5344 14.4 8 14.4C4.4656 14.4 1.6 11.5344 1.6 8C1.6 4.4656 4.4656 1.6 8 1.6ZM8 4C7.5584 4 7.2 4.3584 7.2 4.8C7.2 5.2416 7.5584 5.6 8 5.6C8.4416 5.6 8.8 5.2416 8.8 4.8C8.8 4.3584 8.4416 4 8 4ZM7.2 6.4C6.7584 6.4 6.4 6.7584 6.4 7.2C6.4 7.5856 6.68721 7.87359 7.04961 7.95039L6.5752 10.2496C6.3896 11.1784 7.0536 12 8 12H8.8C9.2416 12 9.6 11.6416 9.6 11.2C9.6 10.7584 9.2416 10.4 8.8 10.4H8.1752L8.7752 7.35039C8.8744 6.85519 8.5048 6.4 8 6.4C7.8992 6.4 7.3296 6.4 7.2 6.4Z" fill="rgba(0, 0, 0, 0.63)"/>
</svg>
