<?xml version="1.0" encoding="utf-8"?>
<!-- Generator: Adobe Illustrator 28.0.0, SVG Export Plug-In . SVG Version: 6.00 Build 0)  -->
<svg version="1.1" id="Layer_1" xmlns="http://www.w3.org/2000/svg" xmlns:xlink="http://www.w3.org/1999/xlink" x="0px" y="0px"
	 viewBox="0 0 100 100" style="enable-background:new 0 0 100 100;" xml:space="preserve">
<style type="text/css">
	.st0{fill:#1C4D94;}
</style>
<g id="JKWeBa_00000096767010895212220510000016545392702130790276_">
	<g>
		<path class="st0" d="M98,50.3c0,6.3,0.1,12.6,0,18.9c-0.3,11.3-5.5,19.8-15.3,25.3c-4.3,2.4-8.9,3.4-13.7,3.4
			c-12.6,0-25.3,0-37.9,0c-12,0-22.5-7.2-27-18.3c-1.3-3.3-2-6.8-2-10.3c0-12.7,0-25.4,0-38.1c0-13.9,9.8-25.7,23.4-28.3
			c1.7-0.3,3.5-0.5,5.2-0.5c13,0,26.1-0.1,39.1,0c7.8,0.1,14.4,3.1,19.8,8.6c5.6,5.6,8.3,12.5,8.3,20.3C98,37.6,98,43.9,98,50.3
			C98,50.3,98,50.3,98,50.3z M49.7,88.9C49.7,88.9,49.7,88.9,49.7,88.9c6.5,0,13.1,0,19.6,0c0.9,0,1.7,0,2.6-0.2
			c9.8-1.4,17-9.5,17.1-19.5c0.1-12.8,0.1-25.6,0-38.3c0-5.3-1.9-10-5.6-13.8c-3.9-4-8.8-6-14.3-6c-12.6,0-25.3,0-37.9,0
			c-1,0-2.1,0.1-3.1,0.2C18.3,12.7,11,21,11,30.9c0,12.8,0,25.7,0,38.5c0,4.3,1.4,8.2,4,11.6c4,5.1,9.3,7.8,15.8,7.8
			C37,88.9,43.4,88.9,49.7,88.9z"/>
		<path class="st0" d="M26.8,49.3c0.3-12.6,11-23.2,24.3-22.8c13,0.4,23.4,11.4,22.8,24.5c-0.6,13.2-11.7,22.9-24.2,22.5
			C36.7,73.2,26.4,62.2,26.8,49.3z M50.3,65.2c7.9,0.2,14.9-6.6,15.2-14.4c0.3-8.5-6.2-15.5-14.5-15.8c-8.7-0.4-15.7,6.4-15.9,14.8
			C35,57.9,41.4,65.1,50.3,65.2z"/>
		<path class="st0" d="M81,24.9c-0.1,3.1-2.6,5.6-5.6,5.5c-3.1-0.1-5.6-2.7-5.5-5.8c0.1-2.9,2.7-5.4,5.6-5.3
			C78.5,19.4,81,21.9,81,24.9z"/>
	</g>
</g>
</svg>
