<?xml version="1.0" encoding="utf-8"?>
<!-- Generator: Adobe Illustrator 28.0.0, SVG Export Plug-In . SVG Version: 6.00 Build 0)  -->
<svg version="1.1" id="Layer_1" xmlns="http://www.w3.org/2000/svg" xmlns:xlink="http://www.w3.org/1999/xlink" x="0px" y="0px"
	 viewBox="0 0 100 100" style="enable-background:new 0 0 100 100;" xml:space="preserve">
<style type="text/css">
	.st0{fill:#1C4D94;}
</style>
<g>
	<path class="st0" d="M56.3,46.2c1.3-1.8,2.4-3.4,3.6-4.9c5-6.1,11.6-8.4,19.3-8.1c4.2,0.2,8.2,1.2,11.7,3.6
		c5.1,3.5,7.2,8.6,7.6,14.4c0.4,5.1,0.5,10.1,0.5,15.2c0.1,8.9,0,17.8,0,26.7c0,1.8,0,1.8-1.8,1.8c-5.7,0-11.3,0-17,0
		c-1.3,0-1.7-0.4-1.7-1.7c0-10.3,0.1-20.5,0-30.8c0-1.8-0.2-3.7-0.5-5.5c-1.2-6.2-5-8.1-10.8-7.3c-3.8,0.5-6.2,2.8-7.6,6.3
		c-1.6,4.1-1.9,8.5-1.9,12.8c0,8.1,0,16.2,0,24.2c0,1.9,0,1.9-1.9,1.9c-5.5,0-11.1,0-16.6,0c-1.3,0-1.7-0.4-1.7-1.7
		c0-18.8,0-37.7,0-56.5c0-1.3,0.5-1.7,1.7-1.7c5.2,0.1,10.3,0,15.5,0c1.2,0,1.7,0.4,1.7,1.6C56.2,39.7,56.3,42.8,56.3,46.2z"/>
	<path class="st0" d="M22.5,65c0,9.4,0,18.8,0,28.2c0,1.4-0.4,1.8-1.8,1.8c-5.7-0.1-11.3-0.1-17,0c-1.4,0-1.8-0.5-1.8-1.8
		c0-18.8,0-37.5,0-56.3C2,35.5,2.4,35,3.7,35c5.7,0.1,11.4,0.1,17.1,0c1.4,0,1.7,0.5,1.7,1.8C22.5,46.2,22.5,55.6,22.5,65z"/>
	<path class="st0" d="M12.3,28.7c-6.1,0-11.3-5.5-11.3-12C1.1,10.3,6.2,5.1,12.3,5.1c6.3,0,11.3,5.2,11.3,11.7
		C23.6,23.3,18.5,28.7,12.3,28.7z"/>
</g>
</svg>
