<svg width="417" height="120" viewBox="0 0 417 120" fill="none" xmlns="http://www.w3.org/2000/svg">
<path d="M80.6202 69.1834C86.9137 69.1834 91.9143 63.8886 91.9143 57.2976C91.9143 50.7066 86.9137 45.5244 80.6202 45.5244C74.3267 45.5244 69.3262 50.8756 69.3262 57.2976C69.3262 63.7195 74.2705 69.1834 80.6202 69.1834ZM80.6202 47.8913C85.5646 47.8913 89.4409 52.1154 89.4409 57.2976C89.4409 62.4797 85.5646 66.8729 80.6202 66.8729C75.6759 66.8729 71.7434 62.6488 71.7434 57.2976C71.7434 51.9464 75.6197 47.8913 80.6202 47.8913Z" fill="white"/>
<path d="M107.872 69.1834C114.503 69.1834 119.222 64.0013 119.222 57.3539C119.222 50.7066 114.615 45.5244 108.378 45.5244C104.277 45.5244 101.691 47.6659 101.016 48.2294L100.848 46.6515C100.791 46.257 100.566 46.088 100.173 46.088H99.5546C99.1611 46.088 98.7676 46.3697 98.7676 46.8206V80.0794L98.6405 103.988C98.6405 111.256 94.0335 116.55 86.5033 116.55C78.9731 116.55 74.4785 111.199 74.4785 103.934V79.8834C74.4785 79.4889 74.1412 79.1508 73.7477 79.1508H72.5672C72.1737 79.1508 71.8364 79.4889 71.8364 79.8834V104.216C71.8364 112.834 77.624 119.143 86.5009 119.143C95.3777 119.143 101.278 112.834 101.278 104.216L101.18 80.0549V66.8729C101.798 67.4365 104.157 69.1834 107.867 69.1834H107.872ZM101.241 50.9883C101.41 50.7066 103.824 47.8349 108.209 47.8349C113.322 47.8349 116.749 52.0591 116.749 57.2976C116.749 62.5361 113.041 66.8166 107.591 66.8166C103.771 66.8166 101.353 64.3933 101.241 64.1703V50.9908V50.9883Z" fill="white"/>
<path d="M135.573 45.5244C128.717 45.5244 124.503 50.8756 124.503 57.2976C124.503 63.7195 128.717 69.1834 135.573 69.1834C139.055 69.1834 142.597 67.6619 143.719 66.5372C144.056 66.1991 144.112 65.861 143.944 65.6356L143.381 64.8466C143.1 64.4521 142.875 64.5085 142.37 64.8466C141.02 65.7483 138.718 66.9317 135.739 66.9317C130.682 66.9317 127.199 62.8767 126.974 58.0326H144.899C145.742 58.0326 145.742 56.7365 145.742 55.8348C145.742 49.8637 141.473 45.5269 135.573 45.5269V45.5244ZM127.031 56.0014C127.312 51.3828 130.626 47.7786 135.57 47.7786C140.515 47.7786 143.267 51.6082 143.267 56.0014H127.028H127.031Z" fill="white"/>
<path d="M154.788 67.8873V51.8336C155.013 51.5519 158.214 47.9477 162.821 47.9477C167.091 47.9477 169.508 50.6502 169.508 55.8324V67.8873C169.508 68.2818 169.846 68.6199 170.239 68.6199H171.251C171.645 68.6199 171.982 68.2818 171.982 67.8873V55.8324C171.982 49.5231 169.23 45.5244 162.936 45.5244C158.442 45.5244 155.35 48.2833 154.622 49.0723L154.397 46.649C154.341 46.3109 154.116 46.0855 153.722 46.0855H153.16C152.71 46.0855 152.373 46.4236 152.373 46.8181V67.8848C152.373 68.2793 152.598 68.6174 152.991 68.6174H154.059C154.565 68.6174 154.79 68.3357 154.79 67.8848L154.788 67.8873Z" fill="white"/>
<path d="M143.03 111.763C142.805 111.594 142.468 111.594 142.13 111.876C138.76 114.691 135.106 116.607 130.274 116.607C120.442 116.607 112.745 108.61 112.745 98.9215C112.745 89.2335 120.442 81.1209 130.274 81.1209C134.881 81.1209 138.926 82.8679 142.13 85.7395C142.468 86.0776 142.749 86.134 143.086 85.7959L143.985 84.8378C144.266 84.5561 144.21 84.1052 143.929 83.8235C140.278 80.501 136.008 78.585 130.277 78.585C119.039 78.585 109.937 87.6531 109.937 98.9191C109.937 110.185 119.039 119.14 130.277 119.14C135.277 119.14 140.165 117.394 143.985 113.677C144.266 113.395 144.266 112.944 143.985 112.719L143.03 111.761V111.763Z" fill="white"/>
<path d="M182.865 79.1484H181.685C181.292 79.1484 180.954 79.4866 180.954 79.881V97.1745H155.727V79.881C155.727 79.4866 155.445 79.1484 154.996 79.1484H153.815C153.422 79.1484 153.084 79.4866 153.084 79.881V117.844C153.084 118.239 153.422 118.577 153.815 118.577H154.996C155.445 118.577 155.727 118.239 155.727 117.844V99.5389H180.954V117.844C180.954 118.239 181.292 118.577 181.685 118.577H182.865C183.315 118.577 183.596 118.239 183.596 117.844V79.881C183.596 79.4866 183.315 79.1484 182.865 79.1484Z" fill="white"/>
<path d="M197.476 79.1484H196.24C195.846 79.1484 195.509 79.4866 195.509 79.881V117.844C195.509 118.239 195.846 118.577 196.24 118.577H197.42C197.814 118.577 198.207 118.295 198.207 117.844V79.881C198.207 79.4866 197.87 79.1484 197.476 79.1484Z" fill="white"/>
<path d="M230.682 116.212H212.759V79.881C212.759 79.4866 212.422 79.1484 212.085 79.1484H210.848C210.454 79.1484 210.117 79.4866 210.117 79.881V117.844C210.117 118.239 210.454 118.577 210.848 118.577H230.682C231.075 118.577 231.412 118.351 231.412 117.957V116.943C231.412 116.548 231.356 116.21 230.682 116.21V116.212Z" fill="white"/>
<path d="M260.856 81.5717C261.249 81.5717 261.587 81.2335 261.587 80.8391V79.881C261.587 79.4866 261.249 79.1484 260.856 79.1484H238.326C237.933 79.1484 237.596 79.4866 237.596 79.881V117.844C237.596 118.239 237.933 118.577 238.326 118.577H260.856C261.249 118.577 261.587 118.239 261.587 117.844V116.943C261.587 116.548 261.249 116.21 260.856 116.21H240.292V99.5365H258.101C258.495 99.5365 258.832 99.1983 258.832 98.8039V97.8458C258.832 97.4513 258.495 97.1132 258.101 97.1132H240.292V81.5668H260.856V81.5717Z" fill="white"/>
<path d="M20.5864 33.2423L22.7788 24.8823L16.104 19.4134L24.712 18.921L27.838 10.8672L30.964 18.921L39.572 19.4134L32.8972 24.8823L35.0895 33.2423L27.8355 28.5673L20.584 33.2423H20.5864ZM27.838 27.9205L34.2072 32.0246L32.2813 24.6838L38.1422 19.879L30.5851 19.4502L27.838 12.3741L25.0933 19.4502L17.5362 19.879L23.3971 24.6838L21.4712 32.0246L27.838 27.9205Z" fill="white"/>
<path d="M25.9068 16.5956L22.6439 6.53027L22.2822 6.64788L25.6868 17.1592L25.9068 16.5956Z" fill="white"/>
<path d="M25.6868 17.4337H25.6819C25.5671 17.4313 25.4644 17.3553 25.4278 17.2451L22.0232 6.73622C21.9767 6.59166 22.0549 6.4373 22.1967 6.39319L22.5584 6.27313C22.6269 6.25108 22.7026 6.25598 22.7662 6.29029C22.8297 6.32459 22.8786 6.37849 22.9006 6.44955L26.1634 16.5149C26.183 16.5737 26.1805 16.6399 26.1585 16.6987L25.941 17.2622C25.8995 17.3676 25.7968 17.4362 25.6844 17.4362L25.6868 17.4337Z" fill="white"/>
<path d="M10.4429 23.3627H21.3556L20.8888 22.9805H10.4429V23.3627Z" fill="white"/>
<path d="M21.3559 23.6376H10.4456C10.2941 23.6376 10.1743 23.5151 10.1743 23.3632V22.981C10.1743 22.829 10.2941 22.709 10.4456 22.709H20.8916C20.9551 22.709 21.0162 22.731 21.0627 22.7702L21.5295 23.15C21.6199 23.2235 21.6541 23.346 21.615 23.4538C21.5759 23.5617 21.4733 23.6352 21.3584 23.6352L21.3559 23.6376Z" fill="white"/>
<path d="M24.9022 19.1844L25 18.932L14.5638 4.53223L14.2583 4.75764L24.7189 19.1942L24.9022 19.1844Z" fill="white"/>
<path d="M24.7187 19.4692C24.6307 19.4692 24.5501 19.4276 24.4987 19.3565L14.0357 4.92003C13.9917 4.86122 13.977 4.78772 13.9868 4.71666C13.999 4.64561 14.0357 4.57945 14.0968 4.5378L14.4047 4.31238C14.5269 4.22172 14.7005 4.24868 14.786 4.37363L25.2197 18.7709C25.2735 18.8469 25.2882 18.9449 25.2539 19.0331L25.1537 19.2855C25.1146 19.3859 25.0218 19.4545 24.9142 19.4594L24.7334 19.4717H24.7163L24.7187 19.4692Z" fill="white"/>
<path d="M27.8376 11.6212L28.0307 12.1113V0.274414H27.647V12.1113L27.8376 11.6212Z" fill="white"/>
<path d="M28.031 12.3857C27.9577 12.3857 27.8892 12.3563 27.8379 12.3073C27.7768 12.3686 27.6864 12.398 27.5984 12.3808C27.4689 12.3563 27.376 12.2436 27.376 12.1113V0.274421C27.376 0.122509 27.4982 0 27.6497 0H28.0334C28.1825 0 28.3023 0.122509 28.3023 0.274421V12.1137C28.3023 12.246 28.2094 12.3588 28.0823 12.3833C28.0628 12.3882 28.0481 12.3882 28.0334 12.3882L28.031 12.3857Z" fill="white"/>
<path d="M33.4274 19.337L42.0208 13.0792L41.7984 12.7705L32.8262 19.3027L33.4274 19.337Z" fill="white"/>
<path d="M33.4273 19.6114C33.4273 19.6114 33.4176 19.6114 33.4127 19.6114L32.809 19.5746C32.6941 19.5673 32.5963 19.4913 32.5621 19.3811C32.5304 19.2708 32.5695 19.1508 32.6648 19.0821L41.6345 12.5475C41.6907 12.5058 41.7665 12.4887 41.8374 12.5009C41.9107 12.5132 41.9718 12.5524 42.0158 12.6088L42.2406 12.9175C42.3286 13.04 42.3017 13.2115 42.1795 13.2997L33.5886 19.5599C33.5422 19.5918 33.486 19.6138 33.4298 19.6138L33.4273 19.6114Z" fill="white"/>
<path d="M38.8552 19.6467L38.5791 19.877L49.6214 16.2801L49.5016 15.915L38.166 19.6099L38.8552 19.6467Z" fill="white"/>
<path d="M38.5793 20.1491C38.4815 20.1491 38.3886 20.0952 38.3373 20.007C38.3177 19.9702 38.308 19.9286 38.3055 19.8894L38.1491 19.882C38.0171 19.8771 37.912 19.7742 37.8949 19.6444C37.8778 19.5145 37.956 19.3895 38.0807 19.3503L49.4187 15.6579C49.4871 15.6358 49.5629 15.6407 49.6265 15.6751C49.6924 15.7094 49.7389 15.7657 49.7609 15.8343L49.8782 16.1994C49.9271 16.344 49.8464 16.4959 49.7047 16.5449L38.6624 20.1417C38.633 20.1491 38.6061 20.154 38.5793 20.154V20.1491Z" fill="white"/>
<path d="M22.8494 19.3027L13.8796 12.7705L13.6548 13.0792L22.2457 19.337L22.8494 19.3027Z" fill="white"/>
<path d="M22.2458 19.6116C22.1896 19.6116 22.1334 19.592 22.087 19.5577L13.4936 13.2975C13.3714 13.2093 13.3445 13.0378 13.435 12.9153L13.6598 12.6066C13.7014 12.5502 13.7674 12.5085 13.8382 12.4987C13.9091 12.4865 13.9824 12.5061 14.0411 12.5453L23.0133 19.08C23.1062 19.1461 23.1477 19.2686 23.1135 19.3789C23.0817 19.4891 22.9815 19.5675 22.8666 19.5724L22.2654 19.6092C22.2654 19.6092 22.2556 19.6092 22.2507 19.6092L22.2458 19.6116Z" fill="white"/>
<path d="M29.9885 17.1602L33.3931 6.64886L33.0314 6.53125L29.7686 16.5966L29.9885 17.1602Z" fill="white"/>
<path d="M29.9884 17.4343C29.8735 17.4343 29.7758 17.3657 29.7342 17.2603L29.5142 16.6968C29.4922 16.638 29.4898 16.5718 29.5094 16.513L32.7722 6.44764C32.8186 6.30308 32.9726 6.22467 33.1144 6.27123L33.4761 6.38884C33.5445 6.41089 33.6032 6.45744 33.6325 6.5236C33.6667 6.5873 33.6716 6.66326 33.6496 6.73186L30.245 17.2432C30.2084 17.3559 30.1081 17.4294 29.9933 17.4318H29.9859L29.9884 17.4343Z" fill="white"/>
<path d="M30.7735 19.1853L30.9544 19.1951L41.4199 4.75862L41.1095 4.5332L30.6758 18.933L30.7735 19.1853Z" fill="white"/>
<path d="M30.9543 19.4697H30.9396L30.7588 19.4574C30.6512 19.4525 30.5584 19.3839 30.5217 19.2834L30.4239 19.0311C30.3897 18.9453 30.4019 18.8449 30.4557 18.7689L40.8895 4.3716C40.9799 4.24664 41.151 4.22214 41.2707 4.31034L41.5811 4.53576C41.6398 4.57742 41.6789 4.64357 41.6887 4.71463C41.7009 4.78568 41.6813 4.85919 41.6422 4.91799L31.1792 19.3545C31.1278 19.4256 31.0447 19.4672 30.9568 19.4672L30.9543 19.4697Z" fill="white"/>
<path d="M45.2321 22.9805H34.7886L34.3218 23.3627H45.2321V22.9805Z" fill="white"/>
<path d="M34.3219 23.6371C34.2046 23.6371 34.1019 23.5636 34.0653 23.4558C34.0262 23.348 34.0579 23.2255 34.1484 23.152L34.6152 22.7722C34.6641 22.733 34.7252 22.7109 34.7887 22.7109H45.2322C45.3031 22.7109 45.3715 22.7379 45.4229 22.7918C45.4766 22.8432 45.5035 22.9119 45.5035 22.9829V23.3651C45.5035 23.517 45.3813 23.6396 45.2322 23.6396H34.3219V23.6371Z" fill="white"/>
<path d="M16.8198 19.6457L17.5115 19.6089L6.17103 15.9141L6.05371 16.2791L17.096 19.876L16.8198 19.6457Z" fill="white"/>
<path d="M17.096 20.1479C17.0691 20.1479 17.0398 20.143 17.0129 20.1357L5.97061 16.5364C5.8264 16.4898 5.74819 16.3354 5.79463 16.1909L5.91195 15.8258C5.93394 15.7597 5.98283 15.7008 6.04637 15.6665C6.10992 15.6347 6.18568 15.6273 6.25656 15.6494L17.5922 19.3418C17.7168 19.381 17.7975 19.506 17.7779 19.6359C17.7608 19.7657 17.6533 19.8686 17.5237 19.8735L17.3673 19.8809C17.3673 19.9201 17.3526 19.9617 17.3331 19.9985C17.2842 20.0867 17.1938 20.1406 17.0936 20.1406L17.096 20.1479Z" fill="white"/>
<path d="M29.6611 29.4199L33.0315 39.8161L33.3932 39.6985L30.1695 29.7458L29.6611 29.4199Z" fill="white"/>
<path d="M33.0317 40.0882C32.9901 40.0882 32.9461 40.0784 32.907 40.0612C32.8435 40.0245 32.7946 39.9681 32.7726 39.902L29.4022 29.5034C29.3656 29.3956 29.4022 29.2755 29.4951 29.2044C29.588 29.1358 29.7126 29.1309 29.8104 29.1922L30.3163 29.5205C30.3701 29.5524 30.4116 29.6038 30.4312 29.6651L33.6549 39.6178C33.7038 39.7623 33.6231 39.9118 33.4814 39.9608L33.1196 40.0784C33.0928 40.0857 33.061 40.0931 33.0365 40.0931L33.0317 40.0882Z" fill="white"/>
<path d="M27.8376 28.2432L27.647 28.3681V46.0732H28.0307V28.3681L27.8376 28.2432Z" fill="white"/>
<path d="M28.031 46.3456H27.6473C27.4957 46.3456 27.3735 46.2231 27.3735 46.0737V28.3686C27.3735 28.2731 27.4224 28.1873 27.4982 28.1383L27.6888 28.0158C27.7793 27.957 27.8941 27.957 27.9846 28.0158L28.1727 28.1383C28.251 28.1873 28.2974 28.2755 28.2974 28.3686V46.0737C28.2974 46.2231 28.1776 46.3456 28.0285 46.3456H28.031Z" fill="white"/>
<path d="M33.2663 27.362L41.7985 33.5781L42.0209 33.2669L33.1099 26.7764L33.2663 27.362Z" fill="white"/>
<path d="M41.7985 33.8498C41.7423 33.8498 41.6836 33.8326 41.6397 33.7958L33.1074 27.5846C33.0585 27.5454 33.0194 27.494 33.0048 27.4327L32.8532 26.8496C32.8239 26.7369 32.8679 26.6168 32.9632 26.5531C33.0585 26.4869 33.1832 26.4918 33.2785 26.558L42.1871 33.0485C42.3093 33.1368 42.3387 33.3058 42.2482 33.4308L42.0234 33.7395C41.9818 33.7983 41.9183 33.8375 41.845 33.8473C41.8303 33.8522 41.8181 33.8522 41.8034 33.8522L41.7985 33.8498Z" fill="white"/>
<path d="M32.5889 24.7834L32.628 24.9353L49.5018 30.4311L49.6216 30.0684L32.8186 24.5947L32.5889 24.7834Z" fill="white"/>
<path d="M49.5019 30.706C49.475 30.706 49.4457 30.7011 49.4188 30.6913L32.5425 25.1955C32.4521 25.1686 32.3885 25.0951 32.3641 25.0044L32.325 24.855C32.2956 24.752 32.3323 24.6418 32.413 24.5756L32.6451 24.3845C32.716 24.3233 32.8138 24.3061 32.8993 24.338L49.7023 29.8117C49.8465 29.8582 49.9247 30.0126 49.8759 30.1547L49.7585 30.5173C49.7365 30.5884 49.6877 30.6448 49.6241 30.6766C49.585 30.6962 49.541 30.7085 49.4995 30.7085L49.5019 30.706Z" fill="white"/>
<path d="M34.6469 32.6321L34.2925 32.4017L41.109 41.8105L41.4194 41.5875L34.488 32.0244L34.6469 32.6321Z" fill="white"/>
<path d="M41.1088 42.0848C41.0233 42.0848 40.9426 42.0456 40.8888 41.972L34.0723 32.5633C33.9941 32.458 34.0039 32.311 34.0943 32.2154C34.1334 32.1737 34.1823 32.1468 34.2361 32.1345L34.2239 32.0929C34.1921 31.9655 34.2532 31.8307 34.3705 31.7768C34.4903 31.7205 34.6296 31.7548 34.7053 31.8626L41.6392 41.4257C41.6783 41.4845 41.6978 41.558 41.6856 41.629C41.6734 41.7025 41.6343 41.7687 41.5781 41.8079L41.2677 42.0333C41.2188 42.0701 41.165 42.0872 41.1088 42.0872V42.0848Z" fill="white"/>
<path d="M25.506 29.7458L22.2822 39.6985L22.6439 39.8161L26.0143 29.4199L25.506 29.7458Z" fill="white"/>
<path d="M22.6439 40.0872C22.617 40.0872 22.5877 40.0823 22.5608 40.0725L22.1991 39.9549C22.1306 39.9329 22.0744 39.8839 22.0402 39.8202C22.006 39.7565 22.0011 39.6805 22.0231 39.6119L25.2493 29.6592C25.2688 29.598 25.3055 29.5465 25.3617 29.5147L25.8676 29.1863C25.9654 29.1226 26.09 29.13 26.1829 29.1986C26.2733 29.2696 26.31 29.3897 26.2758 29.4975L22.9054 39.8961C22.8687 40.0113 22.7612 40.0848 22.6463 40.0848L22.6439 40.0872Z" fill="white"/>
<path d="M22.5634 26.7764L13.6548 33.2669L13.8796 33.5781L22.4119 27.362L22.5634 26.7764Z" fill="white"/>
<path d="M13.8797 33.8503C13.865 33.8503 13.8504 33.8503 13.8382 33.8454C13.7673 33.8356 13.7037 33.7939 13.6597 33.7376L13.4349 33.4288C13.3469 33.3063 13.3713 33.1348 13.4935 33.0466L22.4046 26.5561C22.4975 26.4899 22.6221 26.4875 22.7175 26.5512C22.8103 26.6149 22.8568 26.7349 22.8274 26.8476L22.6759 27.4332C22.6588 27.492 22.6221 27.5484 22.5733 27.5827L14.041 33.7939C13.9921 33.8307 13.9384 33.8478 13.8821 33.8478L13.8797 33.8503Z" fill="white"/>
<path d="M23.0864 24.7844L22.8567 24.5957L6.05371 30.0694L6.17347 30.4321L23.0473 24.9363L23.0864 24.7844Z" fill="white"/>
<path d="M6.17352 30.7068C6.12952 30.7068 6.08797 30.6946 6.04643 30.675C5.98288 30.6431 5.934 30.5868 5.912 30.5157L5.79469 30.1531C5.75069 30.0085 5.82646 29.8566 5.97066 29.8101L22.7736 24.3364C22.8616 24.3069 22.957 24.3241 23.0303 24.3829L23.26 24.574C23.3431 24.6402 23.3773 24.7529 23.3504 24.8533L23.3113 25.0028C23.2893 25.091 23.2234 25.1645 23.1329 25.1939L6.25906 30.6897C6.23217 30.6995 6.2004 30.7044 6.17596 30.7044L6.17352 30.7068Z" fill="white"/>
<path d="M21.0284 32.6321L21.1872 32.0244L14.2583 41.5875L14.5663 41.8105L21.3852 32.4017L21.0284 32.6321Z" fill="white"/>
<path d="M14.5639 42.0847C14.5101 42.0847 14.4514 42.0676 14.405 42.0308L14.0946 41.8054C14.0359 41.7638 13.9968 41.7001 13.9846 41.6266C13.9748 41.558 13.9919 41.482 14.0335 41.4232L20.9649 31.8601C21.0431 31.7548 21.1824 31.718 21.3022 31.7744C21.4195 31.8307 21.4806 31.963 21.4488 32.0929L21.4366 32.1321C21.4904 32.1443 21.5392 32.1713 21.5783 32.2129C21.6688 32.3085 21.6785 32.4555 21.6003 32.5609L14.7814 41.9696C14.7276 42.0406 14.647 42.0823 14.5614 42.0823L14.5639 42.0847Z" fill="white"/>
<path d="M27.948 11.6709H27.7305V28.244H27.948V11.6709Z" fill="white"/>
<path d="M28.0385 28.3345H27.6377V11.5801H28.0385V28.3345ZM27.8186 28.1532H27.8552V11.7614H27.8186V28.1532Z" fill="white"/>
<path d="M16.8758 19.5553L16.8086 19.7627L32.5312 24.8841L32.5984 24.6767L16.8758 19.5553Z" fill="white"/>
<path d="M32.5916 24.9994L16.6953 19.8222L16.82 19.4424L32.7162 24.6196L32.5916 25.0019V24.9994ZM16.9251 19.7046L32.4742 24.7691L32.4865 24.7348L16.9348 19.6703L16.9251 19.707V19.7046Z" fill="white"/>
<path d="M38.7907 19.6133L23.0303 24.6162L23.0959 24.8241L38.8564 19.8212L38.7907 19.6133Z" fill="white"/>
<path d="M23.0573 25.0009L22.9351 24.6187L38.8313 19.4414L38.9535 19.8212L23.0573 24.9984V25.0009ZM23.1648 24.7363L23.177 24.7706L38.7262 19.706L38.714 19.6693L23.1648 24.7338V24.7363Z" fill="white"/>
<path d="M24.9968 19.1316L24.8208 19.2598L34.5379 32.6677L34.7139 32.5395L24.9968 19.1316Z" fill="white"/>
<path d="M34.5175 32.795L24.6948 19.2406L25.0174 19.0029L34.8402 32.5598L34.5175 32.795ZM24.949 19.2798L34.5591 32.5427L34.5909 32.5206L24.9783 19.2577L24.9515 19.2798H24.949Z" fill="white"/>
<path d="M21.1384 32.6672L20.9624 32.5398L30.6776 19.1299L30.8536 19.2597L21.1384 32.6672Z" fill="white"/>
<path d="M21.1581 32.795L20.8354 32.5598L30.6582 19.0029L30.9808 19.2406L21.1581 32.795ZM21.0872 32.5206L21.1165 32.5427L30.7266 19.2798L30.6973 19.2577L21.0872 32.5206Z" fill="white"/>
<path d="M28.5663 119.143H27.1121V118.415C27.1121 117.327 24.6558 117.085 23.7955 117.085H4.07427C1.486 117.085 0 115.595 0 112.998V45.5244H27.838V46.9823H1.45422V112.995C1.45422 114.764 2.30965 115.624 4.07671 115.624H23.7979C25.2766 115.624 26.9214 115.955 27.8404 116.796C28.7594 115.955 30.4042 115.624 31.8829 115.624H51.6017C53.3663 115.624 54.2242 114.764 54.2242 112.995V46.9823H27.838V45.5244H55.6759V112.995C55.6759 115.592 54.1899 117.082 51.5992 117.082H31.8805C31.0201 117.082 28.5639 117.327 28.5639 118.413V119.14L28.5663 119.143Z" fill="white"/>
<path d="M35.3654 56.609C35.2774 56.609 35.1943 56.5674 35.1406 56.4938L33.0118 53.512C32.804 53.5585 32.6012 53.583 32.4032 53.583C31.8117 53.583 31.34 53.365 31.0687 52.9705C30.5041 52.1399 31.0247 50.829 32.2541 49.9886C32.8529 49.5794 33.5128 49.3564 34.1214 49.3564C34.7299 49.3564 35.187 49.5721 35.4583 49.969C35.8298 50.5154 35.7393 51.2872 35.2285 52.0174L36.4017 53.8231C36.4628 53.9162 36.4603 54.0363 36.3968 54.127C36.1231 54.5239 35.7687 55.2344 35.6367 56.3689C35.6245 56.4816 35.5414 56.5747 35.4338 56.6041C35.4118 56.609 35.3874 56.6115 35.3654 56.6115V56.609ZM33.1266 52.9288C33.2122 52.9288 33.2953 52.9705 33.349 53.044L35.2017 55.6412C35.3654 54.8841 35.6196 54.3377 35.8469 53.9702L34.6664 52.157C34.6029 52.0566 34.6077 51.9291 34.6811 51.8385C35.1357 51.2627 35.2628 50.6501 35.0086 50.2753C34.8448 50.0327 34.5295 49.9004 34.1214 49.9004C33.6301 49.9004 33.0606 50.0964 32.5621 50.4394C31.6138 51.0863 31.1372 52.1056 31.5184 52.6642C31.6822 52.9043 31.9975 53.0366 32.4032 53.0366C32.6085 53.0366 32.826 53.0048 33.0509 52.9386C33.0753 52.9313 33.1022 52.9288 33.1266 52.9288Z" fill="white"/>
<path d="M39.7039 60.398C39.0782 60.398 38.3035 60.3098 37.8684 59.6017C37.0961 58.3423 37.5947 57.0535 37.7658 56.6884C37.8073 56.5978 37.8953 56.539 37.9931 56.5316C38.0957 56.5267 38.1862 56.5733 38.2399 56.6566L40.3883 59.9643C40.442 60.0476 40.4469 60.153 40.4029 60.2387C40.3614 60.3245 40.2709 60.3808 40.1732 60.3882C40.0143 60.3956 39.8555 60.4004 39.7015 60.4004L39.7039 60.398ZM38.0835 57.4137C37.9589 57.8964 37.9026 58.6143 38.3328 59.315C38.5625 59.6899 38.9511 59.8492 39.6697 59.8541L38.0835 57.4137Z" fill="white"/>
<path d="M39.8192 54.7757C39.8192 54.9791 39.6554 55.1408 39.4574 55.1408C39.2595 55.1408 39.0933 54.9791 39.0933 54.7757C39.0933 54.5723 39.2546 54.4131 39.4574 54.4131C39.6603 54.4131 39.8192 54.5748 39.8192 54.7757Z" fill="white"/>
<path d="M39.4547 55.3228C39.1516 55.3228 38.9097 55.0777 38.9097 54.7764C38.9097 54.475 39.1516 54.2324 39.4547 54.2324C39.7578 54.2324 39.9997 54.4774 39.9997 54.7764C39.9997 55.0753 39.7529 55.3228 39.4547 55.3228ZM39.4547 54.5951C39.3545 54.5951 39.2738 54.6759 39.2738 54.7764C39.2738 54.8768 39.3545 54.9601 39.4547 54.9601C39.5549 54.9601 39.6356 54.8768 39.6356 54.7764C39.6356 54.6759 39.5549 54.5951 39.4547 54.5951Z" fill="white"/>
<path d="M20.2151 79.7148H0.750488V80.6263H19.9975C20.0538 80.3151 20.1271 80.0138 20.2175 79.7148H20.2151Z" fill="white"/>
<path d="M35.4614 79.7148C35.5519 80.0138 35.6252 80.3176 35.6789 80.6263H55.1533V79.7148H35.459H35.4614Z" fill="white"/>
<path d="M27.8379 74.0677C27.9919 74.0677 28.1434 74.0726 28.2925 74.08V46.3242H27.3833V74.08C27.5348 74.0726 27.6864 74.0677 27.8379 74.0677Z" fill="white"/>
<path d="M27.8379 90.0479C27.6864 90.0479 27.5348 90.043 27.3833 90.0332V117.595H28.2925V90.0332C28.1434 90.0406 27.9919 90.0479 27.8379 90.0479Z" fill="white"/>
<path d="M33.6648 85.6842H22.0115L21.7744 85.2726L27.6011 75.1533H28.0728L33.9019 85.2726L33.6648 85.6842ZM22.4808 85.1378H33.1931L27.8382 75.8369L22.4832 85.1378H22.4808Z" fill="white"/>
<path d="M30.7638 76.2335C30.7223 76.2335 30.6832 76.2262 30.6441 76.2066C30.3825 76.0816 29.2363 75.8513 28.8697 75.7876C28.6644 75.7533 28.1707 75.6283 27.9825 75.2682C27.9238 75.1505 27.9238 75.0207 27.9825 74.9104C28.0509 74.7757 28.2024 74.685 28.376 74.6189C28.2367 74.4743 28.112 74.3444 28.0705 74.2856C27.9922 74.1656 27.9409 73.9598 28.0338 73.7392C28.1829 73.3938 28.6106 73.161 29.3463 73.0336C30.3557 72.8523 30.8738 73.6314 31.2526 74.1999C31.4213 74.4522 31.5924 74.712 31.7415 74.783C31.8783 74.8492 31.9345 75.0109 31.871 75.1481C31.8074 75.2829 31.6437 75.3392 31.5093 75.2755C31.2233 75.1383 31.0205 74.8296 30.8029 74.5061C30.3801 73.8715 30.055 73.4624 29.4465 73.5702C28.7328 73.6951 28.5764 73.8863 28.5471 73.9426C28.5275 73.9745 28.5324 73.9916 28.5348 73.999C28.5715 74.0455 28.8672 74.3444 29.1141 74.5846C29.1874 74.6581 29.2143 74.7683 29.1801 74.8688C29.1458 74.9692 29.0603 75.0378 28.9552 75.0501C28.833 75.0672 28.6986 75.0966 28.5984 75.1285C28.6913 75.18 28.8257 75.2265 28.9699 75.2535C28.9845 75.2535 30.4876 75.5254 30.8836 75.719C31.018 75.7851 31.0767 75.9493 31.0107 76.0841C30.9642 76.1821 30.8689 76.236 30.7663 76.236L30.7638 76.2335Z" fill="white"/>
<path d="M30.949 75.7561L30.7608 75.9594C30.4309 75.8002 29.1038 75.5502 28.9156 75.5159C28.7225 75.4816 28.3485 75.3763 28.2239 75.1386C28.2019 75.0994 28.2068 75.0651 28.2239 75.0284C28.0968 75.021 27.9673 75.0186 27.8377 75.0186C23.9688 75.0186 20.8208 78.1744 20.8208 82.053C20.8208 85.9317 23.9688 89.0875 27.8377 89.0875C31.7067 89.0875 34.8571 85.9292 34.8571 82.053C34.8571 79.2941 33.266 76.9027 30.9515 75.7536L30.949 75.7561ZM27.8377 88.546C24.2694 88.546 21.3658 85.6328 21.3658 82.0555C21.3658 78.4782 24.2694 75.5674 27.8377 75.5674C31.4061 75.5674 34.3121 78.4758 34.3121 82.0555C34.3121 85.6352 31.4085 88.546 27.8377 88.546Z" fill="white"/>
<path d="M31.1058 74.4722C31.2745 74.7196 31.4358 74.9352 31.6215 75.0259L31.4309 75.2366C33.8701 76.5328 35.5369 79.103 35.5369 82.0579C35.5369 86.3139 32.0834 89.776 27.8381 89.776C23.5927 89.776 20.1417 86.3139 20.1417 82.0579C20.1417 77.802 23.5952 74.3398 27.8381 74.3398C28.0654 74.3398 28.2927 74.3521 28.5127 74.3717C28.4124 74.2663 28.322 74.1708 28.2976 74.134C28.2658 74.0875 28.2218 73.9576 28.3074 73.8082C28.1509 73.7984 27.997 73.7959 27.8381 73.7959C23.2921 73.7959 19.5942 77.5006 19.5942 82.0604C19.5942 86.6202 23.2921 90.3249 27.8381 90.3249C32.3841 90.3249 36.0819 86.6177 36.0819 82.0604C36.0819 78.6669 34.0314 75.7487 31.1083 74.4771L31.1058 74.4722Z" fill="white"/>
<path d="M29.5634 74.0397C29.5634 74.1328 29.49 74.2063 29.3972 74.2063C29.3043 74.2063 29.231 74.1328 29.231 74.0397C29.231 73.9466 29.3043 73.873 29.3972 73.873C29.49 73.873 29.5634 73.949 29.5634 74.0397Z" fill="white"/>
<path d="M29.3974 74.3907C29.2043 74.3907 29.0479 74.2339 29.0479 74.0403C29.0479 73.8467 29.2043 73.6924 29.3974 73.6924C29.5904 73.6924 29.7444 73.8492 29.7444 74.0403C29.7444 74.2314 29.588 74.3907 29.3974 74.3907Z" fill="white"/>
<path d="M27.8379 84.3664C26.5866 84.3664 25.5698 83.3471 25.5698 82.0926C25.5698 80.8381 26.589 79.8164 27.8379 79.8164C29.0868 79.8164 30.1085 80.8381 30.1085 82.0926C30.1085 83.3471 29.0893 84.3664 27.8379 84.3664ZM27.8379 80.2329C26.8187 80.2329 25.9878 81.066 25.9878 82.0902C25.9878 83.1144 26.8187 83.945 27.8379 83.945C28.8571 83.945 29.6905 83.1119 29.6905 82.0902C29.6905 81.0685 28.8595 80.2329 27.8379 80.2329Z" fill="white"/>
<path d="M22.5272 113.788H20.374C20.2249 113.788 20.1002 113.665 20.1002 113.514V108.968H5.46758C5.31849 108.968 5.19629 108.846 5.19629 108.696V106.342C5.19629 106.19 5.31849 106.067 5.46758 106.067H22.5272C22.6787 106.067 22.7985 106.19 22.7985 106.342V108.696C22.7985 108.709 22.7985 108.721 22.7985 108.733V113.514C22.7985 113.665 22.6763 113.788 22.5272 113.788ZM20.6428 113.242H22.251V108.699C22.251 108.687 22.251 108.674 22.2535 108.662V106.616H5.74132V108.424H20.374C20.5231 108.424 20.6453 108.547 20.6453 108.696V113.239L20.6428 113.242Z" fill="white"/>
<path d="M17.6289 106.42C14.4467 106.42 11.856 103.82 11.856 100.63C11.856 97.44 14.4467 94.8428 17.6289 94.8428C20.811 94.8428 23.4042 97.4375 23.4042 100.63C23.4042 103.823 20.8135 106.42 17.6289 106.42ZM17.6289 95.3867C14.7473 95.3867 12.3985 97.7389 12.3985 100.628C12.3985 103.516 14.7448 105.871 17.6289 105.871C20.5129 105.871 22.8592 103.519 22.8592 100.628C22.8592 97.7365 20.5129 95.3867 17.6289 95.3867Z" fill="white"/>
<path d="M17.1838 94.1265L7.55664 87.9593L7.70328 87.7266L17.3305 93.8961L17.1838 94.1265Z" fill="white"/>
<path d="M7.63812 87.7932L7.47656 88.0117L15.9644 94.3196L16.126 94.1011L7.63812 87.7932Z" fill="white"/>
<path d="M15.0186 94.6165L7.40039 88.0647L7.57636 87.8564L15.1945 94.4058L15.0186 94.6165Z" fill="white"/>
<path d="M14.2537 94.9892L7.32227 88.1189L7.51535 87.9229L14.4467 94.7932L14.2537 94.9892Z" fill="white"/>
<path d="M7.44756 87.9935L7.24365 88.1729L13.5793 95.4103L13.7832 95.2309L7.44756 87.9935Z" fill="white"/>
<path d="M13 95.9149L7.16846 88.2188L7.38598 88.0547L13.2175 95.7507L13 95.9149Z" fill="white"/>
<path d="M12.4648 96.4664L7.09277 88.273L7.32007 88.1211L12.6946 96.3194L12.4648 96.4664Z" fill="white"/>
<path d="M11.9786 97.1155L7.01953 88.3242L7.25416 88.1895L12.2132 96.9807L11.9786 97.1155Z" fill="white"/>
<path d="M11.5187 97.8777L6.94336 88.3759L7.18777 88.2559L11.7631 97.7601L11.5187 97.8777Z" fill="white"/>
<path d="M11.135 98.8591L6.86768 88.4286L7.11941 88.3232L11.3868 98.7561L11.135 98.8591Z" fill="white"/>
<path d="M10.9054 100.452L6.79688 88.4784L7.05595 88.3877L11.162 100.362L10.9054 100.452Z" fill="white"/>
<path d="M8.17812 89.3414L6.67257 88.3711L5.16947 89.3414L5.62407 87.6091L4.24072 86.4722L6.02734 86.3717L6.67502 84.6982L7.32514 86.3717L9.11176 86.4722L7.72597 87.6091L8.18057 89.3438L8.17812 89.3414ZM5.66806 86.9377L6.24242 87.4057L6.05422 88.1212L6.67502 87.7218L7.29581 88.1212L7.10762 87.4057L7.68197 86.9377L6.94142 86.8936L6.67502 86.2027L6.40861 86.8936L5.66806 86.9377Z" fill="white"/>
<path d="M16.1819 105.462C16.0573 105.462 15.9619 105.398 15.9277 105.293C15.896 105.197 15.8691 104.925 15.8226 104.312C15.808 104.119 15.7909 103.918 15.786 103.871C15.7738 103.805 15.7762 103.648 15.7786 103.384C15.7786 103.178 15.786 102.83 15.7689 102.761C15.7615 102.744 15.7493 102.698 15.7322 102.641C15.7029 102.529 15.6247 102.232 15.5147 102.193C14.6519 101.877 14.6837 101.593 14.6935 101.502C14.7008 101.456 14.6861 101.321 14.6764 101.203C14.6324 100.698 14.6201 100.358 14.823 100.23C14.8914 100.189 14.977 100.147 15.0674 100.103C15.1114 100.081 15.175 100.049 15.2287 100.02C15.109 99.956 14.9672 99.8776 14.9257 99.7281C14.8914 99.6816 14.6446 99.5199 14.5102 99.4341C14.3464 99.3263 14.2389 99.2577 14.1778 99.194C14.146 99.1621 14.124 99.1205 14.0751 99.0176C13.8625 98.5839 13.7647 98.5055 13.7232 98.4957C13.4934 98.4785 12.8506 98.3119 12.7064 98.013C12.6576 97.915 12.6624 97.8047 12.7236 97.7116C12.88 97.474 13.6107 96.4473 14.0385 96.141C14.6128 95.7245 15.4829 95.3202 15.522 95.3031C15.5733 95.281 15.6344 95.281 15.6858 95.308C15.7371 95.3374 15.7713 95.3864 15.7786 95.4427C15.7786 95.4427 15.8471 95.9744 15.8691 96.2023C15.8837 96.3199 15.9473 96.4375 16.045 96.4106C16.1037 96.3934 16.2308 96.2611 16.3188 96.1729C16.5045 95.9842 16.6805 95.8078 16.8785 95.8078C16.8858 95.8078 16.9054 95.8078 16.9127 95.8078C16.9518 95.8078 17.0202 95.7784 17.0764 95.7515C17.1595 95.7147 17.2426 95.678 17.3331 95.678C17.4015 95.678 17.6215 95.7074 17.6215 96.0553C17.6215 96.2195 17.6141 96.3248 17.6092 96.4106C17.6019 96.5429 17.597 96.6237 17.6215 96.8295C17.641 97.0109 17.5873 97.1873 17.4626 97.3294C17.2891 97.5254 17.0007 97.6112 16.8418 97.5034C16.8125 97.4838 16.7807 97.4593 16.7489 97.4372C16.6829 97.3857 16.6072 97.3269 16.5534 97.3269C16.5412 97.3269 16.529 97.3318 16.5143 97.3367C16.3163 97.4249 16.0866 97.6063 16.0206 97.7778C15.9204 98.0497 15.6711 98.2874 15.478 98.2874C15.4609 98.2874 15.4242 98.2801 15.4047 98.2752C15.2287 98.2164 15.2141 97.986 15.2141 97.7386C15.2067 97.7141 15.153 97.6504 15.1139 97.6455C15.0576 97.6357 15.0039 97.6185 14.955 97.6014C14.9183 97.5891 14.8719 97.5744 14.845 97.5695C14.7619 97.6651 14.6153 97.9027 14.6421 98.0742C14.6837 98.3168 15.1163 98.949 15.2556 99.0053C15.5245 99.1156 16.5925 100.005 16.6561 100.071C16.7245 100.115 17.25 100.326 17.465 100.387C17.9196 100.517 18.4745 100.755 18.5258 101.152C18.5795 101.549 18.2887 102.232 18.0467 102.414C17.8757 102.543 17.6386 102.779 17.4431 103.021C17.3942 103.082 17.3551 103.124 17.3184 103.158C17.2255 103.256 17.1938 103.288 17.1155 103.715C17.0007 104.337 16.6878 105.187 16.6756 105.224C16.6609 105.263 16.6316 105.297 16.595 105.319C16.5363 105.354 16.3359 105.457 16.1819 105.457V105.462ZM15.0528 101.531C15.0845 101.588 15.2605 101.718 15.6369 101.852C15.9228 101.955 16.023 102.328 16.0817 102.551C16.089 102.59 16.0988 102.622 16.1086 102.639C16.1428 102.725 16.1452 102.894 16.1379 103.389C16.1355 103.548 16.133 103.766 16.1379 103.813C16.1477 103.869 16.1599 104.021 16.1795 104.283C16.1966 104.508 16.2283 104.891 16.2503 105.079C16.2821 105.07 16.3188 105.052 16.3554 105.035C16.4312 104.822 16.6634 104.146 16.7563 103.651C16.8467 103.156 16.9029 103.065 17.052 102.908C17.0813 102.879 17.1155 102.845 17.1571 102.796C17.3697 102.536 17.6312 102.274 17.8243 102.129C17.9465 102.039 18.2007 101.49 18.1616 101.206C18.1445 101.088 17.8879 100.892 17.36 100.74C17.2377 100.708 16.5167 100.451 16.397 100.331C16.3017 100.238 15.302 99.4218 15.1187 99.3459C14.8108 99.2234 14.3317 98.4442 14.2804 98.1355C14.2218 97.7729 14.5004 97.3955 14.6055 97.2951C14.6446 97.2559 14.7155 97.2069 14.8255 97.2069C14.911 97.2069 14.9941 97.2363 15.0674 97.2608C15.1041 97.273 15.1383 97.2853 15.1725 97.2902C15.3974 97.3294 15.5733 97.5646 15.5733 97.7435C15.5733 97.7753 15.5733 97.8023 15.5733 97.8292C15.61 97.7851 15.6491 97.7263 15.6735 97.6577C15.7835 97.3563 16.111 97.1187 16.3603 97.0084C16.4214 96.9839 16.4825 96.9668 16.5461 96.9668C16.7245 96.9668 16.8614 97.0746 16.9616 97.153C16.9811 97.1677 17.0007 97.1799 17.0178 97.1946C17.0569 97.1897 17.1278 97.1554 17.1815 97.0942C17.2206 97.0501 17.2646 96.9766 17.25 96.881C17.2206 96.6384 17.228 96.5306 17.2377 96.391C17.2451 96.3101 17.25 96.217 17.25 96.0749C17.2378 96.0798 17.228 96.0847 17.2182 96.0896C17.1155 96.1337 16.9933 96.1827 16.8687 96.1729C16.8149 96.1827 16.6561 96.3444 16.573 96.4277C16.4288 96.5747 16.2894 96.7168 16.1452 96.7585C15.8349 96.8516 15.5416 96.6066 15.5025 96.2366C15.4902 96.1141 15.4658 95.9083 15.4462 95.7417C15.1505 95.8887 14.6226 96.1631 14.2462 96.4351C13.9309 96.6629 13.3175 97.4739 13.0462 97.8782C13.1439 97.9689 13.5081 98.1159 13.7452 98.1331C14.0262 98.1551 14.2193 98.5006 14.3953 98.8583C14.4124 98.8975 14.4271 98.9269 14.4393 98.9465C14.4857 98.9882 14.603 99.0617 14.7057 99.1254C15.0576 99.3581 15.2287 99.4807 15.2703 99.6301C15.2825 99.6399 15.368 99.6865 15.4145 99.7085C15.5367 99.7722 15.7224 99.8653 15.6833 100.056C15.6491 100.221 15.4609 100.314 15.2214 100.429C15.1505 100.463 15.0796 100.5 15.0259 100.529C14.9868 100.632 15.0185 100.995 15.0332 101.174C15.0454 101.328 15.0576 101.451 15.0503 101.531H15.0528Z" fill="white"/>
<path d="M19.0198 96.9542C18.7559 96.9542 18.5677 96.8292 18.553 96.6381C18.5481 96.5793 18.4699 96.4494 18.3941 96.4127C18.2328 96.3343 18.0789 96.2461 17.986 96.0403C17.9078 95.8639 17.8711 95.5306 17.8662 95.4914C17.8613 95.4694 17.8662 95.4424 17.8736 95.4179L17.9762 95.1018C18.0007 95.0234 18.0764 94.972 18.1595 94.9769C18.1888 94.9769 18.8927 95.021 19.5257 95.2783C19.5746 95.2979 19.6113 95.3395 19.6308 95.3885C19.648 95.44 19.6406 95.4963 19.6113 95.5404C19.516 95.6997 19.4035 95.9031 19.3913 95.9594C19.3889 95.9815 19.384 96.0329 19.3816 96.104C19.3449 96.6308 19.3131 96.9321 19.0785 96.9517C19.0614 96.9517 19.0394 96.9517 19.0223 96.9517L19.0198 96.9542ZM18.9098 96.572C18.9221 96.5769 18.9416 96.5842 18.9612 96.5867C18.9905 96.4568 19.0101 96.1897 19.0174 96.077C19.0223 95.9913 19.0272 95.9227 19.0345 95.8957C19.0467 95.8148 19.1176 95.6752 19.1909 95.5453C18.8267 95.4277 18.4675 95.3763 18.2768 95.3542L18.2328 95.4939C18.2451 95.6164 18.2793 95.8075 18.3159 95.8884C18.355 95.979 18.4186 96.0207 18.553 96.0844C18.7436 96.1799 18.8805 96.4004 18.9098 96.572Z" fill="white"/>
<path d="M21.9794 104.133C21.955 104.133 21.9281 104.128 21.9012 104.116C21.8255 104.079 21.7864 104.001 21.7986 103.917C21.8401 103.675 21.8792 103.376 21.8768 103.298C21.8548 103.226 21.8524 103.116 21.8499 102.942C21.8499 102.859 21.8499 102.773 21.8426 102.707C21.8377 102.653 21.7741 102.528 21.7302 102.435C21.6666 102.31 21.6128 102.2 21.6006 102.104C21.586 101.974 21.52 101.842 21.4002 101.7C21.2902 101.568 21.2365 101.401 21.19 101.257C21.1558 101.156 21.124 101.053 21.08 100.999C20.9823 100.879 20.9358 100.735 20.8992 100.619C20.8869 100.575 20.8674 100.519 20.8576 100.504C20.6474 100.294 20.9994 99.7276 21.0043 99.7227C21.0776 99.6296 21.3049 99.5169 21.4833 99.4409C21.4906 99.4385 21.4955 99.4336 21.5053 99.4336C21.823 99.3429 21.9501 99.316 22.0039 99.3086C22.0406 99.2841 22.1114 99.2229 22.1505 99.1787C22.1334 99.1199 22.1114 99.0464 22.087 98.9803C22.0528 98.8994 22.0503 98.7941 22.0601 98.6961H22.0552C22.0137 98.7255 21.9623 98.7598 21.867 98.772C21.7033 98.7941 21.5713 98.7622 21.3464 98.6863C21.2707 98.6642 21.2487 98.6618 21.2487 98.6618C21.1729 98.6691 21.1191 98.6348 21.0776 98.6054C20.9309 98.5098 20.8552 98.4731 20.8185 98.4608C20.8087 98.4584 20.7208 98.4608 20.6499 98.4755H20.6401C20.623 98.5025 20.601 98.5491 20.5839 98.5907C20.5668 98.7353 20.5448 98.9043 20.5448 98.9411C20.5448 99.1934 20.0462 99.3405 19.8873 99.3405C19.8604 99.3405 19.8336 99.338 19.8091 99.3307C19.4034 99.24 19.3154 99.1787 19.2836 99.0734C19.2372 98.9337 19.379 98.6005 19.423 98.5074C19.4181 98.4878 19.4058 98.451 19.3985 98.429C19.3667 98.3457 19.3252 98.2256 19.3912 98.1178C19.4498 98.0223 19.5598 97.9267 19.5818 97.9046C19.6136 97.8777 19.6551 97.863 19.7016 97.863C19.7358 97.863 19.9215 97.863 20.0095 97.8802C20.0169 97.8802 20.0462 97.8654 20.078 97.8532C20.1268 97.7772 20.2148 97.6498 20.2686 97.5935L20.2833 97.5812C20.337 97.5249 20.3884 97.4783 20.3957 97.3754C20.4055 97.2676 20.3957 97.2063 20.3835 97.1353C20.3786 97.1034 20.3712 97.0716 20.3688 97.0348C20.3639 97.0079 20.3493 96.9858 20.3053 96.9368C20.2784 96.9074 20.2539 96.8756 20.2319 96.8413C20.1268 96.682 20.0804 96.5742 20.0804 96.4811C20.0804 96.3194 20.1562 96.1895 20.2857 96.1234C20.3224 96.1038 20.4543 95.9984 20.5717 95.8881C20.6303 95.8342 20.7208 95.8269 20.7892 95.8685C20.799 95.8759 21.0654 96.0376 21.3709 96.3096C21.6666 96.5717 22.654 97.9439 22.918 98.429C23.1893 98.9239 23.4386 100.347 23.199 101.734C22.9644 103.087 22.1603 104.03 22.1236 104.067C22.087 104.109 22.0381 104.131 21.9868 104.131L21.9794 104.133ZM21.1607 100.296C21.2022 100.357 21.2242 100.431 21.2487 100.512C21.278 100.602 21.3098 100.703 21.3635 100.771C21.4491 100.877 21.4931 101.014 21.5346 101.146C21.5737 101.266 21.6128 101.391 21.6788 101.467C21.8475 101.668 21.9403 101.864 21.9648 102.065C21.9697 102.099 22.0234 102.202 22.0577 102.273C22.1261 102.411 22.197 102.553 22.2092 102.675C22.2165 102.746 22.2165 102.842 22.2165 102.937C22.2165 103.026 22.219 103.158 22.2287 103.195C22.2336 103.204 22.2385 103.219 22.241 103.256C22.4658 102.871 22.7249 102.32 22.8324 101.675C23.0548 100.389 22.8324 99.044 22.5929 98.6079C22.3509 98.1644 21.3855 96.8192 21.1216 96.5865C20.9554 96.4394 20.8014 96.3243 20.7012 96.2581C20.6181 96.3341 20.5106 96.4198 20.4421 96.4566C20.4421 96.4566 20.4348 96.4639 20.4348 96.4884C20.4348 96.4884 20.4446 96.5227 20.5277 96.6477C20.5399 96.6698 20.5594 96.6894 20.5741 96.7065C20.6303 96.7702 20.7061 96.8584 20.7208 96.9981C20.7256 97.0299 20.7281 97.0544 20.733 97.0814C20.7476 97.1671 20.7647 97.2602 20.7501 97.4171C20.7305 97.6547 20.5985 97.7821 20.5277 97.8532C20.4886 97.8924 20.403 98.0125 20.3419 98.108C20.3248 98.1325 20.3004 98.157 20.271 98.1717C20.2246 98.1938 20.0413 98.2722 19.9289 98.2477C19.902 98.2428 19.8311 98.2379 19.7602 98.2354C19.7456 98.2526 19.7309 98.2648 19.7211 98.2795C19.7236 98.2893 19.7285 98.3016 19.7333 98.3138C19.7676 98.4069 19.8189 98.5442 19.7431 98.6765C19.7138 98.7279 19.6747 98.8406 19.6502 98.9239C19.7016 98.9411 19.7773 98.9631 19.8824 98.9852C19.9558 98.9852 20.1097 98.9215 20.1806 98.8774C20.1904 98.7671 20.2148 98.5907 20.2222 98.5294C20.2222 98.5196 20.227 98.5074 20.2295 98.4976C20.271 98.3751 20.3664 98.1619 20.5399 98.1325L20.579 98.1276C20.6816 98.108 20.8234 98.0909 20.9285 98.1276C21.014 98.157 21.1216 98.2158 21.2658 98.3089C21.3147 98.3114 21.3733 98.3261 21.4589 98.3555C21.6642 98.4241 21.7302 98.4339 21.8157 98.4241C21.8271 98.4241 21.8377 98.42 21.8475 98.4118C21.8939 98.38 21.9526 98.3457 22.0528 98.3457C22.1799 98.3457 22.2996 98.38 22.3143 98.3849C22.4072 98.4118 22.4634 98.5074 22.4438 98.6005C22.4218 98.6961 22.4096 98.821 22.4194 98.8553C22.4658 98.9705 22.5 99.0979 22.5171 99.164C22.544 99.2645 22.4927 99.3429 22.4512 99.3944C22.4512 99.3968 22.2165 99.681 22.0381 99.681C22.0039 99.6859 21.7937 99.7423 21.6177 99.7937C21.4686 99.8575 21.3171 99.9408 21.2829 99.9702C21.2487 100.014 21.168 100.22 21.1582 100.306L21.1607 100.296Z" fill="white"/>
<path d="M47.0628 113.346C47.0335 113.346 47.0041 113.341 46.9748 113.331C46.8648 113.292 46.7915 113.189 46.7915 113.072L46.7988 110.104C46.7988 110.041 46.8233 109.977 46.8648 109.928L51.2788 104.758C51.3546 104.672 51.4768 104.643 51.5843 104.682C51.6919 104.724 51.7627 104.829 51.7579 104.944L51.7432 105.324C51.7236 105.934 51.7212 105.954 51.7823 106.248C51.8263 106.463 52.0145 106.552 52.0169 106.554C52.0951 106.588 52.1514 106.655 52.1733 106.738C52.1953 106.819 52.1782 106.907 52.1269 106.973L47.2803 113.241C47.229 113.307 47.1459 113.346 47.0652 113.346H47.0628ZM47.3414 110.205L47.3365 112.27L51.5208 106.858C51.401 106.74 51.291 106.576 51.247 106.358C51.1933 106.096 51.1786 105.991 51.1859 105.704L47.3414 110.205Z" fill="white"/>
<path d="M41.3099 103.269C41.283 103.269 41.2585 103.264 41.2317 103.256C41.1168 103.222 41.0361 103.114 41.0361 102.992L41.217 92.7939C41.2194 92.7033 41.2659 92.6175 41.3416 92.5685C41.9649 92.1618 42.527 91.9756 43.1209 91.9756C43.7515 91.9756 44.3479 92.1887 44.8953 92.424C45.1397 92.5269 45.4257 92.5808 45.741 92.5808C46.5964 92.5808 47.3858 92.1912 47.3932 92.1863C47.4763 92.1446 47.5765 92.1471 47.6571 92.1986C47.7378 92.2476 47.7867 92.3382 47.7867 92.4313C47.7867 92.5073 47.8184 99.9583 47.7867 102.511C47.7867 102.595 47.7476 102.676 47.6791 102.727C47.6107 102.776 47.5251 102.793 47.442 102.771C46.22 102.435 45.1275 102.264 44.2012 102.264C42.1213 102.264 41.5445 103.126 41.5372 103.136C41.4858 103.219 41.3979 103.264 41.3074 103.264L41.3099 103.269ZM41.762 92.9508L41.5934 102.364C42.0504 102.058 42.857 101.722 44.2037 101.722C45.0933 101.722 46.1149 101.869 47.2514 102.156C47.271 99.7402 47.2514 94.3621 47.2465 92.8405C46.8897 92.9704 46.3373 93.1321 45.7434 93.1321C45.3548 93.1321 44.998 93.061 44.6851 92.9287C44.0057 92.6396 43.5535 92.522 43.1234 92.522C42.6932 92.522 42.2435 92.6592 41.762 92.9532V92.9508Z" fill="white"/>
<path d="M41.266 103.236C41.178 103.236 41.0974 103.194 41.0436 103.123C40.7185 102.655 39.9071 102.413 38.6997 102.413C37.0011 102.413 35.1021 102.898 35.0825 102.903C35.0043 102.922 34.9163 102.905 34.8503 102.856C34.7843 102.805 34.7428 102.726 34.7428 102.643L34.6304 93.7416C34.6304 93.6583 34.667 93.5799 34.733 93.526C34.7966 93.4721 34.8821 93.4525 34.9628 93.4721C34.9677 93.4721 35.3147 93.5481 35.8402 93.5481C36.4928 93.5481 37.4704 93.4305 38.4211 92.8669C39.0957 92.4675 39.7629 92.2617 40.4057 92.2617C41.1707 92.2617 41.6277 92.5582 41.6449 92.568C41.7255 92.6219 41.7719 92.7101 41.7695 92.8032C41.7695 92.8032 41.6351 98.691 41.5422 102.969C41.5422 103.087 41.4615 103.19 41.3516 103.229C41.3271 103.236 41.3002 103.236 41.2709 103.236H41.266ZM38.6973 101.869C39.7165 101.869 40.4888 102.033 41.007 102.359C41.0852 98.593 41.1927 93.9107 41.2171 92.9625C41.0656 92.8988 40.787 92.8081 40.4033 92.8081C39.8607 92.8081 39.2863 92.9845 38.6949 93.3374C37.639 93.9646 36.5587 94.0945 35.8377 94.0945C35.5713 94.0945 35.3465 94.0749 35.1754 94.0577L35.2805 102.293C35.916 102.151 37.3457 101.866 38.6973 101.866V101.869Z" fill="white"/>
<path d="M41.266 103.236C41.178 103.236 41.0974 103.194 41.0436 103.123C40.7185 102.655 39.9071 102.413 38.6997 102.413C37.0011 102.413 35.1021 102.898 35.0825 102.903C35.0043 102.922 34.9163 102.905 34.8503 102.856C34.7843 102.805 34.7428 102.726 34.7428 102.643L34.6304 93.7416C34.6304 93.6583 34.667 93.5799 34.733 93.526C34.7966 93.4721 34.8821 93.4525 34.9628 93.4721C34.9677 93.4721 35.3147 93.5481 35.8402 93.5481C36.4928 93.5481 37.4704 93.4305 38.4211 92.8669C39.0957 92.4675 39.7629 92.2617 40.4057 92.2617C41.1707 92.2617 41.6277 92.5582 41.6449 92.568C41.7255 92.6219 41.7719 92.7101 41.7695 92.8032C41.7695 92.8032 41.6351 98.691 41.5422 102.969C41.5422 103.087 41.4615 103.19 41.3516 103.229C41.3271 103.236 41.3002 103.236 41.2709 103.236H41.266ZM38.6973 101.869C39.7165 101.869 40.4888 102.033 41.007 102.359C41.0852 98.593 41.1927 93.9107 41.2171 92.9625C41.0656 92.8988 40.787 92.8081 40.4033 92.8081C39.8607 92.8081 39.2863 92.9845 38.6949 93.3374C37.639 93.9646 36.5587 94.0945 35.8377 94.0945C35.5713 94.0945 35.3465 94.0749 35.1754 94.0577L35.2805 102.293C35.916 102.151 37.3457 101.866 38.6973 101.866V101.869Z" fill="white"/>
<path d="M46.5546 109.156C46.5228 109.156 46.4935 109.151 46.4641 109.142C46.3566 109.102 46.2857 109.007 46.2833 108.892L46.21 106.601C46.21 106.53 46.2344 106.459 46.2833 106.407L50.1718 102.225C50.2476 102.141 50.3673 102.117 50.4724 102.159C50.5775 102.2 50.6459 102.303 50.6435 102.416L50.6362 102.744C50.6288 103.273 50.6288 103.283 50.6851 103.528C50.7242 103.692 50.8684 103.761 50.8732 103.763C50.9539 103.798 51.0126 103.869 51.0321 103.955C51.0492 104.038 51.0321 104.129 50.9735 104.195L46.7623 109.063C46.711 109.124 46.6328 109.156 46.557 109.156H46.5546ZM46.755 106.696L46.8039 108.176L50.3673 104.055C50.2793 103.959 50.1938 103.825 50.1522 103.646C50.1034 103.433 50.0863 103.33 50.0863 103.112L46.755 106.694V106.696Z" fill="white"/>
<path d="M50.3769 102.613H50.3549L48.8664 102.49C48.7173 102.475 48.6049 102.346 48.6171 102.196C48.6293 102.047 48.7589 101.934 48.9129 101.946L50.4013 102.069C50.5504 102.079 50.6628 102.211 50.6506 102.363C50.6384 102.507 50.5211 102.615 50.3817 102.615L50.3769 102.613Z" fill="white"/>
<path d="M46.4961 109.186C46.4741 109.186 46.4521 109.186 46.4301 109.181L32.5893 105.81C32.2813 105.751 31.6654 105.393 31.6508 104.472C31.6434 104.08 31.7412 103.776 31.9441 103.568C32.2349 103.274 32.6137 103.308 32.6137 103.308C32.6235 103.308 32.6357 103.313 32.648 103.313L46.5572 106.226C46.6843 106.253 46.7771 106.366 46.7747 106.493V108.916C46.7722 108.997 46.7307 109.078 46.6671 109.13C46.6183 109.169 46.5596 109.188 46.4985 109.188L46.4961 109.186ZM32.5575 103.852C32.516 103.852 32.4133 103.864 32.3327 103.947C32.2373 104.048 32.1909 104.222 32.1958 104.459C32.208 105.146 32.6577 105.263 32.7091 105.275L46.2248 108.568L46.2297 106.716L32.56 103.854L32.5575 103.852Z" fill="white"/>
<path d="M32.1734 103.991C32.1001 103.991 32.0268 103.965 31.9706 103.901C31.8703 103.788 31.8801 103.617 31.9925 103.514L33.5616 102.09C33.6716 101.99 33.8452 101.999 33.9478 102.11C34.048 102.222 34.0407 102.394 33.9283 102.494L32.3592 103.92C32.3078 103.967 32.2418 103.989 32.1759 103.989L32.1734 103.991Z" fill="white"/>
<path d="M35.1287 106.396C34.9772 106.396 34.855 106.273 34.855 106.122V104.21C34.855 104.059 34.9772 103.938 35.1287 103.938C35.2802 103.938 35.4 104.061 35.4 104.21V106.122C35.4 106.273 35.2778 106.396 35.1287 106.396Z" fill="white"/>
<path d="M36.4437 106.731C36.2946 106.731 36.1724 106.609 36.1724 106.459V104.6C36.1724 104.45 36.2946 104.325 36.4437 104.325C36.5927 104.325 36.7198 104.448 36.7198 104.6V106.459C36.7198 106.611 36.5952 106.731 36.4437 106.731Z" fill="white"/>
<path d="M42.3484 108.104C42.1969 108.104 42.0771 107.981 42.0771 107.832V105.828C42.0771 105.676 42.1994 105.556 42.3484 105.556C42.4975 105.556 42.6197 105.678 42.6197 105.828V107.832C42.6197 107.981 42.4975 108.104 42.3484 108.104Z" fill="white"/>
<path d="M46.9946 113.323C46.9677 113.323 46.9432 113.32 46.9212 113.313L31.0714 108.848C30.7097 108.768 30.0425 108.349 30.0425 107.317C30.0425 106.366 30.5948 106.033 31.0714 106.033C31.1105 106.033 31.135 106.033 31.135 106.033C31.1472 106.036 31.1619 106.036 31.1741 106.041L47.0581 109.892C47.1803 109.922 47.2683 110.032 47.2683 110.157V113.046C47.2683 113.131 47.2292 113.212 47.1608 113.266C47.1119 113.3 47.0532 113.32 46.997 113.32L46.9946 113.323ZM31.069 106.577C30.8784 106.577 30.5875 106.683 30.5875 107.315C30.5875 108.145 31.135 108.297 31.1985 108.312L46.7233 112.685V110.37L31.0714 106.575L31.069 106.577Z" fill="white"/>
<path d="M30.6218 106.732C30.5485 106.732 30.4727 106.7 30.4165 106.639C30.3187 106.526 30.3285 106.352 30.4434 106.254L31.8658 105.009C31.9783 104.911 32.1518 104.921 32.252 105.036C32.3498 105.149 32.34 105.321 32.2251 105.424L30.8027 106.666C30.7513 106.71 30.6878 106.734 30.6218 106.734V106.732Z" fill="white"/>
<path d="M51.4845 105.137H51.4576L50.2038 105.012C50.0547 104.997 49.9448 104.862 49.957 104.715C49.9716 104.566 50.1036 104.455 50.2552 104.468L51.5065 104.593C51.6581 104.61 51.7656 104.742 51.7509 104.892C51.7387 105.034 51.619 105.139 51.4796 105.139L51.4845 105.137Z" fill="white"/>
<path d="M32.7653 109.175C32.6651 109.175 32.5845 109.092 32.5845 108.994V106.83C32.5845 106.73 32.6651 106.646 32.7653 106.646C32.8655 106.646 32.9462 106.73 32.9462 106.83V108.994C32.9462 109.092 32.8655 109.175 32.7653 109.175Z" fill="white"/>
<path d="M41.9841 111.77C41.8839 111.77 41.8032 111.687 41.8032 111.586V109.06C41.8032 108.96 41.8839 108.879 41.9841 108.879C42.0843 108.879 42.1625 108.96 42.1625 109.06V111.586C42.1625 111.689 42.0843 111.77 41.9841 111.77Z" fill="white"/>
<path d="M41.3242 92.6478C40.1999 92.6478 39.2492 91.9348 38.9559 90.8764C38.9363 90.8053 38.9608 90.7293 39.017 90.6852C39.0732 90.6387 39.1514 90.6289 39.2149 90.6681C39.2149 90.6681 39.3909 90.7587 39.6353 90.8396C39.4203 90.526 39.2638 90.1413 39.1734 89.8203C39.1538 89.7517 39.1783 89.6758 39.2345 89.6317C39.2907 89.5851 39.3689 89.5777 39.4325 89.6121C39.4325 89.6121 39.6256 89.7125 39.8822 89.7983C39.7306 89.5483 39.6182 89.2568 39.5498 89.0044C39.5327 88.9333 39.5547 88.8574 39.6109 88.8133C39.6695 88.7667 39.7453 88.7618 39.8089 88.7937C39.8113 88.7937 40.1877 88.9946 40.5127 89.0559C40.8158 88.7055 40.8843 88.2252 40.9356 87.8675C40.9845 87.5392 41.026 87.2305 41.3071 87.2305C41.5613 87.2305 41.6077 87.5024 41.659 87.8185C41.7177 88.1689 41.7983 88.6418 42.1063 88.9995C42.4533 88.9432 42.8517 88.7888 42.8566 88.7863C42.9202 88.7643 42.991 88.7765 43.0448 88.8231C43.0937 88.8696 43.1157 88.9407 43.0986 89.0093C43.0277 89.2617 42.9153 89.5532 42.7613 89.8056C43.0179 89.7199 43.2086 89.6145 43.211 89.6145C43.2746 89.5777 43.3552 89.5875 43.4114 89.6341C43.4676 89.6782 43.4921 89.7542 43.4725 89.8228C43.387 90.1364 43.2257 90.526 43.0057 90.8518C43.2526 90.7661 43.4285 90.6705 43.431 90.6705C43.4945 90.6338 43.5752 90.6436 43.6289 90.6877C43.6852 90.7318 43.712 90.8053 43.6925 90.8788C43.3968 91.9373 42.446 92.6503 41.3242 92.6503V92.6478ZM39.4569 91.1679C39.804 91.8491 40.5103 92.2828 41.3242 92.2828C42.1381 92.2828 42.842 91.8491 43.189 91.1679C42.991 91.239 42.7417 91.3149 42.4802 91.3419C42.3996 91.3492 42.3214 91.3027 42.2896 91.2243C42.2603 91.1459 42.2896 91.0577 42.358 91.0111C42.6122 90.8371 42.8346 90.4721 42.9862 90.107C42.7906 90.1805 42.5389 90.2589 42.2847 90.2834C42.204 90.2932 42.1258 90.2442 42.0965 90.1682C42.0672 90.0898 42.0941 90.0016 42.1601 89.9551C42.3434 89.8252 42.5096 89.5434 42.6293 89.247C42.4582 89.296 42.248 89.3523 42.0574 89.3719C42.0036 89.3768 41.9499 89.3597 41.9083 89.3205C41.4659 88.8794 41.3657 88.2767 41.2997 87.8822C41.2997 87.8822 41.2973 87.9067 41.2924 87.9214C41.2362 88.3257 41.1482 88.9407 40.7083 89.3817C40.6692 89.4209 40.6154 89.4405 40.5592 89.4356C40.3832 89.416 40.1926 89.3572 40.0313 89.296C40.1461 89.5704 40.3026 89.8277 40.4736 89.9526C40.5421 90.0016 40.569 90.0874 40.5372 90.1633C40.5054 90.2393 40.4272 90.2908 40.349 90.2785C40.0973 90.254 39.8504 90.178 39.6524 90.1045C39.8015 90.4696 40.0239 90.8322 40.2781 91.0087C40.3466 91.0552 40.371 91.1434 40.3441 91.2194C40.3172 91.2978 40.2341 91.3468 40.1559 91.337C39.8993 91.31 39.6524 91.2365 39.4545 91.1679H39.4569Z" fill="white"/>
<path d="M13.1371 71.852C13.0613 71.852 12.9831 71.8177 12.9293 71.754C12.8316 71.6389 12.8462 71.4649 12.9635 71.3693L15.0361 69.6224C15.151 69.5244 15.3245 69.5391 15.4198 69.6567C15.5176 69.7718 15.5029 69.9433 15.3856 70.0413L13.3106 71.7883C13.2617 71.8324 13.1982 71.852 13.1346 71.852H13.1371Z" fill="white"/>
<path d="M13.0586 73.4724C12.9804 73.4724 12.9046 73.4381 12.8484 73.3744C12.7531 73.2592 12.7678 73.0877 12.8826 72.9897L14.9992 71.2231C15.1141 71.1275 15.2852 71.1422 15.3829 71.2574C15.4807 71.3726 15.4636 71.5465 15.3487 71.6421L13.2346 73.4087C13.1808 73.4528 13.1197 73.4724 13.0586 73.4724Z" fill="white"/>
<path d="M14.2242 76.2952C12.7455 76.2952 11.5528 75.1289 11.5088 73.6465C11.5088 73.573 11.5357 73.4995 11.587 73.4505C11.6383 73.3966 11.7092 73.3672 11.7825 73.3672H16.6682C16.7415 73.3672 16.8124 73.399 16.8637 73.4505C16.9151 73.5019 16.942 73.573 16.9395 73.6465C16.9004 75.1313 15.7077 76.2952 14.2266 76.2952H14.2242ZM12.0783 73.9111C12.242 74.9623 13.1341 75.7488 14.2217 75.7488C15.3093 75.7488 16.2038 74.9623 16.3676 73.9111H12.0783Z" fill="white"/>
<path d="M17.8759 70.0981H10.573C10.4215 70.0981 10.3018 69.9756 10.3018 69.8261V68.6084C10.3018 68.4565 10.424 68.334 10.573 68.334H17.8759C18.025 68.334 18.1497 68.4565 18.1497 68.6084V69.8261C18.1497 69.9756 18.025 70.0981 17.8759 70.0981ZM10.8443 69.5517H17.5998V68.8804H10.8443V69.5517Z" fill="white"/>
<path d="M15.3389 73.9087H12.973C12.8972 73.9087 12.8264 73.8768 12.7726 73.8254C12.7237 73.7715 12.6944 73.698 12.6993 73.622L12.8875 69.812C12.8948 69.6674 13.0145 69.5547 13.1587 69.5547H15.1384C15.2826 69.5547 15.4024 69.6674 15.4097 69.812L15.6004 73.5779C15.6028 73.5975 15.6077 73.6171 15.6077 73.6367C15.6077 73.7886 15.4855 73.9111 15.3364 73.9111L15.3389 73.9087ZM13.259 73.3623H15.048L14.8843 70.0986H13.4227L13.259 73.3623Z" fill="white"/>
<path d="M15.0849 68.8806H13.2225C13.1491 68.8806 13.0758 68.8512 13.0245 68.7973C12.9732 68.7434 12.9463 68.6723 12.9487 68.5964L13.7015 53.4836H7.90906L10.9886 60.4789C11.0057 60.5156 11.013 60.5549 11.013 60.5965C10.9519 62.7649 9.21175 64.4604 7.05364 64.4604C4.89552 64.4604 3.1529 62.7625 3.0918 60.5965C3.0918 60.5573 3.09913 60.5156 3.11624 60.4789L6.8019 52.0846C6.84589 51.9841 6.94121 51.9204 7.05119 51.9204H13.7846L13.8799 50.0043C13.8873 49.8598 14.007 49.7471 14.1537 49.7471C14.2979 49.7471 14.4176 49.8598 14.425 50.0043L14.5227 51.9204H21.3539C21.4614 51.9204 21.5568 51.9841 21.6032 52.0846L25.2888 60.4789C25.306 60.5156 25.3108 60.5549 25.3108 60.5965C25.2497 62.7649 23.5096 64.4604 21.349 64.4604C19.1884 64.4604 17.4483 62.7625 17.3896 60.5965C17.3896 60.5573 17.3969 60.5156 17.4116 60.4789L20.4911 53.4836H14.6034L15.361 68.5498C15.3635 68.567 15.3659 68.5866 15.3659 68.6062C15.3659 68.7556 15.2437 68.8781 15.0946 68.8781L15.0849 68.8806ZM13.5084 68.3342H14.7965L14.1488 55.4756L13.5084 68.3342ZM17.9273 60.6431C18.0104 62.4832 19.4988 63.9165 21.3392 63.9165C23.1796 63.9165 24.6729 62.4832 24.756 60.6431L21.1681 52.4692H14.2563C14.2172 52.4692 14.1805 52.4594 14.1463 52.4472C14.1121 52.4594 14.0755 52.4692 14.0388 52.4692H7.22228L3.63438 60.6431C3.71748 62.4832 5.20592 63.9165 7.05119 63.9165C8.89647 63.9165 10.3825 62.4832 10.4656 60.6431L7.24183 53.3194C7.20517 53.2361 7.21494 53.1381 7.26383 53.0597C7.31271 52.9838 7.39825 52.9348 7.49112 52.9348H13.985C14.0437 52.9348 14.0999 52.9519 14.1439 52.9862C14.1903 52.9519 14.2441 52.9348 14.3027 52.9348H20.8944C20.9873 52.9348 21.0728 52.9813 21.1242 53.0597C21.173 53.1381 21.1828 53.2337 21.1461 53.3194L17.9249 60.6431H17.9273Z" fill="white"/>
<path d="M9.76617 60.7778H4.33788C4.24501 60.7778 4.15947 60.7288 4.10814 60.6529C4.05926 60.5769 4.04948 60.4789 4.08615 60.3956L6.79906 54.1305C6.84306 54.03 6.94082 53.9639 7.0508 53.9639C7.16079 53.9639 7.25611 54.03 7.30254 54.1305L9.99835 60.3589C10.0252 60.4005 10.0423 60.4544 10.0423 60.5059C10.0423 60.6578 9.92014 60.7803 9.76861 60.7803L9.76617 60.7778ZM4.75338 60.2315H9.34823L7.0508 54.9243L4.75338 60.2315Z" fill="white"/>
<path d="M24.0594 60.7778H18.6287C18.5358 60.7778 18.4502 60.7288 18.4014 60.6529C18.35 60.5769 18.3427 60.4789 18.3794 60.3956L21.0923 54.1305C21.1338 54.03 21.234 53.9639 21.3416 53.9639C21.4491 53.9639 21.5493 54.03 21.5909 54.1305L24.2891 60.3589C24.316 60.4005 24.3331 60.4544 24.3331 60.5059C24.3331 60.6578 24.2109 60.7803 24.0618 60.7803L24.0594 60.7778ZM19.0417 60.2315H23.6366L21.3391 54.9243L19.0417 60.2315Z" fill="white"/>
<path d="M42.5954 63.9425C42.5783 63.9425 42.5612 63.9425 42.5417 63.9376C42.4488 63.918 42.373 63.8518 42.3413 63.7612C42.0871 63.0482 41.63 62.2568 41.3734 62.2568C41.3465 62.2592 41.2927 62.269 41.2145 62.2837C40.887 62.3425 40.21 62.4626 39.4206 62.4626C36.9545 62.4626 35.4807 61.3061 35.1655 59.1181C34.5398 54.7886 36.2922 53.3552 36.5195 53.1911C37.0303 52.7182 37.6413 52.4658 38.289 52.4658C39.4304 52.4658 40.4911 53.2719 40.7037 54.3059C40.9652 55.558 40.2882 57.0967 39.9338 57.251C39.8605 57.2829 39.7799 57.3 39.6943 57.3C39.2568 57.3 38.7656 56.8492 38.4796 56.5429C38.3599 56.6997 38.1912 56.9938 38.0861 57.3882C37.9541 57.8734 37.8906 58.6011 38.3305 59.3165C38.5652 59.6988 38.9635 59.8556 39.7017 59.8556C39.9216 59.8556 40.1465 59.8433 40.3884 59.8311C40.628 59.8139 40.8773 59.8041 41.1217 59.8041C41.7522 59.8041 42.5417 59.8874 43.0598 60.5441C44.0717 61.8206 43.3311 63.2711 42.7983 63.8567C42.7445 63.9155 42.6712 63.9474 42.5954 63.9474V63.9425ZM41.3734 61.7079C41.9453 61.7079 42.4072 62.5189 42.6663 63.1045C42.962 62.6169 43.3042 61.7251 42.6321 60.8773C42.3364 60.5049 41.8842 60.3432 41.1217 60.3432C40.8919 60.3432 40.6524 60.3554 40.4153 60.3701C40.1807 60.3848 39.9363 60.3971 39.7017 60.3971C39.076 60.3971 38.3012 60.3089 37.8662 59.6008C37.2405 58.5815 37.4482 57.55 37.6266 57.0281C37.7855 56.5674 38.0983 56.021 38.4136 55.9059C38.5212 55.8618 38.6458 55.8961 38.7216 55.9867C39.0735 56.4155 39.4988 56.7512 39.6943 56.7537C39.8776 56.5233 40.3787 55.406 40.1734 54.4186C40.0096 53.6321 39.1835 53.0147 38.289 53.0147C37.7782 53.0147 37.2894 53.218 36.8788 53.6052C36.869 53.615 36.8568 53.6248 36.8445 53.6321C36.8396 53.6321 36.4095 53.9408 36.0527 54.7469C35.7203 55.5041 35.3903 56.8615 35.7056 59.0397C35.9818 60.9484 37.2307 61.9162 39.4206 61.9162C40.1587 61.9162 40.8088 61.801 41.1168 61.7471C41.2121 61.73 41.2805 61.7202 41.3172 61.7153C41.3392 61.7104 41.3563 61.7104 41.371 61.7104L41.3734 61.7079Z" fill="white"/>
<path d="M41.4635 67.6353C40.6643 67.6353 40.0826 67.4369 39.6916 67.0228C38.4891 65.7609 39.4569 63.9747 40.1388 63.2078C40.1926 63.1441 40.2684 63.1098 40.3539 63.1147C40.4346 63.1196 40.5103 63.1588 40.5592 63.225C40.5763 63.2446 40.9356 63.7273 41.4024 64.455C41.4562 64.5358 41.4586 64.6412 41.4146 64.7294C41.3853 64.7857 41.3755 64.8176 41.3731 64.8347C41.4024 64.8519 41.4953 64.8911 41.7348 64.8911C42.0403 64.8911 42.4705 64.825 42.9544 64.7024C44.2424 64.3766 45.2396 64.5897 45.726 65.2978C46.1903 65.9716 46.0266 66.7189 45.2445 67.5275C45.1736 67.601 45.0636 67.628 44.9659 67.5986C44.8681 67.5667 44.7972 67.481 44.7801 67.378C44.7679 67.3094 44.653 67.2727 44.4379 67.2727C44.1398 67.2727 43.7218 67.3437 43.277 67.4222C42.71 67.5226 42.0623 67.6353 41.4611 67.6353H41.4635ZM40.3344 63.8424C39.936 64.406 39.1954 65.7119 40.0826 66.643C40.3686 66.9419 40.8207 67.0865 41.4635 67.0865C42.0183 67.0865 42.6416 66.9787 43.1866 66.8831C43.6534 66.7998 44.0958 66.7263 44.4404 66.7263C44.7435 66.7263 44.9463 66.7925 45.0807 66.8905C45.5964 66.2436 45.4498 65.854 45.2787 65.6066C45.0441 65.266 44.6359 65.0969 44.0616 65.0969C43.7707 65.0969 43.4432 65.141 43.0888 65.2292C42.7198 65.3248 42.1845 65.4375 41.7372 65.4375C41.29 65.4375 41.0358 65.3321 40.9038 65.1141C40.8427 65.0136 40.7938 64.8519 40.8672 64.6289C40.6545 64.3031 40.4663 64.0311 40.3319 63.8424H40.3344Z" fill="white"/>
<path d="M41.7375 65.4382C41.7082 65.4382 41.6789 65.4382 41.6495 65.4382C41.5664 65.4357 41.4858 65.394 41.4369 65.3254L39.3155 62.3485C39.2568 62.2652 39.247 62.1574 39.291 62.0667C39.3374 61.976 39.4303 61.9197 39.5305 61.9197C40.2246 61.9074 40.8283 61.7996 41.1192 61.7506C41.2121 61.7335 41.2805 61.7237 41.3196 61.7188C41.3269 61.7188 41.3465 61.7139 41.3563 61.7139H41.3783C41.4662 61.7188 41.5567 61.7653 41.6055 61.8388L43.507 64.7619C43.5559 64.8379 43.5633 64.9334 43.529 65.0167C43.4948 65.1 43.4215 65.1613 43.3311 65.1809C43.2504 65.198 43.1698 65.2127 43.0842 65.2348C42.7176 65.3303 42.1823 65.4431 41.7351 65.4431L41.7375 65.4382ZM40.0511 62.4367L41.7986 64.8893C42.0724 64.882 42.4341 64.8281 42.8374 64.73L41.2438 62.2799C41.2438 62.2799 41.2267 62.2848 41.2145 62.2848C40.9848 62.3264 40.5619 62.3999 40.0511 62.4367Z" fill="white"/>
<path d="M47.151 76.2894C47.1388 76.2894 47.1143 76.2894 47.1021 76.287C46.7526 76.238 46.6402 75.8754 46.5449 75.5544C46.4813 75.3437 46.4104 75.106 46.2882 74.9688C46.2076 74.8781 46.1147 74.7924 46.0169 74.7017C45.7066 74.42 45.3571 74.099 45.3228 73.4938C45.3204 73.4154 45.3155 73.3419 45.3106 73.2684C45.2788 72.5872 45.2617 72.2491 44.7314 71.7688C44.509 71.5679 44.2499 71.4871 43.9517 71.394C43.4311 71.2323 42.8397 71.0485 42.3484 70.213C41.5321 68.8213 43.0718 67.383 43.1378 67.3218C43.194 67.2728 43.2698 67.2458 43.3407 67.2531C43.4165 67.2531 43.4849 67.2923 43.5313 67.3487C44.3892 68.4096 44.6165 68.8801 44.6727 69.1006C44.7167 69.0957 44.7631 69.0908 44.8096 69.0859C44.9904 69.0638 45.2128 69.0369 45.4426 69.0369C45.7677 69.0369 46.0341 69.0932 46.2589 69.201C47.2097 69.6788 47.173 70.5315 47.063 71.1342C46.909 71.9796 47.1803 72.2393 47.4663 72.5113C47.6789 72.7146 47.9184 72.9425 47.9307 73.3517C47.9478 73.9863 47.828 75.7504 47.4321 76.1571C47.3294 76.2649 47.2194 76.2845 47.1461 76.2845L47.151 76.2894ZM43.304 67.9441C42.9692 68.3337 42.3777 69.1839 42.8201 69.9386C43.2038 70.5928 43.6462 70.73 44.113 70.8745C44.443 70.9774 44.7851 71.0852 45.0955 71.3621C45.797 71.9943 45.8214 72.5456 45.8556 73.2439C45.8581 73.3149 45.863 73.3884 45.8679 73.4644C45.8874 73.8442 46.1049 74.0426 46.3811 74.2974C46.4862 74.393 46.5938 74.4935 46.694 74.6062C46.8968 74.834 46.9872 75.133 47.0655 75.3951C47.0826 75.4564 47.107 75.5299 47.1314 75.596C47.2708 75.1673 47.4101 74.1431 47.3881 73.3713C47.3807 73.1924 47.2903 73.0968 47.0948 72.9106C46.7697 72.6019 46.3225 72.1756 46.5302 71.0387C46.6597 70.3208 46.518 69.9435 46.0169 69.6911C45.8727 69.62 45.6846 69.5833 45.445 69.5833C45.2471 69.5833 45.0515 69.6053 44.878 69.6274C44.7436 69.6445 44.6263 69.6592 44.5285 69.6592C44.4674 69.6592 44.2768 69.6592 44.1692 69.5049C44.1326 69.451 44.0788 69.3383 44.1326 69.1814C44.0617 68.9781 43.6902 68.4366 43.304 67.9367V67.9441Z" fill="white"/>
<path d="M46.2858 69.8061C46.2345 69.8061 46.1856 69.7939 46.1416 69.7669C46.1025 69.74 46.0634 69.7179 46.0169 69.6934C45.8727 69.6223 45.6821 69.5856 45.445 69.5856C45.247 69.5856 45.0515 69.6076 44.8804 69.6297C44.812 69.637 44.7509 69.6468 44.6971 69.6517C44.5994 69.6615 44.5041 69.6174 44.4478 69.539L43.8955 68.7672C43.7268 68.51 43.5289 68.238 43.3896 68.0542L42.8763 67.3339C42.8201 67.2579 42.8103 67.1599 42.8445 67.0717C42.8812 66.9835 42.957 66.9247 43.0498 66.9075L43.1769 66.8855C43.7708 66.7826 44.3256 66.6919 44.6849 66.7434C44.7631 66.7532 44.8316 66.7973 44.8755 66.8634L46.4935 69.3528C46.5375 69.4018 46.562 69.4631 46.562 69.5341C46.562 69.6861 46.4422 69.8061 46.2907 69.8061H46.2882H46.2858ZM43.5704 67.3706L43.827 67.7284C43.9664 67.9121 44.1741 68.1939 44.3452 68.4585L44.7973 69.0882C44.7973 69.0882 44.8096 69.0882 44.812 69.0858C44.9929 69.0637 45.2153 69.0368 45.445 69.0368C45.5135 69.0368 45.5794 69.0368 45.643 69.0441L44.4918 67.2702C44.2596 67.2628 43.9297 67.3094 43.5729 67.3706H43.5704Z" fill="white"/>
<path d="M51.3058 78.2644C51.2521 78.2644 51.2007 78.2473 51.1543 78.2179L50.1938 77.5612C50.1669 77.5441 50.1449 77.522 50.1278 77.4951L47.4417 73.734C47.4075 73.6875 47.3904 73.6287 47.3904 73.5723C47.3904 73.5037 47.3904 73.4351 47.3904 73.3714C47.3831 73.1926 47.2927 73.097 47.0971 72.9108C46.7721 72.6021 46.3248 72.1757 46.5326 71.0388C46.5765 70.7889 46.5888 70.5831 46.5668 70.4091C46.5497 70.2817 46.623 70.1617 46.7403 70.1176C46.8601 70.0735 46.9945 70.1176 47.0629 70.2229L51.274 76.7037C51.2912 76.7306 51.3058 76.7625 51.3132 76.7919L51.5722 77.9263C51.5967 78.0366 51.5551 78.1517 51.4598 78.2154C51.4134 78.2448 51.3596 78.262 51.3058 78.262V78.2644ZM50.5408 77.1398L50.883 77.375L50.7901 76.9658L47.0531 71.2128C46.9285 71.9993 47.1925 72.2492 47.4711 72.5139C47.6837 72.7172 47.9232 72.9451 47.9355 73.3543C47.9355 73.3959 47.9355 73.44 47.9355 73.4841L50.5408 77.1374V77.1398Z" fill="white"/>
<path d="M49.0987 93.1864C49.0302 93.1349 48.9374 93.1177 48.8567 93.1472C48.4314 93.2819 47.906 93.4069 47.4734 93.5V94.0562C47.8253 93.9827 48.2604 93.8871 48.6661 93.7744C48.6612 95.6659 48.6196 101.6 48.6099 103.063C47.9011 102.938 46.1487 102.659 44.4158 102.659C43.1938 102.659 42.2186 102.798 41.5098 103.083C41.4781 103.149 41.4219 103.205 41.3461 103.232C41.3216 103.239 41.2948 103.239 41.2654 103.239C41.1774 103.239 41.0968 103.198 41.043 103.127C41.0381 103.117 41.0308 103.107 41.021 103.1C40.4882 102.926 39.4006 102.642 37.9562 102.642C36.651 102.642 35.3581 102.872 34.1043 103.328C34.0896 101.042 33.9674 96.2074 33.9357 94.8892C34.1141 94.9211 34.3585 94.9627 34.6469 95.0044L34.6396 94.4507C34.0823 94.3673 33.7157 94.2938 33.7059 94.2914C33.6253 94.2742 33.5422 94.2963 33.4786 94.3502C33.4151 94.4041 33.3784 94.4825 33.3784 94.5658C33.3833 94.632 33.5617 101.36 33.5617 103.725C33.5617 103.815 33.6082 103.901 33.6815 103.95C33.7255 103.982 33.7817 103.997 33.833 103.997C33.8672 103.997 33.9014 103.992 33.9332 103.979C35.2384 103.455 36.5924 103.188 37.9562 103.188C39.8796 103.188 41.1603 103.727 41.1726 103.732C41.2483 103.766 41.3363 103.761 41.4072 103.722C42.05 103.379 43.0618 103.203 44.4134 103.203C46.5544 103.203 48.8005 103.654 48.8225 103.658C48.9032 103.676 48.9863 103.654 49.0498 103.602C49.1109 103.551 49.1476 103.475 49.1476 103.391C49.1476 103.308 49.2087 94.877 49.2087 93.4044C49.2087 93.3187 49.1671 93.2354 49.0962 93.1864H49.0987Z" fill="white"/>
<path d="M27.8381 84.5006C26.1639 84.5006 24.6144 83.6602 23.6954 82.2513L23.5977 82.1043L23.6954 81.9548C24.6144 80.546 26.1639 79.7031 27.8381 79.7031C29.5123 79.7031 31.0643 80.546 31.9808 81.9548L32.0786 82.1043L31.9808 82.2513C31.0643 83.6602 29.5148 84.5006 27.8381 84.5006ZM24.2527 82.1019C25.0788 83.2657 26.4059 83.9518 27.8357 83.9518C29.2655 83.9518 30.595 83.2657 31.4211 82.1019C30.5926 80.938 29.2679 80.2471 27.8357 80.2471C26.4034 80.2471 25.0788 80.938 24.2527 82.1019Z" fill="white"/>
<path d="M28.8034 82.0723C28.8034 82.6089 28.3708 83.0401 27.838 83.0401C27.3052 83.0401 26.8726 82.6065 26.8726 82.0723C26.8726 81.5382 27.3052 81.1045 27.838 81.1045C28.3708 81.1045 28.8034 81.5382 28.8034 82.0723Z" fill="white"/>
<path d="M6.20308 106.373L5.79736 106.175L7.52777 101.485L8.79379 102.098L6.20552 106.373H6.20308ZM7.77951 102.115L7.04384 104.112L8.14612 102.291L7.78195 102.115H7.77951Z" fill="white"/>
<path d="M10.9325 106.373L8.34424 102.098L9.61027 101.485L11.3407 106.175L10.9325 106.373ZM8.99192 102.291L10.0942 104.112L9.35608 102.115L8.99192 102.291Z" fill="white"/>
<path d="M8.57614 102.419C7.85269 102.419 7.26367 101.828 7.26367 101.103C7.26367 100.378 7.85269 99.7871 8.57614 99.7871C9.29958 99.7871 9.8886 100.378 9.8886 101.103C9.8886 101.828 9.29958 102.419 8.57614 102.419ZM8.57614 100.333C8.15331 100.333 7.8087 100.677 7.8087 101.103C7.8087 101.529 8.15331 101.872 8.57614 101.872C8.99896 101.872 9.34358 101.527 9.34358 101.103C9.34358 100.679 8.99896 100.333 8.57614 100.333Z" fill="white"/>
<path d="M276.671 101.201H275.234V119.141H276.671V101.201Z" fill="#004B93"/>
<path d="M276.671 83.2598H275.234V101.2H276.671V83.2598Z" fill="#E63329"/>
<path d="M276.671 65.3174H275.234V83.2577H276.671V65.3174Z" fill="#007E47"/>
<path d="M276.671 47.3799H275.234V65.3202H276.671V47.3799Z" fill="#FFCE44"/>
<path d="M302.451 82.1213C302.256 82.1213 302.104 82.1777 301.997 82.2904C301.892 82.4031 301.818 82.5378 301.779 82.6971C301.74 82.8564 301.721 83.0279 301.721 83.2116V90.6455C301.721 92.2455 301.283 93.4657 300.406 94.311C299.528 95.1563 298.299 95.5802 296.718 95.5802C295.136 95.5802 293.89 95.1514 293.022 94.2914C292.152 93.4314 291.717 92.2038 291.717 90.6039V83.0916C291.717 82.8 291.683 82.5648 291.617 82.3884C291.551 82.2095 291.348 82.1213 291.003 82.1213H290.708V81.9229H294.383V82.1213C294.173 82.1213 294.005 82.1287 293.88 82.1409C293.755 82.1556 293.655 82.1948 293.582 82.261C293.511 82.3271 293.46 82.4276 293.435 82.5574C293.408 82.6898 293.396 82.8686 293.396 83.094V90.6455C293.396 91.8608 293.675 92.8213 294.237 93.5294C294.796 94.2375 295.711 94.5903 296.974 94.5903C298.133 94.5903 299.034 94.2596 299.672 93.6005C300.313 92.9389 300.63 92.0348 300.63 90.8856V83.0377C300.63 82.8392 300.601 82.6726 300.542 82.5403C300.481 82.4104 300.381 82.3075 300.235 82.234C300.09 82.1605 299.878 82.1238 299.601 82.1238V81.9253H302.745V82.1238H302.446L302.451 82.1213Z" fill="white"/>
<path d="M316.607 82.21C316.463 82.2688 316.36 82.3595 316.299 82.4771C316.241 82.5971 316.209 82.7491 316.202 82.9328C316.194 83.119 316.192 83.3371 316.192 83.587V95.4386H315.182L307.254 84.0624V93.7137C307.254 93.966 307.256 94.1792 307.264 94.3581C307.269 94.5369 307.303 94.6864 307.361 94.804C307.422 94.9241 307.523 95.0098 307.669 95.0637C307.814 95.1152 308.019 95.1421 308.283 95.1421V95.3406H305.101V95.1421C305.377 95.1421 305.587 95.1152 305.734 95.0637C305.878 95.0098 305.983 94.9265 306.049 94.8162C306.115 94.7035 306.152 94.559 306.159 94.3801C306.164 94.2012 306.169 93.9807 306.169 93.7161V82.9549C306.088 82.7834 306.022 82.6413 305.971 82.5285C305.917 82.4158 305.858 82.3301 305.792 82.2713C305.726 82.2125 305.643 82.1708 305.545 82.1512C305.445 82.1316 305.299 82.1218 305.101 82.1218V81.9234H307.711C308.923 83.7585 310.157 85.5643 311.409 87.3334C312.66 89.1049 313.894 90.9082 315.107 92.7434V83.587C315.107 83.3224 315.102 83.0994 315.097 82.9132C315.09 82.7295 315.058 82.5775 314.997 82.4575C314.938 82.3374 314.833 82.2517 314.681 82.2002C314.53 82.1463 314.315 82.1194 314.039 82.1194V81.9209H317.24V82.1194C316.964 82.1194 316.751 82.1488 316.607 82.21Z" fill="white"/>
<path d="M319.672 95.343V95.1446C319.897 95.1446 320.078 95.1372 320.217 95.125C320.356 95.1127 320.464 95.0735 320.544 95.0147C320.623 94.9559 320.674 94.8603 320.701 94.728C320.728 94.5957 320.74 94.4095 320.74 94.1718V83.0921C320.74 82.8544 320.728 82.6682 320.701 82.5359C320.674 82.406 320.623 82.308 320.544 82.2492C320.464 82.1904 320.356 82.1537 320.217 82.139C320.08 82.1267 319.897 82.1194 319.672 82.1194V81.9209H323.507V82.1194C323.284 82.1194 323.103 82.1267 322.964 82.139C322.825 82.1537 322.717 82.1904 322.639 82.2492C322.558 82.308 322.507 82.406 322.48 82.5359C322.453 82.6682 322.439 82.8544 322.439 83.0921V94.1718C322.439 94.4095 322.453 94.5957 322.48 94.728C322.505 94.8603 322.558 94.9559 322.639 95.0147C322.717 95.0735 322.827 95.1103 322.964 95.125C323.103 95.1372 323.284 95.1446 323.507 95.1446V95.343H319.672Z" fill="white"/>
<path d="M337.614 82.3585C337.489 82.5153 337.379 82.7089 337.286 82.9319L332.442 95.4768H331.631L326.53 82.9711C326.425 82.7212 326.295 82.5202 326.144 82.3659C325.992 82.214 325.78 82.1331 325.501 82.1184V81.9199H329.001V82.1184C328.869 82.1184 328.744 82.1233 328.624 82.1282C328.507 82.1356 328.407 82.1625 328.329 82.2066C328.248 82.2532 328.199 82.3218 328.18 82.4149C328.16 82.508 328.182 82.6329 328.248 82.7898L332.281 92.9776L335.998 83.2259C336.145 82.8559 336.177 82.5839 336.098 82.4124C336.018 82.2409 335.768 82.1405 335.346 82.1135V81.915H338.193V82.1135C337.929 82.1135 337.734 82.1944 337.609 82.3512L337.614 82.3585Z" fill="white"/>
<path d="M347.667 95.343H338.653V95.1446C339.061 95.1446 339.318 95.0882 339.423 94.9755C339.528 94.8628 339.582 94.5957 339.582 94.1718V83.0921C339.582 82.6682 339.528 82.4011 339.423 82.2884C339.318 82.1757 339.061 82.1194 338.653 82.1194V81.9209H347.469L347.488 83.9619H347.212C347.146 83.4596 346.992 83.1533 346.748 83.0406C346.503 82.9279 346.151 82.8716 345.689 82.8716H341.696C341.471 82.8716 341.344 82.8936 341.31 82.9402C341.278 82.9867 341.261 83.1166 341.261 83.3273V87.8651H345.274C345.484 87.8651 345.67 87.8553 345.829 87.8357C345.987 87.8161 346.115 87.7744 346.212 87.7082C346.313 87.6421 346.388 87.5441 346.442 87.4093C346.493 87.2795 346.533 87.1006 346.559 86.8752H346.816V89.8669H346.559C346.533 89.6292 346.493 89.443 346.442 89.3107C346.388 89.1784 346.313 89.0779 346.212 89.0044C346.115 88.9333 345.987 88.8843 345.838 88.8647C345.687 88.8451 345.499 88.8353 345.274 88.8353H341.261V94.0077C341.261 94.1277 341.297 94.2159 341.371 94.2772C341.442 94.336 341.527 94.3728 341.627 94.385C341.727 94.3973 341.83 94.4022 341.943 94.3948C342.055 94.3899 342.15 94.385 342.231 94.385H345.494C345.812 94.385 346.085 94.3679 346.315 94.336C346.545 94.3042 346.752 94.2331 346.938 94.1277C347.122 94.0224 347.288 93.8803 347.432 93.7014C347.576 93.5225 347.715 93.2824 347.847 92.9786H348.165L347.671 95.3381L347.667 95.343Z" fill="white"/>
<path d="M358.244 95.3425C357.929 94.6418 357.611 94.0096 357.296 93.4485C356.978 92.885 356.636 92.3607 356.267 91.8731C355.898 91.3855 355.495 90.915 355.06 90.4667C354.625 90.0183 354.131 89.5478 353.576 89.0603L352.154 89.0799V94.1738C352.154 94.3992 352.166 94.5781 352.193 94.7104C352.22 94.8427 352.266 94.9407 352.332 95.0069C352.398 95.073 352.496 95.1122 352.63 95.1269C352.76 95.1392 352.933 95.1465 353.144 95.1465V95.345H349.546V95.1465C349.744 95.1465 349.905 95.1367 350.03 95.1171C350.157 95.0975 350.25 95.0534 350.318 94.9873C350.384 94.9211 350.426 94.8255 350.445 94.7006C350.465 94.5756 350.475 94.3992 350.475 94.1738V83.094C350.475 82.8833 350.465 82.7118 350.445 82.5795C350.426 82.4472 350.382 82.3467 350.318 82.2806C350.25 82.2144 350.157 82.1703 350.03 82.1507C349.905 82.1311 349.744 82.1213 349.546 82.1213V81.9229H354.27C354.852 81.9229 355.409 81.9841 355.942 82.1115C356.477 82.2389 356.947 82.4398 357.355 82.7167C357.763 82.9936 358.09 83.3587 358.335 83.807C358.579 84.2579 358.699 84.8116 358.699 85.4732C358.699 85.9755 358.606 86.414 358.423 86.7914C358.237 87.1687 357.988 87.4848 357.672 87.742C357.357 87.9993 356.993 88.2076 356.585 88.3668C356.177 88.5261 355.746 88.6364 355.299 88.7025C355.683 89.021 355.991 89.2906 356.23 89.516C356.468 89.7414 356.675 89.957 356.851 90.1604C357.03 90.3662 357.203 90.5769 357.377 90.795C357.548 91.013 357.753 91.2679 357.99 91.5594C358.254 91.8902 358.503 92.2626 358.74 92.6792C358.978 93.0957 359.2 93.4853 359.403 93.8479C359.606 94.2105 359.794 94.5193 359.965 94.7692C360.136 95.0191 360.302 95.1465 360.459 95.1465V95.345H358.244V95.3425ZM352.154 88.1267H353.102C353.576 88.1267 354.041 88.0851 354.495 87.9993C354.95 87.9136 355.36 87.7617 355.732 87.5436C356.101 87.3255 356.397 87.0315 356.621 86.6615C356.844 86.2915 356.956 85.8284 356.956 85.2723C356.956 84.7847 356.863 84.3804 356.68 84.0643C356.494 83.7458 356.248 83.4983 355.937 83.3195C355.627 83.1406 355.275 83.0181 354.879 82.9519C354.483 82.8858 354.082 82.8539 353.674 82.8539H353.278C353.146 82.8539 353.007 82.8613 352.862 82.8735C352.716 82.8882 352.581 82.9201 352.457 82.9715C352.33 83.0254 352.229 83.0989 352.149 83.1896V88.1243L352.154 88.1267Z" fill="white"/>
<path d="M362.852 95.073C362.786 95.1342 362.751 95.2151 362.751 95.3204H362.514L362.417 92.4268L362.456 92.368H362.634C362.871 92.9364 363.191 93.3921 363.592 93.7352C363.995 94.0806 364.418 94.3281 364.868 94.48C365.318 94.6319 365.77 94.6956 366.232 94.6687C366.694 94.6417 367.112 94.529 367.486 94.3306C367.862 94.1321 368.165 93.8577 368.395 93.5073C368.627 93.1569 368.742 92.7428 368.742 92.2675C368.742 91.7015 368.585 91.2237 368.277 90.8415C367.969 90.4593 367.583 90.1113 367.121 89.8026C366.659 89.4914 366.156 89.195 365.608 88.9083C365.061 88.6265 364.558 88.308 364.096 87.9576C363.634 87.6072 363.247 87.1981 362.94 86.7276C362.629 86.2596 362.475 85.674 362.475 84.9733C362.475 84.4587 362.585 83.9981 362.803 83.5963C363.02 83.1945 363.306 82.8465 363.663 82.555C364.017 82.2658 364.423 82.0453 364.878 81.891C365.332 81.739 365.797 81.6631 366.273 81.6631C366.549 81.6631 366.823 81.6876 367.094 81.7341C367.366 81.7807 367.63 81.8419 367.894 81.9228C367.921 81.9351 367.994 81.9596 368.111 81.9914C368.229 82.0233 368.358 82.06 368.497 82.0992C368.634 82.1384 368.764 82.1752 368.884 82.2095C369.001 82.2413 369.067 82.2585 369.079 82.2585C369.304 82.2315 369.429 82.1066 369.455 81.8811H369.673C369.727 82.3712 369.776 82.8735 369.822 83.388C369.868 83.905 369.878 84.4073 369.851 84.8949H369.634C369.463 84.395 369.206 83.9761 368.864 83.6477C368.519 83.317 368.141 83.0646 367.725 82.8931C367.31 82.7216 366.877 82.6358 366.43 82.6358C365.982 82.6358 365.596 82.7142 365.235 82.8735C364.873 83.0327 364.575 83.2704 364.345 83.5865C364.115 83.905 363.998 84.2946 363.998 84.7577C363.998 85.113 364.093 85.429 364.286 85.6985C364.477 85.9705 364.704 86.218 364.968 86.4434C365.31 86.7203 365.672 86.9775 366.056 87.2152C366.437 87.4529 366.826 87.6783 367.224 87.889L367.085 87.8302C367.52 88.0556 367.938 88.3006 368.341 88.5653C368.742 88.8299 369.101 89.1264 369.416 89.4571C369.734 89.7879 369.983 90.1603 370.169 90.5769C370.355 90.9934 370.448 91.4736 370.448 92.0151C370.448 92.5836 370.321 93.0883 370.071 93.5318C369.82 93.9753 369.495 94.3477 369.094 94.6515C368.693 94.9554 368.241 95.1857 367.74 95.3449C367.239 95.5018 366.73 95.5826 366.217 95.5826C365.662 95.5826 365.137 95.5165 364.636 95.3841C364.135 95.2518 363.619 95.1146 363.094 94.9676C363.001 94.9799 362.922 95.0166 362.856 95.0754L362.852 95.073Z" fill="white"/>
<path d="M372.3 95.343V95.1446C372.525 95.1446 372.706 95.1372 372.845 95.125C372.982 95.1127 373.092 95.0735 373.173 95.0147C373.251 94.9559 373.305 94.8603 373.332 94.728C373.359 94.5957 373.371 94.4095 373.371 94.1718V83.0921C373.371 82.8544 373.359 82.6682 373.332 82.5359C373.305 82.406 373.253 82.308 373.173 82.2492C373.092 82.1904 372.985 82.1537 372.845 82.139C372.708 82.1267 372.525 82.1194 372.3 82.1194V81.9209H376.135V82.1194C375.91 82.1194 375.732 82.1267 375.592 82.139C375.456 82.1537 375.346 82.1904 375.267 82.2492C375.187 82.308 375.135 82.406 375.109 82.5359C375.082 82.6682 375.069 82.8544 375.069 83.0921V94.1718C375.069 94.4095 375.082 94.5957 375.109 94.728C375.135 94.8603 375.187 94.9559 375.267 95.0147C375.346 95.0735 375.456 95.1103 375.592 95.125C375.732 95.1372 375.913 95.1446 376.135 95.1446V95.343H372.3Z" fill="white"/>
<path d="M378.606 95.1446C378.804 95.1446 378.968 95.1372 379.1 95.125C379.229 95.1127 379.329 95.0711 379.395 95.0049C379.461 94.9387 379.508 94.8407 379.535 94.7084C379.562 94.5761 379.574 94.3973 379.574 94.1718V83.0921C379.574 82.8667 379.562 82.6878 379.535 82.5555C379.508 82.4256 379.461 82.3252 379.395 82.259C379.329 82.1929 379.229 82.1537 379.1 82.139C378.968 82.1267 378.804 82.1194 378.606 82.1194V81.9209H383.193C384.288 81.9209 385.286 82.0557 386.19 82.3252C387.092 82.5971 387.867 83.0088 388.512 83.565C389.157 84.1212 389.658 84.8195 390.015 85.6648C390.372 86.5101 390.55 87.5073 390.55 88.6565C390.55 89.6218 390.399 90.5235 390.096 91.3615C389.79 92.2019 389.265 92.9443 388.514 93.5911C387.749 94.2502 386.894 94.7084 385.946 94.9583C384.997 95.2107 384.027 95.3357 383.04 95.3357H378.611V95.1372L378.606 95.1446ZM381.255 93.9146C381.255 94.0322 381.302 94.1277 381.395 94.1914C381.485 94.2576 381.598 94.3091 381.729 94.3409C381.861 94.3752 381.993 94.3948 382.125 94.3997C382.257 94.4071 382.355 94.4095 382.424 94.4095C383.384 94.4095 384.262 94.3017 385.053 94.0836C385.845 93.8656 386.517 93.5225 387.07 93.0521C387.622 92.5841 388.05 91.9814 388.353 91.2488C388.656 90.5162 388.81 89.6341 388.81 88.6026C388.81 87.6249 388.663 86.7747 388.375 86.0544C388.084 85.334 387.673 84.7362 387.141 84.2608C386.605 83.7855 385.96 83.4327 385.203 83.2023C384.445 82.9696 383.597 82.8544 382.661 82.8544C382.424 82.8544 382.179 82.874 381.93 82.9132C381.678 82.9524 381.456 83.0529 381.258 83.2097V93.9121L381.255 93.9146Z" fill="white"/>
<path d="M400.275 95.3416V95.1431C400.578 95.1431 400.801 95.0868 400.947 94.974C401.092 94.8613 401.092 94.6408 400.947 94.31L399.721 91.2963H393.769L392.662 94.0724C392.518 94.4154 392.474 94.68 392.533 94.8662C392.591 95.05 392.833 95.1431 393.256 95.1431V95.3416H390.487V95.1431C390.646 95.1309 390.78 95.0843 390.893 95.0034C391.003 94.925 391.103 94.8319 391.188 94.7266C391.274 94.6212 391.347 94.5012 391.406 94.3688C391.464 94.2365 391.521 94.1042 391.574 93.9719L396.636 81.7822H397.724L402.983 94.4865C403.128 94.8442 403.411 95.0622 403.834 95.1407V95.3391H400.275V95.3416ZM396.775 83.8649L394.165 90.326H399.383L396.773 83.8649H396.775Z" fill="white"/>
<path d="M405.061 95.1446C405.259 95.1446 405.422 95.1372 405.554 95.125C405.686 95.1127 405.784 95.0711 405.852 95.0049C405.918 94.9387 405.962 94.8407 405.989 94.7084C406.016 94.5761 406.031 94.3973 406.031 94.1718V83.0921C406.031 82.8667 406.016 82.6878 405.989 82.5555C405.962 82.4256 405.918 82.3252 405.852 82.259C405.786 82.1929 405.686 82.1537 405.554 82.139C405.422 82.1267 405.259 82.1194 405.061 82.1194V81.9209H409.646C410.741 81.9209 411.738 82.0557 412.642 82.3252C413.544 82.5971 414.319 83.0088 414.964 83.565C415.609 84.1212 416.11 84.8195 416.467 85.6648C416.824 86.5101 417 87.5073 417 88.6565C417 89.6218 416.848 90.5235 416.545 91.3615C416.242 92.2019 415.714 92.9443 414.964 93.5911C414.199 94.2502 413.344 94.7084 412.395 94.9583C411.444 95.2107 410.477 95.3357 409.489 95.3357H405.061V95.1372V95.1446ZM407.707 93.9146C407.707 94.0322 407.754 94.1277 407.847 94.1914C407.94 94.2576 408.052 94.3091 408.184 94.3409C408.316 94.3752 408.448 94.3948 408.58 94.3997C408.712 94.4071 408.81 94.4095 408.876 94.4095C409.836 94.4095 410.714 94.3017 411.506 94.0836C412.295 93.8656 412.967 93.5225 413.522 93.0521C414.077 92.5841 414.504 91.9814 414.808 91.2488C415.111 90.5162 415.262 89.6341 415.262 88.6026C415.262 87.6249 415.118 86.7747 414.827 86.0544C414.536 85.334 414.126 84.7362 413.59 84.2608C413.058 83.7855 412.41 83.4327 411.652 83.2023C410.895 82.9696 410.046 82.8544 409.11 82.8544C408.873 82.8544 408.629 82.874 408.38 82.9132C408.128 82.9524 407.903 83.0529 407.707 83.2097V93.9121V93.9146Z" fill="white"/>
<path d="M290.324 118.708C290.522 118.708 290.685 118.701 290.817 118.688C290.949 118.676 291.047 118.635 291.113 118.568C291.179 118.502 291.226 118.404 291.252 118.272C291.277 118.14 291.292 117.961 291.292 117.738V106.658C291.292 106.433 291.277 106.256 291.252 106.121C291.226 105.989 291.179 105.891 291.113 105.825C291.047 105.759 290.947 105.72 290.817 105.707C290.685 105.693 290.519 105.688 290.324 105.688V105.489H294.911C296.006 105.489 297.003 105.624 297.908 105.896C298.81 106.166 299.584 106.58 300.23 107.133C300.875 107.69 301.376 108.388 301.733 109.233C302.09 110.078 302.265 111.076 302.265 112.225C302.265 113.19 302.114 114.092 301.811 114.93C301.505 115.77 300.98 116.513 300.23 117.16C299.465 117.819 298.607 118.277 297.658 118.527C296.71 118.779 295.74 118.904 294.752 118.904H290.324V118.706V118.708ZM292.973 117.478C292.973 117.598 293.02 117.689 293.112 117.755C293.203 117.821 293.315 117.873 293.447 117.904C293.579 117.939 293.711 117.958 293.843 117.963C293.975 117.971 294.073 117.973 294.141 117.973C295.102 117.973 295.979 117.863 296.771 117.647C297.563 117.429 298.235 117.086 298.788 116.616C299.342 116.148 299.77 115.545 300.073 114.812C300.376 114.077 300.528 113.198 300.528 112.166C300.528 111.188 300.381 110.341 300.093 109.62C299.804 108.9 299.391 108.302 298.858 107.827C298.323 107.351 297.678 106.999 296.92 106.768C296.163 106.535 295.315 106.42 294.378 106.42C294.141 106.42 293.897 106.44 293.645 106.479C293.393 106.518 293.171 106.619 292.973 106.778V117.48V117.478Z" fill="white"/>
<path d="M312.941 118.903H303.925V118.705C304.333 118.705 304.59 118.648 304.697 118.536C304.802 118.423 304.856 118.156 304.856 117.734V106.655C304.856 106.233 304.802 105.964 304.697 105.851C304.59 105.741 304.333 105.682 303.925 105.682V105.483H312.743L312.763 107.524H312.486C312.42 107.022 312.264 106.716 312.022 106.603C311.778 106.49 311.426 106.434 310.964 106.434H306.97C306.745 106.434 306.616 106.459 306.584 106.503C306.55 106.549 306.535 106.679 306.535 106.89V111.43H310.548C310.761 111.43 310.944 111.42 311.103 111.401C311.262 111.381 311.389 111.339 311.489 111.273C311.587 111.207 311.663 111.109 311.717 110.977C311.768 110.844 311.809 110.666 311.836 110.44H312.093V113.432H311.836C311.809 113.194 311.77 113.008 311.717 112.876C311.663 112.746 311.587 112.643 311.489 112.569C311.389 112.498 311.264 112.452 311.113 112.43C310.961 112.41 310.773 112.4 310.548 112.4H306.535V117.573C306.535 117.693 306.572 117.781 306.643 117.84C306.713 117.899 306.801 117.935 306.899 117.948C306.999 117.96 307.105 117.962 307.217 117.957C307.329 117.952 307.425 117.948 307.503 117.948H310.766C311.081 117.948 311.355 117.93 311.585 117.899C311.817 117.867 312.022 117.798 312.208 117.69C312.394 117.585 312.557 117.443 312.701 117.264C312.846 117.087 312.985 116.845 313.117 116.541H313.432L312.939 118.901L312.941 118.903Z" fill="white"/>
<path d="M329.478 118.777C328.72 119.022 327.926 119.144 327.095 119.144C326.039 119.144 325.1 118.975 324.277 118.639C323.453 118.301 322.752 117.828 322.172 117.221C321.591 116.613 321.151 115.883 320.848 115.03C320.545 114.178 320.393 113.237 320.393 112.205C320.393 111.174 320.552 110.292 320.867 109.441C321.185 108.589 321.635 107.849 322.221 107.221C322.808 106.594 323.512 106.104 324.335 105.754C325.159 105.403 326.078 105.229 327.092 105.229C327.791 105.229 328.488 105.308 329.187 105.467C329.267 105.492 329.37 105.524 329.495 105.555C329.619 105.587 329.749 105.624 329.881 105.663C330.013 105.702 330.138 105.737 330.257 105.764C330.375 105.791 330.475 105.803 330.553 105.803C330.802 105.803 330.961 105.683 331.027 105.445H331.245V106.18C331.245 106.445 331.242 106.717 331.235 106.994C331.228 107.271 331.215 107.542 331.196 107.805C331.176 108.069 331.14 108.302 331.086 108.5C330.624 107.746 330.111 107.175 329.544 106.785C328.977 106.396 328.239 106.2 327.329 106.2C326.42 106.2 325.682 106.361 325.037 106.685C324.392 107.008 323.859 107.442 323.446 107.984C323.03 108.525 322.722 109.16 322.517 109.885C322.312 110.613 322.211 111.377 322.211 112.183C322.211 112.989 322.317 113.795 322.527 114.523C322.737 115.251 323.057 115.88 323.487 116.415C323.915 116.951 324.455 117.373 325.108 117.684C325.76 117.995 326.535 118.149 327.43 118.149C327.747 118.149 328.089 118.144 328.459 118.13C328.828 118.117 329.194 118.081 329.556 118.022C329.918 117.961 330.265 117.87 330.595 117.743C330.925 117.618 331.22 117.444 331.484 117.218L331.562 117.556C330.929 118.125 330.235 118.532 329.478 118.774V118.777Z" fill="white"/>
<path d="M341.014 118.904V118.705C341.224 118.705 341.397 118.695 341.529 118.676C341.661 118.656 341.759 118.612 341.825 118.546C341.891 118.48 341.938 118.384 341.965 118.259C341.991 118.134 342.004 117.958 342.004 117.735V112.54H335.539V117.735C335.539 117.958 335.549 118.134 335.568 118.259C335.588 118.384 335.629 118.48 335.695 118.546C335.761 118.612 335.857 118.654 335.984 118.676C336.109 118.695 336.277 118.705 336.487 118.705V118.904H332.87V118.705C333.08 118.705 333.251 118.695 333.383 118.676C333.515 118.656 333.613 118.612 333.682 118.546C333.745 118.48 333.792 118.384 333.818 118.259C333.845 118.134 333.858 117.958 333.858 117.735V106.655C333.858 106.43 333.845 106.256 333.818 106.131C333.792 106.003 333.745 105.908 333.682 105.842C333.616 105.778 333.515 105.734 333.383 105.714C333.251 105.695 333.08 105.685 332.87 105.685V105.486H336.487V105.685C336.277 105.685 336.109 105.695 335.984 105.714C335.859 105.734 335.761 105.778 335.695 105.842C335.629 105.908 335.588 106.008 335.568 106.141C335.549 106.273 335.539 106.444 335.539 106.655V111.531H342.004V106.655C342.004 106.43 341.991 106.256 341.965 106.131C341.938 106.003 341.891 105.908 341.825 105.842C341.759 105.778 341.661 105.734 341.529 105.714C341.397 105.695 341.226 105.685 341.014 105.685V105.486H344.653V105.685C344.443 105.685 344.274 105.695 344.147 105.714C344.022 105.734 343.925 105.778 343.851 105.842C343.778 105.908 343.734 106.008 343.714 106.141C343.692 106.273 343.685 106.444 343.685 106.655V117.735C343.685 117.958 343.695 118.134 343.714 118.259C343.734 118.384 343.78 118.48 343.851 118.546C343.925 118.612 344.022 118.654 344.147 118.676C344.272 118.695 344.44 118.705 344.653 118.705V118.904H341.014Z" fill="white"/>
<path d="M347.124 118.904V118.705C347.346 118.705 347.53 118.698 347.669 118.686C347.806 118.673 347.916 118.636 347.994 118.578C348.072 118.519 348.126 118.423 348.153 118.289C348.177 118.159 348.192 117.972 348.192 117.735V106.655C348.192 106.417 348.177 106.234 348.153 106.099C348.126 105.969 348.075 105.871 347.994 105.812C347.913 105.753 347.806 105.717 347.669 105.704C347.53 105.69 347.349 105.685 347.124 105.685V105.486H350.959V105.685C350.734 105.685 350.553 105.692 350.414 105.704C350.274 105.717 350.167 105.753 350.089 105.812C350.008 105.873 349.957 105.969 349.93 106.099C349.903 106.231 349.891 106.417 349.891 106.655V117.735C349.891 117.972 349.903 118.156 349.93 118.289C349.957 118.421 350.008 118.516 350.089 118.578C350.167 118.639 350.277 118.673 350.414 118.686C350.553 118.698 350.734 118.705 350.959 118.705V118.904H347.124Z" fill="white"/>
<path d="M362.348 118.904H353.43V118.705C353.642 118.705 353.809 118.695 353.933 118.676C354.058 118.656 354.153 118.612 354.219 118.546C354.285 118.48 354.327 118.384 354.349 118.259C354.368 118.134 354.378 117.958 354.378 117.735V106.655C354.378 106.444 354.368 106.273 354.349 106.141C354.329 106.008 354.285 105.908 354.219 105.842C354.153 105.778 354.058 105.734 353.933 105.714C353.809 105.695 353.64 105.685 353.43 105.685V105.486H357.069V105.685C356.859 105.685 356.685 105.695 356.553 105.714C356.421 105.734 356.319 105.778 356.248 105.842C356.174 105.908 356.126 106.003 356.099 106.131C356.072 106.256 356.06 106.43 356.06 106.655V117.576C356.06 117.696 356.096 117.784 356.167 117.843C356.24 117.901 356.326 117.938 356.424 117.95C356.524 117.963 356.629 117.965 356.741 117.96C356.854 117.955 356.949 117.95 357.027 117.95H359.914C360.271 117.95 360.586 117.938 360.862 117.911C361.138 117.884 361.383 117.823 361.593 117.723C361.803 117.622 361.991 117.47 362.157 117.267C362.321 117.063 362.483 116.789 362.641 116.444L362.898 116.505L362.346 118.904H362.348Z" fill="white"/>
<path d="M372.884 118.903H363.868V118.705C364.276 118.705 364.535 118.648 364.64 118.536C364.746 118.423 364.799 118.156 364.799 117.734V106.655C364.799 106.233 364.746 105.964 364.64 105.851C364.535 105.741 364.276 105.682 363.868 105.682V105.483H372.686L372.706 107.524H372.43C372.364 107.022 372.207 106.716 371.965 106.603C371.721 106.49 371.369 106.434 370.907 106.434H366.913C366.689 106.434 366.562 106.459 366.53 106.503C366.496 106.549 366.481 106.679 366.481 106.89V111.43H370.494C370.704 111.43 370.89 111.42 371.049 111.401C371.208 111.381 371.335 111.339 371.435 111.273C371.535 111.207 371.609 111.109 371.662 110.977C371.714 110.844 371.755 110.666 371.782 110.44H372.039V113.432H371.782C371.755 113.194 371.716 113.008 371.662 112.876C371.609 112.746 371.535 112.643 371.435 112.569C371.335 112.498 371.21 112.452 371.059 112.43C370.907 112.41 370.719 112.4 370.496 112.4H366.483V117.573C366.483 117.693 366.518 117.781 366.591 117.84C366.664 117.899 366.75 117.935 366.847 117.948C366.948 117.96 367.05 117.962 367.163 117.957C367.275 117.952 367.371 117.948 367.449 117.948H370.712C371.027 117.948 371.301 117.93 371.533 117.899C371.763 117.867 371.97 117.798 372.154 117.69C372.339 117.585 372.503 117.443 372.647 117.264C372.791 117.087 372.931 116.845 373.063 116.541H373.378L372.884 118.901V118.903Z" fill="white"/>
</svg>
