<svg width="378" height="108" viewBox="0 0 378 108" fill="none" xmlns="http://www.w3.org/2000/svg">
<g clip-path="url(#clip0_1605_190)">
<path d="M73.0801 62.7129C78.7849 62.7129 83.3178 57.9133 83.3178 51.9387C83.3178 45.9641 78.7849 41.2666 73.0801 41.2666C67.3752 41.2666 62.8423 46.1173 62.8423 51.9387C62.8423 57.76 67.3242 62.7129 73.0801 62.7129ZM73.0801 43.4121C77.562 43.4121 81.0758 47.2412 81.0758 51.9387C81.0758 56.6362 77.562 60.6185 73.0801 60.6185C68.5981 60.6185 65.0334 56.7894 65.0334 51.9387C65.0334 47.0879 68.5472 43.4121 73.0801 43.4121Z" fill="#004B93"/>
<path d="M97.7828 62.7129C103.793 62.7129 108.072 58.0154 108.072 51.9898C108.072 45.9641 103.895 41.2666 98.2414 41.2666C94.5238 41.2666 92.1799 43.2078 91.5684 43.7186L91.4155 42.2883C91.3646 41.9307 91.1607 41.7774 90.804 41.7774H90.2435C89.8868 41.7774 89.5301 42.0329 89.5301 42.4415V72.5898L89.4149 94.2627C89.4149 100.85 85.2387 105.65 78.4128 105.65C71.5869 105.65 67.5126 100.799 67.5126 94.2138V72.4122C67.5126 72.0546 67.2069 71.7481 66.8502 71.7481H65.7801C65.4234 71.7481 65.1177 72.0546 65.1177 72.4122V94.4692C65.1177 102.281 70.364 108 78.4106 108C86.4573 108 91.8054 102.281 91.8054 94.4692L91.7168 72.5676V60.6185C92.2773 61.1293 94.4153 62.7129 97.7784 62.7129H97.7828ZM91.7722 46.2195C91.9251 45.9641 94.114 43.361 98.0886 43.361C102.723 43.361 105.829 47.1901 105.829 51.9387C105.829 56.6872 102.469 60.5674 97.528 60.5674C94.0652 60.5674 91.8741 58.3708 91.7722 58.1687V46.2217V46.2195Z" fill="#004B93"/>
<path d="M122.893 41.2666C116.679 41.2666 112.859 46.1173 112.859 51.9387C112.859 57.76 116.679 62.7129 122.893 62.7129C126.05 62.7129 129.26 61.3336 130.277 60.3142C130.583 60.0077 130.634 59.7012 130.481 59.4968L129.972 58.7817C129.717 58.4241 129.513 58.4752 129.054 58.7817C127.831 59.599 125.744 60.6718 123.044 60.6718C118.46 60.6718 115.303 56.996 115.099 52.605H131.347C132.112 52.605 132.112 51.4301 132.112 50.6127C132.112 45.2001 128.241 41.2688 122.893 41.2688V41.2666ZM115.15 50.7637C115.405 46.5771 118.409 43.31 122.891 43.31C127.373 43.31 129.867 46.7814 129.867 50.7637H115.148H115.15Z" fill="#004B93"/>
<path d="M140.311 61.538V46.9858C140.515 46.7303 143.417 43.4632 147.594 43.4632C151.464 43.4632 153.655 45.913 153.655 50.6105V61.538C153.655 61.8956 153.961 62.2021 154.318 62.2021H155.235C155.591 62.2021 155.897 61.8956 155.897 61.538V50.6105C155.897 44.8913 153.403 41.2666 147.698 41.2666C143.623 41.2666 140.821 43.7675 140.161 44.4827L139.957 42.2861C139.906 41.9796 139.702 41.7752 139.345 41.7752H138.836C138.428 41.7752 138.122 42.0817 138.122 42.4393V61.5358C138.122 61.8933 138.326 62.1998 138.683 62.1998H139.651C140.11 62.1998 140.313 61.9444 140.313 61.5358L140.311 61.538Z" fill="#004B93"/>
<path d="M129.653 101.31C129.449 101.157 129.143 101.157 128.837 101.413C125.782 103.965 122.47 105.701 118.09 105.701C109.177 105.701 102.2 98.4519 102.2 89.6699C102.2 80.888 109.177 73.5341 118.09 73.5341C122.266 73.5341 125.933 75.1177 128.837 77.7208C129.143 78.0273 129.398 78.0784 129.703 77.7719L130.519 76.9034C130.774 76.648 130.723 76.2393 130.468 75.9839C127.158 72.9722 123.287 71.2354 118.092 71.2354C107.905 71.2354 99.6548 79.4554 99.6548 89.6677C99.6548 99.88 107.905 107.998 118.092 107.998C122.625 107.998 127.056 106.414 130.519 103.045C130.774 102.79 130.774 102.381 130.519 102.177L129.653 101.308V101.31Z" fill="#004B93"/>
<path d="M165.763 71.7461H164.693C164.336 71.7461 164.03 72.0526 164.03 72.4102V88.0862H141.162V72.4102C141.162 72.0526 140.907 71.7461 140.5 71.7461H139.43C139.073 71.7461 138.767 72.0526 138.767 72.4102V106.823C138.767 107.18 139.073 107.487 139.43 107.487H140.5C140.907 107.487 141.162 107.18 141.162 106.823V90.2295H164.03V106.823C164.03 107.18 164.336 107.487 164.693 107.487H165.763C166.17 107.487 166.425 107.18 166.425 106.823V72.4102C166.425 72.0526 166.17 71.7461 165.763 71.7461Z" fill="#004B93"/>
<path d="M179.007 71.7461H177.886C177.529 71.7461 177.224 72.0526 177.224 72.4102V106.823C177.224 107.18 177.529 107.487 177.886 107.487H178.956C179.313 107.487 179.67 107.232 179.67 106.823V72.4102C179.67 72.0526 179.364 71.7461 179.007 71.7461Z" fill="#004B93"/>
<path d="M209.107 105.344H192.861V72.4102C192.861 72.0526 192.555 71.7461 192.249 71.7461H191.128C190.771 71.7461 190.466 72.0526 190.466 72.4102V106.823C190.466 107.18 190.771 107.487 191.128 107.487H209.107C209.463 107.487 209.769 107.283 209.769 106.925V106.006C209.769 105.648 209.718 105.341 209.107 105.341V105.344Z" fill="#004B93"/>
<path d="M236.459 73.9427C236.816 73.9427 237.122 73.6362 237.122 73.2786V72.4102C237.122 72.0526 236.816 71.7461 236.459 71.7461H216.037C215.68 71.7461 215.374 72.0526 215.374 72.4102V106.823C215.374 107.18 215.68 107.487 216.037 107.487H236.459C236.816 107.487 237.122 107.18 237.122 106.823V106.006C237.122 105.648 236.816 105.341 236.459 105.341H217.818V90.2273H233.962C234.319 90.2273 234.625 89.9208 234.625 89.5632V88.6948C234.625 88.3372 234.319 88.0307 233.962 88.0307H217.818V73.9383H236.459V73.9427Z" fill="#004B93"/>
<path d="M18.6611 30.1331L20.6484 22.5549L14.5979 17.5976L22.4009 17.1511L25.2345 9.85059L28.0681 17.1511L35.871 17.5976L29.8205 22.5549L31.8078 30.1331L25.2322 25.8953L18.6589 30.1331H18.6611ZM25.2345 25.309L31.008 29.0292L29.2622 22.375L34.575 18.0195L27.7247 17.6309L25.2345 11.2165L22.7465 17.6309L15.8962 18.0195L21.2089 22.375L19.4631 29.0292L25.2345 25.309Z" fill="#004B93"/>
<path d="M23.4843 15.043L20.5266 5.91895L20.1987 6.02555L23.2849 15.5538L23.4843 15.043Z" fill="#004B93"/>
<path d="M23.2848 15.8028H23.2804C23.1763 15.8005 23.0832 15.7317 23.05 15.6317L19.9638 6.10572C19.9217 5.97468 19.9926 5.83476 20.1211 5.79478L20.449 5.68595C20.511 5.66596 20.5797 5.6704 20.6373 5.70149C20.6949 5.73259 20.7392 5.78145 20.7592 5.84586L23.7168 14.9699C23.7346 15.0232 23.7324 15.0831 23.7124 15.1364L23.5152 15.6473C23.4776 15.7428 23.3845 15.805 23.2826 15.805L23.2848 15.8028Z" fill="#004B93"/>
<path d="M9.46655 21.1775H19.3587L18.9356 20.8311H9.46655V21.1775Z" fill="#004B93"/>
<path d="M19.3588 21.4267H9.46882C9.33146 21.4267 9.2229 21.3157 9.2229 21.178V20.8315C9.2229 20.6938 9.33146 20.585 9.46882 20.585H18.9378C18.9954 20.585 19.0508 20.605 19.0929 20.6405L19.5161 20.9847C19.598 21.0514 19.629 21.1624 19.5936 21.2602C19.5582 21.3579 19.4651 21.4245 19.361 21.4245L19.3588 21.4267Z" fill="#004B93"/>
<path d="M22.5735 17.3902L22.6621 17.1614L13.202 4.1084L12.925 4.31273L22.4073 17.3991L22.5735 17.3902Z" fill="#004B93"/>
<path d="M22.4073 17.6482C22.3276 17.6482 22.2545 17.6105 22.208 17.5461L12.7234 4.45975C12.6836 4.40644 12.6703 4.33981 12.6791 4.2754C12.6902 4.21099 12.7234 4.15102 12.7788 4.11327L13.058 3.90893C13.1688 3.82675 13.3261 3.85118 13.4036 3.96446L22.8615 17.0153C22.9103 17.0841 22.9236 17.1729 22.8925 17.2529L22.8017 17.4817C22.7663 17.5727 22.6821 17.6349 22.5846 17.6394L22.4206 17.6505H22.4051L22.4073 17.6482Z" fill="#004B93"/>
<path d="M25.2343 10.5346L25.4094 10.9788V0.249023H25.0615V10.9788L25.2343 10.5346Z" fill="#004B93"/>
<path d="M25.4094 11.2273C25.343 11.2273 25.2809 11.2007 25.2344 11.1563C25.179 11.2118 25.097 11.2384 25.0173 11.2229C24.8999 11.2007 24.8157 11.0985 24.8157 10.9786V0.248756C24.8157 0.111052 24.9264 0 25.0638 0H25.4116C25.5468 0 25.6553 0.111052 25.6553 0.248756V10.9808C25.6553 11.1007 25.5712 11.2029 25.4559 11.2251C25.4382 11.2295 25.4249 11.2295 25.4116 11.2295L25.4094 11.2273Z" fill="#004B93"/>
<path d="M30.3011 17.5285L38.0908 11.856L37.8892 11.5762L29.7561 17.4974L30.3011 17.5285Z" fill="#004B93"/>
<path d="M30.3012 17.7771C30.3012 17.7771 30.2923 17.7771 30.2879 17.7771L29.7407 17.7438C29.6366 17.7371 29.5479 17.6682 29.5169 17.5683C29.4881 17.4684 29.5236 17.3595 29.61 17.2973L37.7408 11.3738C37.7918 11.3361 37.8604 11.3205 37.9247 11.3316C37.9912 11.3427 38.0465 11.3783 38.0864 11.4294L38.2903 11.7092C38.37 11.8203 38.3456 11.9757 38.2349 12.0557L30.4474 17.7304C30.4053 17.7593 30.3544 17.7793 30.3034 17.7793L30.3012 17.7771Z" fill="#004B93"/>
<path d="M35.2217 17.8084L34.9713 18.0172L44.9809 14.7567L44.8724 14.4258L34.5969 17.7751L35.2217 17.8084Z" fill="#004B93"/>
<path d="M34.9713 18.2639C34.8827 18.2639 34.7985 18.2151 34.752 18.1351C34.7343 18.1018 34.7254 18.064 34.7232 18.0285L34.5814 18.0218C34.4618 18.0174 34.3665 17.9241 34.351 17.8064C34.3355 17.6887 34.4064 17.5754 34.5194 17.5399L44.797 14.1928C44.8591 14.1728 44.9277 14.1772 44.9853 14.2083C45.0452 14.2394 45.0873 14.2905 45.1072 14.3527L45.2135 14.6836C45.2578 14.8147 45.1847 14.9524 45.0562 14.9968L35.0467 18.2573C35.0201 18.2639 34.9957 18.2684 34.9713 18.2684V18.2639Z" fill="#004B93"/>
<path d="M20.7126 17.4974L12.5818 11.5762L12.3779 11.856L20.1654 17.5285L20.7126 17.4974Z" fill="#004B93"/>
<path d="M20.1653 17.7771C20.1144 17.7771 20.0634 17.7594 20.0213 17.7283L12.2317 12.0535C12.1209 11.9736 12.0965 11.8181 12.1785 11.707L12.3823 11.4272C12.42 11.3761 12.4798 11.3383 12.544 11.3295C12.6083 11.3184 12.6748 11.3361 12.7279 11.3717L20.861 17.2952C20.9452 17.3551 20.9828 17.4662 20.9518 17.5661C20.923 17.6661 20.8322 17.7371 20.7281 17.7416L20.183 17.7749C20.183 17.7749 20.1742 17.7749 20.1697 17.7749L20.1653 17.7771Z" fill="#004B93"/>
<path d="M27.184 15.5548L30.2702 6.02653L29.9423 5.91992L26.9846 15.0439L27.184 15.5548Z" fill="#004B93"/>
<path d="M27.184 15.8031C27.0799 15.8031 26.9913 15.7409 26.9536 15.6454L26.7542 15.1345C26.7343 15.0812 26.7321 15.0213 26.7498 14.968L29.7075 5.84395C29.7496 5.71291 29.8892 5.64184 30.0177 5.68404L30.3455 5.79065C30.4076 5.81063 30.4608 5.85283 30.4873 5.9128C30.5184 5.97055 30.5228 6.0394 30.5028 6.10159L27.4167 15.6298C27.3834 15.732 27.2926 15.7986 27.1885 15.8008H27.1818L27.184 15.8031Z" fill="#004B93"/>
<path d="M27.8953 17.3912L28.0592 17.4L37.5459 4.31371L37.2646 4.10938L27.8066 17.1624L27.8953 17.3912Z" fill="#004B93"/>
<path d="M28.0592 17.6485H28.0459L27.8819 17.6374C27.7844 17.633 27.7003 17.5708 27.667 17.4797L27.5784 17.251C27.5474 17.1732 27.5585 17.0822 27.6072 17.0133L37.0651 3.96252C37.1471 3.84925 37.3022 3.82704 37.4107 3.90699L37.6921 4.11133C37.7453 4.14909 37.7807 4.20905 37.7896 4.27346C37.8007 4.33787 37.7829 4.40451 37.7475 4.45781L28.263 17.5441C28.2165 17.6086 28.1411 17.6463 28.0614 17.6463L28.0592 17.6485Z" fill="#004B93"/>
<path d="M41.002 20.8311H31.5352L31.1121 21.1775H41.002V20.8311Z" fill="#004B93"/>
<path d="M31.112 21.4265C31.0057 21.4265 30.9126 21.3598 30.8794 21.2621C30.844 21.1644 30.8728 21.0533 30.9547 20.9867L31.3779 20.6424C31.4222 20.6069 31.4776 20.5869 31.5352 20.5869H41.002C41.0662 20.5869 41.1283 20.6113 41.1748 20.6602C41.2235 20.7068 41.2479 20.769 41.2479 20.8334V21.1799C41.2479 21.3176 41.1371 21.4287 41.002 21.4287H31.112V21.4265Z" fill="#004B93"/>
<path d="M15.247 17.8074L15.874 17.7741L5.59414 14.4248L5.48779 14.7557L15.4974 18.0162L15.247 17.8074Z" fill="#004B93"/>
<path d="M15.4973 18.2631C15.4729 18.2631 15.4463 18.2587 15.4219 18.252L5.41237 14.9893C5.28165 14.9471 5.21076 14.8072 5.25285 14.6762L5.3592 14.3452C5.37914 14.2853 5.42345 14.232 5.48105 14.2009C5.53865 14.172 5.60733 14.1653 5.67158 14.1853L15.947 17.5324C16.06 17.568 16.1331 17.6812 16.1154 17.7989C16.0999 17.9167 16.0024 18.0099 15.885 18.0144L15.7432 18.021C15.7432 18.0566 15.7299 18.0943 15.7122 18.1277C15.6679 18.2076 15.5859 18.2565 15.4951 18.2565L15.4973 18.2631Z" fill="#004B93"/>
<path d="M26.8872 26.668L29.9424 36.0918L30.2703 35.9852L27.348 26.9634L26.8872 26.668Z" fill="#004B93"/>
<path d="M29.9424 36.3386C29.9047 36.3386 29.8648 36.3297 29.8294 36.3141C29.7718 36.2808 29.7275 36.2297 29.7075 36.1698L26.6524 26.7437C26.6191 26.646 26.6524 26.5371 26.7366 26.4727C26.8207 26.4106 26.9337 26.4061 27.0224 26.4616L27.481 26.7593C27.5297 26.7881 27.5674 26.8348 27.5851 26.8903L30.5073 35.9121C30.5516 36.0432 30.4785 36.1787 30.35 36.2231L30.0221 36.3297C29.9977 36.3364 29.9689 36.343 29.9468 36.343L29.9424 36.3386Z" fill="#004B93"/>
<path d="M25.2343 25.6016L25.0615 25.7148V41.764H25.4094V25.7148L25.2343 25.6016Z" fill="#004B93"/>
<path d="M25.4094 42.011H25.0616C24.9243 42.011 24.8135 41.9 24.8135 41.7645V25.7153C24.8135 25.6287 24.8578 25.5509 24.9265 25.5065L25.0993 25.3954C25.1812 25.3421 25.2854 25.3421 25.3673 25.3954L25.5379 25.5065C25.6088 25.5509 25.6509 25.6309 25.6509 25.7153V41.7645C25.6509 41.9 25.5424 42.011 25.4072 42.011H25.4094Z" fill="#004B93"/>
<path d="M30.155 24.8023L37.8892 30.4371L38.0909 30.155L30.0132 24.2715L30.155 24.8023Z" fill="#004B93"/>
<path d="M37.8893 30.6834C37.8383 30.6834 37.7852 30.6679 37.7453 30.6346L30.011 25.0042C29.9667 24.9687 29.9313 24.9221 29.918 24.8665L29.7806 24.3379C29.754 24.2358 29.7939 24.1269 29.8803 24.0692C29.9667 24.0092 30.0797 24.0137 30.1661 24.0736L38.2416 29.9571C38.3523 30.0371 38.3789 30.1904 38.2969 30.3036L38.0931 30.5835C38.0555 30.6368 37.9979 30.6723 37.9314 30.6812C37.9181 30.6856 37.907 30.6856 37.8937 30.6856L37.8893 30.6834Z" fill="#004B93"/>
<path d="M29.5413 22.465L29.5767 22.6027L44.8724 27.5844L44.981 27.2557L29.7495 22.2939L29.5413 22.465Z" fill="#004B93"/>
<path d="M44.8725 27.8336C44.8481 27.8336 44.8216 27.8291 44.7972 27.8202L29.4992 22.8385C29.4173 22.814 29.3597 22.7474 29.3375 22.6652L29.3021 22.5297C29.2755 22.4365 29.3087 22.3365 29.3818 22.2765L29.5923 22.1033C29.6565 22.0478 29.7452 22.0322 29.8227 22.0611L45.0542 27.0229C45.1849 27.0651 45.2558 27.205 45.2115 27.3338L45.1051 27.6626C45.0852 27.727 45.0409 27.778 44.9833 27.8069C44.9478 27.8247 44.908 27.8358 44.8703 27.8358L44.8725 27.8336Z" fill="#004B93"/>
<path d="M31.4067 29.5801L31.0854 29.3713L37.2644 37.9001L37.5458 37.698L31.2627 29.0293L31.4067 29.5801Z" fill="#004B93"/>
<path d="M37.2644 38.1485C37.1868 38.1485 37.1137 38.1129 37.065 38.0463L30.886 29.5175C30.8151 29.422 30.824 29.2888 30.9059 29.2021C30.9414 29.1644 30.9857 29.14 31.0344 29.1288L31.0234 29.0911C30.9946 28.9756 31.0499 28.8534 31.1563 28.8046C31.2648 28.7535 31.3911 28.7846 31.4598 28.8823L37.7451 37.551C37.7806 37.6043 37.7983 37.6709 37.7872 37.7354C37.7762 37.802 37.7407 37.862 37.6898 37.8975L37.4084 38.1018C37.3641 38.1351 37.3153 38.1507 37.2644 38.1507V38.1485Z" fill="#004B93"/>
<path d="M23.1207 26.9634L20.1985 35.9852L20.5264 36.0918L23.5815 26.668L23.1207 26.9634Z" fill="#004B93"/>
<path d="M20.5265 36.338C20.5021 36.338 20.4755 36.3336 20.4512 36.3247L20.1233 36.2181C20.0612 36.1981 20.0103 36.1537 19.9793 36.096C19.9482 36.0382 19.9438 35.9693 19.9637 35.9072L22.8882 26.8853C22.9059 26.8298 22.9391 26.7832 22.9901 26.7543L23.4487 26.4567C23.5373 26.3989 23.6503 26.4056 23.7345 26.4678C23.8165 26.5322 23.8497 26.641 23.8187 26.7387L20.7635 36.1648C20.7303 36.2692 20.6328 36.3358 20.5287 36.3358L20.5265 36.338Z" fill="#004B93"/>
<path d="M20.4534 24.2715L12.3779 30.155L12.5818 30.4371L20.316 24.8023L20.4534 24.2715Z" fill="#004B93"/>
<path d="M12.5817 30.6838C12.5684 30.6838 12.5551 30.6838 12.5441 30.6794C12.4798 30.6705 12.4222 30.6327 12.3823 30.5816L12.1785 30.3018C12.0987 30.1907 12.1209 30.0353 12.2317 29.9553L20.3093 24.0718C20.3935 24.0118 20.5065 24.0096 20.5929 24.0673C20.6771 24.1251 20.7192 24.2339 20.6926 24.3361L20.5553 24.8669C20.5398 24.9202 20.5065 24.9713 20.4622 25.0024L12.7279 30.6327C12.6836 30.666 12.6349 30.6816 12.5839 30.6816L12.5817 30.6838Z" fill="#004B93"/>
<path d="M20.9273 22.4659L20.719 22.2949L5.48755 27.2567L5.59611 27.5854L20.8918 22.6036L20.9273 22.4659Z" fill="#004B93"/>
<path d="M5.59615 27.8343C5.55627 27.8343 5.51861 27.8232 5.48094 27.8055C5.42334 27.7766 5.37903 27.7255 5.35909 27.6611L5.25275 27.3324C5.21287 27.2013 5.28155 27.0636 5.41226 27.0214L20.6437 22.0596C20.7235 22.033 20.8099 22.0485 20.8764 22.1018L21.0846 22.2751C21.16 22.3351 21.191 22.4372 21.1666 22.5283L21.1312 22.6638C21.1112 22.7437 21.0514 22.8104 20.9694 22.837L5.67369 27.8188C5.64932 27.8277 5.62052 27.8321 5.59837 27.8321L5.59615 27.8343Z" fill="#004B93"/>
<path d="M19.062 29.5791L19.206 29.0283L12.925 37.697L13.2042 37.8991L19.3854 29.3704L19.062 29.5791Z" fill="#004B93"/>
<path d="M13.2021 38.1483C13.1533 38.1483 13.1001 38.1327 13.0581 38.0994L12.7767 37.8951C12.7235 37.8573 12.6881 37.7996 12.677 37.7329C12.6681 37.6708 12.6836 37.6019 12.7213 37.5486L19.0044 28.8799C19.0753 28.7844 19.2016 28.7511 19.3102 28.8022C19.4165 28.8532 19.4719 28.9732 19.4431 29.0909L19.432 29.1264C19.4808 29.1375 19.5251 29.162 19.5605 29.1997C19.6425 29.2864 19.6513 29.4196 19.5805 29.5151L13.3992 38.0439C13.3505 38.1083 13.2774 38.1461 13.1998 38.1461L13.2021 38.1483Z" fill="#004B93"/>
<path d="M25.3341 10.5791H25.137V25.6022H25.3341V10.5791Z" fill="#004B93"/>
<path d="M25.4161 25.6845H25.0527V10.4971H25.4161V25.6845ZM25.2167 25.5201H25.2499V10.6614H25.2167V25.5201Z" fill="#004B93"/>
<path d="M15.2977 17.7261L15.2368 17.9141L29.4889 22.5564L29.5499 22.3685L15.2977 17.7261Z" fill="#004B93"/>
<path d="M29.5436 22.6613L15.134 17.9683L15.247 17.624L29.6566 22.3171L29.5436 22.6635V22.6613ZM15.3423 17.8617L29.4372 22.4526L29.4483 22.4215L15.3512 17.8306L15.3423 17.8639V17.8617Z" fill="#004B93"/>
<path d="M35.1629 17.7775L20.8765 22.3125L20.936 22.501L35.2225 17.9659L35.1629 17.7775Z" fill="#004B93"/>
<path d="M20.9011 22.6616L20.7903 22.3151L35.1998 17.6221L35.3106 17.9663L20.9011 22.6594V22.6616ZM20.9985 22.4217L21.0096 22.4528L35.1046 17.8619L35.0935 17.8286L20.9985 22.4195V22.4217Z" fill="#004B93"/>
<path d="M22.6588 17.3408L22.4993 17.457L31.3076 29.611L31.4671 29.4948L22.6588 17.3408Z" fill="#004B93"/>
<path d="M31.2893 29.7268L22.3853 17.44L22.6777 17.2246L31.5817 29.5136L31.2893 29.7268ZM22.6157 17.4756L31.327 29.498L31.3558 29.4781L22.6422 17.4556L22.6179 17.4756H22.6157Z" fill="#004B93"/>
<path d="M19.1617 29.6111L19.0022 29.4956L27.8088 17.3398L27.9683 17.4576L19.1617 29.6111Z" fill="#004B93"/>
<path d="M19.1794 29.7268L18.887 29.5136L27.791 17.2246L28.0835 17.44L19.1794 29.7268ZM19.1152 29.4781L19.1417 29.498L27.853 17.4756L27.8265 17.4556L19.1152 29.4781Z" fill="#004B93"/>
<path d="M25.8946 108H24.5764V107.34C24.5764 106.354 22.3498 106.134 21.57 106.134H3.69322C1.34702 106.134 0 104.784 0 102.429V41.2666H25.2344V42.5881H1.31822V102.427C1.31822 104.031 2.09364 104.81 3.69544 104.81H21.5722C22.9126 104.81 24.4036 105.11 25.2366 105.872C26.0697 105.11 27.5607 104.81 28.901 104.81H46.7756C48.3752 104.81 49.1528 104.031 49.1528 102.427V42.5881H25.2344V41.2666H50.4688V102.427C50.4688 104.782 49.1218 106.132 46.7734 106.132H28.8988C28.119 106.132 25.8924 106.354 25.8924 107.338V107.998L25.8946 108Z" fill="#004B93"/>
<path d="M32.058 51.3145C31.9783 51.3145 31.9029 51.2767 31.8542 51.2101L29.9245 48.5071C29.7362 48.5493 29.5523 48.5715 29.3728 48.5715C28.8367 48.5715 28.4091 48.3738 28.1632 48.0163C27.6514 47.2633 28.1233 46.0751 29.2377 45.3133C29.7805 44.9423 30.3787 44.7402 30.9303 44.7402C31.482 44.7402 31.8963 44.9357 32.1422 45.2955C32.479 45.7908 32.397 46.4904 31.9339 47.1523L32.9974 48.7892C33.0528 48.8736 33.0505 48.9824 32.9929 49.0646C32.7448 49.4244 32.4236 50.0685 32.3039 51.0968C32.2929 51.199 32.2175 51.2834 32.12 51.3101C32.1001 51.3145 32.0779 51.3167 32.058 51.3167V51.3145ZM30.0286 47.9785C30.1062 47.9785 30.1815 48.0163 30.2302 48.0829L31.9096 50.4372C32.058 49.7509 32.2884 49.2556 32.4945 48.9224L31.4244 47.2789C31.3668 47.1878 31.3712 47.0723 31.4377 46.9901C31.8498 46.4682 31.965 45.9129 31.7346 45.5731C31.5861 45.3532 31.3003 45.2333 30.9303 45.2333C30.485 45.2333 29.9688 45.411 29.5168 45.7219C28.6572 46.3083 28.2252 47.2322 28.5708 47.7386C28.7193 47.9563 29.0051 48.0762 29.3728 48.0762C29.5589 48.0762 29.7561 48.0474 29.9599 47.9874C29.9821 47.9807 30.0065 47.9785 30.0286 47.9785Z" fill="#004B93"/>
<path d="M35.9906 54.7483C35.4234 54.7483 34.7211 54.6683 34.3268 54.0264C33.6267 52.8848 34.0786 51.7166 34.2337 51.3856C34.2714 51.3035 34.3511 51.2501 34.4398 51.2435C34.5328 51.239 34.6148 51.2812 34.6635 51.3568L36.6109 54.3552C36.6597 54.4307 36.6641 54.5262 36.6242 54.6039C36.5866 54.6816 36.5046 54.7327 36.416 54.7394C36.272 54.7461 36.128 54.7505 35.9884 54.7505L35.9906 54.7483ZM34.5217 52.0431C34.4087 52.4806 34.3578 53.1314 34.7477 53.7666C34.956 54.1064 35.3082 54.2508 35.9596 54.2552L34.5217 52.0431Z" fill="#004B93"/>
<path d="M36.0948 49.6529C36.0948 49.8373 35.9463 49.9839 35.7669 49.9839C35.5874 49.9839 35.4368 49.8373 35.4368 49.6529C35.4368 49.4686 35.583 49.3242 35.7669 49.3242C35.9508 49.3242 36.0948 49.4708 36.0948 49.6529Z" fill="#004B93"/>
<path d="M35.7646 50.1485C35.4898 50.1485 35.2705 49.9264 35.2705 49.6532C35.2705 49.38 35.4898 49.1602 35.7646 49.1602C36.0393 49.1602 36.2586 49.3823 36.2586 49.6532C36.2586 49.9242 36.0349 50.1485 35.7646 50.1485ZM35.7646 49.4889C35.6737 49.4889 35.6006 49.5622 35.6006 49.6532C35.6006 49.7443 35.6737 49.8198 35.7646 49.8198C35.8554 49.8198 35.9285 49.7443 35.9285 49.6532C35.9285 49.5622 35.8554 49.4889 35.7646 49.4889Z" fill="#004B93"/>
<path d="M18.3243 72.2588H0.680176V73.085H18.1271C18.1781 72.8029 18.2446 72.5298 18.3265 72.2588H18.3243Z" fill="#004B93"/>
<path d="M32.1445 72.2588C32.2265 72.5298 32.293 72.8052 32.3417 73.085H49.9947V72.2588H32.1423H32.1445Z" fill="#004B93"/>
<path d="M25.2343 67.14C25.3739 67.14 25.5113 67.1444 25.6464 67.1511V41.9912H24.8223V67.1511C24.9596 67.1444 25.097 67.14 25.2343 67.14Z" fill="#004B93"/>
<path d="M25.2343 81.6256C25.097 81.6256 24.9596 81.6212 24.8223 81.6123V106.597H25.6464V81.6123C25.5113 81.619 25.3739 81.6256 25.2343 81.6256Z" fill="#004B93"/>
<path d="M30.5161 77.67H19.9527L19.7378 77.2969L25.0195 68.124H25.4471L30.731 77.2969L30.5161 77.67ZM20.3781 77.1747H30.0886L25.2344 68.7437L20.3803 77.1747H20.3781Z" fill="#004B93"/>
<path d="M27.8863 69.1027C27.8486 69.1027 27.8132 69.096 27.7777 69.0782C27.5407 68.9649 26.5016 68.7562 26.1693 68.6984C25.9832 68.6673 25.5357 68.5541 25.3651 68.2276C25.3119 68.121 25.3119 68.0032 25.3651 67.9033C25.4271 67.7811 25.5645 67.699 25.7218 67.639C25.5955 67.508 25.4825 67.3902 25.4448 67.3369C25.3739 67.2281 25.3274 67.0415 25.4116 66.8416C25.5467 66.5285 25.9345 66.3175 26.6013 66.202C27.5163 66.0376 27.986 66.7439 28.3294 67.2592C28.4823 67.488 28.6373 67.7234 28.7725 67.7878C28.8966 67.8478 28.9475 67.9944 28.8899 68.1187C28.8323 68.2409 28.6839 68.292 28.562 68.2342C28.3028 68.1099 28.1189 67.83 27.9217 67.5368C27.5385 66.9616 27.2438 66.5907 26.6922 66.6884C26.0452 66.8017 25.9034 66.9749 25.8769 67.026C25.8591 67.0549 25.8636 67.0704 25.8658 67.0771C25.899 67.1193 26.1671 67.3902 26.3908 67.6079C26.4573 67.6745 26.4817 67.7745 26.4507 67.8655C26.4196 67.9566 26.3421 68.0188 26.2468 68.0299C26.1361 68.0454 26.0142 68.0721 25.9234 68.101C26.0076 68.1476 26.1294 68.1898 26.2601 68.2142C26.2734 68.2142 27.636 68.4608 27.9949 68.6362C28.1167 68.6962 28.1699 68.845 28.1101 68.9672C28.068 69.056 27.9816 69.1049 27.8885 69.1049L27.8863 69.1027Z" fill="#004B93"/>
<path d="M28.0545 68.6695L27.8839 68.8539C27.5848 68.7095 26.3818 68.4829 26.2112 68.4518C26.0362 68.4208 25.6972 68.3252 25.5842 68.1098C25.5643 68.0743 25.5687 68.0432 25.5842 68.0099C25.469 68.0032 25.3516 68.001 25.2342 68.001C21.7271 68.001 18.8735 70.8617 18.8735 74.3776C18.8735 77.8935 21.7271 80.7541 25.2342 80.7541C28.7413 80.7541 31.5971 77.8912 31.5971 74.3776C31.5971 71.8767 30.1548 69.709 28.0567 68.6673L28.0545 68.6695ZM25.2342 80.2633C21.9996 80.2633 19.3676 77.6225 19.3676 74.3798C19.3676 71.1371 21.9996 68.4985 25.2342 68.4985C28.4688 68.4985 31.103 71.1349 31.103 74.3798C31.103 77.6247 28.471 80.2633 25.2342 80.2633Z" fill="#004B93"/>
<path d="M28.1964 67.5056C28.3493 67.7299 28.4955 67.9254 28.6639 68.0075L28.4911 68.1985C30.7021 69.3735 32.2131 71.7033 32.2131 74.3819C32.2131 78.2398 29.0826 81.3782 25.2343 81.3782C21.386 81.3782 18.2577 78.2398 18.2577 74.3819C18.2577 70.524 21.3882 67.3856 25.2343 67.3856C25.4404 67.3856 25.6464 67.3968 25.8458 67.4145C25.755 67.319 25.673 67.2324 25.6508 67.1991C25.622 67.1569 25.5821 67.0392 25.6597 66.9037C25.5179 66.8948 25.3783 66.8926 25.2343 66.8926C21.1135 66.8926 17.7615 70.2508 17.7615 74.3841C17.7615 78.5175 21.1135 81.8757 25.2343 81.8757C29.3551 81.8757 32.7072 78.5153 32.7072 74.3841C32.7072 71.308 30.8484 68.6627 28.1986 67.51L28.1964 67.5056Z" fill="#004B93"/>
<path d="M26.7986 67.1149C26.7986 67.1993 26.7322 67.2659 26.648 67.2659C26.5638 67.2659 26.4973 67.1993 26.4973 67.1149C26.4973 67.0305 26.5638 66.9639 26.648 66.9639C26.7322 66.9639 26.7986 67.0327 26.7986 67.1149Z" fill="#004B93"/>
<path d="M26.6479 67.4328C26.4728 67.4328 26.3311 67.2906 26.3311 67.1152C26.3311 66.9397 26.4728 66.7998 26.6479 66.7998C26.8229 66.7998 26.9625 66.9419 26.9625 67.1152C26.9625 67.2884 26.8207 67.4328 26.6479 67.4328Z" fill="#004B93"/>
<path d="M25.2344 76.475C24.1001 76.475 23.1785 75.5511 23.1785 74.4139C23.1785 73.2768 24.1023 72.3506 25.2344 72.3506C26.3666 72.3506 27.2926 73.2768 27.2926 74.4139C27.2926 75.5511 26.3688 76.475 25.2344 76.475ZM25.2344 72.7282C24.3106 72.7282 23.5573 73.4833 23.5573 74.4117C23.5573 75.3401 24.3106 76.093 25.2344 76.093C26.1583 76.093 26.9138 75.3379 26.9138 74.4117C26.9138 73.4855 26.1605 72.7282 25.2344 72.7282Z" fill="#004B93"/>
<path d="M20.4202 103.145H18.4684C18.3332 103.145 18.2203 103.034 18.2203 102.896V98.7762H4.95612C4.82098 98.7762 4.71021 98.6651 4.71021 98.5296V96.3952C4.71021 96.2575 4.82098 96.1465 4.95612 96.1465H20.4202C20.5576 96.1465 20.6662 96.2575 20.6662 96.3952V98.5296C20.6662 98.5408 20.6662 98.5519 20.6662 98.563V102.896C20.6662 103.034 20.5554 103.145 20.4202 103.145ZM18.7121 102.65H20.1699V98.5319C20.1699 98.5208 20.1699 98.5097 20.1721 98.4986V96.644H5.20426V98.2831H18.4684C18.6035 98.2831 18.7143 98.3942 18.7143 98.5296V102.647L18.7121 102.65Z" fill="#004B93"/>
<path d="M15.9803 96.4661C13.0957 96.4661 10.7473 94.1096 10.7473 91.2178C10.7473 88.326 13.0957 85.9717 15.9803 85.9717C18.8649 85.9717 21.2155 88.3238 21.2155 91.2178C21.2155 94.1118 18.8671 96.4661 15.9803 96.4661ZM15.9803 86.4647C13.3682 86.4647 11.2392 88.5969 11.2392 91.2155C11.2392 93.8341 13.366 95.9686 15.9803 95.9686C18.5946 95.9686 20.7214 93.8364 20.7214 91.2155C20.7214 88.5947 18.5946 86.4647 15.9803 86.4647Z" fill="#004B93"/>
<path d="M15.5772 85.3228L6.85034 79.7325L6.98327 79.5215L15.7101 85.114L15.5772 85.3228Z" fill="#004B93"/>
<path d="M6.92379 79.5822L6.77734 79.7803L14.4713 85.4982L14.6178 85.3002L6.92379 79.5822Z" fill="#004B93"/>
<path d="M13.6142 85.7675L6.7085 79.8284L6.86801 79.6396L13.7737 85.5765L13.6142 85.7675Z" fill="#004B93"/>
<path d="M12.9208 86.1047L6.6377 79.8769L6.81272 79.6992L13.0958 85.927L12.9208 86.1047Z" fill="#004B93"/>
<path d="M6.75124 79.7632L6.56641 79.9258L12.3095 86.4863L12.4944 86.3237L6.75124 79.7632Z" fill="#004B93"/>
<path d="M11.7842 86.9444L6.49805 79.9681L6.69523 79.8193L11.9814 86.7956L11.7842 86.9444Z" fill="#004B93"/>
<path d="M11.2991 87.4437L6.42944 80.0166L6.63548 79.8789L11.5073 87.3105L11.2991 87.4437Z" fill="#004B93"/>
<path d="M10.8583 88.0326L6.36304 80.0636L6.57572 79.9414L11.071 87.9105L10.8583 88.0326Z" fill="#004B93"/>
<path d="M10.4416 88.723L6.29419 80.1098L6.51574 80.001L10.6631 88.6164L10.4416 88.723Z" fill="#004B93"/>
<path d="M10.0938 89.612L6.22559 80.157L6.45378 80.0615L10.322 89.5187L10.0938 89.612Z" fill="#004B93"/>
<path d="M9.88561 91.0575L6.16138 80.2033L6.39622 80.1211L10.1182 90.9753L9.88561 91.0575Z" fill="#004B93"/>
<path d="M7.41315 80.9852L6.0484 80.1057L4.68588 80.9852L5.09796 79.415L3.84399 78.3844L5.46352 78.2933L6.05062 76.7764L6.63994 78.2933L8.25946 78.3844L7.00328 79.415L7.41536 80.9875L7.41315 80.9852ZM5.13784 78.8064L5.65848 79.2306L5.48789 79.8792L6.05062 79.5171L6.61335 79.8792L6.44276 79.2306L6.9634 78.8064L6.29211 78.7664L6.05062 78.1401L5.80913 78.7664L5.13784 78.8064Z" fill="#004B93"/>
<path d="M14.6687 95.5979C14.5557 95.5979 14.4693 95.5401 14.4383 95.4446C14.4095 95.358 14.3851 95.1115 14.343 94.5562C14.3297 94.3808 14.3142 94.1986 14.3098 94.1564C14.2987 94.0965 14.3009 93.9543 14.3032 93.7144C14.3032 93.5279 14.3098 93.2125 14.2943 93.1503C14.2876 93.1348 14.2766 93.0926 14.2611 93.0415C14.2345 92.9393 14.1636 92.6706 14.0639 92.635C13.2818 92.3485 13.3106 92.0909 13.3195 92.0087C13.3261 91.9665 13.3128 91.8443 13.304 91.7377C13.2641 91.2802 13.253 90.9715 13.4369 90.856C13.4989 90.8182 13.5765 90.7805 13.6584 90.7405C13.6983 90.7205 13.7559 90.6916 13.8047 90.665C13.6961 90.6072 13.5676 90.5361 13.53 90.4007C13.4989 90.3585 13.2752 90.2119 13.1533 90.1341C13.0049 90.0364 12.9074 89.9742 12.852 89.9165C12.8232 89.8876 12.8033 89.8498 12.759 89.7566C12.5662 89.3634 12.4776 89.2924 12.4399 89.2835C12.2317 89.2679 11.649 89.1169 11.5183 88.8459C11.474 88.7571 11.4784 88.6572 11.5338 88.5728C11.6756 88.3573 12.338 87.4267 12.7257 87.1491C13.2464 86.7715 14.0351 86.405 14.0705 86.3895C14.1171 86.3695 14.1724 86.3695 14.219 86.3939C14.2655 86.4206 14.2965 86.465 14.3032 86.5161C14.3032 86.5161 14.3652 86.998 14.3851 87.2046C14.3984 87.3112 14.456 87.4178 14.5446 87.3934C14.5978 87.3778 14.713 87.2579 14.7928 87.1779C14.9612 87.0069 15.1207 86.847 15.3001 86.847C15.3068 86.847 15.3245 86.847 15.3311 86.847C15.3666 86.847 15.4286 86.8204 15.4796 86.7959C15.5549 86.7626 15.6302 86.7293 15.7122 86.7293C15.7742 86.7293 15.9736 86.7559 15.9736 87.0713C15.9736 87.2201 15.967 87.3157 15.9626 87.3934C15.9559 87.5133 15.9515 87.5866 15.9736 87.7732C15.9914 87.9375 15.9426 88.0975 15.8296 88.2263C15.6723 88.404 15.4109 88.4817 15.2669 88.384C15.2403 88.3662 15.2115 88.344 15.1827 88.324C15.1229 88.2774 15.0542 88.2241 15.0055 88.2241C14.9944 88.2241 14.9833 88.2285 14.97 88.2329C14.7906 88.3129 14.5823 88.4772 14.5225 88.6327C14.4317 88.8793 14.2057 89.0947 14.0307 89.0947C14.0151 89.0947 13.9819 89.088 13.9642 89.0836C13.8047 89.0303 13.7914 88.8215 13.7914 88.5972C13.7847 88.575 13.736 88.5172 13.7005 88.5128C13.6496 88.5039 13.6008 88.4884 13.5565 88.4728C13.5233 88.4617 13.4812 88.4484 13.4568 88.4439C13.3815 88.5306 13.2486 88.746 13.273 88.9015C13.3106 89.1213 13.7028 89.6944 13.829 89.7455C14.0727 89.8454 15.0409 90.6516 15.0985 90.7116C15.1606 90.7516 15.6369 90.9426 15.8318 90.9981C16.2439 91.1158 16.7468 91.3313 16.7934 91.6911C16.8421 92.0509 16.5785 92.6706 16.3591 92.8349C16.204 92.9526 15.9891 93.1659 15.8119 93.3857C15.7676 93.4413 15.7321 93.479 15.6989 93.5101C15.6147 93.599 15.5859 93.6278 15.515 94.0143C15.4109 94.5784 15.1273 95.3491 15.1162 95.3824C15.1029 95.418 15.0764 95.4491 15.0431 95.4691C14.99 95.5002 14.8083 95.5934 14.6687 95.5934V95.5979ZM13.6452 92.0353C13.674 92.0864 13.8335 92.2041 14.1747 92.3263C14.4339 92.4196 14.5247 92.7572 14.5779 92.9593C14.5845 92.9948 14.5934 93.0237 14.6022 93.0393C14.6333 93.117 14.6355 93.2702 14.6288 93.7189C14.6266 93.8633 14.6244 94.0609 14.6288 94.1031C14.6377 94.1542 14.6488 94.2919 14.6665 94.5296C14.682 94.7339 14.7108 95.0804 14.7307 95.2514C14.7595 95.2425 14.7928 95.227 14.826 95.2114C14.8947 95.0182 15.1052 94.4052 15.1894 93.9565C15.2713 93.5079 15.3223 93.4257 15.4574 93.2836C15.484 93.2569 15.515 93.2258 15.5527 93.1814C15.7454 92.946 15.9825 92.7083 16.1575 92.5773C16.2683 92.4951 16.4987 91.9976 16.4633 91.7399C16.4477 91.6333 16.2151 91.4557 15.7366 91.318C15.6258 91.2891 14.9722 91.0559 14.8637 90.947C14.7773 90.8626 13.8711 90.123 13.705 90.0542C13.4258 89.9431 12.9916 89.2368 12.9451 88.957C12.8919 88.6283 13.1445 88.2862 13.2397 88.1952C13.2752 88.1596 13.3394 88.1152 13.4391 88.1152C13.5167 88.1152 13.592 88.1419 13.6584 88.1641C13.6917 88.1752 13.7227 88.1863 13.7537 88.1907C13.9575 88.2263 14.1171 88.4395 14.1171 88.6016C14.1171 88.6305 14.1171 88.6549 14.1171 88.6794C14.1503 88.6394 14.1857 88.5861 14.2079 88.5239C14.3076 88.2507 14.6045 88.0353 14.8304 87.9353C14.8858 87.9131 14.9412 87.8976 14.9988 87.8976C15.1605 87.8976 15.2846 87.9953 15.3755 88.0664C15.3932 88.0797 15.4109 88.0908 15.4264 88.1041C15.4619 88.0997 15.5261 88.0686 15.5748 88.0131C15.6103 87.9731 15.6502 87.9064 15.6369 87.8198C15.6103 87.5999 15.6169 87.5022 15.6258 87.3756C15.6324 87.3023 15.6369 87.2179 15.6369 87.0891C15.6258 87.0935 15.6169 87.098 15.6081 87.1024C15.515 87.1424 15.4043 87.1868 15.2913 87.1779C15.2425 87.1868 15.0985 87.3334 15.0232 87.4089C14.8925 87.5422 14.7662 87.671 14.6355 87.7088C14.3541 87.7932 14.0883 87.5711 14.0528 87.2357C14.0417 87.1246 14.0196 86.9381 14.0019 86.787C13.7338 86.9203 13.2552 87.1691 12.914 87.4156C12.6282 87.6221 12.0722 88.3573 11.8262 88.7238C11.9149 88.806 12.245 88.9392 12.4599 88.9548C12.7147 88.9748 12.8897 89.2879 13.0492 89.6122C13.0647 89.6477 13.078 89.6744 13.0891 89.6922C13.1312 89.7299 13.2375 89.7965 13.3306 89.8543C13.6496 90.0653 13.8047 90.1763 13.8423 90.3118C13.8534 90.3207 13.931 90.3629 13.973 90.3829C14.0838 90.4406 14.2522 90.525 14.2168 90.6983C14.1857 90.8471 14.0151 90.9315 13.798 91.0359C13.7338 91.067 13.6695 91.1003 13.6208 91.1269C13.5853 91.2202 13.6141 91.5489 13.6274 91.7111C13.6385 91.851 13.6496 91.9621 13.6429 92.0353H13.6452Z" fill="#004B93"/>
<path d="M17.2409 87.8864C17.0016 87.8864 16.831 87.7731 16.8177 87.5999C16.8133 87.5466 16.7424 87.4289 16.6737 87.3956C16.5275 87.3245 16.3879 87.2445 16.3037 87.058C16.2328 86.8981 16.1996 86.596 16.1951 86.5605C16.1907 86.5405 16.1951 86.516 16.2018 86.4938L16.2948 86.2073C16.317 86.1362 16.3857 86.0896 16.461 86.094C16.4876 86.094 17.1256 86.134 17.6995 86.3672C17.7438 86.385 17.777 86.4228 17.7947 86.4672C17.8102 86.5138 17.8036 86.5649 17.777 86.6049C17.6906 86.7492 17.5887 86.9336 17.5776 86.9847C17.5754 87.0047 17.571 87.0513 17.5687 87.1157C17.5355 87.5932 17.5067 87.8664 17.294 87.8842C17.2785 87.8842 17.2586 87.8842 17.2431 87.8842L17.2409 87.8864ZM17.1412 87.5399C17.1522 87.5444 17.17 87.551 17.1877 87.5533C17.2143 87.4355 17.232 87.1935 17.2386 87.0913C17.2431 87.0135 17.2475 86.9514 17.2541 86.9269C17.2652 86.8536 17.3295 86.727 17.3959 86.6093C17.0658 86.5027 16.7402 86.4561 16.5673 86.4361L16.5275 86.5627C16.5385 86.6737 16.5696 86.847 16.6028 86.9203C16.6382 87.0024 16.6958 87.0402 16.8177 87.0979C16.9905 87.1846 17.1146 87.3845 17.1412 87.5399Z" fill="#004B93"/>
<path d="M19.924 94.3937C19.9018 94.3937 19.8774 94.3893 19.8531 94.3782C19.7844 94.3449 19.7489 94.2738 19.76 94.1983C19.7977 93.9784 19.8331 93.7074 19.8309 93.6363C19.811 93.5719 19.8088 93.472 19.8065 93.3143C19.8065 93.2388 19.8065 93.161 19.7999 93.1011C19.7955 93.0522 19.7379 92.9389 19.698 92.8545C19.6404 92.7413 19.5916 92.6413 19.5806 92.5547C19.5673 92.437 19.5075 92.3171 19.3989 92.1882C19.2992 92.0683 19.2505 91.9173 19.2084 91.7862C19.1773 91.6952 19.1485 91.6019 19.1087 91.553C19.02 91.4442 18.978 91.3131 18.9447 91.2088C18.9336 91.1688 18.9159 91.1177 18.9071 91.1044C18.7165 90.9134 19.0356 90.4003 19.04 90.3959C19.1065 90.3115 19.3125 90.2093 19.4742 90.1404C19.4809 90.1382 19.4853 90.1338 19.4942 90.1338C19.7822 90.0516 19.8974 90.0272 19.9461 90.0205C19.9794 89.9983 20.0436 89.9428 20.0791 89.9028C20.0635 89.8495 20.0436 89.7829 20.0215 89.7229C19.9904 89.6496 19.9882 89.5541 19.9971 89.4652H19.9926C19.955 89.4919 19.9085 89.523 19.8221 89.5341C19.6736 89.5541 19.554 89.5252 19.3502 89.4564C19.2815 89.4364 19.2615 89.4342 19.2615 89.4342C19.1929 89.4408 19.1441 89.4097 19.1065 89.3831C18.9735 89.2964 18.9048 89.2631 18.8716 89.252C18.8628 89.2498 18.783 89.252 18.7187 89.2654H18.7099C18.6944 89.2898 18.6744 89.332 18.6589 89.3697C18.6434 89.5008 18.6235 89.654 18.6235 89.6874C18.6235 89.9161 18.1715 90.0494 18.0275 90.0494C18.0031 90.0494 17.9788 90.0472 17.9566 90.0405C17.5888 89.9583 17.5091 89.9028 17.4803 89.8073C17.4382 89.6807 17.5667 89.3786 17.6066 89.2942C17.6021 89.2765 17.5911 89.2431 17.5844 89.2232C17.5556 89.1476 17.5179 89.0388 17.5778 88.9411C17.6309 88.8545 17.7306 88.7678 17.7506 88.7479C17.7794 88.7234 17.817 88.7101 17.8591 88.7101C17.8902 88.7101 18.0585 88.7101 18.1383 88.7256C18.1449 88.7256 18.1715 88.7123 18.2003 88.7012C18.2446 88.6324 18.3244 88.5169 18.3731 88.4658L18.3864 88.4547C18.4352 88.4036 18.4817 88.3614 18.4883 88.2681C18.4972 88.1704 18.4883 88.1149 18.4773 88.0504C18.4728 88.0216 18.4662 87.9927 18.464 87.9594C18.4595 87.935 18.4462 87.915 18.4064 87.8705C18.382 87.8439 18.3598 87.815 18.3399 87.7839C18.2446 87.6396 18.2025 87.5418 18.2025 87.4574C18.2025 87.3108 18.2712 87.1931 18.3886 87.1332C18.4219 87.1154 18.5415 87.0199 18.6478 86.9199C18.701 86.8711 18.783 86.8644 18.845 86.9022C18.8539 86.9088 19.0954 87.0554 19.3723 87.302C19.6404 87.5396 20.5354 88.7834 20.7747 89.2232C21.0206 89.6718 21.2466 90.9622 21.0295 92.2193C20.8168 93.4453 20.0879 94.3004 20.0547 94.3338C20.0215 94.3715 19.9771 94.3915 19.9306 94.3915L19.924 94.3937ZM19.1818 90.9156C19.2194 90.9711 19.2394 91.0377 19.2615 91.111C19.2881 91.1932 19.3169 91.2843 19.3657 91.3465C19.4432 91.442 19.4831 91.5663 19.5208 91.6863C19.5562 91.7951 19.5916 91.9084 19.6515 91.9772C19.8043 92.1594 19.8885 92.337 19.9107 92.5192C19.9151 92.5503 19.9638 92.6435 19.9949 92.708C20.0569 92.8323 20.1211 92.9612 20.1322 93.0722C20.1389 93.1366 20.1389 93.2232 20.1389 93.3099C20.1389 93.3898 20.1411 93.5098 20.1499 93.5431C20.1544 93.552 20.1588 93.5653 20.161 93.5986C20.3649 93.2499 20.5997 92.7502 20.6972 92.166C20.8988 91 20.6972 89.7806 20.4801 89.3853C20.2607 88.9833 19.3856 87.7639 19.1463 87.5529C18.9957 87.4197 18.8561 87.3153 18.7653 87.2553C18.6899 87.3242 18.5925 87.4019 18.5304 87.4352C18.5304 87.4352 18.5238 87.4419 18.5238 87.4641C18.5238 87.4641 18.5326 87.4952 18.608 87.6085C18.619 87.6285 18.6368 87.6462 18.6501 87.6618C18.701 87.7195 18.7697 87.7995 18.783 87.9261C18.7874 87.9549 18.7896 87.9772 18.7941 88.0016C18.8074 88.0793 18.8229 88.1637 18.8096 88.3059C18.7919 88.5213 18.6722 88.6368 18.608 88.7012C18.5725 88.7367 18.495 88.8456 18.4396 88.9322C18.4241 88.9544 18.4019 88.9766 18.3753 88.9899C18.3332 89.0099 18.1671 89.081 18.0652 89.0588C18.0408 89.0544 17.9766 89.0499 17.9123 89.0477C17.899 89.0632 17.8857 89.0743 17.8769 89.0877C17.8791 89.0966 17.8835 89.1077 17.8879 89.1188C17.919 89.2032 17.9655 89.3275 17.8968 89.4475C17.8702 89.4941 17.8348 89.5963 17.8126 89.6718C17.8591 89.6873 17.9278 89.7073 18.0231 89.7273C18.0895 89.7273 18.2291 89.6696 18.2934 89.6296C18.3022 89.5297 18.3244 89.3697 18.331 89.3142C18.331 89.3053 18.3355 89.2942 18.3377 89.2853C18.3753 89.1743 18.4617 88.9811 18.619 88.9544L18.6545 88.95C18.7475 88.9322 18.876 88.9166 18.9713 88.95C19.0489 88.9766 19.1463 89.0299 19.277 89.1143C19.3214 89.1165 19.3745 89.1299 19.4521 89.1565C19.6382 89.2187 19.698 89.2276 19.7755 89.2187C19.7859 89.2187 19.7955 89.215 19.8043 89.2076C19.8464 89.1787 19.8996 89.1476 19.9904 89.1476C20.1056 89.1476 20.2142 89.1787 20.2275 89.1832C20.3117 89.2076 20.3626 89.2942 20.3449 89.3786C20.325 89.4653 20.3139 89.5785 20.3228 89.6096C20.3649 89.714 20.3959 89.8295 20.4114 89.8895C20.4357 89.9805 20.3892 90.0516 20.3516 90.0982C20.3516 90.1005 20.1389 90.3581 19.9771 90.3581C19.9461 90.3625 19.7556 90.4136 19.5961 90.4603C19.4609 90.518 19.3236 90.5935 19.2926 90.6202C19.2615 90.6602 19.1884 90.8467 19.1796 90.9245L19.1818 90.9156Z" fill="#004B93"/>
<path d="M42.6614 102.745C42.6349 102.745 42.6083 102.741 42.5817 102.732C42.482 102.696 42.4155 102.603 42.4155 102.496L42.4222 99.8066C42.4222 99.7489 42.4443 99.6911 42.482 99.6467L46.4832 94.9603C46.5518 94.8826 46.6626 94.8559 46.7601 94.8915C46.8576 94.9292 46.9218 95.0247 46.9174 95.1291L46.9041 95.4734C46.8864 96.0264 46.8842 96.0442 46.9396 96.3107C46.9794 96.5062 47.15 96.5861 47.1522 96.5883C47.2231 96.6194 47.2741 96.6794 47.294 96.7549C47.314 96.8282 47.2985 96.9082 47.2519 96.9681L42.8586 102.65C42.8121 102.71 42.7368 102.745 42.6637 102.745H42.6614ZM42.914 99.8977L42.9096 101.77L46.7025 96.8638C46.5939 96.7571 46.4942 96.6083 46.4544 96.4107C46.4056 96.173 46.3923 96.0775 46.399 95.8177L42.914 99.8977Z" fill="#004B93"/>
<path d="M37.4461 93.6098C37.4218 93.6098 37.3996 93.6054 37.3752 93.5987C37.2711 93.5676 37.198 93.4699 37.198 93.3588L37.3619 84.1149C37.3642 84.0327 37.4063 83.955 37.4749 83.9105C38.0399 83.5418 38.5494 83.373 39.0878 83.373C39.6594 83.373 40.2 83.5663 40.6963 83.7795C40.9178 83.8728 41.177 83.9216 41.4628 83.9216C42.2382 83.9216 42.9538 83.5685 42.9605 83.5641C43.0358 83.5263 43.1266 83.5285 43.1998 83.5752C43.2729 83.6196 43.3172 83.7018 43.3172 83.7862C43.3172 83.855 43.346 90.6092 43.3172 92.9235C43.3172 92.999 43.2817 93.0723 43.2197 93.1189C43.1577 93.1634 43.0801 93.1789 43.0048 93.1589C41.8971 92.8546 40.9067 92.6992 40.0671 92.6992C38.1817 92.6992 37.6588 93.481 37.6522 93.4899C37.6056 93.5654 37.5259 93.6054 37.4439 93.6054L37.4461 93.6098ZM37.856 84.257L37.7031 92.7902C38.1174 92.5126 38.8485 92.2083 40.0693 92.2083C40.8757 92.2083 41.8018 92.3416 42.832 92.6014C42.8497 90.4115 42.832 85.5363 42.8276 84.1571C42.5041 84.2748 42.0034 84.4214 41.465 84.4214C41.1128 84.4214 40.7893 84.357 40.5057 84.237C39.8898 83.9749 39.48 83.8683 39.09 83.8683C38.7001 83.8683 38.2924 83.9927 37.856 84.2592V84.257Z" fill="#004B93"/>
<path d="M37.4064 93.5808C37.3266 93.5808 37.2535 93.5431 37.2048 93.4787C36.9101 93.0544 36.1746 92.8346 35.0801 92.8346C33.5404 92.8346 31.8189 93.2743 31.8012 93.2788C31.7303 93.2965 31.6506 93.281 31.5908 93.2366C31.5309 93.1899 31.4933 93.1189 31.4933 93.0433L31.3914 84.9743C31.3914 84.8988 31.4246 84.8277 31.4844 84.7789C31.542 84.73 31.6196 84.7122 31.6927 84.73C31.6971 84.73 32.0117 84.7989 32.488 84.7989C33.0796 84.7989 33.9658 84.6922 34.8276 84.1814C35.4391 83.8194 36.0439 83.6328 36.6266 83.6328C37.32 83.6328 37.7343 83.9016 37.7498 83.9104C37.8229 83.9593 37.865 84.0393 37.8628 84.1237C37.8628 84.1237 37.7409 89.4608 37.6568 93.3387C37.6568 93.4453 37.5836 93.5386 37.484 93.5742C37.4618 93.5808 37.4374 93.5808 37.4108 93.5808H37.4064ZM35.0779 92.3415C36.0018 92.3415 36.7019 92.4903 37.1716 92.7857C37.2425 89.372 37.3399 85.1276 37.3621 84.268C37.2247 84.2103 36.9722 84.1281 36.6243 84.1281C36.1325 84.1281 35.6119 84.288 35.0757 84.6078C34.1186 85.1764 33.1394 85.2941 32.4858 85.2941C32.2443 85.2941 32.0405 85.2764 31.8854 85.2608L31.9807 92.7257C32.5567 92.5969 33.8528 92.3393 35.0779 92.3393V92.3415Z" fill="#004B93"/>
<path d="M37.4064 93.5808C37.3266 93.5808 37.2535 93.5431 37.2048 93.4787C36.9101 93.0544 36.1746 92.8346 35.0801 92.8346C33.5404 92.8346 31.8189 93.2743 31.8012 93.2788C31.7303 93.2965 31.6506 93.281 31.5908 93.2366C31.5309 93.1899 31.4933 93.1189 31.4933 93.0433L31.3914 84.9743C31.3914 84.8988 31.4246 84.8277 31.4844 84.7789C31.542 84.73 31.6196 84.7122 31.6927 84.73C31.6971 84.73 32.0117 84.7989 32.488 84.7989C33.0796 84.7989 33.9658 84.6922 34.8276 84.1814C35.4391 83.8194 36.0439 83.6328 36.6266 83.6328C37.32 83.6328 37.7343 83.9016 37.7498 83.9104C37.8229 83.9593 37.865 84.0393 37.8628 84.1237C37.8628 84.1237 37.7409 89.4608 37.6568 93.3387C37.6568 93.4453 37.5836 93.5386 37.484 93.5742C37.4618 93.5808 37.4374 93.5808 37.4108 93.5808H37.4064ZM35.0779 92.3415C36.0018 92.3415 36.7019 92.4903 37.1716 92.7857C37.2425 89.372 37.3399 85.1276 37.3621 84.268C37.2247 84.2103 36.9722 84.1281 36.6243 84.1281C36.1325 84.1281 35.6119 84.288 35.0757 84.6078C34.1186 85.1764 33.1394 85.2941 32.4858 85.2941C32.2443 85.2941 32.0405 85.2764 31.8854 85.2608L31.9807 92.7257C32.5567 92.5969 33.8528 92.3393 35.0779 92.3393V92.3415Z" fill="#004B93"/>
<path d="M42.2006 98.9473C42.1718 98.9473 42.1452 98.9428 42.1186 98.9339C42.0211 98.8984 41.9569 98.8118 41.9546 98.7074L41.8882 96.6307C41.8882 96.5663 41.9103 96.5019 41.9546 96.4553L45.4795 92.6639C45.5482 92.5884 45.6567 92.5662 45.752 92.604C45.8473 92.6417 45.9093 92.735 45.9071 92.8372L45.9004 93.1348C45.8938 93.6145 45.8938 93.6234 45.9447 93.8455C45.9802 93.9943 46.1109 94.0565 46.1153 94.0588C46.1884 94.0899 46.2416 94.1543 46.2593 94.232C46.2748 94.3075 46.2593 94.3897 46.2062 94.4497L42.3889 98.8629C42.3424 98.9184 42.2715 98.9473 42.2028 98.9473H42.2006ZM42.3822 96.7173L42.4265 98.0588L45.6567 94.3231C45.577 94.2364 45.4994 94.1143 45.4618 93.9522C45.4175 93.7589 45.4019 93.6656 45.4019 93.468L42.3822 96.7151V96.7173Z" fill="#004B93"/>
<path d="M45.6656 93.0151H45.6456L44.2964 92.9041C44.1612 92.8907 44.0593 92.773 44.0704 92.6375C44.0815 92.502 44.1989 92.3999 44.3385 92.411L45.6877 92.522C45.8229 92.5309 45.9248 92.6509 45.9137 92.7886C45.9026 92.9196 45.7963 93.0173 45.67 93.0173L45.6656 93.0151Z" fill="#004B93"/>
<path d="M42.1474 98.9739C42.1275 98.9739 42.1075 98.9739 42.0876 98.9695L29.5413 95.9133C29.2621 95.86 28.7038 95.5357 28.6905 94.7006C28.6839 94.3453 28.7725 94.0699 28.9564 93.8811C29.22 93.6145 29.5634 93.6456 29.5634 93.6456C29.5723 93.6456 29.5834 93.6501 29.5945 93.6501L42.2028 96.2909C42.318 96.3153 42.4022 96.4175 42.4 96.533V98.7296C42.3978 98.8029 42.3601 98.8762 42.3025 98.9228C42.2582 98.9584 42.205 98.9761 42.1496 98.9761L42.1474 98.9739ZM29.5125 94.1387C29.4748 94.1387 29.3818 94.1498 29.3087 94.2253C29.2222 94.3164 29.1802 94.4741 29.1846 94.6895C29.1957 95.3114 29.6033 95.418 29.6498 95.4291L41.9015 98.4142L41.9059 96.7351L29.5147 94.1409L29.5125 94.1387Z" fill="#004B93"/>
<path d="M29.1646 94.2651C29.0981 94.2651 29.0316 94.2407 28.9807 94.183C28.8898 94.0808 28.8987 93.9253 29.0006 93.832L30.423 92.5416C30.5227 92.4505 30.68 92.4594 30.773 92.5594C30.8638 92.6615 30.8572 92.817 30.7553 92.9081L29.3329 94.2007C29.2864 94.2429 29.2266 94.2629 29.1668 94.2629L29.1646 94.2651Z" fill="#004B93"/>
<path d="M31.8431 96.4445C31.7057 96.4445 31.595 96.3334 31.595 96.1957V94.4633C31.595 94.3256 31.7057 94.2168 31.8431 94.2168C31.9805 94.2168 32.089 94.3278 32.089 94.4633V96.1957C32.089 96.3334 31.9782 96.4445 31.8431 96.4445Z" fill="#004B93"/>
<path d="M33.0352 96.7484C32.9001 96.7484 32.7893 96.6374 32.7893 96.5019V94.8161C32.7893 94.6807 32.9001 94.5674 33.0352 94.5674C33.1704 94.5674 33.2856 94.6784 33.2856 94.8161V96.5019C33.2856 96.6396 33.1726 96.7484 33.0352 96.7484Z" fill="#004B93"/>
<path d="M38.3878 97.9925C38.2504 97.9925 38.1418 97.8814 38.1418 97.746V95.9292C38.1418 95.7915 38.2526 95.6826 38.3878 95.6826C38.5229 95.6826 38.6337 95.7937 38.6337 95.9292V97.746C38.6337 97.8814 38.5229 97.9925 38.3878 97.9925Z" fill="#004B93"/>
<path d="M42.5993 102.723C42.5749 102.723 42.5528 102.721 42.5328 102.714L28.1654 98.6672C27.8375 98.5939 27.2327 98.2141 27.2327 97.2791C27.2327 96.4173 27.7334 96.1152 28.1654 96.1152C28.2008 96.1152 28.223 96.1152 28.223 96.1152C28.2341 96.1175 28.2474 96.1175 28.2584 96.1219L42.6569 99.6134C42.7677 99.64 42.8474 99.74 42.8474 99.8532V102.472C42.8474 102.55 42.812 102.623 42.7499 102.672C42.7056 102.703 42.6525 102.721 42.6015 102.721L42.5993 102.723ZM28.1632 96.6083C27.9904 96.6083 27.7267 96.7038 27.7267 97.2768C27.7267 98.0298 28.223 98.1675 28.2806 98.1808L42.3534 102.145V100.046L28.1654 96.6061L28.1632 96.6083Z" fill="#004B93"/>
<path d="M27.7577 96.7481C27.6913 96.7481 27.6226 96.7193 27.5716 96.6637C27.483 96.5616 27.4919 96.4039 27.596 96.315L28.8854 95.1868C28.9873 95.0979 29.1446 95.1068 29.2355 95.2112C29.3241 95.3134 29.3152 95.4688 29.2111 95.5621L27.9217 96.6882C27.8751 96.7282 27.8175 96.7504 27.7577 96.7504V96.7481Z" fill="#004B93"/>
<path d="M46.6692 95.3025H46.6448L45.5083 95.1892C45.3732 95.1759 45.2735 95.0537 45.2845 94.9205C45.2978 94.785 45.4175 94.685 45.5548 94.6962L46.6892 94.8094C46.8265 94.825 46.924 94.9449 46.9107 95.0804C46.8996 95.2092 46.7911 95.3047 46.6648 95.3047L46.6692 95.3025Z" fill="#004B93"/>
<path d="M29.7008 98.963C29.61 98.963 29.5369 98.8875 29.5369 98.7986V96.8375C29.5369 96.7464 29.61 96.6709 29.7008 96.6709C29.7916 96.6709 29.8648 96.7464 29.8648 96.8375V98.7986C29.8648 98.8875 29.7916 98.963 29.7008 98.963Z" fill="#004B93"/>
<path d="M38.0575 101.315C37.9667 101.315 37.8936 101.24 37.8936 101.149V98.8587C37.8936 98.7676 37.9667 98.6943 38.0575 98.6943C38.1483 98.6943 38.2192 98.7676 38.2192 98.8587V101.149C38.2192 101.242 38.1483 101.315 38.0575 101.315Z" fill="#004B93"/>
<path d="M37.4595 83.982C36.4404 83.982 35.5785 83.3357 35.3127 82.3762C35.295 82.3118 35.3171 82.2429 35.3681 82.2029C35.419 82.1607 35.4899 82.1519 35.5475 82.1874C35.5475 82.1874 35.707 82.2696 35.9286 82.3429C35.7336 82.0586 35.5918 81.7099 35.5099 81.4189C35.4921 81.3567 35.5143 81.2879 35.5652 81.2479C35.6162 81.2057 35.6871 81.199 35.7447 81.2301C35.7447 81.2301 35.9197 81.3212 36.1523 81.3989C36.015 81.1724 35.9131 80.9081 35.851 80.6793C35.8355 80.6149 35.8555 80.5461 35.9064 80.5061C35.9596 80.4639 36.0283 80.4594 36.0859 80.4883C36.0881 80.4883 36.4293 80.6704 36.7239 80.726C36.9987 80.4083 37.0607 79.973 37.1072 79.6488C37.1515 79.3511 37.1892 79.0713 37.444 79.0713C37.6744 79.0713 37.7165 79.3178 37.763 79.6043C37.8162 79.9219 37.8893 80.3506 38.1684 80.6749C38.483 80.6238 38.8442 80.4839 38.8486 80.4816C38.9062 80.4617 38.9704 80.4728 39.0192 80.515C39.0635 80.5572 39.0834 80.6216 39.0679 80.6838C39.0037 80.9125 38.9018 81.1768 38.7622 81.4056C38.9948 81.3279 39.1676 81.2324 39.1698 81.2324C39.2274 81.199 39.3006 81.2079 39.3515 81.2501C39.4025 81.2901 39.4246 81.359 39.4069 81.4211C39.3294 81.7054 39.1831 82.0586 38.9837 82.354C39.2075 82.2762 39.367 82.1896 39.3692 82.1896C39.4268 82.1563 39.4999 82.1652 39.5487 82.2052C39.5996 82.2451 39.624 82.3118 39.6063 82.3784C39.3382 83.3379 38.4764 83.9842 37.4595 83.9842V83.982ZM35.7669 82.6405C36.0815 83.2579 36.7217 83.6511 37.4595 83.6511C38.1972 83.6511 38.8353 83.2579 39.1499 82.6405C38.9704 82.7049 38.7445 82.7738 38.5074 82.7982C38.4343 82.8048 38.3634 82.7626 38.3346 82.6916C38.308 82.6205 38.3346 82.5405 38.3966 82.4983C38.627 82.3406 38.8287 82.0097 38.966 81.6788C38.7888 81.7454 38.5606 81.8165 38.3302 81.8387C38.2571 81.8476 38.1862 81.8032 38.1596 81.7343C38.133 81.6632 38.1574 81.5833 38.2172 81.5411C38.3833 81.4234 38.534 81.1679 38.6426 80.8992C38.4875 80.9436 38.2969 80.9947 38.1241 81.0125C38.0754 81.0169 38.0267 81.0014 37.989 80.9658C37.588 80.566 37.4971 80.0197 37.4373 79.6621C37.4373 79.6621 37.4351 79.6843 37.4307 79.6976C37.3797 80.0641 37.3 80.6216 36.9012 81.0214C36.8657 81.0569 36.817 81.0747 36.766 81.0702C36.6065 81.0525 36.4337 80.9991 36.2875 80.9436C36.3916 81.1924 36.5334 81.4256 36.6885 81.5389C36.7505 81.5833 36.7749 81.661 36.7461 81.7299C36.7173 81.7987 36.6464 81.8454 36.5755 81.8343C36.3473 81.812 36.1235 81.7432 35.9441 81.6766C36.0792 82.0075 36.2808 82.3362 36.5113 82.4961C36.5733 82.5383 36.5954 82.6183 36.5711 82.6871C36.5467 82.7582 36.4714 82.8026 36.4005 82.7937C36.1679 82.7693 35.9441 82.7027 35.7646 82.6405H35.7669Z" fill="#004B93"/>
<path d="M11.9082 65.1316C11.8396 65.1316 11.7687 65.1005 11.7199 65.0428C11.6313 64.9384 11.6446 64.7807 11.7509 64.694L13.6297 63.1104C13.7338 63.0216 13.8911 63.0349 13.9775 63.1415C14.0661 63.2459 14.0528 63.4014 13.9465 63.4902L12.0655 65.0738C12.0212 65.1138 11.9636 65.1316 11.906 65.1316H11.9082Z" fill="#004B93"/>
<path d="M11.8373 66.5999C11.7664 66.5999 11.6977 66.5688 11.6467 66.511C11.5603 66.4066 11.5736 66.2512 11.6778 66.1623L13.5964 64.561C13.7005 64.4743 13.8556 64.4877 13.9442 64.5921C14.0328 64.6964 14.0173 64.8541 13.9132 64.9408L11.9968 66.5421C11.9481 66.5821 11.8927 66.5999 11.8373 66.5999Z" fill="#004B93"/>
<path d="M12.894 69.159C11.5537 69.159 10.4725 68.1018 10.4326 66.7581C10.4326 66.6915 10.457 66.6248 10.5035 66.5804C10.55 66.5315 10.6143 66.5049 10.6808 66.5049H15.1095C15.176 66.5049 15.2402 66.5338 15.2868 66.5804C15.3333 66.627 15.3576 66.6915 15.3554 66.7581C15.32 68.104 14.2388 69.159 12.8962 69.159H12.894ZM10.9488 66.998C11.0973 67.9508 11.9059 68.6637 12.8918 68.6637C13.8777 68.6637 14.6886 67.9508 14.837 66.998H10.9488Z" fill="#004B93"/>
<path d="M16.2042 63.5415H9.5843C9.44694 63.5415 9.33838 63.4305 9.33838 63.295V62.1911C9.33838 62.0534 9.44915 61.9424 9.5843 61.9424H16.2042C16.3393 61.9424 16.4523 62.0534 16.4523 62.1911V63.295C16.4523 63.4305 16.3393 63.5415 16.2042 63.5415ZM9.83022 63.0462H15.9538V62.4377H9.83022V63.0462Z" fill="#004B93"/>
<path d="M13.9044 66.9956H11.7598C11.6912 66.9956 11.6269 66.9667 11.5782 66.9201C11.5339 66.8712 11.5073 66.8046 11.5117 66.7357L11.6823 63.282C11.6889 63.151 11.7975 63.0488 11.9282 63.0488H13.7228C13.8535 63.0488 13.962 63.151 13.9687 63.282L14.1415 66.6958C14.1437 66.7135 14.1481 66.7313 14.1481 66.7491C14.1481 66.8868 14.0374 66.9978 13.9022 66.9978L13.9044 66.9956ZM12.0191 66.5003H13.6408L13.4924 63.5419H12.1675L12.0191 66.5003Z" fill="#004B93"/>
<path d="M13.6739 62.4378H11.9857C11.9192 62.4378 11.8528 62.4112 11.8062 62.3623C11.7597 62.3134 11.7353 62.249 11.7376 62.1802L12.4199 48.4808H7.16922L9.96073 54.8219C9.97624 54.8552 9.98289 54.8907 9.98289 54.9285C9.9275 56.8941 8.35007 58.4311 6.3938 58.4311C4.43752 58.4311 2.85788 56.8919 2.80249 54.9285C2.80249 54.893 2.80914 54.8552 2.82465 54.8219L6.1656 47.2126C6.20548 47.1216 6.29189 47.0638 6.39158 47.0638H12.4953L12.5817 45.327C12.5883 45.1959 12.6969 45.0938 12.8298 45.0938C12.9605 45.0938 13.0691 45.1959 13.0757 45.327L13.1643 47.0638H19.3566C19.4541 47.0638 19.5405 47.1216 19.5826 47.2126L22.9236 54.8219C22.9391 54.8552 22.9435 54.8907 22.9435 54.9285C22.8881 56.8941 21.3107 58.4311 19.3522 58.4311C17.3937 58.4311 15.8163 56.8919 15.7631 54.9285C15.7631 54.893 15.7697 54.8552 15.783 54.8219L18.5746 48.4808H13.2374L13.9242 62.138C13.9265 62.1535 13.9287 62.1713 13.9287 62.189C13.9287 62.3245 13.8179 62.4356 13.6828 62.4356L13.6739 62.4378ZM12.2449 61.9425H13.4125L12.8254 50.2865L12.2449 61.9425ZM16.2505 54.9707C16.3258 56.6387 17.6751 57.938 19.3433 57.938C21.0116 57.938 22.3653 56.6387 22.4406 54.9707L19.1882 47.5613H12.9228C12.8874 47.5613 12.8542 47.5524 12.8231 47.5413C12.7921 47.5524 12.7589 47.5613 12.7257 47.5613H6.54667L3.29433 54.9707C3.36966 56.6387 4.71889 57.938 6.39158 57.938C8.06428 57.938 9.41129 56.6387 9.48662 54.9707L6.56439 48.332C6.53116 48.2565 6.54002 48.1677 6.58433 48.0966C6.62864 48.0277 6.70618 47.9833 6.79037 47.9833H12.6769C12.7301 47.9833 12.7811 47.9989 12.8209 48.03C12.863 47.9989 12.9118 47.9833 12.9649 47.9833H18.9401C19.0243 47.9833 19.1018 48.0255 19.1484 48.0966C19.1927 48.1677 19.2015 48.2543 19.1683 48.332L16.2483 54.9707H16.2505Z" fill="#004B93"/>
<path d="M8.85298 55.0927H3.93238C3.8482 55.0927 3.77065 55.0483 3.72413 54.9794C3.67982 54.9106 3.67096 54.8217 3.70419 54.7462L6.16338 49.067C6.20326 48.976 6.29188 48.916 6.39158 48.916C6.49127 48.916 6.57768 48.976 6.61977 49.067L9.06346 54.7129C9.08783 54.7507 9.10333 54.7995 9.10333 54.8462C9.10333 54.9839 8.99256 55.0949 8.8552 55.0949L8.85298 55.0927ZM4.30902 54.5974H8.47413L6.39158 49.7867L4.30902 54.5974Z" fill="#004B93"/>
<path d="M21.8092 55.0927H16.8864C16.8022 55.0927 16.7247 55.0483 16.6804 54.9794C16.6338 54.9106 16.6272 54.8217 16.6604 54.7462L19.1196 49.067C19.1573 48.976 19.2481 48.916 19.3456 48.916C19.4431 48.916 19.5339 48.976 19.5716 49.067L22.0175 54.7129C22.0418 54.7507 22.0573 54.7995 22.0573 54.8462C22.0573 54.9839 21.9466 55.0949 21.8114 55.0949L21.8092 55.0927ZM17.2608 54.5974H21.4259L19.3434 49.7867L17.2608 54.5974Z" fill="#004B93"/>
<path d="M38.6116 57.9619C38.5961 57.9619 38.5806 57.9619 38.5629 57.9575C38.4787 57.9397 38.41 57.8797 38.3812 57.7976C38.1508 57.1512 37.7365 56.4338 37.5039 56.4338C37.4795 56.4361 37.4308 56.4449 37.3599 56.4583C37.063 56.5116 36.4493 56.6204 35.7337 56.6204C33.4983 56.6204 32.1623 55.5721 31.8765 53.5887C31.3094 49.6641 32.8979 48.3648 33.1039 48.216C33.567 47.7874 34.1208 47.5586 34.7079 47.5586C35.7426 47.5586 36.7041 48.2893 36.8968 49.2266C37.1339 50.3615 36.5202 51.7563 36.199 51.8963C36.1325 51.9251 36.0594 51.9407 35.9818 51.9407C35.5853 51.9407 35.14 51.532 34.8807 51.2544C34.7722 51.3965 34.6193 51.6631 34.524 52.0206C34.4044 52.4604 34.3468 53.1201 34.7456 53.7686C34.9583 54.1151 35.3194 54.2572 35.9885 54.2572C36.1879 54.2572 36.3917 54.2461 36.611 54.235C36.8282 54.2195 37.0541 54.2106 37.2757 54.2106C37.8473 54.2106 38.5629 54.2861 39.0326 54.8813C39.9498 56.0385 39.2785 57.3534 38.7955 57.8842C38.7468 57.9375 38.6803 57.9664 38.6116 57.9664V57.9619ZM37.5039 55.9363C38.0223 55.9363 38.441 56.6715 38.6759 57.2023C38.9439 56.7603 39.2541 55.9519 38.6449 55.1834C38.3768 54.8458 37.9669 54.6992 37.2757 54.6992C37.0674 54.6992 36.8503 54.7103 36.6354 54.7236C36.4227 54.737 36.2012 54.7481 35.9885 54.7481C35.4213 54.7481 34.719 54.6681 34.3247 54.0262C33.7575 53.1023 33.9458 52.1672 34.1075 51.6942C34.2515 51.2766 34.5351 50.7813 34.8209 50.6769C34.9184 50.6369 35.0314 50.668 35.1001 50.7502C35.4191 51.1389 35.8046 51.4432 35.9818 51.4454C36.148 51.2366 36.6022 50.2238 36.4161 49.3288C36.2676 48.6158 35.5188 48.0561 34.7079 48.0561C34.2449 48.0561 33.8018 48.2404 33.4296 48.5914C33.4207 48.6003 33.4097 48.6091 33.3986 48.6158C33.3941 48.6158 33.0042 48.8957 32.6808 49.6264C32.3795 50.3127 32.0804 51.5431 32.3662 53.5176C32.6165 55.2478 33.7486 56.1251 35.7337 56.1251C36.4028 56.1251 36.9921 56.0207 37.2713 55.9719C37.3577 55.9563 37.4197 55.9474 37.4529 55.943C37.4729 55.9386 37.4884 55.9386 37.5017 55.9386L37.5039 55.9363Z" fill="#004B93"/>
<path d="M37.5857 61.3092C36.8613 61.3092 36.334 61.1293 35.9795 60.7539C34.8895 59.6101 35.7668 57.9909 36.3849 57.2958C36.4337 57.238 36.5024 57.2069 36.5799 57.2114C36.653 57.2158 36.7217 57.2513 36.766 57.3113C36.7815 57.3291 37.1072 57.7666 37.5304 58.4263C37.5791 58.4996 37.5813 58.5951 37.5414 58.675C37.5148 58.7261 37.506 58.755 37.5038 58.7705C37.5304 58.7861 37.6145 58.8216 37.8317 58.8216C38.1086 58.8216 38.4985 58.7616 38.9372 58.6506C40.1048 58.3552 41.0087 58.5484 41.4496 59.1903C41.8705 59.8011 41.7221 60.4785 41.0131 61.2114C40.9489 61.2781 40.8492 61.3025 40.7605 61.2759C40.6719 61.247 40.6077 61.1692 40.5922 61.076C40.5811 61.0138 40.477 60.9805 40.282 60.9805C40.0117 60.9805 39.6329 61.0449 39.2296 61.1159C38.7156 61.207 38.1285 61.3092 37.5835 61.3092H37.5857ZM36.5622 57.871C36.2011 58.3818 35.5298 59.5657 36.334 60.4096C36.5932 60.6806 37.0031 60.8117 37.5857 60.8117C38.0887 60.8117 38.6536 60.7139 39.1477 60.6273C39.5708 60.5518 39.9718 60.4852 40.2842 60.4852C40.5589 60.4852 40.7428 60.5451 40.8647 60.634C41.3321 60.0476 41.1992 59.6945 41.0441 59.4702C40.8314 59.1614 40.4614 59.0082 39.9408 59.0082C39.6772 59.0082 39.3803 59.0482 39.059 59.1281C38.7245 59.2147 38.2393 59.3169 37.8339 59.3169C37.4284 59.3169 37.198 59.2214 37.0784 59.0237C37.023 58.9327 36.9787 58.7861 37.0452 58.584C36.8524 58.2886 36.6818 58.042 36.56 57.871H36.5622Z" fill="#004B93"/>
<path d="M37.8338 59.3174C37.8072 59.3174 37.7806 59.3174 37.754 59.3174C37.6787 59.3152 37.6056 59.2774 37.5613 59.2152L35.6382 56.5167C35.5851 56.4411 35.5762 56.3434 35.6161 56.2612C35.6582 56.1791 35.7424 56.128 35.8332 56.128C36.4624 56.1169 37.0096 56.0191 37.2733 55.9747C37.3575 55.9592 37.4195 55.9503 37.4549 55.9458C37.4616 55.9458 37.4793 55.9414 37.4882 55.9414H37.5081C37.5879 55.9458 37.6698 55.9881 37.7142 56.0547L39.4378 58.7044C39.4821 58.7732 39.4888 58.8598 39.4578 58.9354C39.4267 59.0109 39.3603 59.0664 39.2783 59.0842C39.2052 59.0997 39.1321 59.113 39.0545 59.133C38.7222 59.2197 38.237 59.3218 37.8316 59.3218L37.8338 59.3174ZM36.3051 56.5966L37.8892 58.8199C38.1373 58.8132 38.4652 58.7643 38.8308 58.6755L37.3863 56.4545C37.3863 56.4545 37.3708 56.4589 37.3597 56.4589C37.1514 56.4967 36.7681 56.5633 36.3051 56.5966Z" fill="#004B93"/>
<path d="M42.7411 69.1542C42.73 69.1542 42.7079 69.1542 42.6968 69.152C42.38 69.1075 42.2781 68.7788 42.1917 68.4879C42.1341 68.2968 42.0698 68.0814 41.959 67.957C41.8859 67.8749 41.8017 67.7971 41.7131 67.7149C41.4317 67.4595 41.1149 67.1686 41.0839 66.62C41.0817 66.5489 41.0773 66.4823 41.0728 66.4156C41.044 65.7982 41.0285 65.4917 40.5478 65.0564C40.3462 64.8742 40.1113 64.8009 39.841 64.7165C39.3691 64.57 38.833 64.4034 38.3877 63.646C37.6477 62.3845 39.0434 61.0807 39.1033 61.0252C39.1542 60.9808 39.2229 60.9563 39.2871 60.963C39.3558 60.963 39.4179 60.9985 39.46 61.0496C40.2376 62.0113 40.4436 62.4378 40.4946 62.6377C40.5345 62.6332 40.5766 62.6288 40.6187 62.6243C40.7826 62.6043 40.9842 62.5799 41.1925 62.5799C41.4871 62.5799 41.7286 62.631 41.9324 62.7287C42.7943 63.1618 42.761 63.9347 42.6613 64.4811C42.5218 65.2474 42.7677 65.4828 43.0269 65.7293C43.2196 65.9137 43.4368 66.1202 43.4478 66.4911C43.4633 67.0664 43.3548 68.6655 42.9959 69.0342C42.9028 69.132 42.8031 69.1497 42.7367 69.1497L42.7411 69.1542ZM39.2539 61.5893C38.9504 61.9425 38.4142 62.7132 38.8152 63.3973C39.1631 63.9903 39.5641 64.1146 39.9872 64.2457C40.2863 64.339 40.5965 64.4367 40.8779 64.6877C41.5137 65.2607 41.5359 65.7604 41.5669 66.3934C41.5691 66.4578 41.5735 66.5245 41.578 66.5933C41.5957 66.9376 41.7929 67.1175 42.0432 67.3485C42.1385 67.4351 42.236 67.5261 42.3268 67.6283C42.5107 67.8349 42.5927 68.1058 42.6636 68.3435C42.6791 68.399 42.7012 68.4656 42.7234 68.5256C42.8497 68.1369 42.9759 67.2085 42.956 66.5089C42.9493 66.3468 42.8674 66.2602 42.6901 66.0914C42.3955 65.8115 41.99 65.4251 42.1784 64.3945C42.2958 63.7437 42.1673 63.4017 41.7131 63.1729C41.5824 63.1085 41.4118 63.0752 41.1947 63.0752C41.0152 63.0752 40.838 63.0952 40.6807 63.1152C40.5588 63.1307 40.4525 63.144 40.3639 63.144C40.3085 63.144 40.1357 63.1441 40.0382 63.0041C40.005 62.9553 39.9562 62.8531 40.005 62.711C39.9407 62.5266 39.604 62.0358 39.2539 61.5827V61.5893Z" fill="#004B93"/>
<path d="M41.957 63.2771C41.9104 63.2771 41.8661 63.266 41.8262 63.2415C41.7908 63.2171 41.7553 63.1971 41.7132 63.1749C41.5825 63.1105 41.4097 63.0772 41.1948 63.0772C41.0154 63.0772 40.8381 63.0972 40.683 63.1172C40.621 63.1238 40.5656 63.1327 40.5169 63.1371C40.4283 63.146 40.3419 63.106 40.2909 63.035L39.7902 62.3353C39.6373 62.1021 39.4579 61.8556 39.3316 61.689L38.8663 61.036C38.8154 60.9672 38.8065 60.8783 38.8375 60.7984C38.8708 60.7184 38.9395 60.6651 39.0236 60.6496L39.1389 60.6296C39.6772 60.5363 40.1801 60.4541 40.5058 60.5008C40.5767 60.5097 40.6387 60.5496 40.6786 60.6096L42.1453 62.8662C42.1851 62.9106 42.2073 62.9661 42.2073 63.0305C42.2073 63.1682 42.0987 63.2771 41.9614 63.2771H41.9592H41.957ZM39.4955 61.0694L39.7282 61.3936C39.8545 61.5602 40.0428 61.8156 40.1979 62.0555L40.6077 62.6263C40.6077 62.6263 40.6188 62.6263 40.621 62.6241C40.785 62.6041 40.9866 62.5797 41.1948 62.5797C41.2569 62.5797 41.3167 62.5797 41.3743 62.5863L40.3308 60.9783C40.1203 60.9716 39.8212 61.0138 39.4978 61.0694H39.4955Z" fill="#004B93"/>
<path d="M46.5075 70.9443C46.4588 70.9443 46.4123 70.9287 46.3702 70.9021L45.4995 70.3068C45.4751 70.2913 45.4552 70.2713 45.4397 70.2469L43.0048 66.8376C42.9738 66.7954 42.9583 66.7421 42.9583 66.691C42.9583 66.6288 42.9583 66.5666 42.9583 66.5089C42.9517 66.3467 42.8697 66.2601 42.6924 66.0913C42.3978 65.8115 41.9923 65.425 42.1807 64.3944C42.2205 64.1679 42.2316 63.9813 42.2117 63.8236C42.1962 63.7081 42.2626 63.5993 42.369 63.5593C42.4775 63.5194 42.5994 63.5593 42.6614 63.6548L46.4787 69.5295C46.4942 69.5539 46.5075 69.5828 46.5142 69.6094L46.749 70.6378C46.7712 70.7377 46.7335 70.8421 46.6471 70.8999C46.605 70.9265 46.5563 70.9421 46.5075 70.9421V70.9443ZM45.8141 69.9248L46.1242 70.138L46.04 69.7671L42.6526 64.5521C42.5396 65.2651 42.7788 65.4916 43.0314 65.7315C43.2242 65.9159 43.4413 66.1224 43.4524 66.4933C43.4524 66.5311 43.4524 66.5711 43.4524 66.611L45.8141 69.9226V69.9248Z" fill="#004B93"/>
<path d="M44.5069 84.4704C44.4448 84.4238 44.3606 84.4082 44.2875 84.4349C43.902 84.557 43.4257 84.6703 43.0336 84.7547V85.2589C43.3526 85.1922 43.7469 85.1056 44.1147 85.0035C44.1103 86.7181 44.0726 92.0974 44.0638 93.4234C43.4213 93.3101 41.8328 93.0569 40.262 93.0569C39.1542 93.0569 38.2703 93.1835 37.6278 93.4412C37.599 93.5011 37.548 93.5522 37.4793 93.5766C37.4572 93.5833 37.4328 93.5833 37.4062 93.5833C37.3265 93.5833 37.2533 93.5456 37.2046 93.4811C37.2002 93.4723 37.1935 93.4634 37.1847 93.4567C36.7017 93.299 35.7158 93.0414 34.4064 93.0414C33.2234 93.0414 32.0514 93.2502 30.9148 93.6633C30.9015 91.591 30.7908 87.2089 30.762 86.014C30.9237 86.0429 31.1452 86.0807 31.4067 86.1184L31.4 85.6165C30.8949 85.5409 30.5626 85.4743 30.5537 85.4721C30.4806 85.4565 30.4053 85.4765 30.3477 85.5254C30.2901 85.5743 30.2568 85.6453 30.2568 85.7209C30.2613 85.7808 30.423 91.8798 30.423 94.0231C30.423 94.1053 30.4651 94.183 30.5316 94.2274C30.5714 94.2563 30.6224 94.2696 30.6689 94.2696C30.6999 94.2696 30.7309 94.2652 30.7597 94.2541C31.9428 93.7788 33.1702 93.5367 34.4064 93.5367C36.15 93.5367 37.311 94.0253 37.322 94.0297C37.3907 94.0608 37.4705 94.0564 37.5347 94.0209C38.1174 93.7099 39.0346 93.55 40.2598 93.55C42.2005 93.55 44.2366 93.9587 44.2565 93.9631C44.3296 93.9787 44.4049 93.9587 44.4625 93.912C44.5179 93.8654 44.5512 93.7965 44.5512 93.721C44.5512 93.6455 44.6066 86.0029 44.6066 84.6681C44.6066 84.5903 44.5689 84.5148 44.5046 84.4704H44.5069Z" fill="#004B93"/>
<path d="M25.2345 76.5968C23.7169 76.5968 22.3123 75.835 21.4792 74.5579L21.3906 74.4247L21.4792 74.2892C22.3123 73.0121 23.7169 72.248 25.2345 72.248C26.7521 72.248 28.1589 73.0121 28.9898 74.2892L29.0784 74.4247L28.9898 74.5579C28.1589 75.835 26.7543 76.5968 25.2345 76.5968ZM21.9844 74.4224C22.7332 75.4774 23.9362 76.0993 25.2323 76.0993C26.5283 76.0993 27.7336 75.4774 28.4824 74.4224C27.7314 73.3674 26.5306 72.7411 25.2323 72.7411C23.934 72.7411 22.7332 73.3674 21.9844 74.4224Z" fill="#004B93"/>
<path d="M26.1096 74.3959C26.1096 74.8823 25.7175 75.2732 25.2345 75.2732C24.7515 75.2732 24.3594 74.88 24.3594 74.3959C24.3594 73.9117 24.7515 73.5186 25.2345 73.5186C25.7175 73.5186 26.1096 73.9117 26.1096 74.3959Z" fill="#004B93"/>
<path d="M5.6229 96.4241L5.25513 96.2442L6.82369 91.9932L7.97132 92.5484L5.62511 96.4241H5.6229ZM7.05189 92.564L6.38503 94.3741L7.38421 92.7239L7.0541 92.564H7.05189Z" fill="#004B93"/>
<path d="M9.90992 96.4241L7.56372 92.5484L8.71134 91.9932L10.2799 96.2442L9.90992 96.4241ZM8.15083 92.7239L9.15001 94.3741L8.48093 92.564L8.15083 92.7239Z" fill="#004B93"/>
<path d="M7.77419 92.8395C7.11841 92.8395 6.58447 92.3042 6.58447 91.6468C6.58447 90.9894 7.11841 90.4541 7.77419 90.4541C8.42997 90.4541 8.96391 90.9894 8.96391 91.6468C8.96391 92.3042 8.42997 92.8395 7.77419 92.8395ZM7.77419 90.9494C7.39091 90.9494 7.07853 91.2603 7.07853 91.6468C7.07853 92.0333 7.39091 92.3442 7.77419 92.3442C8.15747 92.3442 8.46985 92.031 8.46985 91.6468C8.46985 91.2626 8.15747 90.9494 7.77419 90.9494Z" fill="#004B93"/>
<path d="M250.795 91.7354H249.493V107.998H250.795V91.7354Z" fill="#004B93"/>
<path d="M250.795 75.4727H249.493V91.7351H250.795V75.4727Z" fill="#E63329"/>
<path d="M250.795 59.208H249.493V75.4704H250.795V59.208Z" fill="#007E47"/>
<path d="M250.795 42.9482H249.493V59.2107H250.795V42.9482Z" fill="#FFCE44"/>
<path d="M274.164 74.4397C273.987 74.4397 273.85 74.4908 273.752 74.5929C273.657 74.6951 273.591 74.8172 273.555 74.9616C273.52 75.106 273.502 75.2614 273.502 75.428V82.1666C273.502 83.617 273.105 84.7231 272.31 85.4893C271.515 86.2556 270.4 86.6398 268.967 86.6398C267.534 86.6398 266.404 86.2511 265.617 85.4715C264.828 84.692 264.434 83.5792 264.434 82.1289V75.3192C264.434 75.0549 264.403 74.8417 264.343 74.6818C264.283 74.5196 264.1 74.4397 263.787 74.4397H263.519V74.2598H266.851V74.4397C266.661 74.4397 266.508 74.4463 266.395 74.4574C266.282 74.4708 266.191 74.5063 266.124 74.5663C266.06 74.6262 266.014 74.7173 265.992 74.835C265.967 74.9549 265.956 75.1171 265.956 75.3214V82.1666C265.956 83.2683 266.209 84.1389 266.718 84.7808C267.226 85.4227 268.054 85.7425 269.2 85.7425C270.25 85.7425 271.067 85.4427 271.645 84.8452C272.226 84.2455 272.514 83.426 272.514 82.3843V75.2703C272.514 75.0904 272.487 74.9394 272.434 74.8195C272.379 74.7017 272.288 74.6085 272.155 74.5418C272.024 74.4752 271.832 74.4419 271.581 74.4419V74.262H274.43V74.4419H274.16L274.164 74.4397Z" fill="#004B93"/>
<path d="M286.996 74.5199C286.866 74.5732 286.773 74.6554 286.717 74.762C286.664 74.8708 286.635 75.0085 286.629 75.1751C286.622 75.3439 286.62 75.5416 286.62 75.7681V86.5113H285.705L278.518 76.199V84.9477C278.518 85.1764 278.52 85.3696 278.527 85.5318C278.531 85.6939 278.562 85.8294 278.615 85.936C278.671 86.0448 278.761 86.1226 278.894 86.1714C279.025 86.2181 279.211 86.2425 279.45 86.2425V86.4224H276.566V86.2425C276.816 86.2425 277.007 86.2181 277.14 86.1714C277.27 86.1226 277.366 86.0471 277.426 85.9471C277.485 85.8449 277.519 85.7139 277.525 85.5518C277.53 85.3896 277.534 85.1897 277.534 84.9499V75.1951C277.461 75.0396 277.401 74.9108 277.355 74.8086C277.306 74.7065 277.253 74.6287 277.193 74.5754C277.133 74.5221 277.058 74.4844 276.969 74.4666C276.878 74.4488 276.745 74.4399 276.566 74.4399V74.26H278.932C280.031 75.9236 281.15 77.5605 282.284 79.1641C283.418 80.7699 284.537 82.4046 285.636 84.0681V75.7681C285.636 75.5282 285.632 75.3261 285.627 75.1573C285.621 74.9908 285.592 74.8531 285.536 74.7442C285.483 74.6354 285.388 74.5577 285.251 74.511C285.113 74.4622 284.918 74.4377 284.668 74.4377V74.2578H287.57V74.4377C287.32 74.4377 287.127 74.4644 286.996 74.5199Z" fill="#004B93"/>
<path d="M289.775 86.4246V86.2447C289.978 86.2447 290.142 86.2381 290.269 86.227C290.395 86.2159 290.492 86.1803 290.566 86.127C290.636 86.0737 290.683 85.9871 290.707 85.8672C290.732 85.7472 290.743 85.5784 290.743 85.363V75.3195C290.743 75.104 290.732 74.9352 290.707 74.8153C290.683 74.6976 290.636 74.6087 290.566 74.5554C290.492 74.5021 290.395 74.4688 290.269 74.4555C290.145 74.4444 289.978 74.4377 289.775 74.4377V74.2578H293.251V74.4377C293.049 74.4377 292.885 74.4444 292.759 74.4555C292.633 74.4688 292.535 74.5021 292.464 74.5554C292.391 74.6087 292.345 74.6976 292.32 74.8153C292.296 74.9352 292.283 75.104 292.283 75.3195V85.363C292.283 85.5784 292.296 85.7472 292.32 85.8672C292.342 85.9871 292.391 86.0737 292.464 86.127C292.535 86.1803 292.635 86.2136 292.759 86.227C292.885 86.2381 293.049 86.2447 293.251 86.2447V86.4246H289.775Z" fill="#004B93"/>
<path d="M306.039 74.6549C305.926 74.7971 305.826 74.9725 305.742 75.1747L301.351 86.5464H300.615L295.991 75.2102C295.896 74.9836 295.779 74.8015 295.641 74.6616C295.504 74.5239 295.311 74.4506 295.059 74.4373V74.2574H298.231V74.4373C298.112 74.4373 297.999 74.4417 297.89 74.4462C297.784 74.4528 297.693 74.4773 297.622 74.5172C297.549 74.5594 297.504 74.6216 297.487 74.706C297.469 74.7904 297.489 74.9037 297.549 75.0458L301.204 84.2809L304.574 75.4412C304.707 75.1058 304.736 74.8593 304.665 74.7038C304.592 74.5483 304.366 74.4573 303.983 74.4328V74.2529H306.564V74.4328C306.324 74.4328 306.147 74.5061 306.034 74.6483L306.039 74.6549Z" fill="#004B93"/>
<path d="M315.151 86.4246H306.98V86.2447C307.35 86.2447 307.583 86.1936 307.678 86.0915C307.773 85.9893 307.822 85.7472 307.822 85.363V75.3195C307.822 74.9352 307.773 74.6931 307.678 74.591C307.583 74.4888 307.35 74.4377 306.98 74.4377V74.2578H314.972L314.989 76.1079H314.739C314.679 75.6526 314.539 75.375 314.318 75.2728C314.096 75.1707 313.777 75.1196 313.359 75.1196H309.739C309.535 75.1196 309.419 75.1396 309.388 75.1818C309.36 75.224 309.344 75.3417 309.344 75.5327V79.646H312.982C313.173 79.646 313.341 79.6372 313.485 79.6194C313.629 79.6016 313.744 79.5639 313.833 79.5039C313.924 79.4439 313.992 79.3551 314.041 79.2329C314.088 79.1152 314.123 78.9531 314.147 78.7487H314.38V81.4606H314.147C314.123 81.2452 314.088 81.0764 314.041 80.9565C313.992 80.8365 313.924 80.7455 313.833 80.6788C313.744 80.6144 313.629 80.57 313.494 80.5522C313.356 80.5345 313.186 80.5256 312.982 80.5256H309.344V85.2142C309.344 85.323 309.377 85.403 309.444 85.4585C309.508 85.5118 309.586 85.5451 309.676 85.5562C309.767 85.5673 309.86 85.5718 309.962 85.5651C310.064 85.5607 310.151 85.5562 310.224 85.5562H313.181C313.469 85.5562 313.718 85.5407 313.926 85.5118C314.134 85.4829 314.322 85.4185 314.491 85.323C314.657 85.2275 314.808 85.0987 314.938 84.9365C315.069 84.7744 315.195 84.5567 315.315 84.2813H315.603L315.155 86.4202L315.151 86.4246Z" fill="#004B93"/>
<path d="M324.74 86.4244C324.454 85.7892 324.166 85.2161 323.88 84.7075C323.592 84.1967 323.282 83.7214 322.947 83.2794C322.613 82.8374 322.247 82.411 321.853 82.0045C321.459 81.5981 321.011 81.1716 320.508 80.7296L319.219 80.7474V85.3649C319.219 85.5693 319.23 85.7314 319.254 85.8513C319.278 85.9713 319.321 86.0601 319.38 86.1201C319.44 86.1801 319.529 86.2156 319.651 86.2289C319.768 86.24 319.925 86.2467 320.116 86.2467V86.4266H316.855V86.2467C317.034 86.2467 317.18 86.2378 317.293 86.22C317.409 86.2023 317.493 86.1623 317.555 86.1023C317.615 86.0424 317.652 85.9557 317.67 85.8425C317.688 85.7292 317.697 85.5693 317.697 85.3649V75.3214C317.697 75.1304 317.688 74.9749 317.67 74.855C317.652 74.7351 317.612 74.644 317.555 74.584C317.493 74.5241 317.409 74.4841 317.293 74.4663C317.18 74.4486 317.034 74.4397 316.855 74.4397V74.2598H321.137C321.665 74.2598 322.17 74.3153 322.653 74.4308C323.138 74.5463 323.563 74.7284 323.933 74.9794C324.303 75.2304 324.6 75.5613 324.822 75.9677C325.043 76.3764 325.152 76.8784 325.152 77.478C325.152 77.9334 325.068 78.3309 324.901 78.673C324.733 79.015 324.507 79.3015 324.221 79.5347C323.935 79.7679 323.605 79.9567 323.235 80.1011C322.865 80.2454 322.475 80.3454 322.07 80.4054C322.418 80.6941 322.697 80.9384 322.914 81.1427C323.129 81.3471 323.317 81.5425 323.477 81.7269C323.639 81.9134 323.796 82.1045 323.953 82.3021C324.108 82.4998 324.294 82.7308 324.509 82.9951C324.749 83.2949 324.975 83.6325 325.189 84.0101C325.404 84.3877 325.606 84.7408 325.79 85.0695C325.974 85.3982 326.144 85.6781 326.299 85.9046C326.454 86.1312 326.605 86.2467 326.747 86.2467V86.4266H324.74V86.4244ZM319.219 79.8834H320.078C320.508 79.8834 320.929 79.8457 321.341 79.7679C321.753 79.6902 322.125 79.5525 322.462 79.3548C322.797 79.1571 323.065 78.8906 323.269 78.5552C323.47 78.2199 323.572 77.8001 323.572 77.2959C323.572 76.8539 323.488 76.4875 323.322 76.2009C323.153 75.9122 322.93 75.6879 322.648 75.5258C322.367 75.3636 322.048 75.2526 321.689 75.1926C321.33 75.1326 320.967 75.1038 320.597 75.1038H320.238C320.118 75.1038 319.992 75.1104 319.861 75.1215C319.728 75.1349 319.606 75.1637 319.493 75.2104C319.378 75.2592 319.287 75.3259 319.214 75.408V79.8812L319.219 79.8834Z" fill="#004B93"/>
<path d="M328.916 86.1801C328.856 86.2357 328.825 86.309 328.825 86.4045H328.61L328.521 83.7814L328.557 83.7281H328.719C328.934 84.2434 329.224 84.6565 329.587 84.9674C329.953 85.2806 330.336 85.5049 330.744 85.6426C331.151 85.7803 331.561 85.8381 331.98 85.8137C332.399 85.7892 332.777 85.6871 333.116 85.5072C333.458 85.3273 333.732 85.0785 333.941 84.7609C334.151 84.4433 334.255 84.0679 334.255 83.637C334.255 83.124 334.113 82.6909 333.834 82.3444C333.555 81.9979 333.205 81.6825 332.786 81.4027C332.368 81.1206 331.911 80.8519 331.415 80.592C330.919 80.3366 330.462 80.0479 330.044 79.7303C329.625 79.4126 329.275 79.0417 328.996 78.6153C328.714 78.1911 328.575 77.6602 328.575 77.025C328.575 76.5586 328.674 76.1411 328.872 75.7768C329.069 75.4126 329.328 75.0972 329.651 74.8329C329.973 74.5708 330.34 74.3709 330.752 74.231C331.165 74.0933 331.586 74.0244 332.018 74.0244C332.268 74.0244 332.516 74.0466 332.762 74.0888C333.008 74.131 333.247 74.1865 333.486 74.2598C333.511 74.2709 333.577 74.2932 333.684 74.322C333.79 74.3509 333.907 74.3842 334.034 74.4198C334.158 74.4553 334.275 74.4886 334.384 74.5197C334.49 74.5486 334.55 74.5641 334.561 74.5641C334.765 74.5397 334.878 74.4264 334.902 74.2221H335.099C335.148 74.6663 335.192 75.1216 335.234 75.588C335.277 76.0567 335.285 76.512 335.261 76.954H335.064C334.909 76.5009 334.676 76.1211 334.366 75.8235C334.054 75.5236 333.71 75.2948 333.334 75.1394C332.957 74.9839 332.565 74.9062 332.159 74.9062C331.754 74.9062 331.404 74.9772 331.076 75.1216C330.748 75.266 330.478 75.4814 330.27 75.7679C330.061 76.0567 329.955 76.4098 329.955 76.8296C329.955 77.1516 330.041 77.4381 330.216 77.6825C330.389 77.929 330.595 78.1533 330.834 78.3576C331.145 78.6086 331.473 78.8418 331.82 79.0573C332.166 79.2727 332.518 79.4771 332.879 79.6681L332.753 79.6148C333.147 79.8191 333.526 80.0412 333.892 80.2811C334.255 80.5209 334.581 80.7897 334.867 81.0895C335.155 81.3894 335.381 81.727 335.549 82.1045C335.717 82.4821 335.802 82.9174 335.802 83.4083C335.802 83.9236 335.686 84.3811 335.46 84.7831C335.232 85.1851 334.938 85.5227 334.574 85.7981C334.211 86.0735 333.801 86.2823 333.347 86.4267C332.893 86.5688 332.432 86.6421 331.967 86.6421C331.464 86.6421 330.987 86.5821 330.533 86.4622C330.079 86.3423 329.612 86.2179 329.135 86.0846C329.051 86.0957 328.98 86.129 328.92 86.1824L328.916 86.1801Z" fill="#004B93"/>
<path d="M337.481 86.4246V86.2447C337.685 86.2447 337.849 86.2381 337.975 86.227C338.099 86.2159 338.199 86.1803 338.272 86.127C338.343 86.0737 338.392 85.9871 338.416 85.8672C338.44 85.7472 338.451 85.5784 338.451 85.363V75.3195C338.451 75.104 338.44 74.9352 338.416 74.8153C338.392 74.6976 338.345 74.6087 338.272 74.5554C338.199 74.5021 338.101 74.4688 337.975 74.4555C337.851 74.4444 337.685 74.4377 337.481 74.4377V74.2578H340.957V74.4377C340.753 74.4377 340.591 74.4444 340.465 74.4555C340.341 74.4688 340.241 74.5021 340.171 74.5554C340.097 74.6087 340.051 74.6976 340.027 74.8153C340.002 74.9352 339.991 75.104 339.991 75.3195V85.363C339.991 85.5784 340.002 85.7472 340.027 85.8672C340.051 85.9871 340.097 86.0737 340.171 86.127C340.241 86.1803 340.341 86.2136 340.465 86.227C340.591 86.2381 340.755 86.2447 340.957 86.2447V86.4246H337.481Z" fill="#004B93"/>
<path d="M343.197 86.2447C343.376 86.2447 343.525 86.2381 343.644 86.227C343.762 86.2159 343.853 86.1781 343.912 86.1181C343.972 86.0582 344.014 85.9693 344.039 85.8494C344.063 85.7295 344.074 85.5673 344.074 85.363V75.3195C344.074 75.1151 344.063 74.953 344.039 74.8331C344.014 74.7153 343.972 74.6243 343.912 74.5643C343.853 74.5043 343.762 74.4688 343.644 74.4555C343.525 74.4444 343.376 74.4377 343.197 74.4377V74.2578H347.355C348.348 74.2578 349.252 74.38 350.071 74.6243C350.889 74.8708 351.591 75.2439 352.176 75.7481C352.761 76.2523 353.215 76.8853 353.539 77.6516C353.862 78.4178 354.024 79.3218 354.024 80.3634C354.024 81.2385 353.887 82.0559 353.612 82.8155C353.335 83.5773 352.859 84.2502 352.178 84.8366C351.485 85.4341 350.71 85.8494 349.85 86.0759C348.99 86.3047 348.111 86.418 347.216 86.418H343.201V86.2381L343.197 86.2447ZM345.598 85.1298C345.598 85.2364 345.64 85.323 345.725 85.3808C345.807 85.4407 345.909 85.4874 346.028 85.5162C346.148 85.5473 346.267 85.5651 346.387 85.5695C346.507 85.5762 346.595 85.5784 346.657 85.5784C347.528 85.5784 348.323 85.4807 349.041 85.283C349.759 85.0854 350.368 84.7744 350.869 84.348C351.37 83.9238 351.757 83.3774 352.032 82.7133C352.307 82.0492 352.446 81.2496 352.446 80.3146C352.446 79.4284 352.314 78.6577 352.052 78.0047C351.788 77.3517 351.416 76.8098 350.933 76.3789C350.448 75.948 349.863 75.6282 349.176 75.4194C348.49 75.2084 347.721 75.104 346.872 75.104C346.657 75.104 346.436 75.1218 346.21 75.1573C345.982 75.1929 345.78 75.2839 345.601 75.4261V85.1276L345.598 85.1298Z" fill="#004B93"/>
<path d="M362.839 86.424V86.2441C363.114 86.2441 363.316 86.193 363.449 86.0909C363.579 85.9887 363.579 85.7888 363.449 85.489L362.336 82.7571H356.942L355.938 85.2735C355.807 85.5845 355.768 85.8243 355.821 85.9931C355.874 86.1597 356.093 86.2441 356.476 86.2441V86.424H353.966V86.2441C354.11 86.233 354.232 86.1908 354.334 86.1175C354.434 86.0464 354.525 85.962 354.602 85.8665C354.68 85.771 354.746 85.6622 354.799 85.5423C354.853 85.4223 354.903 85.3024 354.952 85.1825L359.54 74.1328H360.526L365.294 85.6489C365.425 85.9731 365.682 86.1708 366.065 86.2419V86.4218H362.839V86.424ZM359.667 76.0207L357.301 81.8776H362.031L359.665 76.0207H359.667Z" fill="#004B93"/>
<path d="M367.177 86.2447C367.357 86.2447 367.505 86.2381 367.625 86.227C367.744 86.2159 367.833 86.1781 367.895 86.1181C367.955 86.0582 367.995 85.9693 368.019 85.8494C368.044 85.7295 368.057 85.5673 368.057 85.363V75.3195C368.057 75.1151 368.044 74.953 368.019 74.8331C367.995 74.7153 367.955 74.6243 367.895 74.5643C367.835 74.5043 367.744 74.4688 367.625 74.4555C367.505 74.4444 367.357 74.4377 367.177 74.4377V74.2578H371.334C372.326 74.2578 373.23 74.38 374.05 74.6243C374.867 74.8708 375.57 75.2439 376.154 75.7481C376.739 76.2523 377.193 76.8853 377.517 77.6516C377.84 78.4178 378 79.3218 378 80.3634C378 81.2385 377.863 82.0559 377.588 82.8155C377.313 83.5773 376.835 84.2502 376.154 84.8366C375.461 85.4341 374.686 85.8494 373.826 86.0759C372.964 86.3047 372.087 86.418 371.192 86.418H367.177V86.2381V86.2447ZM369.577 85.1298C369.577 85.2364 369.619 85.323 369.703 85.3808C369.787 85.4407 369.889 85.4874 370.009 85.5162C370.128 85.5473 370.248 85.5651 370.368 85.5695C370.487 85.5762 370.576 85.5784 370.636 85.5784C371.506 85.5784 372.302 85.4807 373.019 85.283C373.735 85.0854 374.344 84.7744 374.847 84.348C375.35 83.9238 375.738 83.3774 376.013 82.7133C376.287 82.0492 376.425 81.2496 376.425 80.3146C376.425 79.4284 376.294 78.6577 376.03 78.0047C375.767 77.3517 375.394 76.8098 374.909 76.3789C374.426 75.948 373.839 75.6282 373.152 75.4194C372.466 75.2084 371.697 75.104 370.848 75.104C370.633 75.104 370.412 75.1218 370.186 75.1573C369.958 75.1929 369.754 75.2839 369.577 75.4261V85.1276V85.1298Z" fill="#004B93"/>
<path d="M263.171 107.605C263.351 107.605 263.499 107.598 263.619 107.587C263.738 107.576 263.827 107.538 263.887 107.478C263.947 107.418 263.989 107.329 264.013 107.209C264.035 107.089 264.048 106.927 264.048 106.725V96.6815C264.048 96.4772 264.035 96.3173 264.013 96.1951C263.989 96.0752 263.947 95.9863 263.887 95.9264C263.827 95.8664 263.736 95.8309 263.619 95.8197C263.499 95.8064 263.348 95.802 263.171 95.802V95.6221H267.33C268.322 95.6221 269.226 95.7442 270.046 95.9908C270.863 96.2351 271.566 96.6104 272.151 97.1124C272.735 97.6166 273.19 98.2496 273.513 99.0158C273.837 99.7821 273.996 100.686 273.996 101.728C273.996 102.603 273.859 103.42 273.584 104.18C273.307 104.942 272.831 105.615 272.151 106.201C271.457 106.798 270.679 107.214 269.82 107.44C268.96 107.669 268.081 107.782 267.186 107.782H263.171V107.602V107.605ZM265.573 106.49C265.573 106.598 265.615 106.681 265.699 106.741C265.781 106.801 265.883 106.847 266.003 106.876C266.122 106.907 266.242 106.925 266.361 106.929C266.481 106.936 266.57 106.938 266.632 106.938C267.502 106.938 268.298 106.838 269.016 106.643C269.733 106.445 270.343 106.134 270.843 105.708C271.346 105.284 271.734 104.737 272.009 104.073C272.283 103.407 272.421 102.609 272.421 101.674C272.421 100.788 272.288 100.02 272.026 99.3667C271.765 98.7138 271.391 98.1718 270.908 97.7409C270.422 97.3101 269.838 96.9902 269.151 96.7815C268.464 96.5705 267.695 96.4661 266.847 96.4661C266.632 96.4661 266.41 96.4838 266.182 96.5194C265.954 96.5549 265.752 96.646 265.573 96.7903V106.492V106.49Z" fill="#004B93"/>
<path d="M283.673 107.782H275.5V107.602C275.87 107.602 276.103 107.551 276.2 107.449C276.296 107.346 276.344 107.104 276.344 106.722V96.6788C276.344 96.2968 276.296 96.0525 276.2 95.9503C276.103 95.8504 275.87 95.7971 275.5 95.7971V95.6172H283.494L283.511 97.4673H283.261C283.201 97.012 283.059 96.7344 282.84 96.6322C282.619 96.53 282.3 96.4789 281.881 96.4789H278.261C278.057 96.4789 277.939 96.5012 277.911 96.5411C277.88 96.5833 277.866 96.701 277.866 96.8921V101.008H281.504C281.697 101.008 281.863 100.999 282.007 100.981C282.151 100.963 282.266 100.925 282.357 100.865C282.446 100.806 282.514 100.717 282.563 100.597C282.61 100.477 282.647 100.315 282.672 100.11H282.904V102.822H282.672C282.647 102.607 282.612 102.438 282.563 102.318C282.514 102.2 282.446 102.107 282.357 102.04C282.266 101.976 282.153 101.934 282.016 101.914C281.879 101.896 281.708 101.887 281.504 101.887H277.866V106.576C277.866 106.685 277.9 106.765 277.964 106.818C278.028 106.871 278.108 106.904 278.196 106.916C278.287 106.927 278.383 106.929 278.485 106.924C278.586 106.92 278.673 106.916 278.744 106.916H281.701C281.987 106.916 282.235 106.9 282.444 106.871C282.654 106.842 282.84 106.78 283.009 106.682C283.177 106.587 283.325 106.458 283.456 106.296C283.587 106.136 283.713 105.916 283.833 105.641H284.118L283.671 107.78L283.673 107.782Z" fill="#004B93"/>
<path d="M298.663 107.667C297.976 107.889 297.256 108 296.503 108C295.546 108 294.695 107.847 293.949 107.542C293.202 107.236 292.566 106.807 292.041 106.256C291.514 105.706 291.115 105.044 290.84 104.271C290.566 103.498 290.428 102.645 290.428 101.71C290.428 100.775 290.572 99.9754 290.858 99.2047C291.146 98.4318 291.554 97.761 292.085 97.1924C292.617 96.6238 293.255 96.1796 294.002 95.862C294.748 95.5444 295.581 95.3867 296.501 95.3867C297.135 95.3867 297.766 95.4578 298.4 95.6022C298.473 95.6244 298.566 95.6532 298.679 95.6821C298.792 95.711 298.909 95.7443 299.029 95.7798C299.148 95.8154 299.261 95.8465 299.37 95.8709C299.476 95.8953 299.567 95.9064 299.638 95.9064C299.864 95.9064 300.008 95.7976 300.068 95.5822H300.265V96.2485C300.265 96.4884 300.263 96.7349 300.256 96.9859C300.249 97.2368 300.238 97.4834 300.221 97.721C300.203 97.9609 300.17 98.1719 300.121 98.3518C299.702 97.6677 299.237 97.1502 298.723 96.7971C298.209 96.4439 297.54 96.2662 296.716 96.2662C295.892 96.2662 295.223 96.4128 294.638 96.706C294.053 96.9992 293.57 97.3923 293.195 97.8832C292.819 98.374 292.54 98.9493 292.353 99.6067C292.167 100.266 292.077 100.959 292.077 101.69C292.077 102.421 292.172 103.151 292.362 103.811C292.553 104.471 292.843 105.042 293.233 105.526C293.621 106.012 294.11 106.394 294.702 106.676C295.293 106.958 295.996 107.098 296.807 107.098C297.095 107.098 297.405 107.094 297.739 107.08C298.074 107.069 298.406 107.036 298.734 106.983C299.062 106.927 299.377 106.845 299.676 106.73C299.975 106.616 300.243 106.459 300.482 106.254L300.553 106.561C299.979 107.076 299.35 107.445 298.663 107.665V107.667Z" fill="#004B93"/>
<path d="M309.12 107.782V107.602C309.311 107.602 309.468 107.593 309.588 107.575C309.707 107.557 309.796 107.517 309.856 107.457C309.916 107.397 309.958 107.311 309.982 107.197C310.007 107.084 310.018 106.924 310.018 106.722V102.013H304.158V106.722C304.158 106.924 304.166 107.084 304.184 107.197C304.202 107.311 304.24 107.397 304.299 107.457C304.359 107.517 304.446 107.555 304.561 107.575C304.674 107.593 304.827 107.602 305.017 107.602V107.782H301.738V107.602C301.929 107.602 302.084 107.593 302.204 107.575C302.323 107.557 302.412 107.517 302.474 107.457C302.531 107.397 302.574 107.311 302.598 107.197C302.622 107.084 302.633 106.924 302.633 106.722V96.6786C302.633 96.4742 302.622 96.3165 302.598 96.2033C302.574 96.0878 302.531 96.0012 302.474 95.9412C302.414 95.8834 302.323 95.8435 302.204 95.8257C302.084 95.8079 301.929 95.799 301.738 95.799V95.6191H305.017V95.799C304.827 95.799 304.674 95.8079 304.561 95.8257C304.448 95.8435 304.359 95.8834 304.299 95.9412C304.24 96.0012 304.202 96.0922 304.184 96.2122C304.166 96.3321 304.158 96.4876 304.158 96.6786V101.098H310.018V96.6786C310.018 96.4742 310.007 96.3165 309.982 96.2033C309.958 96.0878 309.916 96.0012 309.856 95.9412C309.796 95.8834 309.707 95.8435 309.588 95.8257C309.468 95.8079 309.313 95.799 309.12 95.799V95.6191H312.419V95.799C312.229 95.799 312.076 95.8079 311.961 95.8257C311.848 95.8435 311.759 95.8834 311.692 95.9412C311.626 96.0012 311.586 96.0922 311.568 96.2122C311.548 96.3321 311.542 96.4876 311.542 96.6786V106.722C311.542 106.924 311.551 107.084 311.568 107.197C311.586 107.311 311.628 107.397 311.692 107.457C311.759 107.517 311.848 107.555 311.961 107.575C312.074 107.593 312.226 107.602 312.419 107.602V107.782H309.12Z" fill="#004B93"/>
<path d="M314.659 107.782V107.602C314.861 107.602 315.027 107.595 315.153 107.584C315.277 107.573 315.377 107.539 315.448 107.486C315.519 107.433 315.568 107.346 315.592 107.224C315.614 107.106 315.627 106.938 315.627 106.722V96.6786C315.627 96.4631 315.614 96.2966 315.592 96.1744C315.568 96.0567 315.521 95.9678 315.448 95.9145C315.375 95.8612 315.277 95.8279 315.153 95.8168C315.027 95.8035 314.863 95.799 314.659 95.799V95.6191H318.135V95.799C317.931 95.799 317.768 95.8057 317.641 95.8168C317.515 95.8279 317.417 95.8612 317.347 95.9145C317.273 95.9701 317.227 96.0567 317.203 96.1744C317.178 96.2943 317.167 96.4631 317.167 96.6786V106.722C317.167 106.938 317.178 107.104 317.203 107.224C317.227 107.344 317.273 107.431 317.347 107.486C317.417 107.542 317.517 107.573 317.641 107.584C317.768 107.595 317.931 107.602 318.135 107.602V107.782H314.659Z" fill="#004B93"/>
<path d="M328.459 107.782H320.375V107.602C320.568 107.602 320.718 107.593 320.831 107.575C320.944 107.557 321.031 107.517 321.091 107.457C321.15 107.397 321.188 107.311 321.208 107.197C321.226 107.084 321.235 106.924 321.235 106.722V96.6786C321.235 96.4876 321.226 96.3321 321.208 96.2122C321.19 96.0922 321.15 96.0012 321.091 95.9412C321.031 95.8834 320.944 95.8435 320.831 95.8257C320.718 95.8079 320.566 95.799 320.375 95.799V95.6191H323.674V95.799C323.483 95.799 323.326 95.8079 323.206 95.8257C323.087 95.8435 322.994 95.8834 322.929 95.9412C322.863 96.0012 322.819 96.0878 322.794 96.2033C322.77 96.3165 322.759 96.4742 322.759 96.6786V106.578C322.759 106.687 322.792 106.767 322.856 106.82C322.923 106.873 323 106.906 323.089 106.918C323.18 106.929 323.275 106.931 323.377 106.926C323.479 106.922 323.565 106.918 323.636 106.918H326.253C326.576 106.918 326.862 106.906 327.112 106.882C327.363 106.858 327.584 106.802 327.775 106.711C327.965 106.62 328.136 106.482 328.287 106.298C328.435 106.114 328.581 105.865 328.725 105.552L328.958 105.607L328.457 107.782H328.459Z" fill="#004B93"/>
<path d="M338.01 107.782H329.837V107.602C330.207 107.602 330.442 107.551 330.537 107.449C330.633 107.346 330.681 107.104 330.681 106.722V96.6788C330.681 96.2968 330.633 96.0525 330.537 95.9503C330.442 95.8504 330.207 95.7971 329.837 95.7971V95.6172H337.831L337.849 97.4673H337.598C337.538 97.012 337.397 96.7344 337.177 96.6322C336.956 96.53 336.637 96.4789 336.218 96.4789H332.598C332.394 96.4789 332.279 96.5012 332.25 96.5411C332.219 96.5833 332.206 96.701 332.206 96.8921V101.008H335.844C336.034 101.008 336.203 100.999 336.347 100.981C336.491 100.963 336.606 100.925 336.697 100.865C336.787 100.806 336.854 100.717 336.903 100.597C336.949 100.477 336.987 100.315 337.011 100.11H337.244V102.822H337.011C336.987 102.607 336.951 102.438 336.903 102.318C336.854 102.2 336.787 102.107 336.697 102.04C336.606 101.976 336.493 101.934 336.355 101.914C336.218 101.896 336.047 101.887 335.846 101.887H332.208V106.576C332.208 106.685 332.239 106.765 332.305 106.818C332.372 106.871 332.449 106.904 332.538 106.916C332.629 106.927 332.722 106.929 332.824 106.924C332.926 106.92 333.012 106.916 333.083 106.916H336.041C336.327 106.916 336.575 106.9 336.785 106.871C336.993 106.842 337.182 106.78 337.348 106.682C337.516 106.587 337.665 106.458 337.795 106.296C337.926 106.136 338.052 105.916 338.172 105.641H338.458L338.01 107.78V107.782Z" fill="#004B93"/>
</g>
<defs>
<clipPath id="clip0_1605_190">
<rect width="378" height="108" fill="white"/>
</clipPath>
</defs>
</svg>
