<?xml version="1.0" encoding="utf-8"?>
<!-- Generator: Adobe Illustrator 28.0.0, SVG Export Plug-In . SVG Version: 6.00 Build 0)  -->
<svg version="1.1" id="Layer_1" xmlns="http://www.w3.org/2000/svg" xmlns:xlink="http://www.w3.org/1999/xlink" x="0px" y="0px"
	 viewBox="0 0 1080 1080" style="enable-background:new 0 0 1080 1080;" xml:space="preserve">
<style type="text/css">
	.st0{fill:#FFFFFF;}
	.st1{fill:#00539B;}
	.st2{fill:#EF4035;}
	.st3{fill:#008852;}
	.st4{fill:#FFCC4E;}
</style>
<g>
	<g>
		<path class="st0" d="M399.64,466.22c22.93,0,41.16,19.45,41.16,42.8c0,23.96-18.22,43.21-41.16,43.21
			c-23.14,0-41.16-19.25-41.16-43.21C358.48,485.67,376.5,466.22,399.64,466.22z M399.64,543.82c18.02,0,32.15-15.36,32.15-34.81
			c0-18.84-14.13-34.2-32.15-34.2c-18.22,0-32.35,15.36-32.35,34.2C367.29,528.47,381.42,543.82,399.64,543.82z"/>
		<path class="st0" d="M474.59,608.94c0,1.43-1.23,2.66-2.66,2.66h-3.48c-1.43,0-2.66-1.23-2.66-2.66V470.93
			c0-1.64,1.43-2.66,2.87-2.66h2.25c1.43,0,2.25,0.61,2.46,2.05l0.61,5.73c2.46-2.05,11.88-9.83,26.82-9.83
			c22.73,0,39.52,19.04,39.52,43c0,24.16-17.2,43-41.36,43c-13.52,0-22.12-6.35-24.37-8.4V608.94z M497.93,543.62
			c19.86,0,33.38-15.15,33.38-34.61c0-19.04-12.49-34.4-31.12-34.4c-15.97,0-24.78,10.44-25.39,11.47V534
			C475.2,534.81,484,543.62,497.93,543.62z"/>
		<path class="st0" d="M599.91,466.22c21.5,0,37.06,15.77,37.06,37.47c0,3.28,0,7.99-3.07,7.99h-65.32
			c0.82,17.61,13.51,32.35,31.94,32.35c10.85,0,19.25-4.3,24.16-7.58c1.84-1.23,2.66-1.43,3.69,0l2.05,2.87
			c0.61,0.82,0.41,2.05-0.82,3.28c-4.1,4.1-17,9.62-29.69,9.62c-24.98,0-40.34-19.25-40.34-43.21
			C559.57,485.67,574.93,466.22,599.91,466.22z M627.96,504.3c0-15.97-9.62-29.9-28.05-29.9c-18.02,0-30.1,13.11-31.12,29.9H627.96z
			"/>
		<path class="st0" d="M661.13,470.93c0-1.43,1.23-2.66,2.87-2.66h2.05c1.43,0,2.25,0.82,2.46,2.05l0.82,8.81
			c2.66-2.87,13.92-12.9,30.31-12.9c22.93,0,32.97,14.54,32.97,37.47v43.82c0,1.43-1.23,2.66-2.66,2.66h-3.68
			c-1.43,0-2.66-1.23-2.66-2.66v-43.82c0-18.84-8.81-28.67-24.37-28.67c-16.79,0-28.46,13.11-29.28,14.13v58.36
			c0,1.64-0.82,2.66-2.66,2.66h-3.89c-1.43,0-2.25-1.23-2.25-2.66V470.93z"/>
		<path class="st0" d="M367.64,591.12c0-1.43,1.23-2.66,2.66-2.66h4.3c1.43,0,2.66,1.23,2.66,2.66v87.44
			c0,26.41,16.59,45.87,43.82,45.87c27.44,0,44.23-19.25,44.23-45.66l0.47-87.59c0-1.64,0.35-2.72,2.4-2.72h4.1
			c1.43,0,2.31,1.22,2.31,2.65l0.36,88.47c0,31.33-21.3,54.26-53.85,54.26c-32.35,0-53.44-22.93-53.44-54.26V591.12z"/>
		<path class="st0" d="M580.6,586.41c20.89,0,36.45,6.96,49.76,19.04c1.02,1.02,1.23,2.66,0.21,3.68l-3.28,3.48
			c-1.23,1.23-2.25,1.02-3.48-0.2c-11.67-10.44-26.41-16.79-43.21-16.79c-35.83,0-63.89,29.28-63.89,64.71
			c0,35.22,28.05,64.3,63.89,64.3c17.61,0,30.92-6.96,43.21-17.2c1.23-1.02,2.46-1.02,3.28-0.41l3.48,3.48
			c1.02,0.82,1.02,2.46,0,3.48c-13.92,13.52-31.74,19.86-49.96,19.86c-40.95,0-74.13-32.35-74.13-73.51
			C506.48,619.37,539.65,586.41,580.6,586.41z"/>
		<path class="st0" d="M663.74,591.12c0-1.43,1.23-2.66,2.66-2.66h4.3c1.64,0,2.66,1.23,2.66,2.66v62.86h91.94v-62.86
			c0-1.43,1.23-2.66,2.66-2.66h4.3c1.64,0,2.66,1.23,2.66,2.66v138.01c0,1.43-1.02,2.66-2.66,2.66h-4.3c-1.43,0-2.66-1.23-2.66-2.66
			v-66.55h-91.94v66.55c0,1.43-1.02,2.66-2.66,2.66h-4.3c-1.43,0-2.66-1.23-2.66-2.66V591.12z"/>
		<path class="st0" d="M818.34,591.12c0-1.43,1.23-2.66,2.66-2.66h4.5c1.43,0,2.66,1.23,2.66,2.66v138.01
			c0,1.64-1.43,2.66-2.87,2.66H821c-1.43,0-2.66-1.23-2.66-2.66V591.12z"/>
		<path class="st0" d="M871.58,591.12c0-1.43,1.23-2.66,2.66-2.66h4.5c1.23,0,2.46,1.23,2.46,2.66v132.07h65.32
			c2.46,0,2.66,1.23,2.66,2.66v3.68c0,1.43-1.23,2.25-2.66,2.25h-72.28c-1.43,0-2.66-1.23-2.66-2.66V591.12z"/>
		<path class="st0" d="M971.72,591.12c0-1.43,1.23-2.66,2.66-2.66h82.11c1.43,0,2.66,1.23,2.66,2.66v3.48
			c0,1.43-1.23,2.66-2.66,2.66h-74.94v56.52h64.91c1.43,0,2.66,1.23,2.66,2.66v3.48c0,1.43-1.23,2.66-2.66,2.66h-64.91v60.61h74.94
			c1.43,0,2.66,1.23,2.66,2.66v3.28c0,1.43-1.23,2.66-2.66,2.66h-82.11c-1.43,0-2.66-1.23-2.66-2.66V591.12z"/>
	</g>
	<g>
		<g>
			<g>
				<path class="st0" d="M129.27,401.67l11.55-43.92l-35.16-28.73l45.33-2.58l16.47-42.31l16.47,42.31l45.34,2.58l-35.16,28.73
					l11.55,43.92l-38.2-24.56L129.27,401.67z M167.46,373.71l33.55,21.56l-10.15-38.56l30.87-25.24l-39.81-2.25l-14.47-37.17
					L153,329.21l-39.81,2.25l30.88,25.24l-10.15,38.56L167.46,373.71z"/>
			</g>
		</g>
		<g>
			<g>
				<g>
					<polygon class="st0" points="157.3,314.22 140.11,261.34 138.21,261.94 156.14,317.17 					"/>
				</g>
				<g>
					<path class="st0" d="M156.14,318.61c0,0-0.02,0-0.03,0c-0.61-0.02-1.15-0.41-1.34-1l-17.93-55.22
						c-0.24-0.75,0.16-1.57,0.92-1.8l1.91-0.63c0.36-0.12,0.76-0.08,1.09,0.09c0.34,0.17,0.6,0.47,0.71,0.84l17.19,52.88
						c0.1,0.31,0.1,0.65-0.03,0.96l-1.15,2.96C157.27,318.25,156.74,318.61,156.14,318.61z"/>
				</g>
			</g>
			<g>
				<g>
					<polygon class="st0" points="75.86,349.77 133.33,349.77 130.87,347.76 75.86,347.76 					"/>
				</g>
				<g>
					<path class="st0" d="M133.33,351.21H75.86c-0.8,0-1.43-0.64-1.43-1.44v-2.01c0-0.79,0.63-1.43,1.43-1.43h55.01
						c0.33,0,0.65,0.12,0.9,0.33l2.46,2c0.48,0.38,0.65,1.03,0.45,1.6C134.47,350.83,133.94,351.21,133.33,351.21z"/>
				</g>
			</g>
			<g>
				<g>
					<polygon class="st0" points="152.01,327.82 152.52,326.49 97.56,250.83 95.94,252.02 151.04,327.87 					"/>
				</g>
				<g>
					<path class="st0" d="M151.04,329.31c-0.46,0-0.89-0.22-1.16-0.59l-55.11-75.85c-0.23-0.3-0.31-0.69-0.26-1.07
						c0.06-0.37,0.26-0.72,0.58-0.94l1.62-1.18c0.64-0.47,1.55-0.34,2.01,0.32l54.96,75.64c0.29,0.4,0.36,0.91,0.18,1.37l-0.52,1.33
						c-0.2,0.53-0.69,0.89-1.26,0.92l-0.95,0.06C151.09,329.31,151.07,329.31,151.04,329.31z"/>
				</g>
			</g>
			<g>
				<g>
					<polygon class="st0" points="167.46,288.08 168.48,290.66 168.48,228.46 166.47,228.46 166.47,290.66 					"/>
				</g>
				<g>
					<path class="st0" d="M168.48,292.1c-0.38,0-0.75-0.16-1.02-0.41c-0.32,0.32-0.8,0.48-1.27,0.38c-0.68-0.13-1.17-0.72-1.17-1.41
						v-62.2c0-0.8,0.64-1.44,1.44-1.44h2.02c0.79,0,1.42,0.64,1.42,1.44v62.2c0,0.69-0.49,1.28-1.16,1.41
						C168.64,292.09,168.56,292.1,168.48,292.1z"/>
				</g>
			</g>
			<g>
				<g>
					<polygon class="st0" points="196.92,328.62 242.17,295.74 240.99,294.11 193.75,328.43 					"/>
				</g>
				<g>
					<path class="st0" d="M196.92,330.06c-0.03,0-0.05-0.01-0.08-0.01l-3.18-0.19c-0.61-0.03-1.12-0.44-1.29-1.02
						c-0.17-0.58,0.04-1.22,0.54-1.57l47.24-34.34c0.3-0.21,0.69-0.31,1.07-0.25c0.38,0.06,0.71,0.27,0.94,0.57l1.18,1.63
						c0.47,0.64,0.32,1.55-0.32,2.01l-45.25,32.89C197.51,329.95,197.22,330.06,196.92,330.06z"/>
				</g>
			</g>
			<g>
				<g>
					<polygon class="st0" points="225.51,330.24 224.04,331.45 282.2,312.54 281.58,310.63 221.87,330.04 					"/>
				</g>
				<g>
					<path class="st0" d="M224.04,332.88c-0.51,0-1.01-0.28-1.27-0.74c-0.1-0.19-0.16-0.41-0.16-0.62l-0.83-0.04
						c-0.69-0.03-1.25-0.57-1.34-1.25c-0.09-0.68,0.33-1.34,0.98-1.55l59.72-19.4c0.36-0.12,0.76-0.09,1.09,0.08
						c0.34,0.17,0.59,0.48,0.71,0.83l0.62,1.91c0.25,0.75-0.16,1.56-0.92,1.81l-58.16,18.9
						C224.33,332.85,224.19,332.88,224.04,332.88z"/>
				</g>
			</g>
			<g>
				<g>
					<polygon class="st0" points="141.19,328.43 93.95,294.11 92.77,295.74 138.02,328.62 					"/>
				</g>
				<g>
					<path class="st0" d="M138.02,330.06c-0.3,0-0.6-0.11-0.84-0.28l-45.27-32.89c-0.64-0.46-0.78-1.36-0.31-2.01l1.18-1.63
						c0.23-0.3,0.56-0.51,0.94-0.57c0.37-0.06,0.76,0.04,1.07,0.25l47.25,34.34c0.48,0.35,0.7,0.99,0.53,1.57
						c-0.17,0.58-0.69,0.99-1.3,1.02l-3.17,0.19C138.08,330.05,138.05,330.06,138.02,330.06z"/>
				</g>
			</g>
			<g>
				<g>
					<polygon class="st0" points="178.79,317.17 196.73,261.94 194.82,261.34 177.64,314.22 					"/>
				</g>
				<g>
					<path class="st0" d="M178.79,318.61c-0.6,0-1.12-0.36-1.34-0.91l-1.15-2.96c-0.12-0.31-0.13-0.65-0.03-0.96l17.19-52.88
						c0.24-0.76,1.05-1.17,1.8-0.92l1.91,0.62c0.36,0.12,0.67,0.37,0.83,0.71c0.17,0.34,0.21,0.74,0.09,1.09l-17.93,55.23
						c-0.19,0.59-0.72,0.98-1.33,1C178.82,318.61,178.8,318.61,178.79,318.61z"/>
				</g>
			</g>
			<g>
				<g>
					<polygon class="st0" points="182.93,327.82 183.89,327.87 239,252.02 237.37,250.83 182.41,326.49 					"/>
				</g>
				<g>
					<path class="st0" d="M183.89,329.31c-0.03,0-0.05,0-0.08,0l-0.96-0.06c-0.56-0.03-1.05-0.38-1.25-0.92l-0.51-1.33
						c-0.18-0.45-0.11-0.97,0.17-1.37L236.21,250c0.47-0.65,1.37-0.79,2.01-0.32l1.63,1.18c0.3,0.22,0.51,0.56,0.57,0.94
						c0.06,0.38-0.05,0.76-0.25,1.07l-55.11,75.85C184.78,329.09,184.35,329.31,183.89,329.31z"/>
				</g>
			</g>
			<g>
				<g>
					<polygon class="st0" points="259.08,347.76 204.08,347.76 201.62,349.77 259.08,349.77 					"/>
				</g>
				<g>
					<path class="st0" d="M201.62,351.21c-0.62,0-1.15-0.38-1.35-0.96c-0.21-0.57-0.03-1.22,0.44-1.6l2.46-2
						c0.25-0.21,0.57-0.33,0.91-0.33h55.01c0.37,0,0.74,0.15,1.01,0.42c0.28,0.27,0.43,0.63,0.43,1.01v2.01
						c0,0.8-0.64,1.44-1.43,1.44H201.62z"/>
				</g>
			</g>
			<g>
				<g>
					<polygon class="st0" points="109.43,330.24 113.08,330.04 53.35,310.63 52.74,312.54 110.9,331.45 					"/>
				</g>
				<g>
					<path class="st0" d="M110.9,332.88c-0.15,0-0.29-0.03-0.44-0.06l-58.16-18.91c-0.76-0.24-1.17-1.06-0.93-1.81l0.62-1.91
						c0.11-0.35,0.37-0.66,0.71-0.83c0.34-0.17,0.74-0.2,1.1-0.08l59.71,19.4c0.66,0.21,1.08,0.86,0.98,1.55
						c-0.08,0.69-0.65,1.22-1.34,1.25l-0.82,0.04c-0.01,0.21-0.07,0.43-0.17,0.62C111.9,332.6,111.42,332.88,110.9,332.88z"/>
				</g>
			</g>
			<g>
				<g>
					<polygon class="st0" points="177.07,381.59 194.82,436.2 196.73,435.59 179.76,383.3 					"/>
				</g>
				<g>
					<path class="st0" d="M194.82,437.64c-0.23,0-0.45-0.05-0.66-0.15c-0.33-0.19-0.59-0.49-0.7-0.84l-17.75-54.63
						c-0.19-0.57,0.01-1.19,0.49-1.58c0.49-0.36,1.15-0.39,1.66-0.07l2.67,1.72c0.29,0.17,0.5,0.44,0.6,0.76l16.98,52.29
						c0.25,0.76-0.16,1.55-0.92,1.8l-1.91,0.61C195.12,437.61,194.96,437.64,194.82,437.64z"/>
				</g>
			</g>
			<g>
				<g>
					<polygon class="st0" points="167.46,375.41 166.47,376.06 166.47,469.08 168.48,469.08 168.48,376.06 					"/>
				</g>
				<g>
					<path class="st0" d="M168.48,470.51h-2.02c-0.8,0-1.44-0.64-1.44-1.43v-93.02c0-0.5,0.25-0.95,0.66-1.22l1.01-0.64
						c0.48-0.3,1.09-0.3,1.56,0l1,0.64c0.42,0.26,0.66,0.72,0.66,1.22v93.02C169.9,469.87,169.27,470.51,168.48,470.51z"/>
				</g>
			</g>
			<g>
				<g>
					<polygon class="st0" points="196.06,370.77 240.99,403.43 242.17,401.8 195.24,367.7 					"/>
				</g>
				<g>
					<path class="st0" d="M240.99,404.86c-0.3,0-0.6-0.1-0.84-0.28l-44.94-32.64c-0.26-0.2-0.46-0.48-0.55-0.8l-0.8-3.06
						c-0.15-0.59,0.07-1.22,0.58-1.56c0.5-0.35,1.16-0.32,1.66,0.02l46.92,34.1c0.65,0.46,0.79,1.36,0.32,2l-1.18,1.62
						c-0.23,0.3-0.56,0.52-0.94,0.57C241.14,404.86,241.07,404.86,240.99,404.86z"/>
				</g>
			</g>
			<g>
				<g>
					<polygon class="st0" points="192.49,357.23 192.7,358.02 281.58,386.9 282.2,384.99 193.7,356.24 					"/>
				</g>
				<g>
					<path class="st0" d="M281.58,388.34c-0.15,0-0.29-0.03-0.43-0.08l-88.89-28.88c-0.47-0.15-0.81-0.53-0.94-1l-0.2-0.79
						c-0.15-0.54,0.03-1.12,0.47-1.47l1.22-1c0.37-0.32,0.89-0.41,1.35-0.25l88.5,28.75c0.76,0.24,1.17,1.05,0.92,1.8l-0.62,1.91
						c-0.12,0.37-0.37,0.67-0.71,0.83C282.03,388.28,281.8,388.34,281.58,388.34z"/>
				</g>
			</g>
			<g>
				<g>
					<polygon class="st0" points="203.34,398.47 201.46,397.25 237.37,446.69 239,445.52 202.5,395.27 					"/>
				</g>
				<g>
					<path class="st0" d="M237.37,448.13c-0.45,0-0.88-0.21-1.16-0.59l-35.91-49.43c-0.41-0.56-0.36-1.33,0.12-1.83
						c0.2-0.22,0.47-0.36,0.74-0.42l-0.06-0.22c-0.17-0.67,0.15-1.37,0.78-1.66c0.63-0.3,1.37-0.11,1.77,0.45l36.52,50.24
						c0.21,0.31,0.31,0.7,0.25,1.06c-0.06,0.39-0.27,0.73-0.57,0.94l-1.63,1.18C237.96,448.04,237.67,448.13,237.37,448.13z"/>
				</g>
			</g>
			<g>
				<g>
					<polygon class="st0" points="155.19,383.3 138.21,435.59 140.11,436.2 157.87,381.59 					"/>
				</g>
				<g>
					<path class="st0" d="M140.11,437.64c-0.15,0-0.29-0.03-0.44-0.07l-1.91-0.61c-0.37-0.12-0.66-0.38-0.83-0.71
						c-0.18-0.34-0.21-0.74-0.08-1.09l16.99-52.29c0.1-0.32,0.3-0.59,0.59-0.76l2.66-1.72c0.51-0.33,1.17-0.3,1.66,0.07
						c0.48,0.38,0.67,1.01,0.49,1.58l-17.75,54.63C141.29,437.25,140.72,437.64,140.11,437.64z"/>
				</g>
			</g>
			<g>
				<g>
					<polygon class="st0" points="139.69,367.7 92.77,401.8 93.95,403.43 138.89,370.77 					"/>
				</g>
				<g>
					<path class="st0" d="M93.95,404.86c-0.08,0-0.15,0-0.23-0.02c-0.38-0.05-0.71-0.27-0.94-0.57l-1.18-1.62
						c-0.47-0.65-0.33-1.54,0.31-2l46.94-34.1c0.49-0.35,1.14-0.36,1.65-0.03c0.49,0.34,0.73,0.96,0.57,1.56l-0.8,3.07
						c-0.1,0.31-0.29,0.6-0.55,0.79l-44.94,32.64C94.54,404.77,94.24,404.86,93.95,404.86z"/>
				</g>
			</g>
			<g>
				<g>
					<polygon class="st0" points="142.45,357.23 141.23,356.24 52.74,384.99 53.36,386.9 142.24,358.02 					"/>
				</g>
				<g>
					<path class="st0" d="M53.36,388.34c-0.23,0-0.45-0.06-0.66-0.17c-0.34-0.16-0.59-0.46-0.71-0.83l-0.62-1.91
						c-0.23-0.75,0.17-1.56,0.93-1.8l88.5-28.75c0.46-0.16,0.97-0.07,1.35,0.25l1.22,1c0.43,0.35,0.62,0.94,0.47,1.47l-0.21,0.79
						c-0.11,0.47-0.47,0.85-0.94,1L53.8,388.26C53.66,388.32,53.5,388.34,53.36,388.34z"/>
				</g>
			</g>
			<g>
				<g>
					<polygon class="st0" points="131.6,398.47 132.44,395.27 95.94,445.52 97.57,446.69 133.48,397.25 					"/>
				</g>
				<g>
					<path class="st0" d="M97.56,448.13c-0.29,0-0.59-0.08-0.83-0.28l-1.63-1.18c-0.3-0.21-0.51-0.56-0.58-0.94
						c-0.05-0.37,0.04-0.76,0.26-1.06l36.5-50.24c0.41-0.56,1.15-0.75,1.77-0.45c0.62,0.3,0.94,0.99,0.77,1.67l-0.06,0.21
						c0.29,0.06,0.54,0.2,0.75,0.42c0.48,0.5,0.53,1.27,0.12,1.83l-35.92,49.43C98.44,447.92,98.01,448.13,97.56,448.13z"/>
				</g>
			</g>
		</g>
		<g>
			<g>
				<g>
					<g>
						<rect x="166.9" y="288.33" class="st0" width="1.15" height="87.08"/>
					</g>
					<g>
						<path class="st0" d="M168.52,375.89h-2.11v-88.03h2.11V375.89z M167.37,374.93h0.19v-86.12h-0.19V374.93z"/>
					</g>
				</g>
			</g>
			<g>
				<g>
					<g>
						
							<rect x="150.39" y="300.22" transform="matrix(0.309 -0.951 0.951 0.309 -222.616 381.095)" class="st0" width="1.15" height="87.08"/>
					</g>
					<g>
						<path class="st0" d="M192.51,358.36l-83.73-27.21l0.65-2l83.72,27.2L192.51,358.36z M109.99,330.55l81.9,26.61l0.06-0.18
							l-81.91-26.61L109.99,330.55z"/>
					</g>
				</g>
			</g>
			<g>
				<g>
					<g>
						<polygon class="st0" points="142.6,357.76 142.26,356.66 225.06,329.75 225.42,330.85 						"/>
					</g>
					<g>
						<path class="st0" d="M142.29,358.36l-0.64-2.01l83.72-27.2l0.65,2L142.29,358.36z M142.86,356.97l0.06,0.18l81.9-26.61
							l-0.06-0.19L142.86,356.97z"/>
					</g>
				</g>
			</g>
			<g>
				<g>
					<g>
						
							<rect x="177.06" y="319.55" transform="matrix(0.809 -0.5877 0.5877 0.809 -179.4817 173.7346)" class="st0" width="1.15" height="87.07"/>
					</g>
					<g>
						<path class="st0" d="M202.65,399.31l-51.74-71.22l1.7-1.24l51.74,71.22L202.65,399.31z M152.25,328.31l50.61,69.68l0.17-0.12
							l-50.63-69.68L152.25,328.31z"/>
					</g>
				</g>
			</g>
			<g>
				<g>
					<g>
						<polygon class="st0" points="132.18,398.65 131.25,397.97 182.43,327.52 183.36,328.2 						"/>
					</g>
					<g>
						<path class="st0" d="M132.29,399.31l-1.7-1.24l51.74-71.22l1.7,1.24L132.29,399.31z M131.92,397.87l0.15,0.12l50.62-69.68
							l-0.15-0.12L131.92,397.87z"/>
					</g>
				</g>
			</g>
		</g>
		<g>
			<g>
				<path class="st0" d="M171.3,852.98h-7.66v-3.82c0-5.71-12.94-7-17.46-7H42.31c-13.64,0-21.47-7.83-21.47-21.47V466.2h146.62
					v7.66H28.5v346.82c0,9.29,4.51,13.81,13.81,13.81h103.87c7.79,0,16.45,1.74,21.29,6.16c4.84-4.42,13.5-6.16,21.29-6.16h103.86
					c9.29,0,13.82-4.52,13.82-13.81V473.87H167.47v-7.66H314.1v354.48c0,13.64-7.83,21.47-21.47,21.47H188.77
					c-4.53,0-17.46,1.28-17.46,7V852.98z"/>
			</g>
		</g>
		<g>
			<g>
				<g>
					<path class="st0" d="M207.12,524.44c-0.46,0-0.9-0.22-1.18-0.6l-11.21-15.67c-1.09,0.24-2.17,0.37-3.21,0.37
						c-3.11,0-5.61-1.14-7.03-3.22c-2.98-4.36-0.23-11.25,6.24-15.67c3.15-2.15,6.63-3.33,9.84-3.33c3.12,0,5.61,1.14,7.04,3.22
						c1.95,2.87,1.49,6.93-1.22,10.76l6.18,9.49c0.32,0.48,0.31,1.12-0.02,1.6c-1.44,2.08-3.31,5.81-4.01,11.78
						c-0.07,0.59-0.5,1.08-1.07,1.23C207.35,524.42,207.23,524.44,207.12,524.44z M195.33,505.11c0.45,0,0.89,0.21,1.17,0.6
						l9.76,13.65c0.86-3.98,2.2-6.85,3.39-8.78l-6.21-9.53c-0.33-0.52-0.3-1.2,0.08-1.67c2.39-3.02,3.07-6.24,1.72-8.21
						c-0.87-1.27-2.53-1.97-4.67-1.97c-2.59,0-5.58,1.03-8.21,2.83c-4.99,3.4-7.5,8.75-5.5,11.69c0.87,1.26,2.53,1.96,4.66,1.96
						c1.08,0,2.23-0.17,3.41-0.51C195.06,505.12,195.2,505.11,195.33,505.11z"/>
				</g>
			</g>
		</g>
		<g>
			<g>
				<g>
					<path class="st0" d="M229.97,544.34L229.97,544.34c-3.3,0-7.38-0.46-9.67-4.19c-4.07-6.62-1.44-13.38-0.54-15.3
						c0.23-0.48,0.68-0.79,1.2-0.83c0.55-0.03,1.02,0.22,1.3,0.65l11.32,17.38c0.29,0.44,0.31,0.99,0.08,1.44
						c-0.22,0.46-0.69,0.75-1.2,0.78C231.62,544.32,230.78,544.34,229.97,544.34z M221.43,528.66c-0.66,2.53-0.96,6.31,1.31,9.99
						c1.22,1.97,3.26,2.81,7.04,2.83L221.43,528.66z"/>
				</g>
			</g>
		</g>
		<g>
			<g>
				<g>
					<path class="st0" d="M230.57,514.81c0,1.07-0.86,1.92-1.91,1.92c-1.06,0-1.91-0.85-1.91-1.92c0-1.05,0.85-1.9,1.91-1.9
						C229.71,512.9,230.57,513.75,230.57,514.81z"/>
				</g>
			</g>
			<g>
				<g>
					<path class="st0" d="M228.66,517.68c-1.59,0-2.87-1.28-2.87-2.87c0-1.58,1.27-2.86,2.87-2.86c1.58,0,2.87,1.28,2.87,2.86
						C231.53,516.4,230.24,517.68,228.66,517.68z M228.66,513.86c-0.53,0-0.96,0.43-0.96,0.95c0,0.54,0.42,0.97,0.96,0.97
						c0.53,0,0.95-0.43,0.95-0.97C229.61,514.28,229.19,513.86,228.66,513.86z"/>
				</g>
			</g>
		</g>
		<g>
			<g>
				<g>
					<path class="st0" d="M127.32,645.84H24.79v4.79h101.37C126.46,649,126.84,647.4,127.32,645.84z"/>
				</g>
			</g>
			<g>
				<g>
					<path class="st0" d="M207.62,645.84c0.48,1.57,0.86,3.16,1.15,4.79h102.58v-4.79H207.62z"/>
				</g>
			</g>
		</g>
		<g>
			<g>
				<g>
					<path class="st0" d="M167.46,616.15c0.81,0,1.61,0.03,2.39,0.07V470.39h-4.78v145.83
						C165.87,616.18,166.67,616.15,167.46,616.15z"/>
				</g>
			</g>
			<g>
				<g>
					<path class="st0" d="M167.46,700.11c-0.8,0-1.6-0.03-2.39-0.07v144.8h4.78v-144.8C169.07,700.08,168.27,700.11,167.46,700.11z"
						/>
				</g>
			</g>
		</g>
		<g>
			<g>
				<g>
					<path class="st0" d="M198.16,677.19h-61.38l-1.25-2.16l30.69-53.16h2.48l30.7,53.16L198.16,677.19z M139.26,674.32h56.42
						l-28.21-48.86L139.26,674.32z"/>
				</g>
			</g>
		</g>
		<g>
			<g>
				<g>
					<path class="st0" d="M182.87,627.54c-0.22,0-0.43-0.04-0.63-0.15c-1.37-0.66-7.41-1.86-9.34-2.2
						c-1.08-0.18-3.68-0.84-4.67-2.72c-0.31-0.61-0.31-1.29-0.01-1.88c0.36-0.71,1.16-1.18,2.07-1.53c-0.74-0.75-1.4-1.45-1.6-1.76
						c-0.41-0.63-0.68-1.71-0.19-2.87c0.78-1.82,3.04-3.04,6.92-3.71c5.32-0.95,8.05,3.14,10.04,6.12c0.89,1.32,1.79,2.68,2.57,3.06
						c0.72,0.34,1.02,1.2,0.68,1.91c-0.34,0.71-1.2,1.01-1.91,0.67c-1.5-0.72-2.58-2.34-3.71-4.04c-2.23-3.34-3.94-5.49-7.15-4.91
						c-3.75,0.66-4.59,1.66-4.74,1.95c-0.11,0.16-0.08,0.26-0.07,0.29c0.2,0.24,1.75,1.82,3.05,3.08c0.39,0.39,0.53,0.97,0.35,1.49
						c-0.17,0.52-0.63,0.89-1.18,0.96c-0.64,0.08-1.36,0.24-1.88,0.41c0.49,0.27,1.2,0.51,1.96,0.65c0.08,0.01,7.99,1.43,10.08,2.44
						c0.71,0.34,1.02,1.21,0.67,1.92C183.91,627.24,183.4,627.54,182.87,627.54z"/>
				</g>
			</g>
			<g>
				<g>
					<path class="st0" d="M183.86,625.03l-0.99,1.07c-1.74-0.84-8.73-2.15-9.72-2.33c-1.02-0.18-2.99-0.74-3.65-1.98
						c-0.11-0.21-0.09-0.39,0-0.58c-0.67-0.04-1.35-0.06-2.04-0.06c-20.38,0-36.96,16.58-36.96,36.96
						c0,20.37,16.58,36.96,36.96,36.96c20.39,0,36.97-16.59,36.97-36.96C204.43,643.64,196.05,631.08,183.86,625.03z M167.46,692.23
						c-18.79,0-34.08-15.3-34.08-34.1c0-18.8,15.29-34.08,34.08-34.08c18.81,0,34.1,15.28,34.1,34.08
						C201.56,676.93,186.27,692.23,167.46,692.23z"/>
				</g>
			</g>
			<g>
				<g>
					<path class="st0" d="M184.69,618.29c0.89,1.31,1.73,2.43,2.72,2.9l-1.01,1.11c12.85,6.81,21.62,20.31,21.62,35.84
						c0,22.36-18.19,40.54-40.55,40.54c-22.35,0-40.54-18.19-40.54-40.54s18.19-40.55,40.54-40.55c1.2,0,2.39,0.07,3.55,0.17
						c-0.53-0.56-1-1.05-1.13-1.25c-0.16-0.24-0.4-0.92,0.05-1.71c-0.82-0.05-1.64-0.07-2.47-0.07c-23.94,0-43.42,19.47-43.42,43.42
						c0,23.94,19.48,43.42,43.42,43.42c23.95,0,43.42-19.48,43.42-43.42C210.88,640.31,200.08,624.97,184.69,618.29z"/>
				</g>
			</g>
		</g>
		<g>
			<g>
				<g>
					<path class="st0" d="M176.56,616.02c0,0.49-0.39,0.88-0.87,0.88c-0.49,0-0.88-0.39-0.88-0.88c0-0.48,0.39-0.88,0.88-0.88
						C176.17,615.14,176.56,615.54,176.56,616.02z"/>
				</g>
			</g>
			<g>
				<g>
					<path class="st0" d="M175.69,617.86c-1.02,0-1.84-0.83-1.84-1.84c0-1,0.82-1.83,1.84-1.83c1,0,1.83,0.83,1.83,1.83
						C177.52,617.03,176.69,617.86,175.69,617.86z"/>
				</g>
			</g>
		</g>
		<g>
			<g>
				<g>
					<path class="st0" d="M167.46,670.26c-6.59,0-11.95-5.35-11.95-11.95c0-6.59,5.36-11.96,11.95-11.96
						c6.6,0,11.96,5.37,11.96,11.96C179.43,664.91,174.06,670.26,167.46,670.26z M167.46,648.55c-5.37,0-9.75,4.37-9.75,9.76
						c0,5.37,4.38,9.74,9.75,9.74c5.38,0,9.76-4.38,9.76-9.74C177.22,652.93,172.85,648.55,167.46,648.55z"/>
				</g>
			</g>
		</g>
		<g>
			<g>
				<g>
					<path class="st0" d="M139.49,824.85h-11.34c-0.79,0-1.44-0.64-1.44-1.44v-23.87H49.65c-0.79,0-1.43-0.64-1.43-1.43v-12.37
						c0-0.8,0.64-1.44,1.43-1.44h89.85c0.8,0,1.43,0.64,1.43,1.44v12.37c0,0.07,0,0.13-0.01,0.19v25.11
						C140.92,824.21,140.28,824.85,139.49,824.85z M129.58,821.97h8.47v-23.86c0-0.07,0.01-0.13,0.02-0.19v-10.75H51.08v9.51h77.07
						c0.79,0,1.43,0.64,1.43,1.43V821.97z"/>
				</g>
			</g>
		</g>
		<g>
			<g>
				<g>
					<path class="st0" d="M113.69,786.13c-16.76,0-30.41-13.65-30.41-30.42c0-16.77,13.65-30.4,30.41-30.4
						c16.78,0,30.42,13.64,30.42,30.4C144.12,772.47,130.47,786.13,113.69,786.13z M113.69,728.17c-15.18,0-27.54,12.36-27.54,27.54
						c0,15.19,12.36,27.55,27.54,27.55c15.19,0,27.55-12.36,27.55-27.55C141.24,740.52,128.88,728.17,113.69,728.17z"/>
				</g>
			</g>
		</g>
		<g>
			<g>
				<g>
					<g>
						<line class="st0" x1="61.02" y1="688.53" x2="111.73" y2="720.94"/>
					</g>
				</g>
				<g>
					<g>
						<polygon class="st0" points="111.36,721.55 60.64,689.14 61.42,687.92 112.12,720.34 						"/>
					</g>
				</g>
			</g>
			<g>
				<g>
					<g>
						<line class="st0" x1="60.66" y1="688.85" x2="105.36" y2="721.98"/>
					</g>
				</g>
				<g>
					<g>
						
							<rect x="82.29" y="677.59" transform="matrix(0.5955 -0.8033 0.8033 0.5955 -533.1162 352.0162)" class="st0" width="1.43" height="55.65"/>
					</g>
				</g>
			</g>
			<g>
				<g>
					<g>
						<line class="st0" x1="60.29" y1="689.16" x2="100.41" y2="723.57"/>
					</g>
				</g>
				<g>
					<g>
						<polygon class="st0" points="99.95,724.13 59.83,689.7 60.76,688.61 100.88,723.02 						"/>
					</g>
				</g>
			</g>
			<g>
				<g>
					<g>
						<line class="st0" x1="59.92" y1="689.47" x2="96.43" y2="725.57"/>
					</g>
				</g>
				<g>
					<g>
						<polygon class="st0" points="95.93,726.08 59.42,689.98 60.43,688.96 96.93,725.06 						"/>
					</g>
				</g>
			</g>
			<g>
				<g>
					<g>
						<line class="st0" x1="59.55" y1="689.78" x2="92.92" y2="727.8"/>
					</g>
				</g>
				<g>
					<g>
						
							<rect x="75.52" y="683.5" transform="matrix(0.7516 -0.6596 0.6596 0.7516 -448.6003 226.3559)" class="st0" width="1.43" height="50.59"/>
					</g>
				</g>
			</g>
			<g>
				<g>
					<g>
						<line class="st0" x1="59.17" y1="690.09" x2="89.89" y2="730.51"/>
					</g>
				</g>
				<g>
					<g>
						<polygon class="st0" points="89.32,730.95 58.6,690.52 59.75,689.65 90.46,730.08 						"/>
					</g>
				</g>
			</g>
			<g>
				<g>
					<g>
						<line class="st0" x1="58.81" y1="690.4" x2="87.11" y2="733.46"/>
					</g>
				</g>
				<g>
					<g>
						<polygon class="st0" points="86.5,733.85 58.2,690.8 59.4,690 87.71,733.07 						"/>
					</g>
				</g>
			</g>
			<g>
				<g>
					<g>
						<line class="st0" x1="58.43" y1="690.71" x2="84.55" y2="736.9"/>
					</g>
				</g>
				<g>
					<g>
						<polygon class="st0" points="83.93,737.25 57.81,691.07 59.05,690.36 85.17,736.54 						"/>
					</g>
				</g>
			</g>
			<g>
				<g>
					<g>
						<line class="st0" x1="58.07" y1="691.03" x2="82.16" y2="740.96"/>
					</g>
				</g>
				<g>
					<g>
						<polygon class="st0" points="81.51,741.26 57.42,691.34 58.71,690.71 82.8,740.65 						"/>
					</g>
				</g>
			</g>
			<g>
				<g>
					<g>
						<line class="st0" x1="57.7" y1="691.34" x2="80.16" y2="746.14"/>
					</g>
				</g>
				<g>
					<g>
						<polygon class="st0" points="79.49,746.41 57.02,691.61 58.35,691.06 80.82,745.87 						"/>
					</g>
				</g>
			</g>
			<g>
				<g>
					<g>
						<line class="st0" x1="57.32" y1="691.64" x2="78.97" y2="754.55"/>
					</g>
				</g>
				<g>
					<g>
						<polygon class="st0" points="78.29,754.79 56.65,691.88 58,691.4 79.64,754.31 						"/>
					</g>
				</g>
			</g>
		</g>
		<g>
			<g>
				<g>
					<path class="st0" d="M63.92,696.41l-7.92-5.1l-7.92,5.09l2.39-9.1l-7.29-5.97l9.41-0.53l3.41-8.79l3.42,8.79l9.41,0.53
						l-7.3,5.97L63.92,696.41z M50.7,683.78l3.02,2.46L52.73,690l3.27-2.1l3.27,2.1l-0.99-3.76l3.02-2.46l-3.9-0.23l-1.4-3.62
						l-1.41,3.62L50.7,683.78z"/>
				</g>
			</g>
		</g>
		<g>
			<g>
				<g>
					<path class="st0" d="M106.08,781.1c-0.66,0-1.16-0.33-1.34-0.88c-0.17-0.5-0.31-1.93-0.56-5.15c-0.08-1.02-0.16-2.08-0.2-2.31
						c-0.07-0.35-0.05-1.17-0.04-2.56c0.01-1.08,0.04-2.91-0.05-3.27c-0.04-0.09-0.1-0.34-0.19-0.63c-0.16-0.59-0.57-2.15-1.15-2.36
						c-4.55-1.66-4.37-3.15-4.33-3.63c0.03-0.25-0.03-0.95-0.09-1.57c-0.23-2.65-0.29-4.44,0.77-5.11c0.36-0.22,0.81-0.44,1.29-0.67
						c0.23-0.12,0.57-0.28,0.85-0.43c-0.63-0.34-1.37-0.75-1.6-1.53c-0.18-0.25-1.48-1.1-2.19-1.55c-0.87-0.57-1.42-0.93-1.75-1.26
						c-0.17-0.17-0.28-0.39-0.54-0.92c-1.12-2.27-1.63-2.69-1.85-2.75c-1.21-0.08-4.59-0.97-5.35-2.54c-0.26-0.52-0.23-1.1,0.1-1.58
						c0.82-1.25,4.68-6.64,6.93-8.25c3.03-2.19,7.61-4.31,7.81-4.4c0.27-0.12,0.59-0.11,0.86,0.03c0.27,0.16,0.45,0.42,0.48,0.71
						c0,0,0.36,2.79,0.48,3.98c0.07,0.62,0.41,1.24,0.93,1.09c0.3-0.1,0.98-0.79,1.44-1.24c0.97-0.99,1.9-1.92,2.95-1.92
						c0.04,0,0.14,0.01,0.17,0.01l0,0c0.2,0,0.57-0.16,0.86-0.29c0.43-0.19,0.88-0.39,1.35-0.39c0.36,0,1.52,0.15,1.52,1.99
						c0,0.86-0.03,1.41-0.07,1.87c-0.04,0.69-0.07,1.11,0.07,2.2c0.1,0.96-0.18,1.88-0.84,2.63c-0.92,1.03-2.43,1.48-3.27,0.91
						c-0.15-0.1-0.32-0.23-0.48-0.35c-0.35-0.27-0.75-0.58-1.02-0.58c-0.07,0-0.13,0.02-0.21,0.05c-1.04,0.47-2.26,1.41-2.6,2.32
						c-0.52,1.43-1.85,2.67-2.85,2.67c-0.1,0-0.28-0.04-0.38-0.06c-0.93-0.32-1.01-1.51-1.01-2.82c-0.04-0.12-0.32-0.46-0.52-0.49
						c-0.3-0.05-0.58-0.14-0.84-0.23c-0.19-0.06-0.43-0.15-0.58-0.17c-0.44,0.5-1.22,1.75-1.07,2.65c0.22,1.28,2.5,4.59,3.23,4.89
						c1.42,0.57,7.04,5.25,7.37,5.6c0.36,0.23,3.13,1.34,4.26,1.66c2.4,0.68,5.31,1.93,5.59,4.02c0.28,2.08-1.25,5.68-2.52,6.63
						c-0.9,0.68-2.15,1.92-3.18,3.19c-0.26,0.32-0.47,0.54-0.65,0.72c-0.49,0.51-0.65,0.68-1.07,2.93
						c-0.61,3.27-2.25,7.73-2.32,7.93c-0.08,0.21-0.23,0.39-0.43,0.5C107.96,780.56,106.9,781.1,106.08,781.1z M106.07,779.19
						l0.01,0.95L106.07,779.19L106.07,779.19z M100.14,760.45c0.16,0.29,1.09,0.98,3.08,1.69c1.51,0.55,2.03,2.5,2.35,3.67
						c0.04,0.2,0.08,0.37,0.14,0.47c0.18,0.45,0.19,1.34,0.15,3.95c-0.02,0.84-0.03,1.99,0.01,2.22c0.05,0.3,0.11,1.09,0.22,2.47
						c0.09,1.18,0.25,3.19,0.37,4.18c0.17-0.06,0.36-0.15,0.56-0.23c0.4-1.12,1.62-4.67,2.11-7.27c0.48-2.6,0.78-3.07,1.56-3.91
						c0.16-0.15,0.34-0.34,0.55-0.6c1.12-1.37,2.5-2.75,3.51-3.51c0.64-0.48,1.98-3.36,1.78-4.85c-0.08-0.62-1.44-1.64-4.22-2.44
						c-0.64-0.17-4.44-1.51-5.08-2.15c-0.5-0.49-5.76-4.78-6.74-5.17c-1.62-0.64-4.14-4.73-4.42-6.35c-0.31-1.9,1.16-3.88,1.71-4.42
						c0.21-0.21,0.58-0.47,1.16-0.47c0.45,0,0.89,0.15,1.27,0.29c0.19,0.06,0.37,0.13,0.56,0.16c1.18,0.2,2.11,1.44,2.11,2.38
						c0,0.16,0,0.31,0.01,0.45c0.2-0.24,0.4-0.54,0.53-0.9c0.58-1.59,2.31-2.83,3.62-3.41c0.32-0.14,0.64-0.21,0.98-0.21
						c0.94,0,1.67,0.56,2.19,0.97c0.1,0.08,0.2,0.15,0.29,0.21c0.2-0.02,0.58-0.2,0.87-0.52c0.21-0.24,0.43-0.61,0.36-1.13
						c-0.16-1.27-0.11-1.85-0.07-2.57c0.04-0.42,0.06-0.91,0.06-1.66c-0.06,0.02-0.12,0.05-0.17,0.07
						c-0.54,0.24-1.19,0.49-1.84,0.44c-0.28,0.05-1.12,0.9-1.56,1.34c-0.76,0.78-1.49,1.52-2.25,1.74c-1.63,0.49-3.18-0.8-3.38-2.74
						c-0.06-0.64-0.2-1.73-0.3-2.59c-1.56,0.77-4.33,2.22-6.32,3.64c-1.67,1.2-4.9,5.46-6.32,7.58c0.51,0.48,2.43,1.25,3.68,1.34
						c1.49,0.11,2.5,1.93,3.42,3.81c0.09,0.2,0.16,0.36,0.23,0.47c0.25,0.22,0.86,0.61,1.4,0.94c1.86,1.22,2.75,1.87,2.98,2.65
						c0.07,0.05,0.52,0.29,0.76,0.41c0.64,0.33,1.62,0.83,1.42,1.83c-0.17,0.86-1.17,1.35-2.43,1.95c-0.37,0.19-0.75,0.37-1.02,0.53
						c-0.21,0.54-0.05,2.44,0.03,3.38C100.12,759.38,100.18,760.02,100.14,760.45z"/>
				</g>
			</g>
		</g>
		<g>
			<g>
				<g>
					<path class="st0" d="M121.02,736.4c-1.39,0-2.38-0.66-2.46-1.66c-0.03-0.3-0.43-0.99-0.84-1.19c-0.85-0.41-1.66-0.87-2.15-1.95
						c-0.42-0.93-0.61-2.68-0.63-2.88c-0.02-0.12,0-0.26,0.05-0.39l0.54-1.66c0.13-0.41,0.52-0.68,0.96-0.65
						c0.16,0.01,3.87,0.23,7.2,1.59c0.26,0.11,0.45,0.32,0.55,0.58c0.08,0.27,0.05,0.57-0.1,0.8c-0.5,0.83-1.09,1.91-1.16,2.2
						c-0.02,0.11-0.03,0.39-0.05,0.75c-0.19,2.77-0.36,4.35-1.6,4.46C121.23,736.4,121.12,736.4,121.02,736.4z M120.44,734.4
						c0.07,0.03,0.16,0.06,0.27,0.08c0.16-0.69,0.25-2.08,0.3-2.68c0.02-0.45,0.05-0.81,0.09-0.96c0.07-0.42,0.43-1.16,0.82-1.84
						c-1.91-0.62-3.81-0.89-4.82-1.01l-0.23,0.74c0.07,0.65,0.24,1.64,0.44,2.08c0.21,0.48,0.54,0.69,1.25,1.03
						C119.56,732.34,120.29,733.5,120.44,734.4z"/>
				</g>
			</g>
		</g>
		<g>
			<g>
				<g>
					<path class="st0" d="M136.61,774.13c-0.14,0-0.28-0.03-0.41-0.09c-0.4-0.2-0.61-0.61-0.54-1.04c0.21-1.27,0.42-2.84,0.41-3.26
						c-0.12-0.38-0.13-0.95-0.15-1.87c-0.01-0.44-0.01-0.89-0.04-1.23c-0.03-0.28-0.36-0.94-0.59-1.43
						c-0.34-0.66-0.62-1.23-0.68-1.74c-0.08-0.68-0.43-1.38-1.06-2.12c-0.58-0.7-0.87-1.57-1.11-2.33
						c-0.17-0.52-0.35-1.07-0.58-1.35c-0.51-0.63-0.76-1.39-0.95-1.99c-0.07-0.23-0.17-0.53-0.22-0.61c-1.1-1.11,0.74-4.08,0.77-4.1
						c0.39-0.49,1.58-1.08,2.52-1.48c0.03-0.01,0.07-0.04,0.11-0.04c1.67-0.48,2.34-0.62,2.62-0.66c0.19-0.12,0.57-0.45,0.77-0.68
						c-0.09-0.31-0.2-0.7-0.34-1.04c-0.18-0.42-0.19-0.98-0.14-1.49c-0.01,0-0.02,0-0.02,0c-0.21,0.16-0.49,0.34-1,0.4
						c-0.87,0.11-1.56-0.05-2.74-0.45c-0.4-0.12-0.52-0.13-0.52-0.13c-0.4,0.04-0.68-0.14-0.9-0.29c-0.77-0.5-1.17-0.7-1.37-0.76
						c-0.05-0.02-0.51,0-0.89,0.08l-0.05,0.01c-0.09,0.14-0.21,0.38-0.29,0.59c-0.1,0.76-0.21,1.65-0.21,1.85
						c0,1.33-2.63,2.09-3.47,2.09c-0.15,0-0.28-0.01-0.41-0.05c-2.14-0.47-2.6-0.79-2.77-1.35c-0.24-0.73,0.5-2.49,0.74-2.97
						c-0.02-0.11-0.09-0.29-0.13-0.41c-0.16-0.44-0.39-1.06-0.04-1.63c0.3-0.5,0.89-1.01,1-1.12c0.17-0.15,0.39-0.22,0.63-0.22
						c0.18,0,1.15,0,1.62,0.1c0.03-0.01,0.19-0.07,0.36-0.14c0.26-0.4,0.72-1.07,1.01-1.37l0.08-0.07c0.28-0.29,0.55-0.55,0.59-1.09
						c0.05-0.57-0.01-0.89-0.07-1.27c-0.03-0.17-0.06-0.34-0.08-0.53c-0.03-0.14-0.1-0.25-0.34-0.52c-0.14-0.16-0.27-0.32-0.39-0.5
						c-0.55-0.84-0.8-1.4-0.8-1.89c0-0.85,0.4-1.54,1.09-1.88c0.19-0.1,0.89-0.66,1.5-1.23c0.31-0.28,0.78-0.32,1.15-0.1
						c0.05,0.04,1.46,0.89,3.06,2.32c1.56,1.38,6.75,8.58,8.15,11.14c1.43,2.59,2.74,10.08,1.48,17.36
						c-1.23,7.11-5.48,12.06-5.66,12.26C137.15,774.01,136.89,774.13,136.61,774.13z M132.29,753.97c0.22,0.32,0.33,0.71,0.47,1.13
						c0.15,0.48,0.32,1.01,0.61,1.36c0.45,0.56,0.69,1.27,0.9,1.97c0.21,0.63,0.42,1.28,0.76,1.68c0.89,1.05,1.38,2.08,1.5,3.15
						c0.03,0.18,0.3,0.72,0.48,1.09c0.36,0.72,0.73,1.46,0.79,2.11c0.03,0.37,0.04,0.88,0.04,1.37c0.01,0.47,0.02,1.16,0.07,1.35
						c0.02,0.05,0.05,0.13,0.07,0.32c1.18-2.02,2.54-4.91,3.12-8.31c1.17-6.75-0.01-13.82-1.27-16.12
						c-1.27-2.33-6.36-9.4-7.74-10.62c-0.88-0.78-1.69-1.37-2.21-1.73c-0.44,0.4-1.01,0.85-1.37,1.04l0,0c0,0-0.04,0.04-0.04,0.17
						c0.01-0.01,0.05,0.18,0.49,0.83c0.07,0.11,0.17,0.22,0.25,0.31c0.29,0.34,0.69,0.8,0.78,1.53c0.03,0.17,0.05,0.3,0.07,0.44
						c0.08,0.45,0.17,0.94,0.1,1.76c-0.1,1.24-0.8,1.92-1.17,2.3c-0.21,0.2-0.65,0.83-0.97,1.34c-0.09,0.14-0.21,0.26-0.37,0.34
						c-0.24,0.12-1.2,0.52-1.8,0.4c-0.14-0.03-0.51-0.05-0.89-0.06c-0.08,0.08-0.15,0.16-0.21,0.24c0.02,0.05,0.05,0.11,0.06,0.17
						c0.17,0.49,0.45,1.22,0.05,1.9c-0.15,0.27-0.37,0.86-0.49,1.3c0.27,0.09,0.67,0.2,1.22,0.32c0.39-0.01,1.2-0.33,1.57-0.57
						c0.05-0.58,0.19-1.5,0.23-1.83c0.01-0.05,0.03-0.11,0.04-0.16c0.23-0.65,0.72-1.76,1.63-1.92l0.21-0.03
						c0.54-0.1,1.29-0.19,1.85-0.01c0.45,0.16,1.02,0.47,1.77,0.96c0.26,0.02,0.56,0.1,1.02,0.24c1.08,0.36,1.42,0.41,1.88,0.36
						c0.09-0.01,0.09-0.01,0.17-0.06c0.24-0.17,0.55-0.35,1.08-0.35c0.67,0,1.3,0.18,1.37,0.2c0.49,0.14,0.79,0.64,0.68,1.14
						c-0.12,0.5-0.18,1.16-0.13,1.34c0.25,0.6,0.42,1.27,0.51,1.62c0.14,0.53-0.13,0.94-0.35,1.22c-0.01,0.02-1.24,1.5-2.17,1.5
						c-0.18,0.03-1.29,0.32-2.22,0.59c-0.78,0.34-1.59,0.77-1.76,0.93C132.76,752.43,132.34,753.52,132.29,753.97z"/>
				</g>
			</g>
		</g>
		<g>
			<g>
				<g>
					<path class="st0" d="M268.72,822.52c-0.15,0-0.31-0.03-0.46-0.08c-0.58-0.21-0.97-0.75-0.97-1.36l0.03-15.59
						c0-0.34,0.13-0.67,0.35-0.92l23.25-27.16c0.39-0.45,1.04-0.61,1.6-0.39c0.57,0.22,0.94,0.78,0.92,1.38l-0.08,1.99
						c-0.1,3.2-0.11,3.31,0.21,4.85c0.23,1.13,1.22,1.6,1.23,1.6c0.41,0.18,0.71,0.53,0.82,0.97c0.11,0.42,0.02,0.88-0.25,1.23
						l-25.52,32.93C269.58,822.32,269.16,822.52,268.72,822.52z M270.19,806.03l-0.03,10.85l22.04-28.43
						c-0.63-0.62-1.21-1.48-1.44-2.62c-0.29-1.37-0.36-1.93-0.32-3.44L270.19,806.03z"/>
				</g>
			</g>
		</g>
		<g>
			<g>
				<g>
					<path class="st0" d="M238.43,769.57c-0.14,0-0.28-0.02-0.41-0.06c-0.61-0.18-1.03-0.75-1.03-1.39l0.96-53.57
						c0.02-0.48,0.26-0.92,0.66-1.18c3.28-2.13,6.25-3.11,9.37-3.11c3.32,0,6.46,1.12,9.35,2.36c1.29,0.55,2.79,0.83,4.45,0.83
						c4.51,0,8.66-2.05,8.7-2.07c0.44-0.21,0.97-0.2,1.39,0.06c0.42,0.26,0.69,0.73,0.69,1.22c0,0.4,0.17,39.55,0.01,52.96
						c0,0.44-0.21,0.87-0.56,1.14c-0.36,0.26-0.81,0.35-1.25,0.24c-6.43-1.77-12.19-2.66-17.07-2.66c-10.96,0-13.99,4.53-14.03,4.58
						C239.38,769.33,238.91,769.57,238.43,769.57z M240.81,715.37l-0.88,49.45c2.4-1.6,6.66-3.38,13.75-3.38
						c4.69,0,10.07,0.78,16.05,2.28c0.1-12.7,0.01-40.94-0.03-48.94c-1.88,0.68-4.79,1.53-7.92,1.53c-2.05,0-3.92-0.37-5.57-1.07
						c-3.58-1.51-5.96-2.14-8.23-2.14C245.64,713.11,243.35,713.84,240.81,715.37z"/>
				</g>
			</g>
		</g>
		<g>
			<g>
				<g>
					<path class="st0" d="M238.19,769.42c-0.46,0-0.89-0.21-1.17-0.59c-1.72-2.45-5.99-3.74-12.35-3.74
						c-8.94,0-18.95,2.55-19.05,2.58c-0.41,0.11-0.87,0.02-1.22-0.25c-0.35-0.27-0.56-0.69-0.56-1.12l-0.6-46.77
						c0-0.44,0.19-0.85,0.54-1.14c0.34-0.28,0.78-0.38,1.22-0.28c0.02,0,1.85,0.4,4.62,0.4c3.44,0,8.59-0.62,13.59-3.58
						c3.55-2.1,7.07-3.18,10.45-3.18c4.03,0,6.43,1.55,6.53,1.61c0.43,0.28,0.67,0.75,0.65,1.24c0,0-0.71,30.93-1.2,53.41
						c-0.01,0.62-0.42,1.16-1.01,1.36C238.48,769.42,238.33,769.42,238.19,769.42z M224.67,762.23c5.37,0,9.44,0.86,12.16,2.58
						c0.41-19.78,0.98-44.38,1.1-49.37c-0.8-0.34-2.26-0.81-4.29-0.81c-2.86,0-5.88,0.93-8.99,2.78
						c-5.56,3.29-11.25,3.98-15.05,3.98c-1.41,0-2.59-0.1-3.48-0.19l0.56,43.27C210.02,763.72,217.55,762.23,224.67,762.23z"/>
				</g>
			</g>
		</g>
		<g>
			<g>
				<g>
					<path class="st0" d="M238.19,769.42c-0.46,0-0.89-0.21-1.17-0.59c-1.72-2.45-5.99-3.74-12.35-3.74
						c-8.94,0-18.95,2.55-19.05,2.58c-0.41,0.11-0.87,0.02-1.22-0.25c-0.35-0.27-0.56-0.69-0.56-1.12l-0.6-46.77
						c0-0.44,0.19-0.85,0.54-1.14c0.34-0.28,0.78-0.38,1.22-0.28c0.02,0,1.85,0.4,4.62,0.4c3.44,0,8.59-0.62,13.59-3.58
						c3.55-2.1,7.07-3.18,10.45-3.18c4.03,0,6.43,1.55,6.53,1.61c0.43,0.28,0.67,0.75,0.65,1.24c0,0-0.71,30.93-1.2,53.41
						c-0.01,0.62-0.42,1.16-1.01,1.36C238.48,769.42,238.33,769.42,238.19,769.42z M224.67,762.23c5.37,0,9.44,0.86,12.16,2.58
						c0.41-19.78,0.98-44.38,1.1-49.37c-0.8-0.34-2.26-0.81-4.29-0.81c-2.86,0-5.88,0.93-8.99,2.78
						c-5.56,3.29-11.25,3.98-15.05,3.98c-1.41,0-2.59-0.1-3.48-0.19l0.56,43.27C210.02,763.72,217.55,762.23,224.67,762.23z"/>
				</g>
			</g>
		</g>
		<g>
			<g>
				<g>
					<path class="st0" d="M266.05,800.51c-0.17,0-0.32-0.03-0.48-0.08c-0.56-0.2-0.94-0.71-0.96-1.31l-0.39-12.03
						c-0.01-0.38,0.13-0.75,0.38-1.02l20.48-21.97c0.4-0.43,1.03-0.57,1.58-0.35c0.56,0.22,0.91,0.76,0.9,1.35l-0.03,1.73
						c-0.03,2.78-0.05,2.83,0.25,4.11c0.2,0.87,0.96,1.22,0.99,1.24c0.43,0.18,0.74,0.56,0.84,1c0.09,0.44-0.01,0.91-0.3,1.26
						l-22.18,25.58C266.86,800.34,266.46,800.51,266.05,800.51z M267.11,787.59l0.26,7.78l18.77-21.65
						c-0.47-0.5-0.92-1.21-1.14-2.15c-0.26-1.13-0.34-1.66-0.34-2.8L267.11,787.59z"/>
				</g>
			</g>
		</g>
		<g>
			<g>
				<g>
					<g>
						<path class="st0" d="M286.18,766.13c-0.05,0-0.08,0-0.12,0l-7.84-0.64c-0.79-0.07-1.38-0.76-1.32-1.55
							c0.06-0.79,0.74-1.38,1.55-1.31l7.84,0.64c0.79,0.06,1.38,0.75,1.31,1.54C287.54,765.56,286.92,766.13,286.18,766.13z"/>
					</g>
				</g>
			</g>
			<g>
				<g>
					<g>
						<path class="st0" d="M265.74,800.67c-0.11,0-0.23-0.01-0.35-0.03l-72.89-17.72c-1.62-0.31-4.86-2.19-4.95-7.03
							c-0.04-2.06,0.48-3.66,1.55-4.75c1.53-1.54,3.52-1.37,3.52-1.37c0.05,0.01,0.12,0.02,0.17,0.03l73.26,15.31
							c0.67,0.14,1.15,0.73,1.14,1.4l-0.01,12.73c0,0.43-0.22,0.85-0.56,1.11C266.36,800.58,266.05,800.67,265.74,800.67z
							 M192.33,772.65c-0.21,0.01-0.76,0.07-1.19,0.5c-0.5,0.53-0.74,1.44-0.72,2.69c0.07,3.6,2.43,4.22,2.7,4.28l71.18,17.3
							l0.03-9.73L192.33,772.65z"/>
					</g>
				</g>
			</g>
			<g>
				<g>
					<g>
						<path class="st0" d="M190.31,773.38c-0.39,0-0.77-0.15-1.07-0.47c-0.53-0.59-0.48-1.49,0.11-2.03l8.26-7.48
							c0.58-0.52,1.49-0.48,2.03,0.11c0.53,0.59,0.48,1.49-0.11,2.02l-8.27,7.49C191.01,773.26,190.66,773.38,190.31,773.38z"/>
					</g>
				</g>
			</g>
			<g>
				<g>
					<g>
						<path class="st0" d="M205.87,786.01c-0.8,0-1.44-0.64-1.44-1.44v-10.04c0-0.8,0.64-1.44,1.44-1.44c0.79,0,1.43,0.64,1.43,1.44
							v10.04C207.3,785.36,206.66,786.01,205.87,786.01z"/>
					</g>
				</g>
			</g>
			<g>
				<g>
					<g>
						<path class="st0" d="M212.79,787.76c-0.79,0-1.43-0.64-1.43-1.44v-9.77c0-0.79,0.64-1.44,1.43-1.44c0.8,0,1.45,0.65,1.45,1.44
							v9.77C214.24,787.12,213.59,787.76,212.79,787.76z"/>
					</g>
				</g>
			</g>
			<g>
				<g>
					<g>
						<path class="st0" d="M243.89,794.97c-0.79,0-1.44-0.64-1.44-1.43v-10.53c0-0.79,0.64-1.44,1.44-1.44
							c0.79,0,1.43,0.64,1.43,1.44v10.53C245.32,794.33,244.68,794.97,243.89,794.97z"/>
					</g>
				</g>
			</g>
		</g>
		<g>
			<g>
				<g>
					<g>
						<path class="st0" d="M268.37,822.39c-0.14,0-0.27-0.02-0.39-0.05l-83.47-23.46c-1.91-0.43-5.42-2.63-5.42-8.04
							c0-4.99,2.91-6.75,5.42-6.75c0.21,0,0.33,0.01,0.33,0.01c0.06,0.01,0.14,0.01,0.2,0.05l83.66,20.24
							c0.64,0.16,1.1,0.74,1.1,1.39v15.18c0,0.45-0.21,0.88-0.56,1.16C268.98,822.29,268.67,822.39,268.37,822.39z M184.49,786.96
							c-1,0.01-2.54,0.55-2.54,3.88c0,4.37,2.89,5.16,3.22,5.24l81.76,22.98v-12.16L184.49,786.96z"/>
					</g>
				</g>
			</g>
			<g>
				<g>
					<g>
						<path class="st0" d="M182.13,787.76c-0.39,0-0.79-0.17-1.08-0.49c-0.52-0.59-0.47-1.51,0.14-2.03l7.49-6.54
							c0.6-0.52,1.5-0.46,2.03,0.14c0.51,0.6,0.46,1.5-0.14,2.03l-7.5,6.53C182.81,787.64,182.47,787.76,182.13,787.76z"/>
					</g>
				</g>
			</g>
			<g>
				<g>
					<g>
						<path class="st0" d="M292.02,779.39c-0.04,0-0.08,0-0.14,0l-6.6-0.65c-0.79-0.08-1.36-0.78-1.29-1.56
							c0.08-0.79,0.78-1.37,1.57-1.3l6.6,0.65c0.79,0.08,1.36,0.78,1.29,1.57C293.38,778.84,292.75,779.39,292.02,779.39z"/>
					</g>
				</g>
			</g>
			<g>
				<g>
					<g>
						<path class="st0" d="M193.42,800.6c-0.53,0-0.96-0.44-0.96-0.96v-11.36c0-0.53,0.43-0.96,0.96-0.96
							c0.53,0,0.95,0.44,0.95,0.96v11.36C194.37,800.16,193.95,800.6,193.42,800.6z"/>
					</g>
				</g>
			</g>
			<g>
				<g>
					<g>
						<path class="st0" d="M241.98,814.24c-0.53,0-0.95-0.43-0.95-0.97V800c0-0.53,0.42-0.96,0.95-0.96s0.94,0.43,0.94,0.96v13.27
							C242.93,813.81,242.51,814.24,241.98,814.24z"/>
					</g>
				</g>
			</g>
		</g>
		<g>
			<g>
				<path class="st0" d="M238.5,713.78c-5.92,0-10.93-3.74-12.47-9.3c-0.1-0.38,0.03-0.77,0.32-1c0.29-0.24,0.71-0.29,1.05-0.1
					c0,0,0.93,0.47,2.21,0.9c-1.13-1.65-1.95-3.66-2.43-5.36c-0.1-0.36,0.03-0.76,0.32-1c0.3-0.24,0.7-0.28,1.05-0.1
					c0.01,0,1.02,0.52,2.36,0.98c-0.79-1.32-1.39-2.85-1.75-4.17c-0.1-0.38,0.03-0.77,0.32-1.01c0.3-0.24,0.71-0.27,1.05-0.1
					c0.02,0.01,2,1.06,3.71,1.37c1.6-1.84,1.95-4.36,2.22-6.25c0.25-1.73,0.48-3.34,1.95-3.34c1.34,0,1.58,1.43,1.86,3.09
					c0.31,1.85,0.73,4.33,2.35,6.2c1.83-0.29,3.92-1.11,3.95-1.13c0.33-0.12,0.71-0.05,0.99,0.19c0.26,0.24,0.37,0.62,0.28,0.97
					c-0.38,1.33-0.97,2.86-1.77,4.18c1.35-0.46,2.36-1,2.37-1c0.34-0.19,0.76-0.15,1.05,0.1c0.29,0.23,0.43,0.63,0.32,1
					c-0.45,1.64-1.3,3.7-2.46,5.4c1.3-0.45,2.22-0.95,2.24-0.95c0.34-0.19,0.76-0.15,1.05,0.1c0.3,0.23,0.43,0.62,0.33,1
					C249.42,710.03,244.41,713.78,238.5,713.78z M228.67,706c1.83,3.58,5.55,5.86,9.84,5.86c4.28,0,7.99-2.28,9.82-5.85
					c-1.04,0.38-2.36,0.77-3.73,0.92c-0.43,0.04-0.84-0.21-1-0.62c-0.15-0.41,0-0.87,0.36-1.12c1.34-0.91,2.51-2.83,3.31-4.75
					c-1.03,0.39-2.36,0.8-3.69,0.93c-0.43,0.05-0.84-0.2-0.99-0.61c-0.16-0.41-0.01-0.87,0.33-1.12c0.97-0.68,1.85-2.17,2.47-3.71
					c-0.9,0.26-2.01,0.55-3.01,0.65c-0.28,0.03-0.57-0.07-0.78-0.27c-2.32-2.32-2.85-5.48-3.2-7.56v-0.01
					c-0.02,0.07-0.02,0.15-0.04,0.21c-0.3,2.13-0.76,5.36-3.08,7.67c-0.2,0.21-0.49,0.3-0.78,0.29c-0.92-0.1-1.93-0.41-2.78-0.74
					c0.61,1.44,1.43,2.8,2.33,3.45c0.36,0.26,0.5,0.71,0.34,1.11c-0.16,0.4-0.58,0.66-0.99,0.61c-1.33-0.14-2.63-0.52-3.67-0.91
					c0.79,1.92,1.95,3.82,3.29,4.75c0.36,0.24,0.49,0.7,0.35,1.11c-0.15,0.41-0.58,0.67-0.99,0.62
					C231.01,706.75,229.71,706.37,228.67,706z"/>
			</g>
		</g>
		<g>
			<path class="st0" d="M90.03,604.52c-0.4,0-0.81-0.17-1.09-0.51c-0.51-0.61-0.43-1.52,0.18-2.02l10.91-9.18
				c0.61-0.52,1.52-0.43,2.02,0.18c0.51,0.6,0.43,1.51-0.17,2.02l-10.92,9.18C90.69,604.41,90.36,604.52,90.03,604.52z"/>
		</g>
		<g>
			<path class="st0" d="M89.63,613.03c-0.41,0-0.82-0.17-1.1-0.52c-0.5-0.61-0.43-1.51,0.18-2.02l11.14-9.28
				c0.6-0.51,1.5-0.43,2.02,0.18c0.51,0.6,0.42,1.51-0.19,2.02l-11.13,9.28C90.28,612.92,89.95,613.03,89.63,613.03z"/>
		</g>
		<g>
			<path class="st0" d="M95.76,627.86c-7.79,0-14.07-6.12-14.3-13.92c-0.01-0.39,0.14-0.77,0.41-1.03c0.27-0.28,0.64-0.44,1.03-0.44
				h25.73c0.39,0,0.76,0.16,1.03,0.44c0.27,0.27,0.41,0.65,0.4,1.03C109.85,621.74,103.57,627.86,95.76,627.86z M84.47,615.34
				c0.86,5.52,5.56,9.65,11.29,9.65c5.74,0,10.44-4.13,11.3-9.65H84.47z"/>
		</g>
		<g>
			<path class="st0" d="M115,595.3H76.53c-0.79,0-1.43-0.64-1.43-1.43v-6.39c0-0.8,0.64-1.44,1.43-1.44H115
				c0.79,0,1.44,0.64,1.44,1.44v6.39C116.44,594.66,115.78,595.3,115,595.3z M77.97,592.44h35.59v-3.52H77.97V592.44z"/>
		</g>
		<g>
			<path class="st0" d="M101.64,615.32h-0.03H89.18c-0.4,0-0.77-0.17-1.05-0.44c-0.26-0.28-0.41-0.67-0.39-1.07l1-20.01
				c0.05-0.76,0.67-1.36,1.44-1.36h10.43c0.76,0,1.4,0.6,1.43,1.36l1,19.78c0.02,0.1,0.03,0.21,0.03,0.3
				C103.07,614.68,102.43,615.32,101.64,615.32z M90.68,612.45h9.42l-0.86-17.15h-7.7L90.68,612.45z"/>
		</g>
		<g>
			<path class="st0" d="M100.3,588.91h-0.02h-9.79c-0.39,0-0.77-0.16-1.04-0.44s-0.41-0.66-0.4-1.05l3.97-79.4H62.51l16.21,36.76
				c0.09,0.19,0.13,0.4,0.12,0.61c-0.32,11.39-9.49,20.31-20.86,20.31c-11.39,0-20.55-8.92-20.87-20.31c0-0.21,0.04-0.42,0.13-0.61
				l19.41-44.1c0.23-0.53,0.74-0.86,1.31-0.86h35.47l0.5-10.06c0.05-0.76,0.67-1.36,1.44-1.36l0,0c0.76,0,1.39,0.6,1.42,1.36
				l0.51,10.06h35.98c0.56,0,1.07,0.33,1.31,0.86l19.41,44.1c0.08,0.19,0.12,0.4,0.12,0.61c-0.32,11.39-9.49,20.31-20.87,20.31
				c-11.38,0-20.55-8.92-20.86-20.31c-0.01-0.21,0.03-0.42,0.12-0.61l16.21-36.76h-31l3.99,79.16c0.02,0.09,0.03,0.19,0.03,0.3
				C101.73,588.26,101.09,588.91,100.3,588.91z M92,586.04h6.78l-3.41-67.55L92,586.04z M115.27,545.63
				c0.43,9.67,8.27,17.2,17.98,17.2c9.72,0,17.56-7.53,17.99-17.2l-18.89-42.94h-36.4c-0.21,0-0.4-0.05-0.57-0.12
				c-0.18,0.07-0.37,0.12-0.57,0.12h-35.9l-18.9,42.94c0.43,9.67,8.28,17.2,17.99,17.2c9.7,0,17.54-7.53,17.98-17.2l-16.98-38.47
				c-0.19-0.44-0.15-0.95,0.12-1.36c0.26-0.4,0.71-0.65,1.2-0.65h34.21c0.3,0,0.6,0.09,0.84,0.27c0.24-0.17,0.53-0.27,0.84-0.27
				h34.71c0.49,0,0.94,0.25,1.2,0.65c0.26,0.41,0.3,0.92,0.11,1.36L115.27,545.63z"/>
		</g>
		<g>
			<path class="st0" d="M72.29,546.34h-0.01H43.69c-0.49,0-0.94-0.25-1.21-0.65c-0.26-0.4-0.31-0.91-0.11-1.36l14.29-32.92
				c0.24-0.53,0.75-0.87,1.32-0.87c0.57,0,1.08,0.34,1.32,0.87l14.2,32.72c0.14,0.22,0.23,0.5,0.23,0.77
				C73.73,545.7,73.08,546.34,72.29,546.34z M45.88,543.47h24.2l-12.1-27.89L45.88,543.47z"/>
		</g>
		<g>
			<path class="st0" d="M147.56,546.34h-0.02h-28.59c-0.49,0-0.94-0.25-1.2-0.65c-0.27-0.4-0.31-0.91-0.11-1.36l14.29-32.92
				c0.22-0.53,0.74-0.87,1.32-0.87c0.58,0,1.09,0.34,1.31,0.87l14.21,32.72c0.14,0.22,0.23,0.5,0.23,0.77
				C148.99,545.7,148.35,546.34,147.56,546.34z M121.14,543.47h24.21l-12.1-27.89L121.14,543.47z"/>
		</g>
		<g>
			<g>
				<g>
					<path class="st0" d="M245.2,562.96c-0.09,0-0.18-0.01-0.29-0.03c-0.49-0.1-0.89-0.45-1.06-0.92c-1.34-3.74-3.75-7.9-5.09-7.9
						c-0.14,0.02-0.43,0.07-0.83,0.14c-1.72,0.3-5.3,0.94-9.44,0.94c-12.99,0-20.75-6.08-22.41-17.57
						c-3.29-22.75,5.94-30.27,7.13-31.15c2.69-2.49,5.91-3.81,9.32-3.81c6.01,0,11.6,4.24,12.72,9.66
						c1.38,6.58-2.19,14.66-4.05,15.48c-0.39,0.17-0.81,0.25-1.26,0.25l0,0c-2.3,0-4.9-2.37-6.4-3.98
						c-0.63,0.83-1.52,2.37-2.08,4.44c-0.69,2.55-1.03,6.38,1.29,10.13c1.23,2.01,3.33,2.83,7.22,2.83c1.16,0,2.34-0.07,3.61-0.13
						c1.27-0.08,2.58-0.15,3.86-0.15c3.32,0,7.47,0.44,10.21,3.88c5.33,6.71,1.42,14.33-1.38,17.4
						C245.99,562.79,245.6,562.96,245.2,562.96z M238.76,551.23c3.01,0,5.44,4.27,6.81,7.34c1.55-2.57,3.36-7.24-0.17-11.71
						c-1.56-1.96-3.94-2.8-7.96-2.8c-1.21,0-2.47,0.07-3.71,0.14c-1.23,0.07-2.52,0.14-3.76,0.14c-3.3,0-7.38-0.46-9.67-4.19
						c-3.3-5.35-2.2-10.77-1.27-13.52c0.83-2.42,2.48-5.29,4.14-5.9c0.57-0.23,1.22-0.05,1.62,0.42c1.85,2.25,4.1,4.02,5.12,4.03
						c0.96-1.21,3.61-7.08,2.52-12.27c-0.87-4.13-5.22-7.37-9.92-7.37c-2.69,0-5.27,1.07-7.43,3.1c-0.05,0.05-0.11,0.1-0.18,0.15
						c-0.02,0.01-2.29,1.62-4.17,5.86c-1.75,3.97-3.49,11.11-1.83,22.56c1.46,10.03,8.04,15.11,19.57,15.11
						c3.89,0,7.31-0.61,8.94-0.89c0.5-0.09,0.86-0.15,1.06-0.17C238.61,551.23,238.68,551.23,238.76,551.23z"/>
				</g>
			</g>
		</g>
		<g>
			<g>
				<g>
					<path class="st0" d="M239.24,582.36c-4.21,0-7.27-1.05-9.34-3.22c-6.34-6.62-1.23-16.01,2.35-20.04
						c0.29-0.33,0.68-0.52,1.14-0.49c0.43,0.03,0.83,0.23,1.09,0.58c0.09,0.1,1.98,2.64,4.44,6.47c0.28,0.43,0.3,0.98,0.07,1.44
						c-0.16,0.29-0.2,0.47-0.22,0.55c0.15,0.09,0.64,0.29,1.9,0.29c1.6,0,3.88-0.35,6.42-0.99c6.78-1.71,12.04-0.59,14.6,3.13
						c2.44,3.53,1.59,7.47-2.54,11.71c-0.38,0.39-0.95,0.52-1.47,0.37c-0.52-0.17-0.89-0.62-0.97-1.16
						c-0.06-0.36-0.67-0.55-1.8-0.55c-1.57,0-3.77,0.38-6.11,0.79C245.81,581.77,242.41,582.36,239.24,582.36z M233.28,562.44
						c-2.09,2.97-6,9.82-1.32,14.71c1.51,1.57,3.89,2.33,7.27,2.33c2.93,0,6.2-0.56,9.07-1.07c2.46-0.43,4.79-0.83,6.6-0.83
						c1.6,0,2.66,0.35,3.37,0.86c2.72-3.4,1.94-5.45,1.05-6.74c-1.23-1.79-3.38-2.68-6.42-2.68c-1.54,0-3.26,0.23-5.13,0.7
						c-1.94,0.5-4.76,1.09-7.11,1.09c-2.26,0-3.7-0.56-4.39-1.7c-0.32-0.53-0.58-1.37-0.19-2.55
						C234.98,564.86,233.99,563.44,233.28,562.44z"/>
				</g>
			</g>
		</g>
		<g>
			<g>
				<g>
					<path class="st0" d="M240.68,570.82L240.68,570.82c-0.16,0-0.31,0-0.46-0.01c-0.44-0.02-0.86-0.24-1.12-0.59l-11.17-15.64
						c-0.31-0.43-0.36-1-0.12-1.48c0.24-0.48,0.73-0.78,1.26-0.78c3.65-0.06,6.83-0.63,8.37-0.89c0.49-0.09,0.85-0.15,1.05-0.17
						c0.04-0.01,0.14-0.02,0.19-0.02l0.12,0.01c0.46,0.02,0.94,0.26,1.2,0.65L250,567.25c0.26,0.4,0.3,0.9,0.12,1.34
						c-0.18,0.44-0.57,0.76-1.04,0.86c-0.43,0.08-0.85,0.17-1.29,0.28C245.85,570.22,243.04,570.82,240.68,570.82z M231.8,555.05
						l9.21,12.88c1.44-0.04,3.35-0.32,5.47-0.83l-8.39-12.88c-0.05,0-0.1,0.02-0.15,0.03C236.71,554.46,234.49,554.85,231.8,555.05z
						"/>
				</g>
			</g>
		</g>
		<g>
			<g>
				<g>
					<path class="st0" d="M269.19,627.84c-0.07,0-0.19-0.01-0.26-0.01c-1.85-0.25-2.43-2.16-2.93-3.85
						c-0.33-1.11-0.71-2.35-1.35-3.08c-0.43-0.47-0.92-0.93-1.43-1.41c-1.63-1.48-3.48-3.17-3.65-6.34
						c-0.02-0.41-0.04-0.79-0.06-1.18c-0.17-3.57-0.25-5.36-3.05-7.88c-1.17-1.05-2.53-1.47-4.1-1.97
						c-2.74-0.85-5.85-1.82-8.44-6.21c-4.3-7.31,3.81-14.87,4.16-15.18c0.29-0.26,0.69-0.4,1.07-0.36c0.39,0.01,0.76,0.21,1,0.51
						c4.51,5.58,5.72,8.05,6.01,9.2c0.23-0.02,0.47-0.05,0.73-0.08c0.95-0.12,2.12-0.26,3.33-0.26c1.71,0,3.12,0.29,4.3,0.87
						c5.01,2.51,4.82,7,4.24,10.15c-0.81,4.44,0.62,5.81,2.13,7.24c1.12,1.07,2.38,2.26,2.45,4.42c0.1,3.34-0.54,12.61-2.62,14.74
						C270.15,627.73,269.58,627.84,269.19,627.84z M248.93,583.99c-1.76,2.05-4.88,6.51-2.55,10.48c2.02,3.44,4.35,4.16,6.81,4.92
						c1.74,0.54,3.54,1.11,5.17,2.57c3.69,3.32,3.83,6.22,4,9.88c0.01,0.37,0.03,0.76,0.06,1.16c0.1,2,1.25,3.04,2.71,4.38
						c0.56,0.5,1.12,1.03,1.65,1.62c1.07,1.2,1.54,2.77,1.95,4.15c0.1,0.32,0.21,0.71,0.35,1.06c0.74-2.26,1.47-7.64,1.35-11.69
						c-0.04-0.94-0.52-1.44-1.55-2.42c-1.72-1.62-4.07-3.86-2.98-9.83c0.69-3.77-0.07-5.76-2.7-7.08c-0.76-0.38-1.75-0.56-3.01-0.56
						c-1.04,0-2.07,0.12-2.99,0.24c-0.7,0.08-1.33,0.16-1.84,0.16c-0.32,0-1.33,0-1.89-0.81c-0.2-0.28-0.47-0.87-0.19-1.69l0,0
						C252.93,589.45,250.96,586.61,248.93,583.99z"/>
				</g>
			</g>
		</g>
		<g>
			<g>
				<g>
					<g>
						<path class="st0" d="M264.64,593.77c-0.27,0-0.52-0.06-0.76-0.21c-0.2-0.14-0.42-0.25-0.65-0.38
							c-0.76-0.38-1.76-0.56-3.01-0.56c-1.04,0-2.07,0.12-2.98,0.24c-0.36,0.04-0.68,0.08-0.96,0.11c-0.51,0.05-1.02-0.18-1.31-0.59
							l-2.91-4.06c-0.89-1.35-1.93-2.78-2.67-3.75l-2.7-3.78c-0.29-0.4-0.35-0.92-0.16-1.38c0.19-0.46,0.6-0.78,1.09-0.87l0.67-0.12
							c3.12-0.54,6.05-1.02,7.94-0.74c0.41,0.05,0.77,0.28,1,0.63l8.52,13.08c0.23,0.25,0.36,0.58,0.36,0.95
							c0,0.8-0.63,1.43-1.43,1.43H264.64z M250.34,580.98l1.35,1.88c0.74,0.96,1.83,2.44,2.73,3.84l2.38,3.31
							c0.03-0.01,0.06-0.01,0.08-0.01c0.95-0.11,2.12-0.25,3.33-0.25c0.37,0,0.71,0.01,1.04,0.04l-6.07-9.32
							C253.96,580.42,252.22,580.66,250.34,580.98z"/>
					</g>
				</g>
			</g>
			<g>
				<g>
					<g>
						<path class="st0" d="M291.08,638.22c-0.28,0-0.56-0.08-0.8-0.24l-5.06-3.45c-0.14-0.1-0.26-0.21-0.35-0.35l-14.15-19.76
							c-0.18-0.24-0.27-0.56-0.27-0.85c0-0.36,0-0.72-0.01-1.05c-0.04-0.94-0.52-1.44-1.55-2.42c-1.72-1.62-4.07-3.86-2.98-9.83
							c0.23-1.31,0.3-2.39,0.18-3.31c-0.1-0.66,0.3-1.3,0.92-1.53c0.63-0.23,1.34,0,1.7,0.56l22.18,34.05
							c0.1,0.14,0.17,0.31,0.2,0.47l1.37,5.96c0.13,0.58-0.1,1.18-0.59,1.51C291.64,638.13,291.36,638.22,291.08,638.22z
							 M287.05,632.3l1.8,1.23l-0.49-2.15l-19.69-30.22c-0.66,4.14,0.73,5.45,2.2,6.84c1.12,1.07,2.38,2.26,2.45,4.42
							c0,0.22,0,0.45,0.01,0.68L287.05,632.3z"/>
					</g>
				</g>
			</g>
		</g>
		<g>
			<g>
				<path class="st0" d="M279.45,716.6c-0.36-0.27-0.85-0.36-1.27-0.21c-2.24,0.71-5.01,1.36-7.28,1.85v2.93
					c1.86-0.38,4.15-0.89,6.28-1.48c-0.03,9.94-0.25,41.12-0.3,48.8c-3.73-0.66-12.96-2.12-22.09-2.12c-6.44,0-11.57,0.74-15.3,2.23
					c-0.17,0.35-0.47,0.65-0.87,0.78c-0.14,0.04-0.28,0.05-0.42,0.05c-0.46,0-0.89-0.21-1.17-0.59c-0.03-0.05-0.07-0.1-0.11-0.14
					c-2.81-0.91-8.54-2.4-16.14-2.4c-6.87,0-13.69,1.22-20.29,3.61c-0.08-12.01-0.72-37.41-0.89-44.33c0.94,0.16,2.23,0.38,3.74,0.6
					l-0.04-2.91c-2.93-0.44-4.86-0.83-4.91-0.83c-0.43-0.09-0.87,0.02-1.2,0.31c-0.34,0.28-0.53,0.69-0.52,1.13
					c0.02,0.35,0.97,35.69,0.97,48.12c0,0.48,0.24,0.92,0.63,1.19c0.24,0.17,0.52,0.24,0.8,0.24c0.18,0,0.37-0.02,0.53-0.1
					c6.87-2.76,14-4.16,21.19-4.16c10.13,0,16.87,2.83,16.94,2.86c0.4,0.18,0.86,0.16,1.24-0.05c3.38-1.8,8.71-2.73,15.84-2.73
					c11.28,0,23.11,2.37,23.23,2.39c0.43,0.09,0.86-0.02,1.2-0.29c0.32-0.27,0.52-0.67,0.52-1.11c0-0.44,0.32-44.73,0.32-52.47
					C280.05,717.3,279.83,716.87,279.45,716.6z"/>
			</g>
		</g>
		<g>
			<g>
				<g>
					<path class="st0" d="M167.46,670.97c-8.82,0-16.98-4.42-21.82-11.82l-0.51-0.78l0.51-0.78c4.84-7.4,13-11.83,21.82-11.83
						c8.83,0,16.99,4.43,21.82,11.83l0.51,0.78l-0.51,0.78C184.45,666.55,176.29,670.97,167.46,670.97z M148.59,658.37
						c4.35,6.11,11.34,9.72,18.88,9.72c7.54,0,14.53-3.61,18.89-9.72c-4.36-6.11-11.34-9.74-18.89-9.74
						C159.93,648.62,152.94,652.25,148.59,658.37z"/>
				</g>
			</g>
		</g>
		<g>
			<g>
				<g>
					<path class="st0" d="M172.55,658.21c0,2.81-2.27,5.09-5.09,5.09c-2.8,0-5.08-2.27-5.08-5.09c0-2.81,2.28-5.08,5.08-5.08
						C170.28,653.14,172.55,655.41,172.55,658.21z"/>
				</g>
			</g>
		</g>
		<g>
			<g>
				<g>
					<g>
						<path class="st0" d="M53.52,785.89l-2.14-1.04l9.11-24.64l6.67,3.22L53.52,785.89z M61.83,763.51L57.94,774l5.8-9.56
							L61.83,763.51z"/>
					</g>
				</g>
			</g>
			<g>
				<g>
					<g>
						<path class="st0" d="M78.43,785.89l-13.63-22.47l6.67-3.22l9.11,24.64L78.43,785.89z M68.2,764.44l5.81,9.56l-3.89-10.49
							L68.2,764.44z"/>
					</g>
				</g>
			</g>
			<g>
				<g>
					<g>
						<path class="st0" d="M66.02,765.11c-3.81,0-6.91-3.11-6.91-6.92c0-3.81,3.1-6.91,6.91-6.91c3.81,0,6.92,3.1,6.92,6.91
							C72.93,762.01,69.83,765.11,66.02,765.11z M66.02,754.16c-2.23,0-4.04,1.8-4.04,4.04c0,2.23,1.81,4.05,4.04,4.05
							c2.23,0,4.04-1.82,4.04-4.05C70.06,755.97,68.25,754.16,66.02,754.16z"/>
					</g>
				</g>
			</g>
		</g>
	</g>
	<g>
		<rect x="358.48" y="755.65" class="st1" width="175.16" height="19.14"/>
		<rect x="533.65" y="755.65" class="st2" width="175.16" height="19.14"/>
		<rect x="708.85" y="755.65" class="st3" width="175.16" height="19.14"/>
		<rect x="883.99" y="755.65" class="st4" width="175.16" height="19.14"/>
	</g>
	<g>
		<path class="st0" d="M396.41,809.62c-0.63,0-1.12,0.18-1.47,0.54c-0.34,0.36-0.58,0.8-0.7,1.31c-0.13,0.51-0.19,1.06-0.19,1.66
			c0,0.6,0,1.13,0,1.6v22.35c0,5.15-1.41,9.09-4.25,11.81c-2.83,2.72-6.8,4.09-11.91,4.09c-5.15,0-9.13-1.38-11.94-4.15
			c-2.81-2.77-4.21-6.72-4.21-11.88v-24.2c0-0.94-0.11-1.69-0.32-2.26c-0.21-0.58-0.87-0.86-1.98-0.86h-0.96v-0.64h11.88v0.64
			c-0.68,0-1.22,0.02-1.63,0.06c-0.41,0.04-0.72,0.17-0.96,0.38c-0.23,0.21-0.39,0.53-0.48,0.96c-0.09,0.43-0.13,1-0.13,1.72v24.33
			c0,3.91,0.9,7.01,2.71,9.29c1.81,2.28,4.76,3.42,8.84,3.42c3.74,0,6.65-1.06,8.71-3.19c2.06-2.13,3.1-5.05,3.1-8.75v-23.11
			c0-0.81,0-1.53,0-2.17c0-0.64-0.09-1.17-0.29-1.6c-0.19-0.42-0.52-0.75-0.99-0.99c-0.47-0.24-1.15-0.35-2.04-0.35v-0.64h10.15
			v0.64H396.41z"/>
		<path class="st0" d="M442.12,809.91c-0.47,0.19-0.8,0.48-0.99,0.86c-0.19,0.39-0.3,0.88-0.32,1.47c-0.02,0.6-0.03,1.3-0.03,2.11
			v38.18h-3.26l-25.6-36.65v31.09c0,0.81,0.01,1.5,0.03,2.08c0.02,0.58,0.13,1.05,0.32,1.44c0.19,0.38,0.52,0.66,0.99,0.83
			c0.47,0.17,1.13,0.25,1.98,0.25v0.64h-10.28v-0.64c0.89,0,1.57-0.09,2.04-0.25c0.47-0.17,0.81-0.44,1.02-0.8
			c0.21-0.36,0.33-0.83,0.35-1.4c0.02-0.58,0.03-1.29,0.03-2.14V812.3c-0.26-0.55-0.47-1.01-0.64-1.37
			c-0.17-0.36-0.36-0.64-0.57-0.83c-0.21-0.19-0.48-0.32-0.8-0.38c-0.32-0.06-0.8-0.1-1.44-0.1v-0.64h8.43
			c3.91,5.91,7.9,11.73,11.94,17.43c4.04,5.7,8.02,11.52,11.94,17.43v-29.5c0-0.85-0.01-1.57-0.03-2.17
			c-0.02-0.59-0.13-1.08-0.32-1.47c-0.19-0.38-0.53-0.66-1.02-0.83c-0.49-0.17-1.18-0.26-2.08-0.26v-0.64h10.34v0.64
			C443.27,809.62,442.59,809.72,442.12,809.91z"/>
		<path class="st0" d="M452.02,852.21v-0.64c0.72,0,1.31-0.02,1.76-0.06c0.45-0.04,0.8-0.16,1.06-0.35c0.25-0.19,0.42-0.5,0.51-0.92
			c0.09-0.43,0.13-1.02,0.13-1.79v-35.69c0-0.76-0.04-1.36-0.13-1.79c-0.09-0.42-0.25-0.73-0.51-0.92
			c-0.26-0.19-0.61-0.31-1.06-0.35c-0.44-0.04-1.03-0.06-1.76-0.06v-0.64h12.39v0.64c-0.72,0-1.31,0.02-1.75,0.06
			c-0.45,0.04-0.8,0.16-1.05,0.35c-0.26,0.19-0.43,0.5-0.51,0.92c-0.09,0.43-0.13,1.02-0.13,1.79v35.69c0,0.77,0.04,1.36,0.13,1.79
			c0.08,0.43,0.25,0.73,0.51,0.92c0.25,0.19,0.6,0.31,1.05,0.35c0.45,0.04,1.03,0.06,1.75,0.06v0.64H452.02z"/>
		<path class="st0" d="M509.96,810.39c-0.4,0.51-0.76,1.13-1.06,1.85l-15.64,40.42h-2.62l-16.47-40.29
			c-0.34-0.81-0.76-1.45-1.25-1.95c-0.49-0.49-1.18-0.75-2.07-0.8v-0.64h11.3v0.64c-0.43,0-0.83,0.01-1.21,0.03
			c-0.38,0.02-0.7,0.11-0.96,0.26c-0.26,0.15-0.42,0.37-0.48,0.67c-0.06,0.3,0.01,0.7,0.22,1.21l13.02,32.82l12.01-31.41
			c0.47-1.19,0.57-2.07,0.32-2.62c-0.26-0.55-1.06-0.87-2.43-0.96v-0.64h9.2v0.64C510.99,809.62,510.36,809.88,509.96,810.39z"/>
		<path class="st0" d="M542.43,852.21h-29.11v-0.64c1.32,0,2.15-0.18,2.49-0.54c0.34-0.36,0.51-1.22,0.51-2.59v-35.69
			c0-1.36-0.17-2.22-0.51-2.59c-0.34-0.36-1.17-0.54-2.49-0.54v-0.64h28.47l0.07,6.57h-0.89c-0.21-1.62-0.71-2.61-1.5-2.97
			c-0.79-0.36-1.93-0.54-3.42-0.54h-12.9c-0.72,0-1.14,0.07-1.25,0.22c-0.11,0.15-0.16,0.56-0.16,1.24v14.62h12.96
			c0.68,0,1.28-0.03,1.79-0.1c0.51-0.06,0.92-0.2,1.24-0.41c0.32-0.21,0.56-0.53,0.74-0.96c0.17-0.42,0.29-1,0.38-1.72h0.83v9.64
			h-0.83c-0.09-0.77-0.21-1.36-0.38-1.79c-0.17-0.43-0.42-0.75-0.74-0.99c-0.32-0.23-0.72-0.39-1.21-0.45
			c-0.49-0.06-1.1-0.09-1.82-0.09h-12.96v16.66c0,0.38,0.12,0.67,0.35,0.87c0.23,0.19,0.51,0.31,0.83,0.35
			c0.32,0.04,0.66,0.05,1.02,0.03c0.36-0.02,0.67-0.03,0.93-0.03h10.53c1.02,0,1.91-0.05,2.65-0.16c0.74-0.11,1.41-0.33,2.01-0.67
			c0.59-0.34,1.13-0.8,1.6-1.37c0.47-0.58,0.92-1.35,1.34-2.33h1.03L542.43,852.21z"/>
		<path class="st0" d="M576.59,852.21c-1.02-2.26-2.04-4.29-3.06-6.1c-1.02-1.81-2.13-3.5-3.32-5.08c-1.19-1.57-2.49-3.08-3.9-4.53
			c-1.4-1.45-3-2.96-4.79-4.53l-4.6,0.06v16.41c0,0.73,0.04,1.3,0.13,1.73c0.09,0.43,0.23,0.74,0.45,0.96
			c0.21,0.21,0.53,0.34,0.96,0.39c0.42,0.04,0.98,0.06,1.66,0.06v0.64h-11.62v-0.64c0.64,0,1.16-0.03,1.56-0.09
			c0.41-0.07,0.71-0.2,0.93-0.42c0.21-0.21,0.35-0.52,0.41-0.93c0.06-0.41,0.1-0.97,0.1-1.69v-35.69c0-0.68-0.04-1.23-0.1-1.66
			c-0.07-0.43-0.2-0.75-0.41-0.96c-0.22-0.21-0.52-0.35-0.93-0.42c-0.4-0.06-0.92-0.1-1.56-0.1v-0.64h15.26c1.88,0,3.68,0.2,5.4,0.6
			c1.73,0.41,3.25,1.05,4.56,1.95c1.32,0.89,2.37,2.06,3.16,3.51c0.79,1.45,1.18,3.23,1.18,5.36c0,1.62-0.3,3.03-0.89,4.25
			c-0.6,1.21-1.4,2.24-2.43,3.07c-1.02,0.83-2.19,1.5-3.51,2.01c-1.32,0.51-2.7,0.87-4.15,1.08c1.24,1.02,2.23,1.9,3.01,2.62
			c0.76,0.73,1.43,1.42,2.01,2.08c0.58,0.66,1.14,1.34,1.69,2.04c0.55,0.7,1.21,1.52,1.98,2.46c0.85,1.06,1.66,2.26,2.42,3.61
			c0.77,1.34,1.48,2.6,2.14,3.77c0.66,1.17,1.26,2.16,1.82,2.97c0.55,0.81,1.09,1.21,1.59,1.21v0.64H576.59z M556.92,828.97h3.07
			c1.53,0,3.03-0.14,4.5-0.41c1.47-0.28,2.8-0.77,3.99-1.47c1.19-0.7,2.15-1.65,2.87-2.84c0.72-1.19,1.08-2.68,1.08-4.47
			c0-1.57-0.3-2.87-0.89-3.89c-0.6-1.02-1.4-1.82-2.4-2.4c-1-0.58-2.14-0.97-3.42-1.18c-1.28-0.21-2.57-0.32-3.89-0.32
			c-0.39,0-0.81,0-1.28,0c-0.43,0-0.87,0.02-1.34,0.06c-0.47,0.04-0.91,0.15-1.31,0.32c-0.41,0.17-0.73,0.41-0.99,0.7V828.97z"/>
		<path class="st0" d="M591.46,851.35c-0.21,0.19-0.32,0.46-0.32,0.8h-0.77l-0.32-9.32l0.13-0.19h0.57c0.77,1.83,1.8,3.3,3.1,4.4
			c1.3,1.11,2.67,1.91,4.12,2.4c1.45,0.49,2.92,0.69,4.41,0.61c1.49-0.09,2.84-0.45,4.05-1.09c1.21-0.64,2.19-1.52,2.94-2.65
			c0.75-1.13,1.12-2.46,1.12-3.99c0-1.83-0.5-3.36-1.5-4.6c-1-1.23-2.24-2.35-3.73-3.35c-1.49-1-3.12-1.96-4.89-2.88
			c-1.77-0.91-3.39-1.93-4.88-3.06c-1.49-1.13-2.74-2.45-3.74-3.96c-1-1.51-1.5-3.39-1.5-5.65c0-1.66,0.36-3.14,1.06-4.44
			c0.7-1.3,1.62-2.42,2.78-3.35c1.15-0.93,2.46-1.65,3.93-2.14c1.47-0.49,2.97-0.74,4.5-0.74c0.89,0,1.78,0.08,2.65,0.23
			c0.87,0.15,1.73,0.35,2.58,0.61c0.08,0.04,0.32,0.11,0.7,0.22c0.38,0.11,0.8,0.22,1.25,0.35c0.44,0.13,0.86,0.24,1.25,0.35
			c0.38,0.11,0.59,0.16,0.63,0.16c0.72-0.08,1.13-0.49,1.21-1.21h0.7c0.17,1.58,0.33,3.19,0.48,4.85c0.15,1.66,0.18,3.28,0.09,4.85
			h-0.7c-0.56-1.61-1.38-2.96-2.49-4.02c-1.11-1.07-2.34-1.88-3.68-2.43c-1.34-0.55-2.74-0.83-4.18-0.83c-1.4,0-2.69,0.25-3.86,0.76
			c-1.17,0.51-2.13,1.28-2.87,2.3c-0.74,1.02-1.12,2.28-1.12,3.77c0,1.15,0.31,2.16,0.93,3.03c0.62,0.87,1.35,1.67,2.2,2.4
			c1.11,0.89,2.27,1.72,3.51,2.49c1.23,0.77,2.49,1.49,3.77,2.17l-0.45-0.19c1.4,0.72,2.76,1.51,4.06,2.36
			c1.3,0.85,2.46,1.81,3.48,2.87c1.03,1.06,1.83,2.27,2.43,3.61c0.6,1.34,0.9,2.89,0.9,4.63c0,1.83-0.41,3.46-1.22,4.88
			c-0.81,1.43-1.86,2.63-3.16,3.61c-1.3,0.98-2.76,1.72-4.37,2.23c-1.62,0.51-3.26,0.76-4.92,0.76c-1.79,0-3.49-0.21-5.11-0.64
			c-1.62-0.43-3.28-0.87-4.98-1.34C591.93,851.04,591.68,851.16,591.46,851.35z"/>
		<path class="st0" d="M621.98,852.21v-0.64c0.72,0,1.31-0.02,1.76-0.06c0.45-0.04,0.8-0.16,1.05-0.35c0.25-0.19,0.42-0.5,0.51-0.92
			c0.08-0.43,0.13-1.02,0.13-1.79v-35.69c0-0.76-0.04-1.36-0.13-1.79c-0.09-0.42-0.26-0.73-0.51-0.92
			c-0.26-0.19-0.61-0.31-1.05-0.35c-0.44-0.04-1.03-0.06-1.76-0.06v-0.64h12.39v0.64c-0.72,0-1.3,0.02-1.76,0.06
			c-0.45,0.04-0.8,0.16-1.05,0.35c-0.26,0.19-0.43,0.5-0.51,0.92c-0.08,0.43-0.13,1.02-0.13,1.79v35.69c0,0.77,0.04,1.36,0.13,1.79
			c0.08,0.43,0.25,0.73,0.51,0.92c0.25,0.19,0.6,0.31,1.05,0.35c0.45,0.04,1.03,0.06,1.76,0.06v0.64H621.98z"/>
		<path class="st0" d="M642.35,851.57c0.64,0,1.17-0.02,1.6-0.06c0.42-0.04,0.74-0.17,0.96-0.39c0.21-0.21,0.36-0.53,0.45-0.96
			c0.09-0.43,0.13-1,0.13-1.73v-35.69c0-0.72-0.04-1.3-0.13-1.72c-0.09-0.42-0.24-0.74-0.45-0.96c-0.21-0.21-0.53-0.34-0.96-0.38
			c-0.43-0.04-0.96-0.06-1.6-0.06v-0.64h14.81c3.53,0,6.76,0.44,9.67,1.31c2.92,0.87,5.42,2.2,7.5,3.99
			c2.08,1.79,3.7,4.04,4.85,6.77c1.15,2.73,1.73,5.94,1.73,9.64c0,3.11-0.49,6.01-1.47,8.72c-0.98,2.7-2.68,5.1-5.11,7.18
			c-2.47,2.13-5.23,3.6-8.3,4.4c-3.07,0.81-6.19,1.21-9.39,1.21h-14.3V851.57z M650.9,847.61c0,0.38,0.15,0.68,0.45,0.89
			c0.3,0.21,0.66,0.38,1.08,0.48c0.43,0.11,0.85,0.17,1.28,0.19c0.43,0.02,0.74,0.03,0.96,0.03c3.11,0,5.94-0.35,8.49-1.05
			c2.55-0.7,4.73-1.81,6.51-3.32c1.79-1.51,3.17-3.45,4.15-5.81c0.98-2.36,1.47-5.2,1.47-8.52c0-3.15-0.47-5.88-1.41-8.21
			c-0.94-2.32-2.27-4.24-3.99-5.78c-1.73-1.53-3.81-2.67-6.26-3.41c-2.45-0.75-5.18-1.12-8.21-1.12c-0.76,0-1.56,0.06-2.36,0.19
			c-0.81,0.13-1.53,0.45-2.17,0.96V847.61z"/>
		<path class="st0" d="M712.33,852.21v-0.64c0.98,0,1.7-0.18,2.17-0.54c0.47-0.36,0.47-1.07,0-2.14l-3.96-9.71h-19.22l-3.58,8.94
			c-0.47,1.1-0.6,1.96-0.42,2.55c0.19,0.59,0.97,0.89,2.33,0.89v0.64h-8.94v-0.64c0.51-0.04,0.94-0.19,1.31-0.45
			c0.36-0.25,0.68-0.55,0.95-0.89c0.28-0.34,0.51-0.72,0.7-1.15c0.19-0.43,0.37-0.85,0.54-1.28l16.35-39.27h3.51l16.99,40.92
			c0.47,1.15,1.38,1.86,2.74,2.11v0.64H712.33z M701.03,815.24l-8.43,20.81h16.85L701.03,815.24z"/>
		<path class="st0" d="M727.78,851.57c0.64,0,1.17-0.02,1.6-0.06c0.43-0.04,0.75-0.17,0.96-0.39c0.21-0.21,0.36-0.53,0.44-0.96
			c0.09-0.43,0.13-1,0.13-1.73v-35.69c0-0.72-0.05-1.3-0.13-1.72c-0.08-0.42-0.23-0.74-0.44-0.96c-0.21-0.21-0.53-0.34-0.96-0.38
			c-0.43-0.04-0.96-0.06-1.6-0.06v-0.64h14.81c3.53,0,6.76,0.44,9.68,1.31c2.91,0.87,5.41,2.2,7.5,3.99
			c2.09,1.79,3.7,4.04,4.85,6.77c1.15,2.73,1.72,5.94,1.72,9.64c0,3.11-0.49,6.01-1.47,8.72c-0.98,2.7-2.68,5.1-5.11,7.18
			c-2.47,2.13-5.23,3.6-8.3,4.4c-3.07,0.81-6.19,1.21-9.39,1.21h-14.3V851.57z M736.33,847.61c0,0.38,0.15,0.68,0.45,0.89
			c0.3,0.21,0.66,0.38,1.09,0.48c0.42,0.11,0.85,0.17,1.28,0.19c0.43,0.02,0.75,0.03,0.96,0.03c3.1,0,5.94-0.35,8.49-1.05
			c2.55-0.7,4.72-1.81,6.51-3.32c1.79-1.51,3.17-3.45,4.15-5.81c0.98-2.36,1.47-5.2,1.47-8.52c0-3.15-0.47-5.88-1.4-8.21
			c-0.94-2.32-2.26-4.24-3.99-5.78c-1.72-1.53-3.81-2.67-6.26-3.41c-2.45-0.75-5.18-1.12-8.21-1.12c-0.76,0-1.55,0.06-2.36,0.19
			c-0.81,0.13-1.54,0.45-2.17,0.96V847.61z"/>
		<path class="st0" d="M786.98,851.38c0.64,0,1.17-0.02,1.6-0.06c0.42-0.04,0.74-0.17,0.96-0.38c0.21-0.21,0.36-0.53,0.45-0.96
			c0.08-0.43,0.13-1,0.13-1.72v-35.7c0-0.72-0.04-1.3-0.13-1.72c-0.09-0.42-0.23-0.74-0.45-0.96c-0.21-0.21-0.53-0.34-0.96-0.38
			c-0.43-0.04-0.96-0.07-1.6-0.07v-0.64h14.81c3.53,0,6.76,0.44,9.67,1.31c2.92,0.87,5.42,2.2,7.5,3.99
			c2.08,1.79,3.7,4.04,4.85,6.77c1.15,2.73,1.72,5.94,1.72,9.64c0,3.11-0.49,6.01-1.47,8.72c-0.98,2.7-2.68,5.1-5.11,7.19
			c-2.47,2.13-5.24,3.6-8.3,4.4c-3.07,0.81-6.19,1.21-9.39,1.21h-14.3V851.38z M795.53,847.42c0,0.38,0.15,0.68,0.45,0.89
			c0.3,0.21,0.66,0.38,1.08,0.48c0.43,0.11,0.85,0.17,1.28,0.19c0.43,0.02,0.74,0.04,0.96,0.04c3.1,0,5.94-0.35,8.49-1.05
			c2.55-0.7,4.73-1.81,6.51-3.32c1.79-1.51,3.17-3.45,4.15-5.81c0.98-2.36,1.47-5.21,1.47-8.53c0-3.15-0.47-5.88-1.41-8.2
			c-0.93-2.32-2.27-4.25-3.99-5.78c-1.73-1.53-3.81-2.67-6.26-3.41c-2.45-0.75-5.18-1.12-8.21-1.12c-0.76,0-1.56,0.06-2.36,0.19
			c-0.81,0.13-1.53,0.45-2.17,0.96V847.42z"/>
		<path class="st0" d="M860.02,852.02H830.9v-0.64c1.32,0,2.15-0.18,2.49-0.54c0.34-0.36,0.51-1.22,0.51-2.58v-35.7
			c0-1.36-0.17-2.22-0.51-2.59c-0.34-0.36-1.17-0.54-2.49-0.54v-0.64h28.48l0.06,6.58h-0.89c-0.22-1.62-0.72-2.61-1.5-2.97
			c-0.79-0.36-1.93-0.54-3.42-0.54h-12.9c-0.72,0-1.14,0.08-1.25,0.22c-0.11,0.15-0.16,0.57-0.16,1.25v14.62h12.96
			c0.68,0,1.28-0.03,1.79-0.1c0.51-0.06,0.92-0.2,1.25-0.41c0.32-0.21,0.56-0.53,0.73-0.96c0.17-0.43,0.3-1,0.38-1.73h0.83v9.64
			h-0.83c-0.09-0.76-0.22-1.36-0.38-1.79c-0.17-0.42-0.42-0.75-0.73-0.99c-0.32-0.23-0.72-0.38-1.21-0.45
			c-0.49-0.06-1.1-0.1-1.82-0.1h-12.96v16.67c0,0.38,0.11,0.67,0.35,0.86c0.23,0.19,0.51,0.31,0.83,0.35
			c0.32,0.04,0.66,0.05,1.02,0.03c0.36-0.02,0.67-0.03,0.92-0.03H853c1.02,0,1.9-0.05,2.65-0.16c0.75-0.1,1.42-0.33,2.01-0.67
			c0.6-0.34,1.13-0.8,1.6-1.38c0.47-0.57,0.92-1.35,1.34-2.33h1.02L860.02,852.02z"/>
		<path class="st0" d="M913.43,851.6c-2.45,0.79-5.01,1.18-7.69,1.18c-3.41,0-6.44-0.54-9.1-1.62c-2.66-1.09-4.93-2.61-6.8-4.57
			c-1.87-1.96-3.3-4.31-4.28-7.06c-0.98-2.74-1.47-5.78-1.47-9.1c0-3.19,0.51-6.16,1.53-8.91c1.02-2.75,2.48-5.13,4.38-7.15
			c1.89-2.02,4.17-3.6,6.83-4.73c2.66-1.13,5.63-1.69,8.91-1.69c2.26,0,4.51,0.26,6.76,0.77c0.26,0.08,0.59,0.18,0.99,0.29
			c0.4,0.1,0.82,0.22,1.25,0.35c0.43,0.13,0.83,0.23,1.21,0.32c0.38,0.09,0.7,0.13,0.96,0.13c0.81,0,1.32-0.38,1.53-1.15h0.7
			c0,0.68,0,1.47,0,2.36c0,0.85-0.01,1.72-0.03,2.62c-0.02,0.89-0.06,1.77-0.13,2.61c-0.06,0.86-0.18,1.6-0.35,2.24
			c-1.49-2.43-3.15-4.27-4.98-5.52c-1.83-1.26-4.21-1.89-7.15-1.89c-2.85,0-5.32,0.52-7.41,1.56c-2.09,1.05-3.8,2.44-5.14,4.19
			c-1.34,1.74-2.34,3.79-3,6.13c-0.66,2.34-0.99,4.81-0.99,7.41c0,2.68,0.34,5.2,1.02,7.53c0.68,2.34,1.71,4.38,3.1,6.1
			c1.38,1.73,3.13,3.09,5.23,4.09c2.11,1,4.61,1.5,7.5,1.5c1.02,0,2.13-0.02,3.32-0.06c1.19-0.04,2.37-0.16,3.54-0.35
			c1.17-0.19,2.29-0.49,3.35-0.9c1.06-0.4,2.02-0.97,2.88-1.69l0.25,1.09C918.12,849.51,915.88,850.82,913.43,851.6z"/>
		<path class="st0" d="M950.68,852.02v-0.64c0.68,0,1.24-0.03,1.66-0.09c0.43-0.06,0.74-0.2,0.96-0.42
			c0.21-0.21,0.36-0.52,0.45-0.92c0.09-0.4,0.13-0.97,0.13-1.69v-16.73H933v16.73c0,0.72,0.03,1.29,0.09,1.69
			c0.06,0.4,0.2,0.71,0.41,0.92c0.21,0.21,0.52,0.35,0.93,0.42c0.4,0.06,0.95,0.09,1.63,0.09v0.64h-11.68v-0.64
			c0.68,0,1.23-0.03,1.66-0.09c0.43-0.06,0.74-0.2,0.96-0.42c0.21-0.21,0.36-0.52,0.44-0.92c0.09-0.4,0.13-0.97,0.13-1.69v-35.7
			c0-0.72-0.04-1.29-0.13-1.69c-0.09-0.41-0.24-0.72-0.44-0.93c-0.22-0.21-0.53-0.35-0.96-0.41c-0.43-0.06-0.98-0.1-1.66-0.1v-0.64
			h11.68v0.64c-0.68,0-1.22,0.04-1.63,0.1c-0.4,0.06-0.72,0.2-0.93,0.41c-0.21,0.21-0.35,0.53-0.41,0.96
			c-0.06,0.43-0.09,0.98-0.09,1.66v15.71h20.88v-15.71c0-0.72-0.04-1.29-0.13-1.69c-0.09-0.41-0.23-0.72-0.45-0.93
			c-0.21-0.21-0.53-0.35-0.96-0.41c-0.43-0.06-0.98-0.1-1.66-0.1v-0.64h11.75v0.64c-0.68,0-1.23,0.04-1.63,0.1
			c-0.4,0.06-0.72,0.2-0.96,0.41c-0.24,0.21-0.38,0.53-0.44,0.96c-0.07,0.43-0.1,0.98-0.1,1.66v35.7c0,0.72,0.03,1.29,0.1,1.69
			c0.06,0.4,0.21,0.71,0.44,0.92c0.23,0.21,0.55,0.35,0.96,0.42c0.4,0.06,0.95,0.09,1.63,0.09v0.64H950.68z"/>
		<path class="st0" d="M970.41,852.02v-0.64c0.72,0,1.31-0.02,1.76-0.06c0.44-0.04,0.79-0.16,1.05-0.35
			c0.25-0.19,0.42-0.5,0.51-0.93c0.08-0.42,0.13-1.02,0.13-1.78v-35.7c0-0.77-0.04-1.36-0.13-1.79c-0.09-0.42-0.26-0.73-0.51-0.92
			c-0.26-0.19-0.61-0.31-1.05-0.35c-0.45-0.04-1.04-0.07-1.76-0.07v-0.64h12.39v0.64c-0.72,0-1.31,0.02-1.76,0.07
			c-0.45,0.04-0.8,0.16-1.05,0.35c-0.26,0.19-0.43,0.5-0.51,0.92c-0.08,0.43-0.13,1.02-0.13,1.79v35.7c0,0.76,0.04,1.36,0.13,1.78
			c0.08,0.43,0.26,0.74,0.51,0.93c0.25,0.19,0.6,0.31,1.05,0.35c0.45,0.04,1.03,0.06,1.76,0.06v0.64H970.41z"/>
		<path class="st0" d="M1019.58,852.02h-28.8v-0.64c0.68,0,1.23-0.03,1.63-0.09c0.4-0.06,0.71-0.2,0.93-0.42
			c0.21-0.21,0.35-0.52,0.42-0.92c0.06-0.4,0.09-0.97,0.09-1.69v-35.7c0-0.68-0.03-1.23-0.09-1.66c-0.07-0.43-0.2-0.75-0.42-0.96
			c-0.21-0.21-0.52-0.35-0.93-0.41c-0.4-0.06-0.95-0.1-1.63-0.1v-0.64h11.75v0.64c-0.68,0-1.24,0.04-1.66,0.1
			c-0.43,0.06-0.76,0.2-0.99,0.41c-0.23,0.21-0.39,0.52-0.48,0.93c-0.09,0.4-0.13,0.97-0.13,1.69v35.18c0,0.38,0.12,0.67,0.35,0.86
			c0.24,0.19,0.51,0.31,0.83,0.35c0.32,0.04,0.66,0.05,1.02,0.03c0.36-0.02,0.67-0.03,0.92-0.03h9.32c1.15,0,2.17-0.04,3.07-0.13
			c0.89-0.08,1.68-0.28,2.36-0.6c0.68-0.32,1.29-0.81,1.82-1.47c0.53-0.66,1.05-1.54,1.56-2.65l0.83,0.2L1019.58,852.02z"/>
		<path class="st0" d="M1053.61,852.02h-29.12v-0.64c1.32,0,2.15-0.18,2.49-0.54c0.34-0.36,0.51-1.22,0.51-2.58v-35.7
			c0-1.36-0.17-2.22-0.51-2.59c-0.34-0.36-1.17-0.54-2.49-0.54v-0.64h28.48l0.06,6.58h-0.89c-0.22-1.62-0.72-2.61-1.5-2.97
			c-0.79-0.36-1.93-0.54-3.42-0.54h-12.9c-0.72,0-1.14,0.08-1.24,0.22c-0.11,0.15-0.16,0.57-0.16,1.25v14.62h12.96
			c0.68,0,1.28-0.03,1.79-0.1c0.51-0.06,0.92-0.2,1.25-0.41c0.32-0.21,0.56-0.53,0.74-0.96c0.17-0.43,0.3-1,0.38-1.73h0.83v9.64
			h-0.83c-0.09-0.76-0.21-1.36-0.38-1.79c-0.17-0.42-0.41-0.75-0.74-0.99c-0.32-0.23-0.72-0.38-1.21-0.45
			c-0.49-0.06-1.09-0.1-1.82-0.1h-12.96v16.67c0,0.38,0.11,0.67,0.35,0.86c0.23,0.19,0.51,0.31,0.83,0.35
			c0.32,0.04,0.66,0.05,1.02,0.03c0.36-0.02,0.67-0.03,0.92-0.03h10.54c1.02,0,1.9-0.05,2.65-0.16c0.74-0.1,1.41-0.33,2.01-0.67
			c0.6-0.34,1.13-0.8,1.6-1.38c0.47-0.57,0.92-1.35,1.34-2.33h1.02L1053.61,852.02z"/>
	</g>
</g>
</svg>
