<?xml version="1.0" encoding="utf-8"?>
<!-- Generator: Adobe Illustrator 28.0.0, SVG Export Plug-In . SVG Version: 6.00 Build 0)  -->
<svg version="1.1" id="Capa_1" xmlns="http://www.w3.org/2000/svg" xmlns:xlink="http://www.w3.org/1999/xlink" x="0px" y="0px"
	 viewBox="0 0 100 100" style="enable-background:new 0 0 100 100;" xml:space="preserve">
<style type="text/css">
	.st0{fill:#FFFFFF;}
</style>
<g id="_x34_ybt6p.tif">
	<g>
		<path class="st0" d="M97.02,90.85C96.59,93.9,93.7,96.68,90.8,97c-1.59,0.12-3.33,0.13-5.01-0.63c-0.89-0.46-1.65-1.15-2.38-1.83
			c-1.49-1.37-2.88-2.86-4.31-4.29c-3.16-3.16-6.32-6.32-9.48-9.48c-1.55-1.55-3.09-3.1-4.64-4.65c-0.84-0.85-0.9-1.28-1.94-0.7
			c-0.71,0.4-1.4,0.84-2.12,1.23c-3.4,1.85-7.04,3.2-10.83,3.99c-7.94,1.66-15.93,0.79-23.39-2.37
			c-6.79-2.88-12.83-7.79-16.98-13.89c-2.06-3.02-3.76-6.27-4.86-9.77c-0.61-1.93-1.16-3.84-1.48-5.84
			c-0.16-0.99-0.26-1.98-0.34-2.98c-0.22-2.82-0.11-7.34,0.15-9.11c0.17-1.17,0.33-2.34,0.6-3.49c0.52-2.27,1.27-4.48,2.19-6.61
			c1.94-4.51,4.85-8.77,8.32-12.25c3.56-3.58,7.86-6.42,12.49-8.42c2.13-0.92,4.33-1.61,6.59-2.13c5.64-1.17,11.88-0.93,16.43-0.23
			c2.2,0.41,4.34,1.07,6.43,1.88c4.01,1.54,7.78,3.73,11.07,6.49c11.95,10.06,17.05,26.63,12.45,41.62
			c-0.59,1.93-1.34,3.82-2.21,5.63c-0.36,0.74-0.74,1.47-1.15,2.18c-0.25,0.44-1.44,1.92-1.38,2.45c0.08,0.64,1.51,1.61,1.98,2.09
			c0.75,0.76,1.52,1.52,2.28,2.27c1.36,1.35,2.72,2.7,4.07,4.05c2.74,2.75,5.46,5.52,8.22,8.25c1.36,1.35,2.89,2.64,4.03,4.19
			c0.38,0.52,0.71,1.07,0.96,1.66C97.17,87.64,97.26,89.07,97.02,90.85z M69.72,42.04c-0.17-15.08-12.14-27.27-27.25-27.45
			C26.94,14.4,14.32,26.98,14.59,42.64c0.25,14.74,12.19,27.17,27.78,27.04C57.44,69.55,69.56,57.55,69.72,42.04z"/>
	</g>
</g>
</svg>
