<?xml version="1.0" encoding="utf-8"?>
<!-- Generator: Adobe Illustrator 28.0.0, SVG Export Plug-In . SVG Version: 6.00 Build 0)  -->
<svg version="1.1" id="Capa_1" xmlns="http://www.w3.org/2000/svg" xmlns:xlink="http://www.w3.org/1999/xlink" x="0px" y="0px"
	 viewBox="0 0 100 100" style="enable-background:new 0 0 100 100;" xml:space="preserve">
<style type="text/css">
	.st0{fill:#494949;}
</style>
<g id="_x34_ybt6p.tif">
	<g>
		<path class="st0" d="M97,90.8c-0.4,3.1-3.3,5.8-6.2,6.2c-1.6,0.1-3.3,0.1-5-0.6c-0.9-0.5-1.7-1.2-2.4-1.8
			c-1.5-1.4-2.9-2.9-4.3-4.3c-3.2-3.2-6.3-6.3-9.5-9.5c-1.6-1.6-3.1-3.1-4.6-4.7c-0.8-0.8-0.9-1.3-1.9-0.7c-0.7,0.4-1.4,0.8-2.1,1.2
			c-3.4,1.8-7,3.2-10.8,4c-7.9,1.7-15.9,0.8-23.4-2.4c-6.8-2.9-12.8-7.8-17-13.9c-2.1-3-3.8-6.3-4.9-9.8c-0.6-1.9-1.2-3.8-1.5-5.8
			c-0.2-1-0.3-2-0.3-3c-0.2-2.8-0.1-7.3,0.2-9.1c0.2-1.2,0.3-2.3,0.6-3.5c0.5-2.3,1.3-4.5,2.2-6.6c1.9-4.5,4.9-8.8,8.3-12.2
			c3.6-3.6,7.9-6.4,12.5-8.4c2.1-0.9,4.3-1.6,6.6-2.1C39,2.6,45.3,2.9,49.8,3.6C52,4,54.2,4.6,56.2,5.4c4,1.5,7.8,3.7,11.1,6.5
			C79.3,22,84.4,38.6,79.8,53.5c-0.6,1.9-1.3,3.8-2.2,5.6c-0.4,0.7-0.7,1.5-1.2,2.2c-0.2,0.4-1.4,1.9-1.4,2.5c0.1,0.6,1.5,1.6,2,2.1
			c0.8,0.8,1.5,1.5,2.3,2.3c1.4,1.3,2.7,2.7,4.1,4.1c2.7,2.8,5.5,5.5,8.2,8.2c1.4,1.3,2.9,2.6,4,4.2c0.4,0.5,0.7,1.1,1,1.7
			C97.2,87.6,97.3,89.1,97,90.8z M69.7,42C69.6,27,57.6,14.8,42.5,14.6c-15.5-0.2-28.2,12.4-27.9,28c0.2,14.7,12.2,27.2,27.8,27
			C57.4,69.6,69.6,57.5,69.7,42z"/>
	</g>
</g>
</svg>
