<?xml version="1.0" encoding="utf-8"?>
<!-- Generator: Adobe Illustrator 28.0.0, SVG Export Plug-In . SVG Version: 6.00 Build 0)  -->
<svg version="1.1" id="Capa_1" xmlns="http://www.w3.org/2000/svg" xmlns:xlink="http://www.w3.org/1999/xlink" x="0px" y="0px"
	 viewBox="0 0 100 100" style="enable-background:new 0 0 100 100;" xml:space="preserve">
<style type="text/css">
	.st0{fill:#FFFFFF;}
</style>
<g id="k926i3.tif">
	<g>
		<path class="st0" d="M6.43,84.21c-0.1-0.32-0.42-0.3-0.64-0.37C3.5,83.2,1.86,81.02,1.72,78.7c-0.18-2.78,1-4.73,3.39-6
			c0.93-0.49,1.96-0.56,3-0.56c8.81,0,17.62,0,26.42,0c18.99,0,37.98,0,56.97-0.01c1.98,0,3.73,0.47,5.16,1.92
			c0.74,0.76,1.17,1.67,1.38,2.69c0.05,0.22,0.05,0.44,0.28,0.57c0,0.48,0,0.97,0,1.45c-0.14,0.09-0.14,0.23-0.16,0.37
			c-0.43,2.51-1.84,4.15-4.33,4.8c-0.17,0.05-0.3,0.11-0.35,0.28C64.46,84.21,35.44,84.21,6.43,84.21z"/>
		<path class="st0" d="M98.32,22.3c-0.26,0.44-0.27,0.96-0.39,1.44c-0.54,2.16-2.89,3.86-4.94,4c-1.19,0.08-2.38,0.09-3.57,0.09
			c-27.09,0.01-54.18,0-81.27,0.01c-2.03,0-3.75-0.64-5.11-2.16c-0.73-0.82-1.14-1.81-1.29-2.87c-0.19-1.38-0.06-2.73,0.66-3.97
			c0.97-1.67,2.39-2.66,4.32-2.94c1.25-0.18,2.5-0.11,3.75-0.11c27.01,0,54.02-0.01,81.03,0c1.08,0,2.16,0.1,3.19,0.54
			c1.84,0.79,2.97,2.14,3.35,4.1c0.04,0.2,0.09,0.39,0.27,0.52C98.32,21.41,98.32,21.86,98.32,22.3z"/>
		<path class="st0" d="M98.32,50.53c-0.32,0.78-0.39,1.63-0.79,2.39c-0.85,1.61-2.19,2.51-3.93,2.91c-0.62,0.14-1.24,0.12-1.86,0.12
			c-28.06,0-56.12-0.01-84.18,0.01c-2.92,0-5.72-2.43-5.84-5.45c-0.05-1.31,0.08-2.54,0.79-3.64c1.1-1.72,2.64-2.84,4.75-2.84
			c21.25-0.02,42.5-0.01,63.76-0.01c7.15,0,14.3,0.01,21.45-0.01c2.45-0.01,5.22,1.92,5.59,4.65c0.03,0.2,0.1,0.39,0.26,0.53
			C98.32,49.64,98.32,50.09,98.32,50.53z"/>
	</g>
</g>
</svg>
