<svg width="37" height="37" viewBox="0 0 37 37" fill="none" xmlns="http://www.w3.org/2000/svg">
<path d="M33.819 1.06596C36.4515 1.53307 36.0657 4.57947 35.9642 6.55624C35.565 13.9624 32.6212 20.0145 26.8827 24.6992C26.7609 25.7892 26.6729 26.8859 26.5782 27.9758C26.4496 29.4922 26.6864 30.6905 25.3601 31.7533C23.5871 32.7756 21.8547 34.2785 20.0749 35.2533C19.0192 35.8355 17.6523 35.6121 17.3816 34.6169C17.1109 33.6218 16.8334 31.4216 16.556 29.8375C16.4612 29.6886 15.9537 29.8578 15.7439 29.8375C14.9928 29.7969 14.3973 29.4448 13.8491 28.9574C11.7242 27.089 9.74822 24.7195 7.7113 22.736C7.41354 22.3366 7.20376 21.7205 7.197 21.2196C7.19023 20.7186 7.36617 20.5764 7.20376 20.4749C5.93153 20.2447 4.59164 20.1432 3.32618 19.8927C2.30433 19.6964 1.55994 19.1006 1.45844 18.3492C1.35693 17.5977 1.68852 17.1306 1.8374 16.8666C2.83894 15.1065 4.26004 13.4276 5.28189 11.6674C6.34433 10.3405 7.54212 10.5775 9.05797 10.4489C10.1272 10.3609 11.2032 10.2593 12.2859 10.1645C14.7289 7.1926 17.7335 4.81641 21.1171 3.23905C26.1045 1.03888 32.3438 0.856095 33.819 1.06596ZM30.6114 3.02242C23.7833 3.33383 18.2816 6.12975 13.9439 11.3492C12.7596 12.7777 11.731 14.355 10.9054 16.0136L10.9663 16.149L20.9479 26.1073L21.1509 26.0667C27.1263 22.8917 31.8498 17.6316 33.3656 10.916C33.8123 8.9392 34.2318 5.78449 34.0017 3.79418C33.9273 3.15782 33.616 3.0495 33.034 3.00888C32.3032 2.95472 31.3626 2.99534 30.6182 3.02919L30.6114 3.02242ZM10.7024 12.3309C10.2693 12.3715 7.16993 12.4256 6.8654 12.9131L3.6104 17.8685L7.79251 18.471C8.40155 16.2776 9.45723 14.2196 10.7024 12.3309ZM10.0595 18.0716C9.96477 18.0716 9.68731 19.1074 9.63994 19.2699C9.51137 19.737 9.24068 20.6374 9.22038 21.0842C9.20008 21.531 9.26098 21.4497 9.38279 21.5851L15.5003 27.6915C15.6357 27.7659 15.771 27.7998 15.9266 27.793C16.38 27.7727 17.2665 27.5019 17.7402 27.3733C18.2139 27.2447 18.4982 27.1363 18.8771 27.0213L10.0595 18.0716ZM19.1478 33.4119C20.8667 32.2678 22.6397 31.1711 24.3112 29.9661C24.5074 29.6276 24.636 27.1634 24.6834 26.3172C22.7953 27.5696 20.7381 28.6189 18.5455 29.2282L19.1478 33.4119Z" fill="#494949" stroke="#494949" stroke-miterlimit="10"/>
<path d="M21.5301 8.29607C24.3114 5.5137 29.1838 6.84734 30.0635 10.6926C30.9432 14.5378 26.4295 18.4778 22.5181 16.2167C19.7233 14.5987 19.2496 10.5707 21.5301 8.29607ZM24.8731 8.83765C22.9241 9.01367 21.5978 11.0311 22.2677 12.8927C23.276 15.6954 27.316 15.533 28.0807 12.6558C28.6221 10.6249 26.9506 8.6481 24.8731 8.83765Z" fill="#494949" stroke="#494949" stroke-miterlimit="10"/>
<path d="M6.54062 25.882C6.93439 25.488 6.93439 24.8494 6.54062 24.4554C6.14685 24.0615 5.50842 24.0615 5.11465 24.4554L1.76029 27.8111C1.36652 28.205 1.36652 28.8437 1.76029 29.2376C2.15406 29.6315 2.79249 29.6315 3.18626 29.2376L6.54062 25.882Z" fill="#494949" stroke="#494949" stroke-miterlimit="10"/>
<path d="M12.5855 31.9308C12.9793 31.5369 12.9793 30.8982 12.5855 30.5043C12.1918 30.1104 11.5533 30.1104 11.1596 30.5043L7.80522 33.8599C7.41145 34.2538 7.41145 34.8925 7.80522 35.2864C8.19899 35.6804 8.83741 35.6804 9.23118 35.2864L12.5855 31.9308Z" fill="#494949" stroke="#494949" stroke-miterlimit="10"/>
<path d="M9.49804 27.4944L9.48847 27.4848C9.09734 27.0936 8.4632 27.0936 8.07208 27.4848L1.73181 33.8275C1.34068 34.2188 1.34068 34.8532 1.73181 35.2445L1.74138 35.2541C2.1325 35.6453 2.76664 35.6453 3.15777 35.2541L9.49804 28.9113C9.88917 28.5201 9.88917 27.8857 9.49804 27.4944Z" fill="#494949" stroke="#494949" stroke-miterlimit="10"/>
</svg>
