<svg width="33" height="37" viewBox="0 0 33 37" fill="none" xmlns="http://www.w3.org/2000/svg">
<path d="M18.4617 0.571536C20.9486 0.335169 26.0502 0.285332 28.2427 1.35112C33.6642 3.98747 32.5876 9.57129 32.6159 14.5158C32.6232 15.8571 31.1911 16.7876 29.9568 16.2059C29.4247 15.9553 29.0045 15.4577 28.9209 14.7322C28.5356 11.3775 30.3712 5.5623 25.7776 4.33846C24.5745 4.01808 20.4804 4.05653 19.1174 4.17542C18.3825 4.2395 17.6955 4.45949 17.0631 4.78556C16.3732 5.14154 15.7633 5.63065 15.2472 6.20305C12.085 9.71012 8.24745 12.894 5.16304 16.4024C4.15986 17.543 3.75205 18.6942 4.31543 19.943C4.4928 20.3367 4.75595 20.6884 5.06781 20.9909L12.2776 27.9958C12.9151 28.6152 13.842 28.8751 14.7085 28.6444C14.7158 28.6423 14.723 28.6401 14.7303 28.6387C15.8694 28.3276 16.7388 26.6766 17.758 26.5406C19.3907 26.3227 20.604 27.8342 19.7702 29.2752C19.5855 29.5934 18.7038 30.4193 18.3854 30.6898C15.6928 32.9745 12.3663 33.0272 9.65481 30.734C7.4529 28.8715 4.14387 25.63 2.23565 23.4764C-0.224315 20.6998 -0.376972 17.0923 2.09317 14.2573C5.30843 10.5673 9.30442 7.19409 12.6861 3.56671C13.7148 2.46318 14.9782 1.58393 16.4066 1.05709C17.0827 0.807903 17.7791 0.637035 18.4617 0.572248V0.571536Z" fill="#494949"/>
<path d="M28.3366 19.4616H30.2361C30.3066 19.4616 30.6679 19.4616 31.1011 19.5513C32.3507 19.8126 33.0174 21.1988 32.3696 22.2781C32.113 22.7053 31.6863 23.0264 31.1193 23.0947C29.5855 23.2784 27.5682 22.869 26.0671 23.1154C24.8836 23.3097 24.8793 24.7856 26.0671 24.9807C27.228 25.1708 28.3199 24.7991 29.5339 25.2163C34.2917 26.8502 33.3423 33.7796 28.3359 34.0801C28.6761 37.3273 24.2657 37.4348 24.5318 34.1762H23.9001C23.8572 34.1762 22.8853 34.137 22.5421 33.9747C21.8755 33.66 21.3754 32.9566 21.4067 32.2219C21.5273 29.3656 26.4524 30.8272 28.2675 30.4292C28.9181 30.2868 29.1115 29.3926 28.6732 28.9263C28.1934 28.4158 26.4916 28.697 25.753 28.633C20.7212 28.1944 19.8372 21.4494 24.5158 19.7336C24.4889 18.6685 24.5478 17.6554 25.6643 17.1798C27.2462 16.5056 28.5358 17.9402 28.3366 19.4624V19.4616Z" fill="#494949"/>
<path d="M23.335 6.68138C27.0242 6.06911 27.4437 11.2179 24.1783 11.5219C20.9623 11.8209 20.5065 7.15127 23.335 6.68138Z" fill="#494949"/>
</svg>
