<?xml version="1.0" encoding="utf-8"?>
<!-- Generator: Adobe Illustrator 28.0.0, SVG Export Plug-In . SVG Version: 6.00 Build 0)  -->
<svg version="1.1" id="Layer_1" xmlns="http://www.w3.org/2000/svg" xmlns:xlink="http://www.w3.org/1999/xlink" x="0px" y="0px"
	 viewBox="0 0 100 100" style="enable-background:new 0 0 100 100;" xml:space="preserve">
<style type="text/css">
	.st0{fill:#FFFFFF;stroke:#FFFFFF;stroke-width:3;stroke-miterlimit:10;}
</style>
<g id="Jjrzgp.tif">
	<g>
		<path class="st0" d="M13.71,91.18c-1.72-0.73-2.18-2.06-2.13-3.86c0.35-12.87,9.65-24.65,22.15-27.97
			c0.28-0.07,0.55-0.16,0.93-0.26c-8.42-6.25-12.7-14.49-11.98-24.97c0.52-7.52,3.79-13.8,9.53-18.72
			c11.28-9.67,28.3-8.56,38.19,2.54c5.49,6.16,7.8,13.43,6.81,21.63c-0.99,8.21-5.07,14.61-11.83,19.46
			c1.32,0.45,2.58,0.78,3.76,1.29c11.05,4.67,17.43,12.94,19.07,24.83c0.11,0.76,0.09,1.54,0.18,2.3c0.22,1.79-0.44,3.05-2.14,3.73
			C62.07,91.18,37.89,91.18,13.71,91.18z M28.05,35.65C27.57,47.28,37.1,57.68,48.7,58.19c12.44,0.55,22.76-8.77,23.25-20.99
			c0.48-12.04-8.91-22.33-20.83-22.82C38.65,13.88,28.57,23.18,28.05,35.65z M49.97,85.65c10.19,0,20.38,0,30.57,0
			c2.32,0,2.32,0,1.86-2.33c-2.15-10.8-11.85-19.19-22.87-19.52c-6.36-0.19-12.73-0.04-19.09-0.03c-1.13,0-2.24,0.19-3.34,0.4
			c-10.03,1.86-18.17,10.22-19.7,20.22c-0.19,1.26-0.19,1.26,1.05,1.26C28.95,85.65,39.46,85.65,49.97,85.65z"/>
	</g>
</g>
</svg>
