<?xml version="1.0" encoding="utf-8"?>
<!-- Generator: Adobe Illustrator 28.0.0, SVG Export Plug-In . SVG Version: 6.00 Build 0)  -->
<svg version="1.1" id="Layer_1" xmlns="http://www.w3.org/2000/svg" xmlns:xlink="http://www.w3.org/1999/xlink" x="0px" y="0px"
	 viewBox="0 0 100 100" style="enable-background:new 0 0 100 100;" xml:space="preserve">
<style type="text/css">
	.st0{fill:#1C4D94;}
</style>
<g id="w7IKaB.tif">
	<g>
		<path class="st0" d="M98.2,86.7c-0.5,2-1.9,3-4.1,3c-5.5,0-11,0-16.5,0c-0.4,0-0.8,0-1.3,0c0,0.5,0,0.8-0.1,1.2
			c-0.1,2.8-2,4.8-4.7,5c-0.4,0-0.8,0-1.1,0c-13.6,0-27.1,0-40.7,0c-0.7,0-1.5,0-2.2-0.2c-1.9-0.5-3.1-1.7-3.6-3.6
			c-0.1-0.4-0.2-0.7-0.3-1.2c-0.4,0-0.7,0-1.1,0c-5.4,0-10.8,0-16.2,0c-0.6,0-1.3,0-1.9-0.2c-1.6-0.6-2.7-1.8-2.7-3.5
			c-0.1-2.9-0.2-5.9,0.3-8.8c1.3-7.2,7.1-13.2,14.2-14.9c5-1.1,9.7-0.5,14.1,2c0.1,0.1,0.3,0.2,0.4,0.2c0.1,0,0.1,0,0.3,0.1
			c5-5,11.2-7.8,18.4-7.9c7.2-0.1,13.4,2.4,18.7,7.3c0.3-0.2,0.7-0.4,1-0.6c10.9-6.6,25.1-1.1,28.4,11.2c0.2,0.9,0.5,1.8,0.5,2.7
			C98.4,81.9,98.3,86.1,98.2,86.7z M50,93c6.9,0,13.9,0,20.8,0c1.7,0,2.5-1.1,2.4-2.4c0-0.9,0-1.9,0-2.8c0-2.2,0.1-4.5-0.2-6.7
			c-0.6-5.3-2.9-9.9-6.8-13.6c-6.7-6.2-14.7-8.1-23.4-5.3c-8,2.6-13.1,8.2-15.3,16.4c-0.6,2.2-0.7,4.5-0.7,6.7c0,1.8,0,3.5,0,5.3
			c0,1.4,0.8,2.6,2.4,2.4c0.3,0,0.5,0,0.8,0C36.6,93,43.3,93,50,93z M76.2,86.7c0.5,0,0.8,0.1,1.1,0.1c2.2,0,4.5,0,6.7,0
			c3.3,0,6.6,0,9.9,0c1.1,0,1.4-0.3,1.4-1.4c0-0.9,0-1.8,0-2.6c-0.1-1.6,0-3.3-0.3-4.9c-1.9-10.6-14.1-16.5-24-10.8
			c-0.2,0.1-0.4,0.3-0.6,0.5C74.9,73.1,76.6,79.5,76.2,86.7z M23.8,87.9c0-1.4,0-2.6,0-3.8c0-5.5,1.6-10.6,4.8-15.1
			c0.2-0.2,0.3-0.5,0.4-0.7c-0.3-0.2-0.5-0.3-0.8-0.5c-5.5-2.6-11-2.5-16.2,0.8c-4.3,2.8-6.8,6.8-7.2,12c-0.2,2-0.1,4.1-0.1,6.1
			c0,0.9,0.4,1.2,1.2,1.2c0.2,0,0.3,0,0.5,0c5.4,0,10.8,0,16.2,0C23,87.9,23.3,87.9,23.8,87.9z"/>
		<path class="st0" d="M49.5,32.1c8.3,0,14.4,6.8,14.3,14.2c0,7.7-6.4,14.2-14.4,14.2c-8,0-14.4-6.4-14.3-14.3
			C35.2,38.4,41.6,32.1,49.5,32.1z M49.5,35.1c-6.3,0-11.4,5-11.4,11.2c0.1,6.7,5.5,11.2,11.3,11.2c6.3,0,11.4-5,11.4-11.1
			C60.8,40.2,55.8,35.2,49.5,35.1z"/>
		<path class="st0" d="M32,53.7c0.1,5.7-4.5,11-11.1,11.1c-6.4,0-11.1-5.1-11.2-10.9c-0.1-6.1,4.9-11.2,11.1-11.2
			C27.3,42.7,32,47.9,32,53.7z M20.8,61.7c4.5,0,8.1-3.6,8.1-8c0-4.4-3.6-8-8.1-8c-4.5,0-8.2,3.6-8.2,8
			C12.7,58.4,16.6,61.7,20.8,61.7z"/>
		<path class="st0" d="M68.1,52.9c0-6.1,5.1-11,11.2-11c6.2,0,11.2,5,11.1,11.2c-0.1,5.7-4.7,10.9-11.2,10.9
			C73.1,64,68.1,59,68.1,52.9z M79.2,60.9c4.1,0.1,8.1-3.2,8.2-8c0-4.4-3.6-8-8.1-8c-4.5,0-8.2,3.6-8.2,8
			C71.1,57.4,74.7,60.9,79.2,60.9z"/>
	</g>
</g>
</svg>
