<?xml version="1.0" encoding="utf-8"?>
<!-- Generator: Adobe Illustrator 28.0.0, SVG Export Plug-In . SVG Version: 6.00 Build 0)  -->
<svg version="1.1" id="Capa_1" xmlns="http://www.w3.org/2000/svg" xmlns:xlink="http://www.w3.org/1999/xlink" x="0px" y="0px"
	 viewBox="0 0 100 100" style="enable-background:new 0 0 100 100;" xml:space="preserve">
<style type="text/css">
	.st0{fill:#FFCC4E;}
</style>
<g id="xSOobn.tif">
	<g>
		<path class="st0" d="M1.9,76.8c0-1.7,0.3-3.4,0.8-5c1-2.9,2.6-5.5,4.1-8.1c1.8-3.1,3.6-6.2,5.4-9.3c7.6-13.1,15.1-26.1,22.6-39.2
			c2.7-4.8,6.7-7.8,12.2-8.8c6.2-1.2,13.5,1.6,16.8,7c3.6,5.7,6.9,11.6,10.2,17.5c7.1,12.3,14.2,24.6,21.3,36.9
			c2.3,4,3.2,8.2,2.2,12.7c-1.7,7.9-8.6,13.5-17,13.5c-20.5,0-41,0-61.5,0c-1.9,0-3.9-0.3-5.7-1c-6.1-2.1-9.7-6.5-11.2-12.7
			c0,0,0,0,0,0C2.1,79.1,1.9,78,1.9,76.8L1.9,76.8z M49.9,86.2c10.1,0,20.3,0,30.4,0c2.9,0,5.4-0.8,7.4-3c3-3.2,3.4-7.5,1.1-11.5
			c-8.2-14.1-16.3-28.3-24.5-42.4c-2.2-3.8-4.3-7.7-6.7-11.4c-2-3.1-5-4.4-8.6-4c-3.3,0.3-5.7,2.1-7.4,5c-8,13.9-16,27.7-24,41.6
			c-2.4,4.1-4.8,8.1-7,12.3C9,75.9,9.4,79.1,11.3,82c1.9,3,4.8,4.2,8.3,4.2C29.7,86.2,39.8,86.2,49.9,86.2z"/>
		<path class="st0" d="M54.9,39.1c-0.4,6.5-0.8,13-1.1,19.6c-0.1,0.9,0,1.8-0.2,2.7c-0.3,1.8-1.8,3.1-3.6,3c-1.8,0-3.4-1.2-3.6-3.1
			c-0.3-2.5-0.4-5-0.5-7.5c-0.3-5-0.6-9.9-0.9-14.9c-0.3-4,3.1-6.9,6.6-5.7c1.9,0.7,3.2,2.3,3.3,4.3C54.9,38.1,54.9,38.6,54.9,39.1z
			"/>
		<path class="st0" d="M45.2,72c0.4-2.3,2.4-4.1,4.7-4.1c3-0.1,5.3,2.5,4.9,5.7c-0.2,1.8-1.4,3.2-3.1,3.8
			C48.1,78.7,44.6,75.6,45.2,72z"/>
	</g>
</g>
</svg>
